<?xml version="1.0" encoding="UTF-8" standalone="no"?>
<!-- Created with Inkscape (http://www.inkscape.org/) -->

<svg
   xmlns:dc="http://purl.org/dc/elements/1.1/"
   xmlns:cc="http://creativecommons.org/ns#"
   xmlns:rdf="http://www.w3.org/1999/02/22-rdf-syntax-ns#"
   xmlns:svg="http://www.w3.org/2000/svg"
   xmlns="http://www.w3.org/2000/svg"
   xmlns:sodipodi="http://sodipodi.sourceforge.net/DTD/sodipodi-0.dtd"
   xmlns:inkscape="http://www.inkscape.org/namespaces/inkscape"
   width="287mm"
   height="83.419731mm"
   viewBox="0 0 287 83.419731"
   version="1.1"
   id="svg1398"
   inkscape:version="0.92.3 (2405546, 2018-03-11)"
   sodipodi:docname="Back kapton tape etching first try.svg"
   inkscape:export-filename="C:\Users\Arjun Oberoi\Documents\DS Input Reader\copper traces v3.png"
   inkscape:export-xdpi="2000"
   inkscape:export-ydpi="2000"
   enable-background="new">
  <defs
     id="defs1392">
    <mask
       maskUnits="userSpaceOnUse"
       id="mask1734">
      <rect
         style="opacity:1;fill:#ffffff;fill-opacity:1;fill-rule:nonzero;stroke:#ffffff;stroke-width:10.65793419;stroke-linejoin:miter;stroke-miterlimit:4;stroke-dasharray:none;stroke-dashoffset:0;stroke-opacity:1"
         id="rect1736"
         width="215.6176"
         height="77.735138"
         x="58.661999"
         y="5.2850575" />
    </mask>
  </defs>
  <sodipodi:namedview
     id="base"
     pagecolor="#ffffff"
     bordercolor="#666666"
     borderopacity="1.0"
     inkscape:pageopacity="0.0"
     inkscape:pageshadow="2"
     inkscape:zoom="1.4142136"
     inkscape:cx="468.87885"
     inkscape:cy="181.77325"
     inkscape:document-units="mm"
     inkscape:current-layer="g1856"
     showgrid="false"
     fit-margin-top="0"
     fit-margin-left="0"
     fit-margin-right="0"
     fit-margin-bottom="0"
     inkscape:window-width="1920"
     inkscape:window-height="1057"
     inkscape:window-x="-8"
     inkscape:window-y="-8"
     inkscape:window-maximized="1"
     inkscape:measure-start="628.596,62.6452"
     inkscape:measure-end="628.596,61.673"
     inkscape:snap-midpoints="true"
     inkscape:snap-object-midpoints="true"
     inkscape:snap-center="true"
     inkscape:lockguides="true" />
  <metadata
     id="metadata1395">
    <rdf:RDF>
      <cc:Work
         rdf:about="">
        <dc:format>image/svg+xml</dc:format>
        <dc:type
           rdf:resource="http://purl.org/dc/dcmitype/StillImage" />
        <dc:title />
      </cc:Work>
    </rdf:RDF>
  </metadata>
  <g
     style="display:inline"
     inkscape:label="mirrored kapton tape"
     id="g1856"
     inkscape:groupmode="layer"
     sodipodi:insensitive="true">
    <ellipse
       ry="0.67868346"
       rx="0.67856425"
       cy="53.0802"
       cx="-171.94035"
       id="ellipse1738"
       style="opacity:1;fill:none;fill-opacity:1;stroke:#00ff00;stroke-width:0.1;stroke-linejoin:miter;stroke-miterlimit:4;stroke-dasharray:none;stroke-dashoffset:0;stroke-opacity:1"
       transform="scale(-1,1)" />
    <ellipse
       ry="0.67868346"
       rx="0.67856425"
       cy="53.069656"
       cx="-169.41644"
       id="ellipse1740"
       style="opacity:1;fill:none;fill-opacity:1;stroke:#00ff00;stroke-width:0.1;stroke-linejoin:miter;stroke-miterlimit:4;stroke-dasharray:none;stroke-dashoffset:0;stroke-opacity:1"
       transform="scale(-1,1)" />
    <ellipse
       ry="0.67868346"
       rx="0.67856425"
       cy="54.343319"
       cx="-168.13918"
       id="ellipse1742"
       style="opacity:1;fill:none;fill-opacity:1;stroke:#00ff00;stroke-width:0.1;stroke-linejoin:miter;stroke-miterlimit:4;stroke-dasharray:none;stroke-dashoffset:0;stroke-opacity:1"
       transform="scale(-1,1)" />
    <ellipse
       ry="0.67868346"
       rx="0.67856425"
       cy="54.349358"
       cx="-170.68303"
       id="ellipse1744"
       style="opacity:1;fill:none;fill-opacity:1;stroke:#00ff00;stroke-width:0.1;stroke-linejoin:miter;stroke-miterlimit:4;stroke-dasharray:none;stroke-dashoffset:0;stroke-opacity:1"
       transform="scale(-1,1)" />
    <path
       style="fill:none;stroke:#ffff00;stroke-width:0.1;stroke-linecap:butt;stroke-linejoin:miter;stroke-miterlimit:4;stroke-dasharray:none;stroke-opacity:0.99832524"
       d="m 49.88643,24.602327 c 1.97705,-2.482274 0.82581,-2.43023 -0.0765,-4.279432 -0.55673,-1.140979 -0.19312,-3.193516 -1.18028,-8.307591 1.39319,-0.802128 4.73771,-2.847456 5.97868,-4.3370864 l 74.22887,-0.094685 c 8.38002,-0.01481 18.32038,2.2235644 27.47729,-0.5577922 2.89736,-0.4666712 5.95378,-1.7567193 8.53645,0.122207 0.35242,0.2563942 -0.23347,1.2717906 0.13979,1.6261586 l 2.80633,1.964431 8.13835,-0.0095 v 3.56417 l 1.83994,0.02863 c 0.25449,0.05078 0.52983,0.02335 0.61443,0.711214 l 0.048,9.011999 14.59028,0.492216 2.13299,-0.264148 12.44117,-5.019074 6.33436,0.06248 8.8411,-9.871326 18.60594,-0.450156 6.36527,-4.8289508 10.96522,0.03529 c 0,0 6.07422,3.9637222 6.60285,3.9633954 5.03861,-0.00311 9.94176,-0.00632 14.58316,-0.00632 V 37.299548 l -41.60985,0.363802 c -4.69013,1.453754 -9.54246,4.286703 -13.51431,6.664192 l -19.36368,23.250605 h -1.20768 l -10.2526,8.565885 -8.58097,-8.565885 h -6.31749 c -0.29785,0 -0.52969,0.156957 -0.5456,0.512039 l -0.2129,4.710301 c -0.18162,2.248014 -1.18863,5.002349 -5.80734,5.889816 l -26.82607,0.07238 c -0.0646,-9.226366 -7.88514,-12.583281 -9.32256,-1.07876 l -24.34733,0.474 -0.0934,-2.34533 c -1.02682,-1.322618 -3.86747,-2.11993 -5.62271,0.198769 l -0.0194,1.808636 c -13.07144,-2.58224 -24.17115,-8.048316 -34.96064,-4.610511 -1.31018,0.417455 -2.24723,-6.24732 -2.92887,-6.955942 -0.5976,-0.621247 -1.48661,-0.283924 -1.60393,-0.953348 l -0.48858,-2.787631 -2.51681,0.14805 0.11173,-2.062985 -4.37819,-0.01478 -0.0184,-2.990327 H 57.73029 L 56.99363,55.9555 54.89681,55.93611 54.77192,54.868052 C 50.60037,54.608691 45.21086,54.37307 44.87898,51.872737 44.83468,51.539321 44.29766,51.46164 40.35941,50.93023 l 0.0382,-7.140677 C 39.80414,40.613159 36.8751,23.613943 49.88634,24.602322 Z m 18.61269,25.869766 c -1.29419,-0.314189 -4.79122,0.189736 -5.21223,0.07451 -1.95986,-0.536421 -3.84605,0.546599 -3.97269,0.981807 -0.37069,1.273905 -0.42312,2.429882 0.61441,3.971102 l 3.04933,0.46573 0.69247,1.943039 c 0,0 3.733,0.0183 4.7479,-0.07611 l 0.71643,3.693305 h 4.74367 l 0.31011,-3.071223 c -0.0252,-3.557977 3.91916,-7.274735 -0.0755,-10.673931 -1.44769,0.268251 -1.6754,-1.275029 -5.6139,2.69178 z"
       id="path1746"
       inkscape:connector-curvature="0"
       sodipodi:nodetypes="csccccscccccccccccccccsccccccccscccccccccssscccccccccscccccsccccccccccc" />
    <rect
       y="17.469301"
       x="-71.266083"
       height="3.2649133"
       width="1.7435112"
       id="rect1748"
       style="opacity:1;fill:none;fill-opacity:1;stroke:#ffff00;stroke-width:0.1;stroke-linejoin:miter;stroke-miterlimit:4;stroke-dasharray:none;stroke-dashoffset:0;stroke-opacity:0.99832524"
       transform="scale(-1,1)" />
    <rect
       y="20.62735"
       x="-57.576778"
       height="2.8786526"
       width="3.1411703"
       id="rect1750"
       style="opacity:1;fill:none;fill-opacity:1;stroke:#ffff00;stroke-width:0.1;stroke-linejoin:miter;stroke-miterlimit:4;stroke-dasharray:none;stroke-dashoffset:0;stroke-opacity:0.99832524"
       transform="scale(-1,1)" />
    <circle
       style="opacity:1;fill:none;fill-opacity:0.4070352;stroke:#ffff00;stroke-width:0.1;stroke-linejoin:miter;stroke-miterlimit:4;stroke-dasharray:none;stroke-dashoffset:0;stroke-opacity:0.99832524"
       id="circle1752"
       cx="-71.189468"
       cy="44.042286"
       r="1.2939779"
       transform="scale(-1,1)" />
    <rect
       y="52.942917"
       x="-164.11993"
       height="2.1600533"
       width="1.4671655"
       id="rect1754"
       style="opacity:1;fill:none;fill-opacity:1;stroke:#ffff00;stroke-width:0.1;stroke-linejoin:miter;stroke-miterlimit:4;stroke-dasharray:none;stroke-dashoffset:0;stroke-opacity:0.99832524"
       transform="scale(-1,1)" />
    <ellipse
       ry="0.67868346"
       rx="0.67856425"
       cy="41.046238"
       cx="-162.41934"
       id="ellipse1756"
       style="display:inline;opacity:1;fill:none;fill-opacity:1;stroke:#00ff00;stroke-width:0.1;stroke-linejoin:miter;stroke-miterlimit:4;stroke-dasharray:none;stroke-dashoffset:0;stroke-opacity:1"
       transform="scale(-1,1)" />
    <ellipse
       ry="0.67868346"
       rx="0.67856425"
       cy="35.317535"
       cx="-168.11852"
       id="ellipse1758"
       style="display:inline;opacity:1;fill:none;fill-opacity:1;stroke:#00ff00;stroke-width:0.1;stroke-linejoin:miter;stroke-miterlimit:4;stroke-dasharray:none;stroke-dashoffset:0;stroke-opacity:1"
       transform="scale(-1,1)" />
    <ellipse
       ry="0.67868346"
       rx="0.67856425"
       cy="25.161011"
       cx="-163.06004"
       id="ellipse1760"
       style="display:inline;opacity:1;fill:none;fill-opacity:1;stroke:#00ff00;stroke-width:0.1;stroke-linejoin:miter;stroke-miterlimit:4;stroke-dasharray:none;stroke-dashoffset:0;stroke-opacity:1"
       transform="scale(-1,1)" />
    <ellipse
       ry="0.67868346"
       rx="0.67856425"
       cy="37.219696"
       cx="-152.89082"
       id="ellipse1762"
       style="display:inline;opacity:1;fill:none;fill-opacity:1;stroke:#00ff00;stroke-width:0.1;stroke-linejoin:miter;stroke-miterlimit:4;stroke-dasharray:none;stroke-dashoffset:0;stroke-opacity:1"
       transform="scale(-1,1)" />
    <ellipse
       ry="0.67868346"
       rx="0.67856425"
       cy="13.746317"
       cx="-150.35068"
       id="ellipse1764"
       style="display:inline;opacity:1;fill:none;fill-opacity:1;stroke:#00ff00;stroke-width:0.1;stroke-linejoin:miter;stroke-miterlimit:4;stroke-dasharray:none;stroke-dashoffset:0;stroke-opacity:1"
       transform="scale(-1,1)" />
    <ellipse
       ry="0.67868346"
       rx="0.67856425"
       cy="9.9535284"
       cx="-161.7876"
       id="ellipse1766"
       style="display:inline;opacity:1;fill:none;fill-opacity:1;stroke:#00ff00;stroke-width:0.1;stroke-linejoin:miter;stroke-miterlimit:4;stroke-dasharray:none;stroke-dashoffset:0;stroke-opacity:1"
       transform="scale(-1,1)" />
    <ellipse
       ry="0.67868346"
       rx="0.67856425"
       cy="28.904512"
       cx="-86.167023"
       id="ellipse1768"
       style="display:inline;opacity:1;fill:none;fill-opacity:1;stroke:#00ff00;stroke-width:0.1;stroke-linejoin:miter;stroke-miterlimit:4;stroke-dasharray:none;stroke-dashoffset:0;stroke-opacity:1"
       transform="scale(-1,1)" />
    <ellipse
       ry="0.67868346"
       rx="0.67856425"
       cy="28.912865"
       cx="-84.262726"
       id="ellipse1770"
       style="display:inline;opacity:1;fill:none;fill-opacity:1;stroke:#00ff00;stroke-width:0.1;stroke-linejoin:miter;stroke-miterlimit:4;stroke-dasharray:none;stroke-dashoffset:0;stroke-opacity:1"
       transform="scale(-1,1)" />
    <ellipse
       ry="0.67868346"
       rx="0.67856425"
       cy="32.698277"
       cx="-57.592953"
       id="ellipse1772"
       style="display:inline;opacity:1;fill:none;fill-opacity:1;stroke:#00ff00;stroke-width:0.1;stroke-linejoin:miter;stroke-miterlimit:4;stroke-dasharray:none;stroke-dashoffset:0;stroke-opacity:1"
       transform="scale(-1,1)" />
    <ellipse
       ry="0.67868346"
       rx="0.67856425"
       cy="40.287331"
       cx="-56.004269"
       id="ellipse1774"
       style="display:inline;opacity:1;fill:none;fill-opacity:1;stroke:#00ff00;stroke-width:0.1;stroke-linejoin:miter;stroke-miterlimit:4;stroke-dasharray:none;stroke-dashoffset:0;stroke-opacity:1"
       transform="scale(-1,1)" />
    <ellipse
       ry="0.67868346"
       rx="0.67856425"
       cy="14.930489"
       cx="-51.188137"
       id="ellipse1776"
       style="display:inline;opacity:1;fill:none;fill-opacity:1;stroke:#00ff00;stroke-width:0.1;stroke-linejoin:miter;stroke-miterlimit:4;stroke-dasharray:none;stroke-dashoffset:0;stroke-opacity:1"
       transform="scale(-1,1)" />
    <ellipse
       ry="0.67868346"
       rx="0.67856425"
       cy="14.617378"
       cx="-53.755184"
       id="ellipse1778"
       style="display:inline;opacity:1;fill:none;fill-opacity:1;stroke:#00ff00;stroke-width:0.1;stroke-linejoin:miter;stroke-miterlimit:4;stroke-dasharray:none;stroke-dashoffset:0;stroke-opacity:1"
       transform="scale(-1,1)" />
    <ellipse
       ry="0.67868346"
       rx="0.67856425"
       cy="42.175922"
       cx="-47.772396"
       id="ellipse1780"
       style="display:inline;opacity:1;fill:none;fill-opacity:1;stroke:#00ff00;stroke-width:0.1;stroke-linejoin:miter;stroke-miterlimit:4;stroke-dasharray:none;stroke-dashoffset:0;stroke-opacity:1"
       transform="scale(-1,1)" />
    <path
       sodipodi:nodetypes="cccccccccccccccccccccc"
       inkscape:connector-curvature="0"
       id="path1782"
       d="m 149.01871,64.167687 c -0.0627,-0.01562 -0.16617,-0.07229 -0.2297,-0.125958 -0.18161,-0.153407 -0.19052,-0.520256 -0.19245,-1.821924 -0.003,-1.837556 0.005,-8.583654 0.0106,-9.421929 0.003,-0.424126 0.008,-1.376835 0.0129,-2.117131 0.008,-1.472201 0.007,-1.461608 0.18711,-1.616145 0.12682,-0.108704 0.54009,-0.14384 1.58575,-0.134801 0.46186,0.0044 0.94098,0.0058 1.0647,0.005 1.46726,-0.01519 4.50739,-0.0011 4.57188,0.02189 0.13215,0.047 0.33855,0.22233 0.35773,0.303929 0.0167,0.07207 0.0256,0.364251 0.0611,1.995045 0.0188,0.876799 0.02,1.441982 0.01,5.047462 -0.0103,3.379864 -0.0314,2.620593 0.25039,2.743202 0.15285,0.06654 -0.0358,0.07123 0.76935,0.09835 0.7696,0.02592 0.85467,0.03364 0.94522,0.08599 0.13071,0.07553 0.22079,0.170582 0.24383,0.257305 0.0103,0.03855 0.0193,1.339489 0.0199,2.293797 9e-4,1.94643 0.0124,2.143435 -0.22021,2.31662 l -0.11505,0.08579 -0.60473,0.01416 c -1.10767,0.02594 -8.60496,-3.39e-4 -8.72663,-0.03059 z"
       style="display:inline;fill:none;stroke:#ffff00;stroke-width:0.1;stroke-miterlimit:4;stroke-dasharray:none;stroke-opacity:0.99832524" />
    <rect
       y="55.388805"
       x="-160.84277"
       height="2.3459299"
       width="1.6771287"
       id="rect1784"
       style="display:inline;opacity:1;fill:none;fill-opacity:1;stroke:#ffff00;stroke-width:0.1;stroke-linejoin:miter;stroke-miterlimit:4;stroke-dasharray:none;stroke-dashoffset:0;stroke-opacity:0.99832524"
       transform="scale(-1,1)" />
    <rect
       y="55.708439"
       x="-168.50742"
       height="2.052999"
       width="1.7446067"
       id="rect1786"
       style="display:inline;opacity:1;fill:none;fill-opacity:1;stroke:#ffff00;stroke-width:0.1;stroke-linejoin:miter;stroke-miterlimit:4;stroke-dasharray:none;stroke-dashoffset:0;stroke-opacity:0.99832524"
       transform="scale(-1,1)" />
    <rect
       y="60.053726"
       x="-173.37596"
       height="1.3726603"
       width="2.4876201"
       id="rect1788"
       style="display:inline;opacity:1;fill:none;fill-opacity:1;stroke:#ffff00;stroke-width:0.1;stroke-linejoin:miter;stroke-miterlimit:4;stroke-dasharray:none;stroke-dashoffset:0;stroke-opacity:0.99832524"
       transform="scale(-1,1)" />
    <rect
       y="14.582361"
       x="-167.2623"
       height="3.4324324"
       width="3.4324324"
       id="rect1790"
       style="display:inline;opacity:1;fill:none;fill-opacity:1;stroke:#ffff00;stroke-width:0.1;stroke-linejoin:miter;stroke-miterlimit:4;stroke-dasharray:none;stroke-dashoffset:0;stroke-opacity:0.99832524"
       transform="scale(-1,1)" />
    <rect
       y="14.533262"
       x="-60.306149"
       height="3.3435433"
       width="3.4209728"
       id="rect1792"
       style="display:inline;opacity:1;fill:none;fill-opacity:1;stroke:#ffff00;stroke-width:0.1;stroke-linejoin:miter;stroke-miterlimit:4;stroke-dasharray:none;stroke-dashoffset:0;stroke-opacity:0.99832524"
       transform="scale(-1,1)" />
    <circle
       style="opacity:1;fill:none;fill-opacity:0.4070352;stroke:#ffff00;stroke-width:0.1;stroke-linejoin:miter;stroke-miterlimit:4;stroke-dasharray:none;stroke-dashoffset:0;stroke-opacity:0.99832524"
       id="circle1794"
       cx="-211.81963"
       cy="28.60964"
       r="1.5760028"
       transform="scale(-1,1)" />
    <circle
       style="opacity:1;fill:none;fill-opacity:0.4070352;stroke:#ffff00;stroke-width:0.1;stroke-linejoin:miter;stroke-miterlimit:4;stroke-dasharray:none;stroke-dashoffset:0;stroke-opacity:0.99832524"
       id="circle1796"
       cx="-151.67813"
       cy="28.655199"
       r="1.3230413"
       transform="scale(-1,1)" />
    <circle
       style="opacity:1;fill:none;fill-opacity:0.4070352;stroke:#ffff00;stroke-width:0.1;stroke-linejoin:miter;stroke-miterlimit:4;stroke-dasharray:none;stroke-dashoffset:0;stroke-opacity:0.99832524"
       id="circle1798"
       cx="-109.16051"
       cy="70.549034"
       r="1.2107482"
       transform="scale(-1,1)" />
    <path
       sodipodi:nodetypes="cccccccccccccccccscsccccccccc"
       inkscape:connector-curvature="0"
       id="path1800"
       d="m 169.1289,70.587554 c -0.3519,-0.09 -0.61969,-0.245956 -0.89737,-0.522612 -0.40232,-0.400827 -0.5789,-0.784266 -0.60604,-1.315974 -0.0245,-0.480916 0.084,-0.910653 0.31962,-1.265113 0.28516,-0.429036 0.7794,-0.769513 1.26142,-0.868982 0.34083,-0.07033 0.5289,-0.07235 0.8413,-0.0091 0.30824,0.06246 0.44738,0.123033 0.72782,0.316842 0.97583,0.674406 1.16623,2.068609 0.40804,2.987803 -0.26884,0.325919 -0.7184,0.602451 -1.12167,0.689955 -0.28324,0.06146 -0.663,0.05622 -0.93312,-0.01286 z m -0.49581,-46.105442 c -0.20451,-0.108606 -0.57854,-0.485799 -0.72288,-0.728983 -0.0597,-0.100589 -0.14648,-0.293361 -0.19284,-0.428382 -0.0772,-0.224928 -0.0841,-0.280502 -0.0827,-0.663403 0.001,-0.360436 0.0111,-0.444596 0.0713,-0.611941 0.1877,-0.521663 0.46932,-0.89204 0.82828,-1.089352 0.162,-0.08905 0.24684,-0.114481 0.45496,-0.136389 0.34693,-0.03652 1.39417,-0.03483 1.52845,0.0025 0.1013,0.02814 0.38748,0.216045 0.6191,0.406509 0.13673,0.112435 0.30319,0.34102 0.43306,0.594692 0.10059,0.196473 0.12849,0.308879 0.20995,0.845719 0.0261,0.171729 -0.0421,0.482036 -0.15622,0.710886 -0.0638,0.127946 -0.14114,0.299581 -0.17189,0.381411 -0.0762,0.202738 -0.40253,0.54313 -0.64662,0.674455 -0.22953,0.123492 -0.42984,0.143305 -1.36599,0.135114 l -0.64179,-0.0056 -0.16418,-0.08719 z"
       style="display:inline;fill:none;stroke:#ffff00;stroke-width:0.1;stroke-miterlimit:4;stroke-dasharray:none;stroke-opacity:0.99832524" />
    <circle
       r="1.9356858"
       cy="37.717571"
       cx="-157.61977"
       id="circle1802"
       style="opacity:1;fill:none;fill-opacity:1;stroke:#ffff00;stroke-width:0.1;stroke-linejoin:miter;stroke-miterlimit:4;stroke-dasharray:none;stroke-dashoffset:0;stroke-opacity:0.99832524"
       transform="scale(-1,1)" />
    <circle
       r="1.9356856"
       cy="37.588936"
       cx="-173.422"
       id="circle1804"
       style="opacity:1;fill:none;fill-opacity:1;stroke:#ffff00;stroke-width:0.1;stroke-linejoin:miter;stroke-miterlimit:4;stroke-dasharray:none;stroke-dashoffset:0;stroke-opacity:0.99832524"
       transform="scale(-1,1)" />
    <circle
       r="1.9356856"
       cy="29.821581"
       cx="-165.5753"
       id="circle1806"
       style="opacity:1;fill:none;fill-opacity:1;stroke:#ffff00;stroke-width:0.1;stroke-linejoin:miter;stroke-miterlimit:4;stroke-dasharray:none;stroke-dashoffset:0;stroke-opacity:0.99832524"
       transform="scale(-1,1)" />
    <circle
       r="1.9582403"
       cy="45.517361"
       cx="-165.47754"
       id="circle1808"
       style="opacity:1;fill:none;fill-opacity:1;stroke:#ffff00;stroke-width:0.1;stroke-linejoin:miter;stroke-miterlimit:4;stroke-dasharray:none;stroke-dashoffset:0;stroke-opacity:0.99832524"
       transform="scale(-1,1)" />
    <ellipse
       ry="1.6902329"
       rx="1.6641663"
       cy="37.597202"
       cx="-165.44316"
       id="ellipse1810"
       style="display:inline;opacity:1;fill:none;fill-opacity:1;stroke:#ffff00;stroke-width:0.1;stroke-linejoin:miter;stroke-miterlimit:4;stroke-dasharray:none;stroke-dashoffset:0;stroke-opacity:0.99832524"
       transform="scale(-1,1)" />
    <circle
       r="1.913131"
       cy="29.74036"
       cx="-52.744778"
       id="circle1812"
       style="opacity:1;fill:none;fill-opacity:1;stroke:#ffff00;stroke-width:0.1;stroke-linejoin:miter;stroke-miterlimit:4;stroke-dasharray:none;stroke-dashoffset:0;stroke-opacity:0.99832524"
       transform="scale(-1,1)" />
    <circle
       r="1.9233319"
       cy="37.574066"
       cx="-60.712124"
       id="circle1814"
       style="opacity:1;fill:none;fill-opacity:1;stroke:#ffff00;stroke-width:0.1;stroke-linejoin:miter;stroke-miterlimit:4;stroke-dasharray:none;stroke-dashoffset:0;stroke-opacity:0.99832524"
       transform="scale(-1,1)" />
    <circle
       r="1.9357064"
       cy="45.513641"
       cx="-52.772518"
       id="circle1816"
       style="opacity:1;fill:none;fill-opacity:1;stroke:#ffff00;stroke-width:0.1;stroke-linejoin:miter;stroke-miterlimit:4;stroke-dasharray:none;stroke-dashoffset:0;stroke-opacity:0.99832524"
       transform="scale(-1,1)" />
    <circle
       r="1.9582403"
       cy="37.606907"
       cx="-44.874752"
       id="circle1818"
       style="opacity:1;fill:none;fill-opacity:1;stroke:#ffff00;stroke-width:0.1;stroke-linejoin:miter;stroke-miterlimit:4;stroke-dasharray:none;stroke-dashoffset:0;stroke-opacity:0.99832524"
       transform="scale(-1,1)" />
    <path
       sodipodi:nodetypes="ccccccccccc"
       inkscape:connector-curvature="0"
       id="path1820"
       d="m 193.14869,70.640869 c -0.3519,-0.09 -0.61969,-0.24595 -0.89737,-0.52261 -0.40232,-0.40083 -0.5789,-0.78427 -0.60604,-1.31597 -0.0245,-0.48092 0.084,-0.91066 0.31962,-1.26512 0.28516,-0.42903 0.7794,-0.76951 1.26142,-0.86898 0.34083,-0.0703 0.5289,-0.0724 0.8413,-0.009 0.30824,0.0625 0.44738,0.12303 0.72782,0.31684 0.97583,0.67441 1.16623,2.06861 0.40804,2.98781 -0.26884,0.32591 -0.7184,0.60245 -1.12167,0.68995 -0.28324,0.0615 -0.663,0.0562 -0.93312,-0.0129 z"
       style="display:inline;fill:none;stroke:#ffff00;stroke-width:0.1;stroke-miterlimit:4;stroke-dasharray:none;stroke-opacity:0.99832524" />
  </g>
</svg>
