%TF.GenerationSoftware,KiCad,Pcbnew,(5.1.6)-1*%
%TF.CreationDate,2020-06-22T12:01:02-04:00*%
%TF.ProjectId,Aligned mobo,416c6967-6e65-4642-906d-6f626f2e6b69,rev?*%
%TF.SameCoordinates,Original*%
%TF.FileFunction,Soldermask,Top*%
%TF.FilePolarity,Negative*%
%FSLAX46Y46*%
G04 Gerber Fmt 4.6, Leading zero omitted, Abs format (unit mm)*
G04 Created by KiCad (PCBNEW (5.1.6)-1) date 2020-06-22 12:01:02*
%MOMM*%
%LPD*%
G01*
G04 APERTURE LIST*
%ADD10C,0.010000*%
%ADD11C,1.238240*%
G04 APERTURE END LIST*
D10*
%TO.C,G\u002A\u002A\u002A*%
G36*
X117009333Y-34798000D02*
G01*
X-117009333Y-34798000D01*
X-117009333Y-14176857D01*
X-8271219Y-14176857D01*
X-8254914Y-14325763D01*
X-8247674Y-14352756D01*
X-8188585Y-14485533D01*
X-8100315Y-14592881D01*
X-7989452Y-14672015D01*
X-7862583Y-14720150D01*
X-7726297Y-14734500D01*
X-7587181Y-14712281D01*
X-7490512Y-14672887D01*
X-7371786Y-14589749D01*
X-7284431Y-14485167D01*
X-7228442Y-14365725D01*
X-7203809Y-14238012D01*
X-7206051Y-14194814D01*
X-5729757Y-14194814D01*
X-5713357Y-14325532D01*
X-5664842Y-14448574D01*
X-5585853Y-14557722D01*
X-5478031Y-14646753D01*
X-5343017Y-14709450D01*
X-5334137Y-14712223D01*
X-5211336Y-14729154D01*
X-5070201Y-14712418D01*
X-5018383Y-14698848D01*
X-4896093Y-14641916D01*
X-4796237Y-14554691D01*
X-4721774Y-14444468D01*
X-4675662Y-14318541D01*
X-4660858Y-14184204D01*
X-4680319Y-14048751D01*
X-4716870Y-13955295D01*
X-4800401Y-13833592D01*
X-4906779Y-13743108D01*
X-5029290Y-13684918D01*
X-5161218Y-13660097D01*
X-5295848Y-13669718D01*
X-5426467Y-13714856D01*
X-5546360Y-13796586D01*
X-5569857Y-13818809D01*
X-5659649Y-13935233D01*
X-5712402Y-14062641D01*
X-5729757Y-14194814D01*
X-7206051Y-14194814D01*
X-7210525Y-14108613D01*
X-7248582Y-13984114D01*
X-7317972Y-13871102D01*
X-7418686Y-13776164D01*
X-7491649Y-13731875D01*
X-7630701Y-13683235D01*
X-7774346Y-13672578D01*
X-7914175Y-13699003D01*
X-8041777Y-13761605D01*
X-8086557Y-13795756D01*
X-8185511Y-13906565D01*
X-8247575Y-14035361D01*
X-8271219Y-14176857D01*
X-117009333Y-14176857D01*
X-117009333Y-12925134D01*
X-9523671Y-12925134D01*
X-9515435Y-13046029D01*
X-9501815Y-13110740D01*
X-9468007Y-13180730D01*
X-9408340Y-13259600D01*
X-9334048Y-13335828D01*
X-9256364Y-13397891D01*
X-9186522Y-13434268D01*
X-9186333Y-13434327D01*
X-9081297Y-13454457D01*
X-8960285Y-13458350D01*
X-8846544Y-13445703D01*
X-8818992Y-13439108D01*
X-8739739Y-13401967D01*
X-8654629Y-13338249D01*
X-8576319Y-13259451D01*
X-8517465Y-13177067D01*
X-8506270Y-13155083D01*
X-8477535Y-13055803D01*
X-8467516Y-12937152D01*
X-8469904Y-12904360D01*
X-7003534Y-12904360D01*
X-6993865Y-13032172D01*
X-6954357Y-13154317D01*
X-6884166Y-13264153D01*
X-6782447Y-13355037D01*
X-6755723Y-13371847D01*
X-6628656Y-13432366D01*
X-6508164Y-13456842D01*
X-6381522Y-13446909D01*
X-6310247Y-13429055D01*
X-6183419Y-13371227D01*
X-6081123Y-13284638D01*
X-6005184Y-13176262D01*
X-5957431Y-13053067D01*
X-5939691Y-12922025D01*
X-5953791Y-12790108D01*
X-6001559Y-12664285D01*
X-6081198Y-12555270D01*
X-6199241Y-12460544D01*
X-6332827Y-12404454D01*
X-6478165Y-12387979D01*
X-6631462Y-12412097D01*
X-6633834Y-12412782D01*
X-6760699Y-12469292D01*
X-6861946Y-12553347D01*
X-6936730Y-12658305D01*
X-6984207Y-12777523D01*
X-7003534Y-12904360D01*
X-8469904Y-12904360D01*
X-8476213Y-12817729D01*
X-8503624Y-12716137D01*
X-8506271Y-12710113D01*
X-8584738Y-12585043D01*
X-8690618Y-12490932D01*
X-8820090Y-12430166D01*
X-8969334Y-12405128D01*
X-8995833Y-12404596D01*
X-9147998Y-12423454D01*
X-9281027Y-12478437D01*
X-9391100Y-12567162D01*
X-9474396Y-12687243D01*
X-9485396Y-12710113D01*
X-9513413Y-12807195D01*
X-9523671Y-12925134D01*
X-117009333Y-12925134D01*
X-117009333Y-2021417D01*
X114501278Y-2021417D01*
X114502934Y-2120512D01*
X114510064Y-2192519D01*
X114525551Y-2252601D01*
X114552277Y-2315923D01*
X114560480Y-2332872D01*
X114649570Y-2468902D01*
X114766103Y-2576926D01*
X114903840Y-2654586D01*
X115056542Y-2699519D01*
X115217970Y-2709368D01*
X115381885Y-2681770D01*
X115435663Y-2663967D01*
X115560309Y-2597421D01*
X115675338Y-2498741D01*
X115769926Y-2378107D01*
X115803738Y-2317750D01*
X115844043Y-2195949D01*
X115859694Y-2054953D01*
X115850778Y-1909920D01*
X115817381Y-1776009D01*
X115800446Y-1735667D01*
X115708943Y-1590883D01*
X115586699Y-1473602D01*
X115464167Y-1399984D01*
X115324379Y-1355378D01*
X115170240Y-1341607D01*
X115016401Y-1358666D01*
X114890836Y-1400132D01*
X114745759Y-1489945D01*
X114627747Y-1612271D01*
X114559484Y-1720499D01*
X114530543Y-1781045D01*
X114513073Y-1836743D01*
X114504290Y-1901994D01*
X114501407Y-1991203D01*
X114501278Y-2021417D01*
X-117009333Y-2021417D01*
X-117009333Y-834420D01*
X-156744Y-834420D01*
X-153840Y-991155D01*
X-116302Y-1143025D01*
X-43828Y-1282568D01*
X1755Y-1341053D01*
X127747Y-1458284D01*
X265835Y-1535590D01*
X419877Y-1574572D01*
X573884Y-1578308D01*
X676981Y-1564355D01*
X773189Y-1538862D01*
X809598Y-1524277D01*
X955773Y-1433574D01*
X1073982Y-1313670D01*
X1132066Y-1224678D01*
X1165006Y-1156896D01*
X1185409Y-1091508D01*
X1197061Y-1012599D01*
X1202674Y-928093D01*
X1205680Y-833096D01*
X1202176Y-764719D01*
X1189751Y-707448D01*
X1165993Y-645770D01*
X1154968Y-621177D01*
X1064028Y-470235D01*
X943161Y-348463D01*
X836083Y-278731D01*
X779831Y-251492D01*
X727398Y-234722D01*
X665510Y-225995D01*
X580889Y-222888D01*
X529167Y-222680D01*
X384897Y-230168D01*
X268875Y-255321D01*
X169086Y-302727D01*
X73515Y-376971D01*
X39338Y-409648D01*
X-59854Y-536205D01*
X-125315Y-680283D01*
X-156744Y-834420D01*
X-117009333Y-834420D01*
X-117009333Y-137583D01*
X106268930Y-137583D01*
X106270521Y-236174D01*
X106277356Y-306822D01*
X106292124Y-363843D01*
X106317513Y-421549D01*
X106325016Y-436191D01*
X106366896Y-509612D01*
X106411643Y-577689D01*
X106433660Y-606499D01*
X106491241Y-658754D01*
X106573908Y-714592D01*
X106666336Y-764982D01*
X106753199Y-800896D01*
X106773938Y-806998D01*
X106868502Y-819209D01*
X106984174Y-816427D01*
X107103211Y-800464D01*
X107207868Y-773135D01*
X107242345Y-759138D01*
X107368533Y-679350D01*
X107480450Y-569569D01*
X107565724Y-442091D01*
X107570109Y-433364D01*
X107596635Y-371978D01*
X107612427Y-311250D01*
X107620011Y-236750D01*
X107621917Y-137583D01*
X107612330Y12772D01*
X107580541Y136314D01*
X107522005Y244704D01*
X107432178Y349603D01*
X107431974Y349807D01*
X107327070Y439699D01*
X107218698Y498290D01*
X107095196Y530126D01*
X106944903Y539750D01*
X106944583Y539750D01*
X106794068Y530133D01*
X106670399Y498273D01*
X106561981Y439659D01*
X106457797Y350359D01*
X106368372Y245415D01*
X106310022Y135988D01*
X106278342Y10702D01*
X106268930Y-137583D01*
X-117009333Y-137583D01*
X-117009333Y2868882D01*
X9375486Y2868882D01*
X9405642Y2718450D01*
X9467205Y2577495D01*
X9559504Y2452744D01*
X9681869Y2350925D01*
X9690612Y2345407D01*
X9830297Y2282324D01*
X9986741Y2251781D01*
X10148856Y2254433D01*
X10305554Y2290934D01*
X10345634Y2306738D01*
X10456328Y2373106D01*
X10560429Y2468346D01*
X10646283Y2579808D01*
X10701695Y2693214D01*
X10736987Y2859987D01*
X10733347Y3024250D01*
X10693166Y3180097D01*
X10618838Y3321622D01*
X10512755Y3442917D01*
X10377310Y3538076D01*
X10354788Y3549642D01*
X10285641Y3580433D01*
X10223173Y3598397D01*
X10151027Y3606751D01*
X10054167Y3608710D01*
X9908542Y3599368D01*
X9788538Y3568370D01*
X9680849Y3510702D01*
X9582356Y3430833D01*
X9480173Y3309767D01*
X9412081Y3171268D01*
X9377409Y3022064D01*
X9375486Y2868882D01*
X-117009333Y2868882D01*
X-117009333Y4826000D01*
X-5852356Y4826000D01*
X-5850743Y4733359D01*
X-5843602Y4666768D01*
X-5827056Y4609978D01*
X-5797228Y4546737D01*
X-5776604Y4508500D01*
X-5678345Y4370708D01*
X-5554975Y4263832D01*
X-5412448Y4190087D01*
X-5256720Y4151685D01*
X-5093744Y4150839D01*
X-4929477Y4189763D01*
X-4924222Y4191706D01*
X-4778495Y4267809D01*
X-4658539Y4374969D01*
X-4568079Y4508105D01*
X-4510840Y4662134D01*
X-4492453Y4780781D01*
X-4498616Y4955988D01*
X-4542450Y5113375D01*
X-4622622Y5250530D01*
X-4737800Y5365042D01*
X-4856413Y5439833D01*
X-4936434Y5478287D01*
X-5000672Y5500586D01*
X-5067449Y5511016D01*
X-5155087Y5513862D01*
X-5173116Y5513900D01*
X-5273181Y5511029D01*
X-5348754Y5500186D01*
X-5417423Y5477991D01*
X-5461000Y5458596D01*
X-5606107Y5366830D01*
X-5723899Y5243939D01*
X-5797279Y5122333D01*
X-5826514Y5053025D01*
X-5843394Y4987546D01*
X-5850962Y4909523D01*
X-5852356Y4826000D01*
X-117009333Y4826000D01*
X-117009333Y7852641D01*
X-104539031Y7852641D01*
X-104528917Y7695928D01*
X-104482525Y7550582D01*
X-104402167Y7422219D01*
X-104290155Y7316458D01*
X-104200591Y7262055D01*
X-104053783Y7210065D01*
X-103898353Y7192897D01*
X-103745752Y7210848D01*
X-103640421Y7247367D01*
X-103506951Y7330182D01*
X-103403479Y7436379D01*
X-103330118Y7559933D01*
X-103286981Y7694818D01*
X-103279869Y7772708D01*
X-89296921Y7772708D01*
X-89296451Y7767288D01*
X-89282040Y7678616D01*
X-89257756Y7589293D01*
X-89243630Y7552207D01*
X-89165083Y7423930D01*
X-89058315Y7321719D01*
X-88930115Y7247837D01*
X-88787271Y7204550D01*
X-88636571Y7194121D01*
X-88484803Y7218815D01*
X-88373742Y7262055D01*
X-88244627Y7347798D01*
X-88146145Y7456559D01*
X-88128099Y7489956D01*
X104672409Y7489956D01*
X104678897Y7344346D01*
X104716623Y7202152D01*
X104786705Y7068865D01*
X104890259Y6949972D01*
X104973924Y6884435D01*
X105058117Y6832847D01*
X105134681Y6800475D01*
X105217604Y6783825D01*
X105320876Y6779405D01*
X105388833Y6780832D01*
X105499399Y6788188D01*
X105581729Y6803314D01*
X105649616Y6828916D01*
X105659662Y6833959D01*
X105801877Y6929568D01*
X105916093Y7052620D01*
X105975578Y7150935D01*
X106020058Y7282525D01*
X106037801Y7431734D01*
X106028599Y7583192D01*
X105992246Y7721527D01*
X105983574Y7742134D01*
X105901429Y7875931D01*
X105789196Y7986495D01*
X105654428Y8069975D01*
X105504671Y8122523D01*
X105347476Y8140287D01*
X105226955Y8128010D01*
X105069463Y8077160D01*
X104936509Y7996795D01*
X104829210Y7892404D01*
X104748683Y7769474D01*
X104696043Y7633495D01*
X104672409Y7489956D01*
X-88128099Y7489956D01*
X-88078269Y7582169D01*
X-88040967Y7718460D01*
X-88034208Y7859264D01*
X-88057963Y7998414D01*
X-88112202Y8129740D01*
X-88196894Y8247076D01*
X-88312009Y8344253D01*
X-88379239Y8382507D01*
X-88530825Y8436306D01*
X-88681622Y8451924D01*
X-88826653Y8432701D01*
X-88960938Y8381976D01*
X-89079498Y8303089D01*
X-89177355Y8199379D01*
X-89249531Y8074186D01*
X-89291045Y7930849D01*
X-89296921Y7772708D01*
X-103279869Y7772708D01*
X-103274180Y7835009D01*
X-103291827Y7974478D01*
X-103340035Y8107201D01*
X-103418916Y8227151D01*
X-103528583Y8328302D01*
X-103619239Y8382507D01*
X-103769881Y8435576D01*
X-103922316Y8451013D01*
X-104070463Y8431324D01*
X-104208238Y8379016D01*
X-104329559Y8296598D01*
X-104428343Y8186576D01*
X-104498509Y8051457D01*
X-104510554Y8015101D01*
X-104539031Y7852641D01*
X-117009333Y7852641D01*
X-117009333Y10312708D01*
X-104536921Y10312708D01*
X-104536451Y10307288D01*
X-104502137Y10145183D01*
X-104431803Y10003776D01*
X-104327746Y9886361D01*
X-104192265Y9796235D01*
X-104173913Y9787367D01*
X-104094724Y9756997D01*
X-104011839Y9741432D01*
X-103907167Y9737080D01*
X-103801791Y9741505D01*
X-103719008Y9757171D01*
X-103640421Y9787367D01*
X-103507167Y9870094D01*
X-103403856Y9976250D01*
X-103330601Y10099797D01*
X-103287514Y10234699D01*
X-103280391Y10312708D01*
X-89296921Y10312708D01*
X-89296451Y10307288D01*
X-89262137Y10145183D01*
X-89191803Y10003776D01*
X-89087746Y9886361D01*
X-88952265Y9796235D01*
X-88933913Y9787367D01*
X-88854724Y9756997D01*
X-88771839Y9741432D01*
X-88667167Y9737080D01*
X-88561791Y9741505D01*
X-88479008Y9757171D01*
X-88400421Y9787367D01*
X-88266951Y9870182D01*
X-88163479Y9976379D01*
X-88090118Y10099933D01*
X-88046981Y10234818D01*
X-88034180Y10375009D01*
X-88051827Y10514478D01*
X-88100035Y10647201D01*
X-88178916Y10767151D01*
X-88288583Y10868302D01*
X-88379239Y10922507D01*
X-88530825Y10976306D01*
X-88681622Y10991924D01*
X-88826653Y10972701D01*
X-88960938Y10921976D01*
X-89079498Y10843089D01*
X-89177355Y10739379D01*
X-89249531Y10614186D01*
X-89291045Y10470849D01*
X-89296921Y10312708D01*
X-103280391Y10312708D01*
X-103274709Y10374918D01*
X-103292297Y10514419D01*
X-103340392Y10647164D01*
X-103419107Y10767117D01*
X-103528553Y10868241D01*
X-103619239Y10922507D01*
X-103770825Y10976306D01*
X-103921622Y10991924D01*
X-104066653Y10972701D01*
X-104200938Y10921976D01*
X-104319498Y10843089D01*
X-104417355Y10739379D01*
X-104489531Y10614186D01*
X-104531045Y10470849D01*
X-104536921Y10312708D01*
X-117009333Y10312708D01*
X-117009333Y11262858D01*
X76096604Y11262858D01*
X76109996Y11109774D01*
X76155591Y10964358D01*
X76231913Y10832407D01*
X76337485Y10719718D01*
X76470831Y10632087D01*
X76547209Y10599569D01*
X76673120Y10571529D01*
X76814977Y10566978D01*
X76955331Y10585047D01*
X77076731Y10624863D01*
X77079373Y10626130D01*
X77206468Y10708097D01*
X77319022Y10819477D01*
X77404144Y10947379D01*
X77407609Y10954302D01*
X77433965Y11015042D01*
X77449589Y11074561D01*
X77456955Y11147230D01*
X77457308Y11169623D01*
X78003004Y11169623D01*
X78032710Y11028863D01*
X78090341Y10897516D01*
X78173585Y10780491D01*
X78280133Y10682695D01*
X78407672Y10609036D01*
X78553893Y10564422D01*
X78716486Y10553760D01*
X78761167Y10557156D01*
X78834713Y10571750D01*
X78922369Y10598628D01*
X78978071Y10620445D01*
X79106586Y10697819D01*
X79219618Y10806572D01*
X79306479Y10936023D01*
X79318471Y10960615D01*
X79344014Y11028876D01*
X79358284Y11104557D01*
X79363726Y11202629D01*
X79364003Y11239500D01*
X79360779Y11347440D01*
X79349476Y11428396D01*
X79327650Y11497341D01*
X79318471Y11518385D01*
X79230353Y11661826D01*
X79113502Y11777313D01*
X78973610Y11861145D01*
X78816368Y11909619D01*
X78700225Y11920521D01*
X78545091Y11910260D01*
X78414711Y11873322D01*
X78297840Y11805309D01*
X78209628Y11728649D01*
X78104533Y11599311D01*
X78036604Y11459755D01*
X78003531Y11314890D01*
X78003004Y11169623D01*
X77457308Y11169623D01*
X77458535Y11247415D01*
X77458523Y11250083D01*
X77456297Y11349124D01*
X77448849Y11420418D01*
X77433371Y11478483D01*
X77407056Y11537837D01*
X77400317Y11551001D01*
X77302613Y11696444D01*
X77177022Y11810039D01*
X77069664Y11871947D01*
X76994843Y11902678D01*
X76923491Y11919756D01*
X76837506Y11926667D01*
X76781638Y11927400D01*
X76687188Y11925112D01*
X76616101Y11915413D01*
X76549529Y11894083D01*
X76470183Y11857670D01*
X76382886Y11807651D01*
X76306363Y11751283D01*
X76264402Y11710153D01*
X76172331Y11568844D01*
X76116890Y11417814D01*
X76096604Y11262858D01*
X-117009333Y11262858D01*
X-117009333Y12902580D01*
X-104531267Y12902580D01*
X-104513680Y12733168D01*
X-104461450Y12588045D01*
X-104374363Y12466865D01*
X-104252206Y12369287D01*
X-104173913Y12327367D01*
X-104043718Y12286872D01*
X-103898275Y12274479D01*
X-103753877Y12290194D01*
X-103640864Y12327162D01*
X-103507685Y12409858D01*
X-103404416Y12516003D01*
X-103331170Y12639554D01*
X-103288062Y12774473D01*
X-103281370Y12847473D01*
X-89296462Y12847473D01*
X-89296216Y12844699D01*
X-89261665Y12685171D01*
X-89190555Y12544050D01*
X-89086229Y12426114D01*
X-88952032Y12336136D01*
X-88933913Y12327367D01*
X-88854724Y12296997D01*
X-88771839Y12281432D01*
X-88667167Y12277080D01*
X-88561791Y12281505D01*
X-88479008Y12297171D01*
X-88400421Y12327367D01*
X-88266524Y12410402D01*
X-88162834Y12516772D01*
X-88089452Y12640464D01*
X-88046475Y12775465D01*
X-88034002Y12915763D01*
X-88052132Y13055347D01*
X-88100964Y13188204D01*
X-88180596Y13308322D01*
X-88291126Y13409689D01*
X-88381768Y13463753D01*
X-88533604Y13517600D01*
X-88684463Y13533031D01*
X-88829385Y13513404D01*
X-88963410Y13462077D01*
X-89081578Y13382408D01*
X-89178927Y13277755D01*
X-89250498Y13151476D01*
X-89291329Y13006929D01*
X-89296462Y12847473D01*
X-103281370Y12847473D01*
X-103275205Y12914718D01*
X-103292712Y13054251D01*
X-103340697Y13187030D01*
X-103419275Y13307015D01*
X-103528558Y13408167D01*
X-103619494Y13462633D01*
X-103772972Y13517011D01*
X-103927770Y13532962D01*
X-104077766Y13512395D01*
X-104216836Y13457217D01*
X-104338858Y13369337D01*
X-104437709Y13250662D01*
X-104467708Y13198309D01*
X-104501387Y13126519D01*
X-104520704Y13064193D01*
X-104529410Y12993881D01*
X-104531267Y12902580D01*
X-117009333Y12902580D01*
X-117009333Y15442580D01*
X-104531267Y15442580D01*
X-104513680Y15273168D01*
X-104461450Y15128045D01*
X-104374363Y15006865D01*
X-104252206Y14909287D01*
X-104173913Y14867367D01*
X-104043718Y14826872D01*
X-103898275Y14814479D01*
X-103753877Y14830194D01*
X-103640864Y14867162D01*
X-103507104Y14951123D01*
X-103401968Y15061342D01*
X-103327252Y15191325D01*
X-103284755Y15334582D01*
X-103276272Y15484622D01*
X-103280620Y15508542D01*
X-89296170Y15508542D01*
X-89293231Y15358025D01*
X-89255993Y15213263D01*
X-89186253Y15080748D01*
X-89085808Y14966972D01*
X-88956455Y14878426D01*
X-88933470Y14867162D01*
X-88803421Y14826767D01*
X-88658022Y14814486D01*
X-88513567Y14830312D01*
X-88400421Y14867367D01*
X-88262157Y14954521D01*
X-88232650Y14986000D01*
X-792241Y14986000D01*
X-780747Y14834996D01*
X-744652Y14709149D01*
X-678877Y14596055D01*
X-592018Y14496834D01*
X-468508Y14401762D01*
X-323899Y14338753D01*
X-166562Y14309477D01*
X-4869Y14315607D01*
X134611Y14351706D01*
X273990Y14425225D01*
X395347Y14531135D01*
X488562Y14660239D01*
X501520Y14685128D01*
X531298Y14751404D01*
X549161Y14810885D01*
X557992Y14878735D01*
X560672Y14970119D01*
X560722Y14996583D01*
X558959Y15094775D01*
X552051Y15165102D01*
X537214Y15221968D01*
X511660Y15279775D01*
X502515Y15297501D01*
X403885Y15443317D01*
X278299Y15556512D01*
X171164Y15617868D01*
X95824Y15648393D01*
X23711Y15665240D01*
X-63389Y15671865D01*
X-116417Y15672428D01*
X-270625Y15659980D01*
X-400778Y15620105D01*
X-518533Y15548111D01*
X-596792Y15479084D01*
X-691040Y15369922D01*
X-752080Y15255711D01*
X-784286Y15125412D01*
X-792241Y14986000D01*
X-88232650Y14986000D01*
X-88150977Y15073128D01*
X-88093373Y15168916D01*
X-88065277Y15236086D01*
X-88049603Y15305030D01*
X-88043321Y15392131D01*
X-88042750Y15442580D01*
X-88045003Y15537244D01*
X-88054284Y15607205D01*
X-88074373Y15669968D01*
X-88106626Y15738309D01*
X-88193054Y15864896D01*
X-88303540Y15961938D01*
X-88431573Y16029061D01*
X-88570643Y16065890D01*
X-88714240Y16072049D01*
X-88855853Y16047163D01*
X-88988972Y15990857D01*
X-89107086Y15902755D01*
X-89191961Y15800878D01*
X-89263012Y15658324D01*
X-89296170Y15508542D01*
X-103280620Y15508542D01*
X-103303602Y15634952D01*
X-103368541Y15779081D01*
X-103382373Y15800878D01*
X-103482305Y15916720D01*
X-103602861Y16000444D01*
X-103737529Y16052423D01*
X-103879798Y16073033D01*
X-104023160Y16062649D01*
X-104161102Y16021647D01*
X-104287116Y15950402D01*
X-104394690Y15849289D01*
X-104467708Y15738309D01*
X-104501387Y15666519D01*
X-104520704Y15604193D01*
X-104529410Y15533881D01*
X-104531267Y15442580D01*
X-117009333Y15442580D01*
X-117009333Y17982580D01*
X-104531583Y17982580D01*
X-104520395Y17835466D01*
X-104483694Y17713128D01*
X-104416776Y17603473D01*
X-104358048Y17536552D01*
X-104240070Y17441267D01*
X-104104713Y17382325D01*
X-103947575Y17357973D01*
X-103907167Y17357080D01*
X-103801611Y17361528D01*
X-103718704Y17377249D01*
X-103640864Y17407162D01*
X-103507104Y17491123D01*
X-103401968Y17601342D01*
X-103327252Y17731325D01*
X-103284755Y17874582D01*
X-103278649Y17982580D01*
X-89291583Y17982580D01*
X-89280395Y17835466D01*
X-89243694Y17713128D01*
X-89176776Y17603473D01*
X-89118048Y17536552D01*
X-89000070Y17441267D01*
X-88864713Y17382325D01*
X-88707575Y17357973D01*
X-88667167Y17357080D01*
X-88561611Y17361528D01*
X-88478704Y17377249D01*
X-88400864Y17407162D01*
X-88269256Y17490634D01*
X-88158414Y17605484D01*
X-88091006Y17713806D01*
X-88063894Y17780045D01*
X-88048879Y17850879D01*
X-88043112Y17942182D01*
X-88042750Y17982580D01*
X-88045003Y18077244D01*
X-88054284Y18147205D01*
X-88074373Y18209968D01*
X-88106626Y18278309D01*
X-88195974Y18408561D01*
X-88313315Y18509689D01*
X-88453068Y18578353D01*
X-88609650Y18611216D01*
X-88667167Y18613641D01*
X-88828304Y18594045D01*
X-88974558Y18537483D01*
X-89100346Y18447293D01*
X-89200086Y18326816D01*
X-89227708Y18278309D01*
X-89261456Y18206293D01*
X-89280830Y18143590D01*
X-89289611Y18072695D01*
X-89291583Y17982580D01*
X-103278649Y17982580D01*
X-103276272Y18024622D01*
X-103303602Y18174952D01*
X-103368541Y18319081D01*
X-103382373Y18340878D01*
X-103482305Y18456720D01*
X-103602861Y18540444D01*
X-103737529Y18592423D01*
X-103879798Y18613033D01*
X-104023160Y18602649D01*
X-104161102Y18561647D01*
X-104287116Y18490402D01*
X-104394690Y18389289D01*
X-104467708Y18278309D01*
X-104501456Y18206293D01*
X-104520830Y18143590D01*
X-104529611Y18072695D01*
X-104531583Y17982580D01*
X-117009333Y17982580D01*
X-117009333Y20522453D01*
X-104531583Y20522453D01*
X-104528408Y20420045D01*
X-104516981Y20343734D01*
X-104494445Y20277630D01*
X-104483328Y20253806D01*
X-104395095Y20119572D01*
X-104277558Y20008880D01*
X-104173470Y19945882D01*
X-104112799Y19919872D01*
X-104056973Y19905373D01*
X-103990960Y19900109D01*
X-103899729Y19901806D01*
X-103886000Y19902386D01*
X-103766648Y19912236D01*
X-103677917Y19931145D01*
X-103621417Y19954301D01*
X-103508345Y20032173D01*
X-103406556Y20137321D01*
X-103330725Y20254387D01*
X-103303727Y20320537D01*
X-103288791Y20391640D01*
X-103283088Y20483503D01*
X-103282750Y20522580D01*
X-89291583Y20522580D01*
X-89280502Y20375858D01*
X-89244185Y20254381D01*
X-89178019Y20146424D01*
X-89116609Y20077735D01*
X-89021491Y19994489D01*
X-88926164Y19940460D01*
X-88818847Y19911398D01*
X-88687757Y19903053D01*
X-88635417Y19904190D01*
X-88519197Y19913602D01*
X-88431311Y19933539D01*
X-88377317Y19956335D01*
X-88258559Y20038453D01*
X-88155266Y20149941D01*
X-88091006Y20253806D01*
X-88063894Y20320045D01*
X-88048879Y20390879D01*
X-88043112Y20482182D01*
X-88042750Y20522580D01*
X-88045003Y20617244D01*
X-88054284Y20687205D01*
X-88074373Y20749968D01*
X-88106626Y20818309D01*
X-88195793Y20948067D01*
X-88313245Y21049574D01*
X-88452738Y21119076D01*
X-88608031Y21152817D01*
X-88667167Y21155487D01*
X-88826656Y21135673D01*
X-88972613Y21078734D01*
X-89098798Y20988424D01*
X-89198966Y20868499D01*
X-89227708Y20818309D01*
X-89261456Y20746293D01*
X-89280830Y20683590D01*
X-89289611Y20612695D01*
X-89291583Y20522580D01*
X-103282750Y20522580D01*
X-103285003Y20617244D01*
X-103294284Y20687205D01*
X-103314373Y20749968D01*
X-103346626Y20818309D01*
X-103433468Y20946182D01*
X-103543461Y21043610D01*
X-103670347Y21110595D01*
X-103807869Y21147137D01*
X-103949770Y21153237D01*
X-104089792Y21128897D01*
X-104221679Y21074116D01*
X-104339173Y20988895D01*
X-104436017Y20873235D01*
X-104467708Y20818182D01*
X-104501479Y20746033D01*
X-104520855Y20683215D01*
X-104529625Y20612189D01*
X-104531583Y20522453D01*
X-117009333Y20522453D01*
X-117009333Y23137314D01*
X-104536383Y23137314D01*
X-104534664Y22983239D01*
X-104497023Y22835999D01*
X-104426472Y22701872D01*
X-104326021Y22587137D01*
X-104198684Y22498071D01*
X-104097804Y22455219D01*
X-104024281Y22442739D01*
X-103925812Y22440990D01*
X-103818041Y22448682D01*
X-103716613Y22464528D01*
X-103637174Y22487240D01*
X-103621417Y22494438D01*
X-103508623Y22571958D01*
X-103406967Y22676804D01*
X-103330870Y22794093D01*
X-103330725Y22794387D01*
X-103303727Y22860537D01*
X-103288791Y22931640D01*
X-103283088Y23023503D01*
X-103282750Y23062580D01*
X-89291583Y23062580D01*
X-89288393Y22959971D01*
X-89276938Y22883537D01*
X-89254390Y22817471D01*
X-89243609Y22794387D01*
X-89155814Y22660665D01*
X-89039182Y22550601D01*
X-88902484Y22471908D01*
X-88857804Y22455219D01*
X-88784281Y22442739D01*
X-88685812Y22440990D01*
X-88578041Y22448682D01*
X-88476613Y22464528D01*
X-88397174Y22487240D01*
X-88381417Y22494438D01*
X-88268623Y22571958D01*
X-88166967Y22676804D01*
X-88090870Y22794093D01*
X-88090725Y22794387D01*
X-88063727Y22860537D01*
X-88048791Y22931640D01*
X-88043088Y23023503D01*
X-88042750Y23062580D01*
X-88045003Y23157244D01*
X-88054284Y23227205D01*
X-88074373Y23289968D01*
X-88106626Y23358309D01*
X-88195793Y23488067D01*
X-88313245Y23589574D01*
X-88452738Y23659076D01*
X-88608031Y23692817D01*
X-88667167Y23695487D01*
X-88826656Y23675673D01*
X-88972613Y23618734D01*
X-89098798Y23528424D01*
X-89198966Y23408499D01*
X-89227708Y23358309D01*
X-89261456Y23286293D01*
X-89280830Y23223590D01*
X-89289611Y23152695D01*
X-89291583Y23062580D01*
X-103282750Y23062580D01*
X-103285003Y23157244D01*
X-103294284Y23227205D01*
X-103314373Y23289968D01*
X-103346626Y23358309D01*
X-103433313Y23486300D01*
X-103542504Y23583384D01*
X-103668149Y23649912D01*
X-103804197Y23686230D01*
X-103944600Y23692688D01*
X-104083306Y23669634D01*
X-104214267Y23617416D01*
X-104331432Y23536382D01*
X-104428751Y23426881D01*
X-104499169Y23291945D01*
X-104536383Y23137314D01*
X-117009333Y23137314D01*
X-117009333Y25647936D01*
X-104538716Y25647936D01*
X-104530837Y25503436D01*
X-104491495Y25364080D01*
X-104422215Y25236039D01*
X-104324519Y25125483D01*
X-104199932Y25038582D01*
X-104097804Y24995219D01*
X-104024281Y24982739D01*
X-103925812Y24980990D01*
X-103818041Y24988682D01*
X-103716613Y25004528D01*
X-103637174Y25027240D01*
X-103621417Y25034438D01*
X-103508623Y25111958D01*
X-103406967Y25216804D01*
X-103330870Y25334093D01*
X-103330725Y25334387D01*
X-103291542Y25454942D01*
X-103278817Y25593782D01*
X-103281478Y25622041D01*
X-89294929Y25622041D01*
X-89287383Y25481311D01*
X-89253437Y25356004D01*
X-89243609Y25334387D01*
X-89155814Y25200665D01*
X-89039182Y25090601D01*
X-88902484Y25011908D01*
X-88857804Y24995219D01*
X-88784281Y24982739D01*
X-88685812Y24980990D01*
X-88578041Y24988682D01*
X-88476613Y25004528D01*
X-88397174Y25027240D01*
X-88381417Y25034438D01*
X-88268623Y25111958D01*
X-88166967Y25216804D01*
X-88090870Y25334093D01*
X-88090725Y25334387D01*
X-88051542Y25454942D01*
X-88043968Y25537583D01*
X108512702Y25537583D01*
X108525390Y25381301D01*
X108566243Y25249182D01*
X108639445Y25130506D01*
X108697138Y25064878D01*
X108814795Y24961895D01*
X108936508Y24895729D01*
X109072540Y24862325D01*
X109222935Y24857190D01*
X109333555Y24866591D01*
X109422790Y24887796D01*
X109501500Y24920744D01*
X109636596Y25009657D01*
X109751652Y25132202D01*
X109784623Y25184039D01*
X111083292Y25184039D01*
X111104521Y25037862D01*
X111149682Y24909399D01*
X111157309Y24894727D01*
X111253968Y24760101D01*
X111380616Y24651093D01*
X111529875Y24573422D01*
X111601250Y24550532D01*
X111684312Y24539984D01*
X111789964Y24541930D01*
X111900895Y24554730D01*
X111999791Y24576739D01*
X112043504Y24592493D01*
X112181616Y24675235D01*
X112292997Y24785621D01*
X112375712Y24917046D01*
X112427823Y25062908D01*
X112447395Y25216602D01*
X112432491Y25371526D01*
X112381175Y25521077D01*
X112337985Y25596760D01*
X112227058Y25729967D01*
X112095859Y25826070D01*
X111945227Y25884659D01*
X111776000Y25905321D01*
X111711487Y25903449D01*
X111549553Y25873133D01*
X111402133Y25807139D01*
X111275402Y25710014D01*
X111175537Y25586307D01*
X111117121Y25465710D01*
X111087118Y25331973D01*
X111083292Y25184039D01*
X109784623Y25184039D01*
X109817041Y25235005D01*
X109840332Y25284951D01*
X109854877Y25336747D01*
X109862594Y25402354D01*
X109865403Y25493738D01*
X109865583Y25537583D01*
X109864133Y25641861D01*
X109858501Y25715829D01*
X109846770Y25771451D01*
X109827019Y25820691D01*
X109817041Y25840162D01*
X109718432Y25984262D01*
X109594143Y26098566D01*
X109498565Y26156078D01*
X109429887Y26186627D01*
X109367678Y26204429D01*
X109295649Y26212657D01*
X109198833Y26214489D01*
X109042119Y26202915D01*
X108912101Y26166264D01*
X108798690Y26100415D01*
X108700686Y26010863D01*
X108607994Y25896839D01*
X108549434Y25784204D01*
X108519577Y25659285D01*
X108512702Y25537583D01*
X-88043968Y25537583D01*
X-88038817Y25593782D01*
X-88052250Y25736386D01*
X-88091539Y25868236D01*
X-88102304Y25891693D01*
X-88190430Y26027016D01*
X-88304594Y26129600D01*
X-88442163Y26197853D01*
X-88600500Y26230180D01*
X-88666029Y26232712D01*
X-88833309Y26213585D01*
X-88980052Y26158504D01*
X-89103768Y26068969D01*
X-89201966Y25946481D01*
X-89232030Y25891693D01*
X-89276378Y25763674D01*
X-89294929Y25622041D01*
X-103281478Y25622041D01*
X-103292250Y25736386D01*
X-103331539Y25868236D01*
X-103342304Y25891693D01*
X-103430181Y26026268D01*
X-103544528Y26128517D01*
X-103682692Y26196840D01*
X-103842020Y26229638D01*
X-103907167Y26232453D01*
X-104057418Y26220102D01*
X-104183957Y26179341D01*
X-104298029Y26105638D01*
X-104358352Y26050596D01*
X-104453997Y25927686D01*
X-104513611Y25791409D01*
X-104538716Y25647936D01*
X-117009333Y25647936D01*
X-117009333Y26397203D01*
X11916127Y26397203D01*
X11928228Y26263019D01*
X11959171Y26147439D01*
X11967172Y26128866D01*
X12058256Y25977933D01*
X12175041Y25859813D01*
X12315946Y25775900D01*
X12402620Y25744984D01*
X12511856Y25727657D01*
X12639488Y25727916D01*
X12766334Y25744436D01*
X12873209Y25775891D01*
X12877671Y25777826D01*
X13017348Y25861363D01*
X13129600Y25972941D01*
X13212196Y26106585D01*
X13262905Y26256317D01*
X13279497Y26416160D01*
X13259743Y26580138D01*
X13221261Y26698607D01*
X13170529Y26785047D01*
X13093138Y26876308D01*
X13001123Y26960038D01*
X12906518Y27023884D01*
X12901933Y27026334D01*
X12845042Y27053600D01*
X12791928Y27070391D01*
X12729235Y27079145D01*
X12643608Y27082302D01*
X12594167Y27082547D01*
X12494072Y27081128D01*
X12422853Y27075224D01*
X12367099Y27062367D01*
X12313402Y27040087D01*
X12284972Y27025611D01*
X12183193Y26957094D01*
X12086623Y26865784D01*
X12006369Y26763971D01*
X11953536Y26663945D01*
X11950531Y26655524D01*
X11923388Y26533526D01*
X11916127Y26397203D01*
X-117009333Y26397203D01*
X-117009333Y28187936D01*
X-104538716Y28187936D01*
X-104530837Y28043436D01*
X-104491495Y27904080D01*
X-104422215Y27776039D01*
X-104324519Y27665483D01*
X-104199932Y27578582D01*
X-104097804Y27535219D01*
X-104023390Y27522574D01*
X-103924113Y27520922D01*
X-103815615Y27528947D01*
X-103713538Y27545336D01*
X-103633524Y27568773D01*
X-103619034Y27575458D01*
X-103517611Y27645608D01*
X-103422962Y27742673D01*
X-103346456Y27853009D01*
X-103301209Y27956765D01*
X-103276208Y28112137D01*
X-103288288Y28267402D01*
X-103334941Y28414251D01*
X-103413659Y28544375D01*
X-103506844Y28637963D01*
X-103611279Y28709389D01*
X-103713783Y28752204D01*
X-103830168Y28771651D01*
X-103917750Y28774266D01*
X-104070610Y28758421D01*
X-104202052Y28710028D01*
X-104322067Y28624923D01*
X-104358352Y28590596D01*
X-104453997Y28467686D01*
X-104513611Y28331409D01*
X-104538716Y28187936D01*
X-117009333Y28187936D01*
X-117009333Y30214867D01*
X474676Y30214867D01*
X482366Y30072888D01*
X514399Y29946417D01*
X522528Y29927076D01*
X583123Y29823109D01*
X665577Y29721463D01*
X756154Y29638131D01*
X792226Y29613109D01*
X932030Y29550190D01*
X1088231Y29519821D01*
X1249453Y29522601D01*
X1404321Y29559129D01*
X1451387Y29578367D01*
X1576541Y29655977D01*
X1688312Y29763737D01*
X1774361Y29889480D01*
X1781989Y29904419D01*
X1806427Y29961562D01*
X1821278Y30020201D01*
X1828690Y30093551D01*
X1830810Y30194826D01*
X1830815Y30204833D01*
X1829339Y30304969D01*
X1823404Y30376115D01*
X1810566Y30431564D01*
X1788386Y30484612D01*
X1774435Y30511750D01*
X1675783Y30653231D01*
X1546136Y30766486D01*
X1431990Y30830635D01*
X1365310Y30858771D01*
X1308285Y30874760D01*
X1245400Y30881011D01*
X1161142Y30879937D01*
X1125073Y30878341D01*
X1023442Y30870963D01*
X948237Y30857875D01*
X883594Y30835314D01*
X829334Y30808193D01*
X705227Y30722851D01*
X606916Y30613221D01*
X531307Y30480966D01*
X491075Y30356259D01*
X474676Y30214867D01*
X-117009333Y30214867D01*
X-117009333Y34776833D01*
X117009333Y34776833D01*
X117009333Y-34798000D01*
G37*
X117009333Y-34798000D02*
X-117009333Y-34798000D01*
X-117009333Y-14176857D01*
X-8271219Y-14176857D01*
X-8254914Y-14325763D01*
X-8247674Y-14352756D01*
X-8188585Y-14485533D01*
X-8100315Y-14592881D01*
X-7989452Y-14672015D01*
X-7862583Y-14720150D01*
X-7726297Y-14734500D01*
X-7587181Y-14712281D01*
X-7490512Y-14672887D01*
X-7371786Y-14589749D01*
X-7284431Y-14485167D01*
X-7228442Y-14365725D01*
X-7203809Y-14238012D01*
X-7206051Y-14194814D01*
X-5729757Y-14194814D01*
X-5713357Y-14325532D01*
X-5664842Y-14448574D01*
X-5585853Y-14557722D01*
X-5478031Y-14646753D01*
X-5343017Y-14709450D01*
X-5334137Y-14712223D01*
X-5211336Y-14729154D01*
X-5070201Y-14712418D01*
X-5018383Y-14698848D01*
X-4896093Y-14641916D01*
X-4796237Y-14554691D01*
X-4721774Y-14444468D01*
X-4675662Y-14318541D01*
X-4660858Y-14184204D01*
X-4680319Y-14048751D01*
X-4716870Y-13955295D01*
X-4800401Y-13833592D01*
X-4906779Y-13743108D01*
X-5029290Y-13684918D01*
X-5161218Y-13660097D01*
X-5295848Y-13669718D01*
X-5426467Y-13714856D01*
X-5546360Y-13796586D01*
X-5569857Y-13818809D01*
X-5659649Y-13935233D01*
X-5712402Y-14062641D01*
X-5729757Y-14194814D01*
X-7206051Y-14194814D01*
X-7210525Y-14108613D01*
X-7248582Y-13984114D01*
X-7317972Y-13871102D01*
X-7418686Y-13776164D01*
X-7491649Y-13731875D01*
X-7630701Y-13683235D01*
X-7774346Y-13672578D01*
X-7914175Y-13699003D01*
X-8041777Y-13761605D01*
X-8086557Y-13795756D01*
X-8185511Y-13906565D01*
X-8247575Y-14035361D01*
X-8271219Y-14176857D01*
X-117009333Y-14176857D01*
X-117009333Y-12925134D01*
X-9523671Y-12925134D01*
X-9515435Y-13046029D01*
X-9501815Y-13110740D01*
X-9468007Y-13180730D01*
X-9408340Y-13259600D01*
X-9334048Y-13335828D01*
X-9256364Y-13397891D01*
X-9186522Y-13434268D01*
X-9186333Y-13434327D01*
X-9081297Y-13454457D01*
X-8960285Y-13458350D01*
X-8846544Y-13445703D01*
X-8818992Y-13439108D01*
X-8739739Y-13401967D01*
X-8654629Y-13338249D01*
X-8576319Y-13259451D01*
X-8517465Y-13177067D01*
X-8506270Y-13155083D01*
X-8477535Y-13055803D01*
X-8467516Y-12937152D01*
X-8469904Y-12904360D01*
X-7003534Y-12904360D01*
X-6993865Y-13032172D01*
X-6954357Y-13154317D01*
X-6884166Y-13264153D01*
X-6782447Y-13355037D01*
X-6755723Y-13371847D01*
X-6628656Y-13432366D01*
X-6508164Y-13456842D01*
X-6381522Y-13446909D01*
X-6310247Y-13429055D01*
X-6183419Y-13371227D01*
X-6081123Y-13284638D01*
X-6005184Y-13176262D01*
X-5957431Y-13053067D01*
X-5939691Y-12922025D01*
X-5953791Y-12790108D01*
X-6001559Y-12664285D01*
X-6081198Y-12555270D01*
X-6199241Y-12460544D01*
X-6332827Y-12404454D01*
X-6478165Y-12387979D01*
X-6631462Y-12412097D01*
X-6633834Y-12412782D01*
X-6760699Y-12469292D01*
X-6861946Y-12553347D01*
X-6936730Y-12658305D01*
X-6984207Y-12777523D01*
X-7003534Y-12904360D01*
X-8469904Y-12904360D01*
X-8476213Y-12817729D01*
X-8503624Y-12716137D01*
X-8506271Y-12710113D01*
X-8584738Y-12585043D01*
X-8690618Y-12490932D01*
X-8820090Y-12430166D01*
X-8969334Y-12405128D01*
X-8995833Y-12404596D01*
X-9147998Y-12423454D01*
X-9281027Y-12478437D01*
X-9391100Y-12567162D01*
X-9474396Y-12687243D01*
X-9485396Y-12710113D01*
X-9513413Y-12807195D01*
X-9523671Y-12925134D01*
X-117009333Y-12925134D01*
X-117009333Y-2021417D01*
X114501278Y-2021417D01*
X114502934Y-2120512D01*
X114510064Y-2192519D01*
X114525551Y-2252601D01*
X114552277Y-2315923D01*
X114560480Y-2332872D01*
X114649570Y-2468902D01*
X114766103Y-2576926D01*
X114903840Y-2654586D01*
X115056542Y-2699519D01*
X115217970Y-2709368D01*
X115381885Y-2681770D01*
X115435663Y-2663967D01*
X115560309Y-2597421D01*
X115675338Y-2498741D01*
X115769926Y-2378107D01*
X115803738Y-2317750D01*
X115844043Y-2195949D01*
X115859694Y-2054953D01*
X115850778Y-1909920D01*
X115817381Y-1776009D01*
X115800446Y-1735667D01*
X115708943Y-1590883D01*
X115586699Y-1473602D01*
X115464167Y-1399984D01*
X115324379Y-1355378D01*
X115170240Y-1341607D01*
X115016401Y-1358666D01*
X114890836Y-1400132D01*
X114745759Y-1489945D01*
X114627747Y-1612271D01*
X114559484Y-1720499D01*
X114530543Y-1781045D01*
X114513073Y-1836743D01*
X114504290Y-1901994D01*
X114501407Y-1991203D01*
X114501278Y-2021417D01*
X-117009333Y-2021417D01*
X-117009333Y-834420D01*
X-156744Y-834420D01*
X-153840Y-991155D01*
X-116302Y-1143025D01*
X-43828Y-1282568D01*
X1755Y-1341053D01*
X127747Y-1458284D01*
X265835Y-1535590D01*
X419877Y-1574572D01*
X573884Y-1578308D01*
X676981Y-1564355D01*
X773189Y-1538862D01*
X809598Y-1524277D01*
X955773Y-1433574D01*
X1073982Y-1313670D01*
X1132066Y-1224678D01*
X1165006Y-1156896D01*
X1185409Y-1091508D01*
X1197061Y-1012599D01*
X1202674Y-928093D01*
X1205680Y-833096D01*
X1202176Y-764719D01*
X1189751Y-707448D01*
X1165993Y-645770D01*
X1154968Y-621177D01*
X1064028Y-470235D01*
X943161Y-348463D01*
X836083Y-278731D01*
X779831Y-251492D01*
X727398Y-234722D01*
X665510Y-225995D01*
X580889Y-222888D01*
X529167Y-222680D01*
X384897Y-230168D01*
X268875Y-255321D01*
X169086Y-302727D01*
X73515Y-376971D01*
X39338Y-409648D01*
X-59854Y-536205D01*
X-125315Y-680283D01*
X-156744Y-834420D01*
X-117009333Y-834420D01*
X-117009333Y-137583D01*
X106268930Y-137583D01*
X106270521Y-236174D01*
X106277356Y-306822D01*
X106292124Y-363843D01*
X106317513Y-421549D01*
X106325016Y-436191D01*
X106366896Y-509612D01*
X106411643Y-577689D01*
X106433660Y-606499D01*
X106491241Y-658754D01*
X106573908Y-714592D01*
X106666336Y-764982D01*
X106753199Y-800896D01*
X106773938Y-806998D01*
X106868502Y-819209D01*
X106984174Y-816427D01*
X107103211Y-800464D01*
X107207868Y-773135D01*
X107242345Y-759138D01*
X107368533Y-679350D01*
X107480450Y-569569D01*
X107565724Y-442091D01*
X107570109Y-433364D01*
X107596635Y-371978D01*
X107612427Y-311250D01*
X107620011Y-236750D01*
X107621917Y-137583D01*
X107612330Y12772D01*
X107580541Y136314D01*
X107522005Y244704D01*
X107432178Y349603D01*
X107431974Y349807D01*
X107327070Y439699D01*
X107218698Y498290D01*
X107095196Y530126D01*
X106944903Y539750D01*
X106944583Y539750D01*
X106794068Y530133D01*
X106670399Y498273D01*
X106561981Y439659D01*
X106457797Y350359D01*
X106368372Y245415D01*
X106310022Y135988D01*
X106278342Y10702D01*
X106268930Y-137583D01*
X-117009333Y-137583D01*
X-117009333Y2868882D01*
X9375486Y2868882D01*
X9405642Y2718450D01*
X9467205Y2577495D01*
X9559504Y2452744D01*
X9681869Y2350925D01*
X9690612Y2345407D01*
X9830297Y2282324D01*
X9986741Y2251781D01*
X10148856Y2254433D01*
X10305554Y2290934D01*
X10345634Y2306738D01*
X10456328Y2373106D01*
X10560429Y2468346D01*
X10646283Y2579808D01*
X10701695Y2693214D01*
X10736987Y2859987D01*
X10733347Y3024250D01*
X10693166Y3180097D01*
X10618838Y3321622D01*
X10512755Y3442917D01*
X10377310Y3538076D01*
X10354788Y3549642D01*
X10285641Y3580433D01*
X10223173Y3598397D01*
X10151027Y3606751D01*
X10054167Y3608710D01*
X9908542Y3599368D01*
X9788538Y3568370D01*
X9680849Y3510702D01*
X9582356Y3430833D01*
X9480173Y3309767D01*
X9412081Y3171268D01*
X9377409Y3022064D01*
X9375486Y2868882D01*
X-117009333Y2868882D01*
X-117009333Y4826000D01*
X-5852356Y4826000D01*
X-5850743Y4733359D01*
X-5843602Y4666768D01*
X-5827056Y4609978D01*
X-5797228Y4546737D01*
X-5776604Y4508500D01*
X-5678345Y4370708D01*
X-5554975Y4263832D01*
X-5412448Y4190087D01*
X-5256720Y4151685D01*
X-5093744Y4150839D01*
X-4929477Y4189763D01*
X-4924222Y4191706D01*
X-4778495Y4267809D01*
X-4658539Y4374969D01*
X-4568079Y4508105D01*
X-4510840Y4662134D01*
X-4492453Y4780781D01*
X-4498616Y4955988D01*
X-4542450Y5113375D01*
X-4622622Y5250530D01*
X-4737800Y5365042D01*
X-4856413Y5439833D01*
X-4936434Y5478287D01*
X-5000672Y5500586D01*
X-5067449Y5511016D01*
X-5155087Y5513862D01*
X-5173116Y5513900D01*
X-5273181Y5511029D01*
X-5348754Y5500186D01*
X-5417423Y5477991D01*
X-5461000Y5458596D01*
X-5606107Y5366830D01*
X-5723899Y5243939D01*
X-5797279Y5122333D01*
X-5826514Y5053025D01*
X-5843394Y4987546D01*
X-5850962Y4909523D01*
X-5852356Y4826000D01*
X-117009333Y4826000D01*
X-117009333Y7852641D01*
X-104539031Y7852641D01*
X-104528917Y7695928D01*
X-104482525Y7550582D01*
X-104402167Y7422219D01*
X-104290155Y7316458D01*
X-104200591Y7262055D01*
X-104053783Y7210065D01*
X-103898353Y7192897D01*
X-103745752Y7210848D01*
X-103640421Y7247367D01*
X-103506951Y7330182D01*
X-103403479Y7436379D01*
X-103330118Y7559933D01*
X-103286981Y7694818D01*
X-103279869Y7772708D01*
X-89296921Y7772708D01*
X-89296451Y7767288D01*
X-89282040Y7678616D01*
X-89257756Y7589293D01*
X-89243630Y7552207D01*
X-89165083Y7423930D01*
X-89058315Y7321719D01*
X-88930115Y7247837D01*
X-88787271Y7204550D01*
X-88636571Y7194121D01*
X-88484803Y7218815D01*
X-88373742Y7262055D01*
X-88244627Y7347798D01*
X-88146145Y7456559D01*
X-88128099Y7489956D01*
X104672409Y7489956D01*
X104678897Y7344346D01*
X104716623Y7202152D01*
X104786705Y7068865D01*
X104890259Y6949972D01*
X104973924Y6884435D01*
X105058117Y6832847D01*
X105134681Y6800475D01*
X105217604Y6783825D01*
X105320876Y6779405D01*
X105388833Y6780832D01*
X105499399Y6788188D01*
X105581729Y6803314D01*
X105649616Y6828916D01*
X105659662Y6833959D01*
X105801877Y6929568D01*
X105916093Y7052620D01*
X105975578Y7150935D01*
X106020058Y7282525D01*
X106037801Y7431734D01*
X106028599Y7583192D01*
X105992246Y7721527D01*
X105983574Y7742134D01*
X105901429Y7875931D01*
X105789196Y7986495D01*
X105654428Y8069975D01*
X105504671Y8122523D01*
X105347476Y8140287D01*
X105226955Y8128010D01*
X105069463Y8077160D01*
X104936509Y7996795D01*
X104829210Y7892404D01*
X104748683Y7769474D01*
X104696043Y7633495D01*
X104672409Y7489956D01*
X-88128099Y7489956D01*
X-88078269Y7582169D01*
X-88040967Y7718460D01*
X-88034208Y7859264D01*
X-88057963Y7998414D01*
X-88112202Y8129740D01*
X-88196894Y8247076D01*
X-88312009Y8344253D01*
X-88379239Y8382507D01*
X-88530825Y8436306D01*
X-88681622Y8451924D01*
X-88826653Y8432701D01*
X-88960938Y8381976D01*
X-89079498Y8303089D01*
X-89177355Y8199379D01*
X-89249531Y8074186D01*
X-89291045Y7930849D01*
X-89296921Y7772708D01*
X-103279869Y7772708D01*
X-103274180Y7835009D01*
X-103291827Y7974478D01*
X-103340035Y8107201D01*
X-103418916Y8227151D01*
X-103528583Y8328302D01*
X-103619239Y8382507D01*
X-103769881Y8435576D01*
X-103922316Y8451013D01*
X-104070463Y8431324D01*
X-104208238Y8379016D01*
X-104329559Y8296598D01*
X-104428343Y8186576D01*
X-104498509Y8051457D01*
X-104510554Y8015101D01*
X-104539031Y7852641D01*
X-117009333Y7852641D01*
X-117009333Y10312708D01*
X-104536921Y10312708D01*
X-104536451Y10307288D01*
X-104502137Y10145183D01*
X-104431803Y10003776D01*
X-104327746Y9886361D01*
X-104192265Y9796235D01*
X-104173913Y9787367D01*
X-104094724Y9756997D01*
X-104011839Y9741432D01*
X-103907167Y9737080D01*
X-103801791Y9741505D01*
X-103719008Y9757171D01*
X-103640421Y9787367D01*
X-103507167Y9870094D01*
X-103403856Y9976250D01*
X-103330601Y10099797D01*
X-103287514Y10234699D01*
X-103280391Y10312708D01*
X-89296921Y10312708D01*
X-89296451Y10307288D01*
X-89262137Y10145183D01*
X-89191803Y10003776D01*
X-89087746Y9886361D01*
X-88952265Y9796235D01*
X-88933913Y9787367D01*
X-88854724Y9756997D01*
X-88771839Y9741432D01*
X-88667167Y9737080D01*
X-88561791Y9741505D01*
X-88479008Y9757171D01*
X-88400421Y9787367D01*
X-88266951Y9870182D01*
X-88163479Y9976379D01*
X-88090118Y10099933D01*
X-88046981Y10234818D01*
X-88034180Y10375009D01*
X-88051827Y10514478D01*
X-88100035Y10647201D01*
X-88178916Y10767151D01*
X-88288583Y10868302D01*
X-88379239Y10922507D01*
X-88530825Y10976306D01*
X-88681622Y10991924D01*
X-88826653Y10972701D01*
X-88960938Y10921976D01*
X-89079498Y10843089D01*
X-89177355Y10739379D01*
X-89249531Y10614186D01*
X-89291045Y10470849D01*
X-89296921Y10312708D01*
X-103280391Y10312708D01*
X-103274709Y10374918D01*
X-103292297Y10514419D01*
X-103340392Y10647164D01*
X-103419107Y10767117D01*
X-103528553Y10868241D01*
X-103619239Y10922507D01*
X-103770825Y10976306D01*
X-103921622Y10991924D01*
X-104066653Y10972701D01*
X-104200938Y10921976D01*
X-104319498Y10843089D01*
X-104417355Y10739379D01*
X-104489531Y10614186D01*
X-104531045Y10470849D01*
X-104536921Y10312708D01*
X-117009333Y10312708D01*
X-117009333Y11262858D01*
X76096604Y11262858D01*
X76109996Y11109774D01*
X76155591Y10964358D01*
X76231913Y10832407D01*
X76337485Y10719718D01*
X76470831Y10632087D01*
X76547209Y10599569D01*
X76673120Y10571529D01*
X76814977Y10566978D01*
X76955331Y10585047D01*
X77076731Y10624863D01*
X77079373Y10626130D01*
X77206468Y10708097D01*
X77319022Y10819477D01*
X77404144Y10947379D01*
X77407609Y10954302D01*
X77433965Y11015042D01*
X77449589Y11074561D01*
X77456955Y11147230D01*
X77457308Y11169623D01*
X78003004Y11169623D01*
X78032710Y11028863D01*
X78090341Y10897516D01*
X78173585Y10780491D01*
X78280133Y10682695D01*
X78407672Y10609036D01*
X78553893Y10564422D01*
X78716486Y10553760D01*
X78761167Y10557156D01*
X78834713Y10571750D01*
X78922369Y10598628D01*
X78978071Y10620445D01*
X79106586Y10697819D01*
X79219618Y10806572D01*
X79306479Y10936023D01*
X79318471Y10960615D01*
X79344014Y11028876D01*
X79358284Y11104557D01*
X79363726Y11202629D01*
X79364003Y11239500D01*
X79360779Y11347440D01*
X79349476Y11428396D01*
X79327650Y11497341D01*
X79318471Y11518385D01*
X79230353Y11661826D01*
X79113502Y11777313D01*
X78973610Y11861145D01*
X78816368Y11909619D01*
X78700225Y11920521D01*
X78545091Y11910260D01*
X78414711Y11873322D01*
X78297840Y11805309D01*
X78209628Y11728649D01*
X78104533Y11599311D01*
X78036604Y11459755D01*
X78003531Y11314890D01*
X78003004Y11169623D01*
X77457308Y11169623D01*
X77458535Y11247415D01*
X77458523Y11250083D01*
X77456297Y11349124D01*
X77448849Y11420418D01*
X77433371Y11478483D01*
X77407056Y11537837D01*
X77400317Y11551001D01*
X77302613Y11696444D01*
X77177022Y11810039D01*
X77069664Y11871947D01*
X76994843Y11902678D01*
X76923491Y11919756D01*
X76837506Y11926667D01*
X76781638Y11927400D01*
X76687188Y11925112D01*
X76616101Y11915413D01*
X76549529Y11894083D01*
X76470183Y11857670D01*
X76382886Y11807651D01*
X76306363Y11751283D01*
X76264402Y11710153D01*
X76172331Y11568844D01*
X76116890Y11417814D01*
X76096604Y11262858D01*
X-117009333Y11262858D01*
X-117009333Y12902580D01*
X-104531267Y12902580D01*
X-104513680Y12733168D01*
X-104461450Y12588045D01*
X-104374363Y12466865D01*
X-104252206Y12369287D01*
X-104173913Y12327367D01*
X-104043718Y12286872D01*
X-103898275Y12274479D01*
X-103753877Y12290194D01*
X-103640864Y12327162D01*
X-103507685Y12409858D01*
X-103404416Y12516003D01*
X-103331170Y12639554D01*
X-103288062Y12774473D01*
X-103281370Y12847473D01*
X-89296462Y12847473D01*
X-89296216Y12844699D01*
X-89261665Y12685171D01*
X-89190555Y12544050D01*
X-89086229Y12426114D01*
X-88952032Y12336136D01*
X-88933913Y12327367D01*
X-88854724Y12296997D01*
X-88771839Y12281432D01*
X-88667167Y12277080D01*
X-88561791Y12281505D01*
X-88479008Y12297171D01*
X-88400421Y12327367D01*
X-88266524Y12410402D01*
X-88162834Y12516772D01*
X-88089452Y12640464D01*
X-88046475Y12775465D01*
X-88034002Y12915763D01*
X-88052132Y13055347D01*
X-88100964Y13188204D01*
X-88180596Y13308322D01*
X-88291126Y13409689D01*
X-88381768Y13463753D01*
X-88533604Y13517600D01*
X-88684463Y13533031D01*
X-88829385Y13513404D01*
X-88963410Y13462077D01*
X-89081578Y13382408D01*
X-89178927Y13277755D01*
X-89250498Y13151476D01*
X-89291329Y13006929D01*
X-89296462Y12847473D01*
X-103281370Y12847473D01*
X-103275205Y12914718D01*
X-103292712Y13054251D01*
X-103340697Y13187030D01*
X-103419275Y13307015D01*
X-103528558Y13408167D01*
X-103619494Y13462633D01*
X-103772972Y13517011D01*
X-103927770Y13532962D01*
X-104077766Y13512395D01*
X-104216836Y13457217D01*
X-104338858Y13369337D01*
X-104437709Y13250662D01*
X-104467708Y13198309D01*
X-104501387Y13126519D01*
X-104520704Y13064193D01*
X-104529410Y12993881D01*
X-104531267Y12902580D01*
X-117009333Y12902580D01*
X-117009333Y15442580D01*
X-104531267Y15442580D01*
X-104513680Y15273168D01*
X-104461450Y15128045D01*
X-104374363Y15006865D01*
X-104252206Y14909287D01*
X-104173913Y14867367D01*
X-104043718Y14826872D01*
X-103898275Y14814479D01*
X-103753877Y14830194D01*
X-103640864Y14867162D01*
X-103507104Y14951123D01*
X-103401968Y15061342D01*
X-103327252Y15191325D01*
X-103284755Y15334582D01*
X-103276272Y15484622D01*
X-103280620Y15508542D01*
X-89296170Y15508542D01*
X-89293231Y15358025D01*
X-89255993Y15213263D01*
X-89186253Y15080748D01*
X-89085808Y14966972D01*
X-88956455Y14878426D01*
X-88933470Y14867162D01*
X-88803421Y14826767D01*
X-88658022Y14814486D01*
X-88513567Y14830312D01*
X-88400421Y14867367D01*
X-88262157Y14954521D01*
X-88232650Y14986000D01*
X-792241Y14986000D01*
X-780747Y14834996D01*
X-744652Y14709149D01*
X-678877Y14596055D01*
X-592018Y14496834D01*
X-468508Y14401762D01*
X-323899Y14338753D01*
X-166562Y14309477D01*
X-4869Y14315607D01*
X134611Y14351706D01*
X273990Y14425225D01*
X395347Y14531135D01*
X488562Y14660239D01*
X501520Y14685128D01*
X531298Y14751404D01*
X549161Y14810885D01*
X557992Y14878735D01*
X560672Y14970119D01*
X560722Y14996583D01*
X558959Y15094775D01*
X552051Y15165102D01*
X537214Y15221968D01*
X511660Y15279775D01*
X502515Y15297501D01*
X403885Y15443317D01*
X278299Y15556512D01*
X171164Y15617868D01*
X95824Y15648393D01*
X23711Y15665240D01*
X-63389Y15671865D01*
X-116417Y15672428D01*
X-270625Y15659980D01*
X-400778Y15620105D01*
X-518533Y15548111D01*
X-596792Y15479084D01*
X-691040Y15369922D01*
X-752080Y15255711D01*
X-784286Y15125412D01*
X-792241Y14986000D01*
X-88232650Y14986000D01*
X-88150977Y15073128D01*
X-88093373Y15168916D01*
X-88065277Y15236086D01*
X-88049603Y15305030D01*
X-88043321Y15392131D01*
X-88042750Y15442580D01*
X-88045003Y15537244D01*
X-88054284Y15607205D01*
X-88074373Y15669968D01*
X-88106626Y15738309D01*
X-88193054Y15864896D01*
X-88303540Y15961938D01*
X-88431573Y16029061D01*
X-88570643Y16065890D01*
X-88714240Y16072049D01*
X-88855853Y16047163D01*
X-88988972Y15990857D01*
X-89107086Y15902755D01*
X-89191961Y15800878D01*
X-89263012Y15658324D01*
X-89296170Y15508542D01*
X-103280620Y15508542D01*
X-103303602Y15634952D01*
X-103368541Y15779081D01*
X-103382373Y15800878D01*
X-103482305Y15916720D01*
X-103602861Y16000444D01*
X-103737529Y16052423D01*
X-103879798Y16073033D01*
X-104023160Y16062649D01*
X-104161102Y16021647D01*
X-104287116Y15950402D01*
X-104394690Y15849289D01*
X-104467708Y15738309D01*
X-104501387Y15666519D01*
X-104520704Y15604193D01*
X-104529410Y15533881D01*
X-104531267Y15442580D01*
X-117009333Y15442580D01*
X-117009333Y17982580D01*
X-104531583Y17982580D01*
X-104520395Y17835466D01*
X-104483694Y17713128D01*
X-104416776Y17603473D01*
X-104358048Y17536552D01*
X-104240070Y17441267D01*
X-104104713Y17382325D01*
X-103947575Y17357973D01*
X-103907167Y17357080D01*
X-103801611Y17361528D01*
X-103718704Y17377249D01*
X-103640864Y17407162D01*
X-103507104Y17491123D01*
X-103401968Y17601342D01*
X-103327252Y17731325D01*
X-103284755Y17874582D01*
X-103278649Y17982580D01*
X-89291583Y17982580D01*
X-89280395Y17835466D01*
X-89243694Y17713128D01*
X-89176776Y17603473D01*
X-89118048Y17536552D01*
X-89000070Y17441267D01*
X-88864713Y17382325D01*
X-88707575Y17357973D01*
X-88667167Y17357080D01*
X-88561611Y17361528D01*
X-88478704Y17377249D01*
X-88400864Y17407162D01*
X-88269256Y17490634D01*
X-88158414Y17605484D01*
X-88091006Y17713806D01*
X-88063894Y17780045D01*
X-88048879Y17850879D01*
X-88043112Y17942182D01*
X-88042750Y17982580D01*
X-88045003Y18077244D01*
X-88054284Y18147205D01*
X-88074373Y18209968D01*
X-88106626Y18278309D01*
X-88195974Y18408561D01*
X-88313315Y18509689D01*
X-88453068Y18578353D01*
X-88609650Y18611216D01*
X-88667167Y18613641D01*
X-88828304Y18594045D01*
X-88974558Y18537483D01*
X-89100346Y18447293D01*
X-89200086Y18326816D01*
X-89227708Y18278309D01*
X-89261456Y18206293D01*
X-89280830Y18143590D01*
X-89289611Y18072695D01*
X-89291583Y17982580D01*
X-103278649Y17982580D01*
X-103276272Y18024622D01*
X-103303602Y18174952D01*
X-103368541Y18319081D01*
X-103382373Y18340878D01*
X-103482305Y18456720D01*
X-103602861Y18540444D01*
X-103737529Y18592423D01*
X-103879798Y18613033D01*
X-104023160Y18602649D01*
X-104161102Y18561647D01*
X-104287116Y18490402D01*
X-104394690Y18389289D01*
X-104467708Y18278309D01*
X-104501456Y18206293D01*
X-104520830Y18143590D01*
X-104529611Y18072695D01*
X-104531583Y17982580D01*
X-117009333Y17982580D01*
X-117009333Y20522453D01*
X-104531583Y20522453D01*
X-104528408Y20420045D01*
X-104516981Y20343734D01*
X-104494445Y20277630D01*
X-104483328Y20253806D01*
X-104395095Y20119572D01*
X-104277558Y20008880D01*
X-104173470Y19945882D01*
X-104112799Y19919872D01*
X-104056973Y19905373D01*
X-103990960Y19900109D01*
X-103899729Y19901806D01*
X-103886000Y19902386D01*
X-103766648Y19912236D01*
X-103677917Y19931145D01*
X-103621417Y19954301D01*
X-103508345Y20032173D01*
X-103406556Y20137321D01*
X-103330725Y20254387D01*
X-103303727Y20320537D01*
X-103288791Y20391640D01*
X-103283088Y20483503D01*
X-103282750Y20522580D01*
X-89291583Y20522580D01*
X-89280502Y20375858D01*
X-89244185Y20254381D01*
X-89178019Y20146424D01*
X-89116609Y20077735D01*
X-89021491Y19994489D01*
X-88926164Y19940460D01*
X-88818847Y19911398D01*
X-88687757Y19903053D01*
X-88635417Y19904190D01*
X-88519197Y19913602D01*
X-88431311Y19933539D01*
X-88377317Y19956335D01*
X-88258559Y20038453D01*
X-88155266Y20149941D01*
X-88091006Y20253806D01*
X-88063894Y20320045D01*
X-88048879Y20390879D01*
X-88043112Y20482182D01*
X-88042750Y20522580D01*
X-88045003Y20617244D01*
X-88054284Y20687205D01*
X-88074373Y20749968D01*
X-88106626Y20818309D01*
X-88195793Y20948067D01*
X-88313245Y21049574D01*
X-88452738Y21119076D01*
X-88608031Y21152817D01*
X-88667167Y21155487D01*
X-88826656Y21135673D01*
X-88972613Y21078734D01*
X-89098798Y20988424D01*
X-89198966Y20868499D01*
X-89227708Y20818309D01*
X-89261456Y20746293D01*
X-89280830Y20683590D01*
X-89289611Y20612695D01*
X-89291583Y20522580D01*
X-103282750Y20522580D01*
X-103285003Y20617244D01*
X-103294284Y20687205D01*
X-103314373Y20749968D01*
X-103346626Y20818309D01*
X-103433468Y20946182D01*
X-103543461Y21043610D01*
X-103670347Y21110595D01*
X-103807869Y21147137D01*
X-103949770Y21153237D01*
X-104089792Y21128897D01*
X-104221679Y21074116D01*
X-104339173Y20988895D01*
X-104436017Y20873235D01*
X-104467708Y20818182D01*
X-104501479Y20746033D01*
X-104520855Y20683215D01*
X-104529625Y20612189D01*
X-104531583Y20522453D01*
X-117009333Y20522453D01*
X-117009333Y23137314D01*
X-104536383Y23137314D01*
X-104534664Y22983239D01*
X-104497023Y22835999D01*
X-104426472Y22701872D01*
X-104326021Y22587137D01*
X-104198684Y22498071D01*
X-104097804Y22455219D01*
X-104024281Y22442739D01*
X-103925812Y22440990D01*
X-103818041Y22448682D01*
X-103716613Y22464528D01*
X-103637174Y22487240D01*
X-103621417Y22494438D01*
X-103508623Y22571958D01*
X-103406967Y22676804D01*
X-103330870Y22794093D01*
X-103330725Y22794387D01*
X-103303727Y22860537D01*
X-103288791Y22931640D01*
X-103283088Y23023503D01*
X-103282750Y23062580D01*
X-89291583Y23062580D01*
X-89288393Y22959971D01*
X-89276938Y22883537D01*
X-89254390Y22817471D01*
X-89243609Y22794387D01*
X-89155814Y22660665D01*
X-89039182Y22550601D01*
X-88902484Y22471908D01*
X-88857804Y22455219D01*
X-88784281Y22442739D01*
X-88685812Y22440990D01*
X-88578041Y22448682D01*
X-88476613Y22464528D01*
X-88397174Y22487240D01*
X-88381417Y22494438D01*
X-88268623Y22571958D01*
X-88166967Y22676804D01*
X-88090870Y22794093D01*
X-88090725Y22794387D01*
X-88063727Y22860537D01*
X-88048791Y22931640D01*
X-88043088Y23023503D01*
X-88042750Y23062580D01*
X-88045003Y23157244D01*
X-88054284Y23227205D01*
X-88074373Y23289968D01*
X-88106626Y23358309D01*
X-88195793Y23488067D01*
X-88313245Y23589574D01*
X-88452738Y23659076D01*
X-88608031Y23692817D01*
X-88667167Y23695487D01*
X-88826656Y23675673D01*
X-88972613Y23618734D01*
X-89098798Y23528424D01*
X-89198966Y23408499D01*
X-89227708Y23358309D01*
X-89261456Y23286293D01*
X-89280830Y23223590D01*
X-89289611Y23152695D01*
X-89291583Y23062580D01*
X-103282750Y23062580D01*
X-103285003Y23157244D01*
X-103294284Y23227205D01*
X-103314373Y23289968D01*
X-103346626Y23358309D01*
X-103433313Y23486300D01*
X-103542504Y23583384D01*
X-103668149Y23649912D01*
X-103804197Y23686230D01*
X-103944600Y23692688D01*
X-104083306Y23669634D01*
X-104214267Y23617416D01*
X-104331432Y23536382D01*
X-104428751Y23426881D01*
X-104499169Y23291945D01*
X-104536383Y23137314D01*
X-117009333Y23137314D01*
X-117009333Y25647936D01*
X-104538716Y25647936D01*
X-104530837Y25503436D01*
X-104491495Y25364080D01*
X-104422215Y25236039D01*
X-104324519Y25125483D01*
X-104199932Y25038582D01*
X-104097804Y24995219D01*
X-104024281Y24982739D01*
X-103925812Y24980990D01*
X-103818041Y24988682D01*
X-103716613Y25004528D01*
X-103637174Y25027240D01*
X-103621417Y25034438D01*
X-103508623Y25111958D01*
X-103406967Y25216804D01*
X-103330870Y25334093D01*
X-103330725Y25334387D01*
X-103291542Y25454942D01*
X-103278817Y25593782D01*
X-103281478Y25622041D01*
X-89294929Y25622041D01*
X-89287383Y25481311D01*
X-89253437Y25356004D01*
X-89243609Y25334387D01*
X-89155814Y25200665D01*
X-89039182Y25090601D01*
X-88902484Y25011908D01*
X-88857804Y24995219D01*
X-88784281Y24982739D01*
X-88685812Y24980990D01*
X-88578041Y24988682D01*
X-88476613Y25004528D01*
X-88397174Y25027240D01*
X-88381417Y25034438D01*
X-88268623Y25111958D01*
X-88166967Y25216804D01*
X-88090870Y25334093D01*
X-88090725Y25334387D01*
X-88051542Y25454942D01*
X-88043968Y25537583D01*
X108512702Y25537583D01*
X108525390Y25381301D01*
X108566243Y25249182D01*
X108639445Y25130506D01*
X108697138Y25064878D01*
X108814795Y24961895D01*
X108936508Y24895729D01*
X109072540Y24862325D01*
X109222935Y24857190D01*
X109333555Y24866591D01*
X109422790Y24887796D01*
X109501500Y24920744D01*
X109636596Y25009657D01*
X109751652Y25132202D01*
X109784623Y25184039D01*
X111083292Y25184039D01*
X111104521Y25037862D01*
X111149682Y24909399D01*
X111157309Y24894727D01*
X111253968Y24760101D01*
X111380616Y24651093D01*
X111529875Y24573422D01*
X111601250Y24550532D01*
X111684312Y24539984D01*
X111789964Y24541930D01*
X111900895Y24554730D01*
X111999791Y24576739D01*
X112043504Y24592493D01*
X112181616Y24675235D01*
X112292997Y24785621D01*
X112375712Y24917046D01*
X112427823Y25062908D01*
X112447395Y25216602D01*
X112432491Y25371526D01*
X112381175Y25521077D01*
X112337985Y25596760D01*
X112227058Y25729967D01*
X112095859Y25826070D01*
X111945227Y25884659D01*
X111776000Y25905321D01*
X111711487Y25903449D01*
X111549553Y25873133D01*
X111402133Y25807139D01*
X111275402Y25710014D01*
X111175537Y25586307D01*
X111117121Y25465710D01*
X111087118Y25331973D01*
X111083292Y25184039D01*
X109784623Y25184039D01*
X109817041Y25235005D01*
X109840332Y25284951D01*
X109854877Y25336747D01*
X109862594Y25402354D01*
X109865403Y25493738D01*
X109865583Y25537583D01*
X109864133Y25641861D01*
X109858501Y25715829D01*
X109846770Y25771451D01*
X109827019Y25820691D01*
X109817041Y25840162D01*
X109718432Y25984262D01*
X109594143Y26098566D01*
X109498565Y26156078D01*
X109429887Y26186627D01*
X109367678Y26204429D01*
X109295649Y26212657D01*
X109198833Y26214489D01*
X109042119Y26202915D01*
X108912101Y26166264D01*
X108798690Y26100415D01*
X108700686Y26010863D01*
X108607994Y25896839D01*
X108549434Y25784204D01*
X108519577Y25659285D01*
X108512702Y25537583D01*
X-88043968Y25537583D01*
X-88038817Y25593782D01*
X-88052250Y25736386D01*
X-88091539Y25868236D01*
X-88102304Y25891693D01*
X-88190430Y26027016D01*
X-88304594Y26129600D01*
X-88442163Y26197853D01*
X-88600500Y26230180D01*
X-88666029Y26232712D01*
X-88833309Y26213585D01*
X-88980052Y26158504D01*
X-89103768Y26068969D01*
X-89201966Y25946481D01*
X-89232030Y25891693D01*
X-89276378Y25763674D01*
X-89294929Y25622041D01*
X-103281478Y25622041D01*
X-103292250Y25736386D01*
X-103331539Y25868236D01*
X-103342304Y25891693D01*
X-103430181Y26026268D01*
X-103544528Y26128517D01*
X-103682692Y26196840D01*
X-103842020Y26229638D01*
X-103907167Y26232453D01*
X-104057418Y26220102D01*
X-104183957Y26179341D01*
X-104298029Y26105638D01*
X-104358352Y26050596D01*
X-104453997Y25927686D01*
X-104513611Y25791409D01*
X-104538716Y25647936D01*
X-117009333Y25647936D01*
X-117009333Y26397203D01*
X11916127Y26397203D01*
X11928228Y26263019D01*
X11959171Y26147439D01*
X11967172Y26128866D01*
X12058256Y25977933D01*
X12175041Y25859813D01*
X12315946Y25775900D01*
X12402620Y25744984D01*
X12511856Y25727657D01*
X12639488Y25727916D01*
X12766334Y25744436D01*
X12873209Y25775891D01*
X12877671Y25777826D01*
X13017348Y25861363D01*
X13129600Y25972941D01*
X13212196Y26106585D01*
X13262905Y26256317D01*
X13279497Y26416160D01*
X13259743Y26580138D01*
X13221261Y26698607D01*
X13170529Y26785047D01*
X13093138Y26876308D01*
X13001123Y26960038D01*
X12906518Y27023884D01*
X12901933Y27026334D01*
X12845042Y27053600D01*
X12791928Y27070391D01*
X12729235Y27079145D01*
X12643608Y27082302D01*
X12594167Y27082547D01*
X12494072Y27081128D01*
X12422853Y27075224D01*
X12367099Y27062367D01*
X12313402Y27040087D01*
X12284972Y27025611D01*
X12183193Y26957094D01*
X12086623Y26865784D01*
X12006369Y26763971D01*
X11953536Y26663945D01*
X11950531Y26655524D01*
X11923388Y26533526D01*
X11916127Y26397203D01*
X-117009333Y26397203D01*
X-117009333Y28187936D01*
X-104538716Y28187936D01*
X-104530837Y28043436D01*
X-104491495Y27904080D01*
X-104422215Y27776039D01*
X-104324519Y27665483D01*
X-104199932Y27578582D01*
X-104097804Y27535219D01*
X-104023390Y27522574D01*
X-103924113Y27520922D01*
X-103815615Y27528947D01*
X-103713538Y27545336D01*
X-103633524Y27568773D01*
X-103619034Y27575458D01*
X-103517611Y27645608D01*
X-103422962Y27742673D01*
X-103346456Y27853009D01*
X-103301209Y27956765D01*
X-103276208Y28112137D01*
X-103288288Y28267402D01*
X-103334941Y28414251D01*
X-103413659Y28544375D01*
X-103506844Y28637963D01*
X-103611279Y28709389D01*
X-103713783Y28752204D01*
X-103830168Y28771651D01*
X-103917750Y28774266D01*
X-104070610Y28758421D01*
X-104202052Y28710028D01*
X-104322067Y28624923D01*
X-104358352Y28590596D01*
X-104453997Y28467686D01*
X-104513611Y28331409D01*
X-104538716Y28187936D01*
X-117009333Y28187936D01*
X-117009333Y30214867D01*
X474676Y30214867D01*
X482366Y30072888D01*
X514399Y29946417D01*
X522528Y29927076D01*
X583123Y29823109D01*
X665577Y29721463D01*
X756154Y29638131D01*
X792226Y29613109D01*
X932030Y29550190D01*
X1088231Y29519821D01*
X1249453Y29522601D01*
X1404321Y29559129D01*
X1451387Y29578367D01*
X1576541Y29655977D01*
X1688312Y29763737D01*
X1774361Y29889480D01*
X1781989Y29904419D01*
X1806427Y29961562D01*
X1821278Y30020201D01*
X1828690Y30093551D01*
X1830810Y30194826D01*
X1830815Y30204833D01*
X1829339Y30304969D01*
X1823404Y30376115D01*
X1810566Y30431564D01*
X1788386Y30484612D01*
X1774435Y30511750D01*
X1675783Y30653231D01*
X1546136Y30766486D01*
X1431990Y30830635D01*
X1365310Y30858771D01*
X1308285Y30874760D01*
X1245400Y30881011D01*
X1161142Y30879937D01*
X1125073Y30878341D01*
X1023442Y30870963D01*
X948237Y30857875D01*
X883594Y30835314D01*
X829334Y30808193D01*
X705227Y30722851D01*
X606916Y30613221D01*
X531307Y30480966D01*
X491075Y30356259D01*
X474676Y30214867D01*
X-117009333Y30214867D01*
X-117009333Y34776833D01*
X117009333Y34776833D01*
X117009333Y-34798000D01*
%TD*%
D11*
%TO.C,*%
X-8994824Y-12919127D03*
%TD*%
%TO.C,*%
X-6470914Y-12908583D03*
%TD*%
%TO.C,*%
X-5193644Y-14182245D03*
%TD*%
%TO.C,*%
X-7737504Y-14188284D03*
%TD*%
%TO.C,*%
X526186Y-885164D03*
%TD*%
%TO.C,*%
X-5172984Y4843538D03*
%TD*%
%TO.C,*%
X-114514Y15000065D03*
%TD*%
%TO.C,*%
X10054706Y2941377D03*
%TD*%
%TO.C,*%
X12594856Y26414758D03*
%TD*%
%TO.C,*%
X1157936Y30207547D03*
%TD*%
%TO.C,*%
X76778506Y11256563D03*
%TD*%
%TO.C,*%
X78682806Y11248211D03*
%TD*%
%TO.C,*%
X105352576Y7462797D03*
%TD*%
%TO.C,*%
X106941256Y-126257D03*
%TD*%
%TO.C,*%
X111757386Y25230587D03*
%TD*%
%TO.C,*%
X109190346Y25543697D03*
%TD*%
%TO.C,*%
X115173126Y-2014849D03*
%TD*%
M02*
