%TF.GenerationSoftware,KiCad,Pcbnew,(5.1.6)-1*%
%TF.CreationDate,2020-07-08T21:32:23-04:00*%
%TF.ProjectId,v1.2,76312e32-2e6b-4696-9361-645f70636258,rev?*%
%TF.SameCoordinates,Original*%
%TF.FileFunction,Soldermask,Bot*%
%TF.FilePolarity,Negative*%
%FSLAX46Y46*%
G04 Gerber Fmt 4.6, Leading zero omitted, Abs format (unit mm)*
G04 Created by KiCad (PCBNEW (5.1.6)-1) date 2020-07-08 21:32:23*
%MOMM*%
%LPD*%
G01*
G04 APERTURE LIST*
%ADD10C,0.010000*%
%ADD11C,1.238240*%
G04 APERTURE END LIST*
D10*
%TO.C,G\u002A\u002A\u002A*%
G36*
X1288447Y30877843D02*
G01*
X1345718Y30865418D01*
X1407396Y30841660D01*
X1431990Y30830635D01*
X1582931Y30739695D01*
X1704703Y30618828D01*
X1774435Y30511750D01*
X1801712Y30455362D01*
X1818527Y30402663D01*
X1827321Y30340358D01*
X1830536Y30255153D01*
X1830815Y30204833D01*
X1829036Y30100666D01*
X1822142Y30025513D01*
X1807985Y29966160D01*
X1784419Y29909394D01*
X1781989Y29904419D01*
X1691608Y29765900D01*
X1573802Y29654697D01*
X1435185Y29573809D01*
X1282373Y29526234D01*
X1121977Y29514972D01*
X975389Y29538700D01*
X844263Y29586619D01*
X737075Y29654217D01*
X645244Y29742330D01*
X559841Y29854555D01*
X506756Y29971379D01*
X481271Y30105498D01*
X477288Y30194250D01*
X479571Y30293590D01*
X490109Y30368796D01*
X512278Y30437783D01*
X531307Y30480966D01*
X612595Y30621142D01*
X712324Y30728957D01*
X829334Y30808193D01*
X896879Y30840943D01*
X962406Y30861236D01*
X1041777Y30872834D01*
X1125073Y30878341D01*
X1220070Y30881347D01*
X1288447Y30877843D01*
G37*
X1288447Y30877843D02*
X1345718Y30865418D01*
X1407396Y30841660D01*
X1431990Y30830635D01*
X1582931Y30739695D01*
X1704703Y30618828D01*
X1774435Y30511750D01*
X1801712Y30455362D01*
X1818527Y30402663D01*
X1827321Y30340358D01*
X1830536Y30255153D01*
X1830815Y30204833D01*
X1829036Y30100666D01*
X1822142Y30025513D01*
X1807985Y29966160D01*
X1784419Y29909394D01*
X1781989Y29904419D01*
X1691608Y29765900D01*
X1573802Y29654697D01*
X1435185Y29573809D01*
X1282373Y29526234D01*
X1121977Y29514972D01*
X975389Y29538700D01*
X844263Y29586619D01*
X737075Y29654217D01*
X645244Y29742330D01*
X559841Y29854555D01*
X506756Y29971379D01*
X481271Y30105498D01*
X477288Y30194250D01*
X479571Y30293590D01*
X490109Y30368796D01*
X512278Y30437783D01*
X531307Y30480966D01*
X612595Y30621142D01*
X712324Y30728957D01*
X829334Y30808193D01*
X896879Y30840943D01*
X962406Y30861236D01*
X1041777Y30872834D01*
X1125073Y30878341D01*
X1220070Y30881347D01*
X1288447Y30877843D01*
G36*
X12694431Y27081109D02*
G01*
X12765767Y27075169D01*
X12821530Y27062288D01*
X12875073Y27040026D01*
X12901933Y27026334D01*
X12996352Y26963807D01*
X13088783Y26880779D01*
X13167191Y26789601D01*
X13219542Y26702626D01*
X13221261Y26698607D01*
X13268857Y26535377D01*
X13278484Y26371933D01*
X13252372Y26214253D01*
X13192751Y26068314D01*
X13101852Y25940091D01*
X12981904Y25835563D01*
X12877671Y25777826D01*
X12772293Y25745661D01*
X12645989Y25728365D01*
X12517942Y25727264D01*
X12407334Y25743684D01*
X12402620Y25744984D01*
X12249196Y25809604D01*
X12119027Y25909194D01*
X12013694Y26042358D01*
X11967172Y26128866D01*
X11932693Y26239025D01*
X11916957Y26370931D01*
X11920483Y26508117D01*
X11943793Y26634119D01*
X11950531Y26655524D01*
X12000377Y26754793D01*
X12078636Y26856946D01*
X12174202Y26949692D01*
X12275967Y27020742D01*
X12284972Y27025611D01*
X12342351Y27053189D01*
X12395464Y27070181D01*
X12457722Y27079054D01*
X12542535Y27082280D01*
X12594167Y27082547D01*
X12694431Y27081109D01*
G37*
X12694431Y27081109D02*
X12765767Y27075169D01*
X12821530Y27062288D01*
X12875073Y27040026D01*
X12901933Y27026334D01*
X12996352Y26963807D01*
X13088783Y26880779D01*
X13167191Y26789601D01*
X13219542Y26702626D01*
X13221261Y26698607D01*
X13268857Y26535377D01*
X13278484Y26371933D01*
X13252372Y26214253D01*
X13192751Y26068314D01*
X13101852Y25940091D01*
X12981904Y25835563D01*
X12877671Y25777826D01*
X12772293Y25745661D01*
X12645989Y25728365D01*
X12517942Y25727264D01*
X12407334Y25743684D01*
X12402620Y25744984D01*
X12249196Y25809604D01*
X12119027Y25909194D01*
X12013694Y26042358D01*
X11967172Y26128866D01*
X11932693Y26239025D01*
X11916957Y26370931D01*
X11920483Y26508117D01*
X11943793Y26634119D01*
X11950531Y26655524D01*
X12000377Y26754793D01*
X12078636Y26856946D01*
X12174202Y26949692D01*
X12275967Y27020742D01*
X12284972Y27025611D01*
X12342351Y27053189D01*
X12395464Y27070181D01*
X12457722Y27079054D01*
X12542535Y27082280D01*
X12594167Y27082547D01*
X12694431Y27081109D01*
G36*
X109342270Y26205436D02*
G01*
X109477536Y26165757D01*
X109498565Y26156078D01*
X109637038Y26065002D01*
X109753587Y25940403D01*
X109817041Y25840162D01*
X109840332Y25790216D01*
X109854877Y25738420D01*
X109862594Y25672813D01*
X109865403Y25581429D01*
X109865583Y25537583D01*
X109864133Y25433306D01*
X109858501Y25359338D01*
X109846770Y25303716D01*
X109827019Y25254476D01*
X109817041Y25235005D01*
X109717576Y25087453D01*
X109596136Y24976059D01*
X109452908Y24900942D01*
X109288078Y24862219D01*
X109222935Y24857190D01*
X109136901Y24856314D01*
X109061270Y24859958D01*
X109011229Y24867342D01*
X109008333Y24868217D01*
X108860568Y24936578D01*
X108728136Y25035970D01*
X108620512Y25158057D01*
X108560447Y25262417D01*
X108525040Y25379055D01*
X108510624Y25514432D01*
X108517277Y25651816D01*
X108545075Y25774478D01*
X108557937Y25806765D01*
X108624634Y25918453D01*
X108716759Y26025147D01*
X108821750Y26114026D01*
X108908558Y26164588D01*
X109042272Y26205075D01*
X109192012Y26218616D01*
X109342270Y26205436D01*
G37*
X109342270Y26205436D02*
X109477536Y26165757D01*
X109498565Y26156078D01*
X109637038Y26065002D01*
X109753587Y25940403D01*
X109817041Y25840162D01*
X109840332Y25790216D01*
X109854877Y25738420D01*
X109862594Y25672813D01*
X109865403Y25581429D01*
X109865583Y25537583D01*
X109864133Y25433306D01*
X109858501Y25359338D01*
X109846770Y25303716D01*
X109827019Y25254476D01*
X109817041Y25235005D01*
X109717576Y25087453D01*
X109596136Y24976059D01*
X109452908Y24900942D01*
X109288078Y24862219D01*
X109222935Y24857190D01*
X109136901Y24856314D01*
X109061270Y24859958D01*
X109011229Y24867342D01*
X109008333Y24868217D01*
X108860568Y24936578D01*
X108728136Y25035970D01*
X108620512Y25158057D01*
X108560447Y25262417D01*
X108525040Y25379055D01*
X108510624Y25514432D01*
X108517277Y25651816D01*
X108545075Y25774478D01*
X108557937Y25806765D01*
X108624634Y25918453D01*
X108716759Y26025147D01*
X108821750Y26114026D01*
X108908558Y26164588D01*
X109042272Y26205075D01*
X109192012Y26218616D01*
X109342270Y26205436D01*
G36*
X111887125Y25896374D02*
G01*
X112044467Y25851228D01*
X112182674Y25768421D01*
X112300907Y25648363D01*
X112337985Y25596760D01*
X112409624Y25452811D01*
X112443813Y25299947D01*
X112442488Y25144772D01*
X112407585Y24993889D01*
X112341040Y24853902D01*
X112244791Y24731413D01*
X112120773Y24633025D01*
X112043504Y24592493D01*
X111958928Y24566039D01*
X111852613Y24547874D01*
X111741869Y24539641D01*
X111644010Y24542983D01*
X111601250Y24550532D01*
X111444337Y24612506D01*
X111306769Y24708347D01*
X111195925Y24832339D01*
X111157309Y24894727D01*
X111109097Y25019689D01*
X111084670Y25164453D01*
X111085151Y25313065D01*
X111111663Y25449570D01*
X111117121Y25465710D01*
X111189769Y25608160D01*
X111294449Y25727832D01*
X111424985Y25820178D01*
X111575201Y25880650D01*
X111711487Y25903449D01*
X111887125Y25896374D01*
G37*
X111887125Y25896374D02*
X112044467Y25851228D01*
X112182674Y25768421D01*
X112300907Y25648363D01*
X112337985Y25596760D01*
X112409624Y25452811D01*
X112443813Y25299947D01*
X112442488Y25144772D01*
X112407585Y24993889D01*
X112341040Y24853902D01*
X112244791Y24731413D01*
X112120773Y24633025D01*
X112043504Y24592493D01*
X111958928Y24566039D01*
X111852613Y24547874D01*
X111741869Y24539641D01*
X111644010Y24542983D01*
X111601250Y24550532D01*
X111444337Y24612506D01*
X111306769Y24708347D01*
X111195925Y24832339D01*
X111157309Y24894727D01*
X111109097Y25019689D01*
X111084670Y25164453D01*
X111085151Y25313065D01*
X111111663Y25449570D01*
X111117121Y25465710D01*
X111189769Y25608160D01*
X111294449Y25727832D01*
X111424985Y25820178D01*
X111575201Y25880650D01*
X111711487Y25903449D01*
X111887125Y25896374D01*
G36*
X33043Y15661118D02*
G01*
X166027Y15620213D01*
X171164Y15617868D01*
X316241Y15528055D01*
X434253Y15405729D01*
X502515Y15297501D01*
X531457Y15236955D01*
X548926Y15181257D01*
X557710Y15116006D01*
X560593Y15026797D01*
X560722Y14996583D01*
X559066Y14897488D01*
X551936Y14825481D01*
X536449Y14765399D01*
X509723Y14702077D01*
X501520Y14685128D01*
X412876Y14550119D01*
X296506Y14442491D01*
X158874Y14364667D01*
X6444Y14319069D01*
X-154317Y14308116D01*
X-316946Y14334232D01*
X-379676Y14355062D01*
X-496929Y14419064D01*
X-607467Y14514021D01*
X-699698Y14628838D01*
X-740280Y14700250D01*
X-778373Y14817113D01*
X-794929Y14954377D01*
X-789824Y15095927D01*
X-762934Y15225646D01*
X-744678Y15273695D01*
X-676326Y15386079D01*
X-579705Y15493217D01*
X-468121Y15581894D01*
X-391583Y15624412D01*
X-261570Y15663402D01*
X-114759Y15675576D01*
X33043Y15661118D01*
G37*
X33043Y15661118D02*
X166027Y15620213D01*
X171164Y15617868D01*
X316241Y15528055D01*
X434253Y15405729D01*
X502515Y15297501D01*
X531457Y15236955D01*
X548926Y15181257D01*
X557710Y15116006D01*
X560593Y15026797D01*
X560722Y14996583D01*
X559066Y14897488D01*
X551936Y14825481D01*
X536449Y14765399D01*
X509723Y14702077D01*
X501520Y14685128D01*
X412876Y14550119D01*
X296506Y14442491D01*
X158874Y14364667D01*
X6444Y14319069D01*
X-154317Y14308116D01*
X-316946Y14334232D01*
X-379676Y14355062D01*
X-496929Y14419064D01*
X-607467Y14514021D01*
X-699698Y14628838D01*
X-740280Y14700250D01*
X-778373Y14817113D01*
X-794929Y14954377D01*
X-789824Y15095927D01*
X-762934Y15225646D01*
X-744678Y15273695D01*
X-676326Y15386079D01*
X-579705Y15493217D01*
X-468121Y15581894D01*
X-391583Y15624412D01*
X-261570Y15663402D01*
X-114759Y15675576D01*
X33043Y15661118D01*
G36*
X76882209Y11924363D02*
G01*
X76958831Y11912952D01*
X77029606Y11889683D01*
X77069664Y11871947D01*
X77215273Y11781221D01*
X77332998Y11658642D01*
X77400317Y11551001D01*
X77429111Y11489670D01*
X77446511Y11432502D01*
X77455326Y11364980D01*
X77458363Y11272585D01*
X77458523Y11250083D01*
X77457044Y11149118D01*
X77449835Y11075991D01*
X77434423Y11016334D01*
X77408334Y10955779D01*
X77407609Y10954302D01*
X77324282Y10825888D01*
X77212847Y10713322D01*
X77086195Y10629491D01*
X77079373Y10626130D01*
X76958671Y10585781D01*
X76818578Y10567158D01*
X76676545Y10571132D01*
X76550023Y10598575D01*
X76547209Y10599569D01*
X76400570Y10672546D01*
X76280970Y10773469D01*
X76189884Y10896544D01*
X76128789Y11035973D01*
X76099161Y11185959D01*
X76102476Y11340707D01*
X76140210Y11494418D01*
X76213839Y11641297D01*
X76264402Y11710153D01*
X76321074Y11763340D01*
X76401282Y11819326D01*
X76470183Y11857670D01*
X76550698Y11894554D01*
X76617191Y11915657D01*
X76688511Y11925199D01*
X76781638Y11927400D01*
X76882209Y11924363D01*
G37*
X76882209Y11924363D02*
X76958831Y11912952D01*
X77029606Y11889683D01*
X77069664Y11871947D01*
X77215273Y11781221D01*
X77332998Y11658642D01*
X77400317Y11551001D01*
X77429111Y11489670D01*
X77446511Y11432502D01*
X77455326Y11364980D01*
X77458363Y11272585D01*
X77458523Y11250083D01*
X77457044Y11149118D01*
X77449835Y11075991D01*
X77434423Y11016334D01*
X77408334Y10955779D01*
X77407609Y10954302D01*
X77324282Y10825888D01*
X77212847Y10713322D01*
X77086195Y10629491D01*
X77079373Y10626130D01*
X76958671Y10585781D01*
X76818578Y10567158D01*
X76676545Y10571132D01*
X76550023Y10598575D01*
X76547209Y10599569D01*
X76400570Y10672546D01*
X76280970Y10773469D01*
X76189884Y10896544D01*
X76128789Y11035973D01*
X76099161Y11185959D01*
X76102476Y11340707D01*
X76140210Y11494418D01*
X76213839Y11641297D01*
X76264402Y11710153D01*
X76321074Y11763340D01*
X76401282Y11819326D01*
X76470183Y11857670D01*
X76550698Y11894554D01*
X76617191Y11915657D01*
X76688511Y11925199D01*
X76781638Y11927400D01*
X76882209Y11924363D01*
G36*
X78768701Y11916303D02*
G01*
X78925879Y11879476D01*
X79068209Y11810068D01*
X79186333Y11711310D01*
X79272624Y11603299D01*
X79327646Y11495170D01*
X79356414Y11373606D01*
X79364003Y11239500D01*
X79360779Y11131560D01*
X79349476Y11050604D01*
X79327650Y10981660D01*
X79318471Y10960615D01*
X79231173Y10819151D01*
X79114970Y10704507D01*
X78976176Y10620009D01*
X78821100Y10568982D01*
X78656057Y10554754D01*
X78564983Y10563547D01*
X78409809Y10608648D01*
X78274913Y10686903D01*
X78163426Y10792761D01*
X78078475Y10920673D01*
X78023190Y11065088D01*
X78000701Y11220456D01*
X78014135Y11381227D01*
X78044133Y11487414D01*
X78104445Y11603912D01*
X78192990Y11714204D01*
X78298917Y11807465D01*
X78411373Y11872867D01*
X78442322Y11884637D01*
X78604806Y11918655D01*
X78768701Y11916303D01*
G37*
X78768701Y11916303D02*
X78925879Y11879476D01*
X79068209Y11810068D01*
X79186333Y11711310D01*
X79272624Y11603299D01*
X79327646Y11495170D01*
X79356414Y11373606D01*
X79364003Y11239500D01*
X79360779Y11131560D01*
X79349476Y11050604D01*
X79327650Y10981660D01*
X79318471Y10960615D01*
X79231173Y10819151D01*
X79114970Y10704507D01*
X78976176Y10620009D01*
X78821100Y10568982D01*
X78656057Y10554754D01*
X78564983Y10563547D01*
X78409809Y10608648D01*
X78274913Y10686903D01*
X78163426Y10792761D01*
X78078475Y10920673D01*
X78023190Y11065088D01*
X78000701Y11220456D01*
X78014135Y11381227D01*
X78044133Y11487414D01*
X78104445Y11603912D01*
X78192990Y11714204D01*
X78298917Y11807465D01*
X78411373Y11872867D01*
X78442322Y11884637D01*
X78604806Y11918655D01*
X78768701Y11916303D01*
G36*
X105540869Y8113142D02*
G01*
X105687777Y8052967D01*
X105817921Y7962765D01*
X105923751Y7846387D01*
X105983574Y7742134D01*
X106024453Y7607462D01*
X106038144Y7457118D01*
X106024857Y7306472D01*
X105984798Y7170896D01*
X105975578Y7150935D01*
X105884678Y7012647D01*
X105761249Y6897256D01*
X105659662Y6833959D01*
X105583085Y6807345D01*
X105479894Y6788495D01*
X105365285Y6778549D01*
X105254455Y6778646D01*
X105162601Y6789927D01*
X105142553Y6795183D01*
X105087122Y6818811D01*
X105017001Y6857214D01*
X104973924Y6884435D01*
X104848529Y6991335D01*
X104757317Y7116115D01*
X104699169Y7253288D01*
X104672969Y7397364D01*
X104677601Y7542855D01*
X104711947Y7684272D01*
X104774890Y7816125D01*
X104865315Y7932928D01*
X104982103Y8029189D01*
X105124139Y8099422D01*
X105226955Y8128010D01*
X105384745Y8139440D01*
X105540869Y8113142D01*
G37*
X105540869Y8113142D02*
X105687777Y8052967D01*
X105817921Y7962765D01*
X105923751Y7846387D01*
X105983574Y7742134D01*
X106024453Y7607462D01*
X106038144Y7457118D01*
X106024857Y7306472D01*
X105984798Y7170896D01*
X105975578Y7150935D01*
X105884678Y7012647D01*
X105761249Y6897256D01*
X105659662Y6833959D01*
X105583085Y6807345D01*
X105479894Y6788495D01*
X105365285Y6778549D01*
X105254455Y6778646D01*
X105162601Y6789927D01*
X105142553Y6795183D01*
X105087122Y6818811D01*
X105017001Y6857214D01*
X104973924Y6884435D01*
X104848529Y6991335D01*
X104757317Y7116115D01*
X104699169Y7253288D01*
X104672969Y7397364D01*
X104677601Y7542855D01*
X104711947Y7684272D01*
X104774890Y7816125D01*
X104865315Y7932928D01*
X104982103Y8029189D01*
X105124139Y8099422D01*
X105226955Y8128010D01*
X105384745Y8139440D01*
X105540869Y8113142D01*
G36*
X-5080188Y5511906D02*
G01*
X-5011192Y5503047D01*
X-4947807Y5483036D01*
X-4871710Y5447590D01*
X-4856413Y5439833D01*
X-4720020Y5349958D01*
X-4616233Y5239930D01*
X-4543810Y5114848D01*
X-4501509Y4979810D01*
X-4488086Y4839912D01*
X-4502300Y4700254D01*
X-4542907Y4565932D01*
X-4608666Y4442044D01*
X-4698334Y4333689D01*
X-4810668Y4245964D01*
X-4944426Y4183967D01*
X-5098366Y4152795D01*
X-5170753Y4150141D01*
X-5260909Y4156130D01*
X-5350905Y4169916D01*
X-5397500Y4181469D01*
X-5530934Y4244237D01*
X-5651981Y4341969D01*
X-5752328Y4467496D01*
X-5776604Y4508500D01*
X-5814351Y4580826D01*
X-5836916Y4638744D01*
X-5848178Y4698506D01*
X-5852013Y4776361D01*
X-5852356Y4826000D01*
X-5850095Y4926153D01*
X-5840984Y5000516D01*
X-5821980Y5065462D01*
X-5797279Y5122333D01*
X-5705490Y5267452D01*
X-5582595Y5385236D01*
X-5461000Y5458596D01*
X-5388277Y5488918D01*
X-5318849Y5505930D01*
X-5235127Y5513012D01*
X-5173116Y5513900D01*
X-5080188Y5511906D01*
G37*
X-5080188Y5511906D02*
X-5011192Y5503047D01*
X-4947807Y5483036D01*
X-4871710Y5447590D01*
X-4856413Y5439833D01*
X-4720020Y5349958D01*
X-4616233Y5239930D01*
X-4543810Y5114848D01*
X-4501509Y4979810D01*
X-4488086Y4839912D01*
X-4502300Y4700254D01*
X-4542907Y4565932D01*
X-4608666Y4442044D01*
X-4698334Y4333689D01*
X-4810668Y4245964D01*
X-4944426Y4183967D01*
X-5098366Y4152795D01*
X-5170753Y4150141D01*
X-5260909Y4156130D01*
X-5350905Y4169916D01*
X-5397500Y4181469D01*
X-5530934Y4244237D01*
X-5651981Y4341969D01*
X-5752328Y4467496D01*
X-5776604Y4508500D01*
X-5814351Y4580826D01*
X-5836916Y4638744D01*
X-5848178Y4698506D01*
X-5852013Y4776361D01*
X-5852356Y4826000D01*
X-5850095Y4926153D01*
X-5840984Y5000516D01*
X-5821980Y5065462D01*
X-5797279Y5122333D01*
X-5705490Y5267452D01*
X-5582595Y5385236D01*
X-5461000Y5458596D01*
X-5388277Y5488918D01*
X-5318849Y5505930D01*
X-5235127Y5513012D01*
X-5173116Y5513900D01*
X-5080188Y5511906D01*
G36*
X10151962Y3606698D02*
G01*
X10223906Y3598253D01*
X10286358Y3580161D01*
X10354788Y3549642D01*
X10494399Y3458878D01*
X10605004Y3341098D01*
X10684209Y3202210D01*
X10729623Y3048121D01*
X10738853Y2884736D01*
X10709506Y2717962D01*
X10701695Y2693214D01*
X10645228Y2578142D01*
X10559027Y2466824D01*
X10454747Y2371911D01*
X10345634Y2306738D01*
X10232384Y2271516D01*
X10102657Y2252697D01*
X9973584Y2251448D01*
X9862299Y2268939D01*
X9849362Y2272869D01*
X9693201Y2344559D01*
X9564538Y2448426D01*
X9463569Y2584294D01*
X9429720Y2650304D01*
X9382510Y2801687D01*
X9372126Y2960339D01*
X9396872Y3117579D01*
X9455049Y3264726D01*
X9544959Y3393098D01*
X9582356Y3430833D01*
X9690400Y3517126D01*
X9798653Y3572184D01*
X9920421Y3601023D01*
X10054167Y3608710D01*
X10151962Y3606698D01*
G37*
X10151962Y3606698D02*
X10223906Y3598253D01*
X10286358Y3580161D01*
X10354788Y3549642D01*
X10494399Y3458878D01*
X10605004Y3341098D01*
X10684209Y3202210D01*
X10729623Y3048121D01*
X10738853Y2884736D01*
X10709506Y2717962D01*
X10701695Y2693214D01*
X10645228Y2578142D01*
X10559027Y2466824D01*
X10454747Y2371911D01*
X10345634Y2306738D01*
X10232384Y2271516D01*
X10102657Y2252697D01*
X9973584Y2251448D01*
X9862299Y2268939D01*
X9849362Y2272869D01*
X9693201Y2344559D01*
X9564538Y2448426D01*
X9463569Y2584294D01*
X9429720Y2650304D01*
X9382510Y2801687D01*
X9372126Y2960339D01*
X9396872Y3117579D01*
X9455049Y3264726D01*
X9544959Y3393098D01*
X9582356Y3430833D01*
X9690400Y3517126D01*
X9798653Y3572184D01*
X9920421Y3601023D01*
X10054167Y3608710D01*
X10151962Y3606698D01*
G36*
X107094938Y530164D02*
G01*
X107218480Y498375D01*
X107326870Y439839D01*
X107431769Y350011D01*
X107431974Y349807D01*
X107521865Y244903D01*
X107580457Y136531D01*
X107612292Y13030D01*
X107621916Y-137263D01*
X107621917Y-137583D01*
X107619882Y-239257D01*
X107612094Y-313150D01*
X107596025Y-373692D01*
X107570109Y-433364D01*
X107487026Y-561577D01*
X107376484Y-672903D01*
X107250856Y-755046D01*
X107242345Y-759138D01*
X107148652Y-790584D01*
X107033339Y-811403D01*
X106914151Y-819782D01*
X106808832Y-813907D01*
X106773938Y-806998D01*
X106691259Y-776609D01*
X106598829Y-729276D01*
X106511975Y-674030D01*
X106446021Y-619900D01*
X106433660Y-606499D01*
X106393334Y-551058D01*
X106348174Y-478196D01*
X106325016Y-436191D01*
X106296848Y-376341D01*
X106279910Y-320419D01*
X106271514Y-254111D01*
X106268970Y-163103D01*
X106268930Y-137583D01*
X106278845Y14120D01*
X106311138Y138871D01*
X106370211Y248047D01*
X106457797Y350359D01*
X106562548Y440056D01*
X106671017Y498513D01*
X106794801Y530241D01*
X106944583Y539750D01*
X107094938Y530164D01*
G37*
X107094938Y530164D02*
X107218480Y498375D01*
X107326870Y439839D01*
X107431769Y350011D01*
X107431974Y349807D01*
X107521865Y244903D01*
X107580457Y136531D01*
X107612292Y13030D01*
X107621916Y-137263D01*
X107621917Y-137583D01*
X107619882Y-239257D01*
X107612094Y-313150D01*
X107596025Y-373692D01*
X107570109Y-433364D01*
X107487026Y-561577D01*
X107376484Y-672903D01*
X107250856Y-755046D01*
X107242345Y-759138D01*
X107148652Y-790584D01*
X107033339Y-811403D01*
X106914151Y-819782D01*
X106808832Y-813907D01*
X106773938Y-806998D01*
X106691259Y-776609D01*
X106598829Y-729276D01*
X106511975Y-674030D01*
X106446021Y-619900D01*
X106433660Y-606499D01*
X106393334Y-551058D01*
X106348174Y-478196D01*
X106325016Y-436191D01*
X106296848Y-376341D01*
X106279910Y-320419D01*
X106271514Y-254111D01*
X106268970Y-163103D01*
X106268930Y-137583D01*
X106278845Y14120D01*
X106311138Y138871D01*
X106370211Y248047D01*
X106457797Y350359D01*
X106562548Y440056D01*
X106671017Y498513D01*
X106794801Y530241D01*
X106944583Y539750D01*
X107094938Y530164D01*
G36*
X629154Y-223974D02*
G01*
X700134Y-229742D01*
X755382Y-242408D01*
X808174Y-264396D01*
X836083Y-278731D01*
X977564Y-377383D01*
X1090819Y-507030D01*
X1154968Y-621177D01*
X1183104Y-687856D01*
X1199093Y-744881D01*
X1205344Y-807766D01*
X1204270Y-892024D01*
X1202674Y-928093D01*
X1195325Y-1029548D01*
X1182286Y-1104625D01*
X1159769Y-1169238D01*
X1132066Y-1224678D01*
X1037638Y-1355865D01*
X915675Y-1460318D01*
X773584Y-1534910D01*
X618770Y-1576515D01*
X458639Y-1582008D01*
X337620Y-1560016D01*
X187268Y-1497349D01*
X61881Y-1405383D01*
X-37006Y-1290035D01*
X-107861Y-1157224D01*
X-149147Y-1012867D01*
X-159332Y-862883D01*
X-136879Y-713187D01*
X-80255Y-569700D01*
X12074Y-438337D01*
X39338Y-409648D01*
X136241Y-325080D01*
X233217Y-268932D01*
X342281Y-236618D01*
X475446Y-223553D01*
X529167Y-222680D01*
X629154Y-223974D01*
G37*
X629154Y-223974D02*
X700134Y-229742D01*
X755382Y-242408D01*
X808174Y-264396D01*
X836083Y-278731D01*
X977564Y-377383D01*
X1090819Y-507030D01*
X1154968Y-621177D01*
X1183104Y-687856D01*
X1199093Y-744881D01*
X1205344Y-807766D01*
X1204270Y-892024D01*
X1202674Y-928093D01*
X1195325Y-1029548D01*
X1182286Y-1104625D01*
X1159769Y-1169238D01*
X1132066Y-1224678D01*
X1037638Y-1355865D01*
X915675Y-1460318D01*
X773584Y-1534910D01*
X618770Y-1576515D01*
X458639Y-1582008D01*
X337620Y-1560016D01*
X187268Y-1497349D01*
X61881Y-1405383D01*
X-37006Y-1290035D01*
X-107861Y-1157224D01*
X-149147Y-1012867D01*
X-159332Y-862883D01*
X-136879Y-713187D01*
X-80255Y-569700D01*
X12074Y-438337D01*
X39338Y-409648D01*
X136241Y-325080D01*
X233217Y-268932D01*
X342281Y-236618D01*
X475446Y-223553D01*
X529167Y-222680D01*
X629154Y-223974D01*
G36*
X115339844Y-1358582D02*
G01*
X115464167Y-1399984D01*
X115608545Y-1490662D01*
X115726092Y-1612748D01*
X115800446Y-1735667D01*
X115842155Y-1862335D01*
X115859413Y-2005284D01*
X115852132Y-2149356D01*
X115820228Y-2279391D01*
X115803738Y-2317750D01*
X115712577Y-2458138D01*
X115594432Y-2570153D01*
X115455644Y-2651297D01*
X115302553Y-2699074D01*
X115141499Y-2710986D01*
X114978822Y-2684538D01*
X114921380Y-2665259D01*
X114786582Y-2592456D01*
X114667586Y-2487750D01*
X114575422Y-2361298D01*
X114560480Y-2332872D01*
X114530702Y-2266596D01*
X114512838Y-2207115D01*
X114504008Y-2139265D01*
X114501327Y-2047881D01*
X114501278Y-2021417D01*
X114503041Y-1923225D01*
X114509949Y-1852898D01*
X114524786Y-1796032D01*
X114550340Y-1738225D01*
X114559484Y-1720499D01*
X114658115Y-1574683D01*
X114783700Y-1461488D01*
X114890836Y-1400132D01*
X115031962Y-1355454D01*
X115186515Y-1341603D01*
X115339844Y-1358582D01*
G37*
X115339844Y-1358582D02*
X115464167Y-1399984D01*
X115608545Y-1490662D01*
X115726092Y-1612748D01*
X115800446Y-1735667D01*
X115842155Y-1862335D01*
X115859413Y-2005284D01*
X115852132Y-2149356D01*
X115820228Y-2279391D01*
X115803738Y-2317750D01*
X115712577Y-2458138D01*
X115594432Y-2570153D01*
X115455644Y-2651297D01*
X115302553Y-2699074D01*
X115141499Y-2710986D01*
X114978822Y-2684538D01*
X114921380Y-2665259D01*
X114786582Y-2592456D01*
X114667586Y-2487750D01*
X114575422Y-2361298D01*
X114560480Y-2332872D01*
X114530702Y-2266596D01*
X114512838Y-2207115D01*
X114504008Y-2139265D01*
X114501327Y-2047881D01*
X114501278Y-2021417D01*
X114503041Y-1923225D01*
X114509949Y-1852898D01*
X114524786Y-1796032D01*
X114550340Y-1738225D01*
X114559484Y-1720499D01*
X114658115Y-1574683D01*
X114783700Y-1461488D01*
X114890836Y-1400132D01*
X115031962Y-1355454D01*
X115186515Y-1341603D01*
X115339844Y-1358582D01*
G36*
X-6341188Y-12404600D02*
G01*
X-6216110Y-12452213D01*
X-6105803Y-12529410D01*
X-6017443Y-12634767D01*
X-5978080Y-12710583D01*
X-5948822Y-12823193D01*
X-5943399Y-12950891D01*
X-5961359Y-13075008D01*
X-5988758Y-13152172D01*
X-6069600Y-13273346D01*
X-6177487Y-13366589D01*
X-6305009Y-13428373D01*
X-6444754Y-13455173D01*
X-6589312Y-13443459D01*
X-6596973Y-13441695D01*
X-6730818Y-13390270D01*
X-6840105Y-13309645D01*
X-6923048Y-13206308D01*
X-6977859Y-13086748D01*
X-7002753Y-12957450D01*
X-6995942Y-12824904D01*
X-6955639Y-12695597D01*
X-6880059Y-12576016D01*
X-6845730Y-12538449D01*
X-6733308Y-12453494D01*
X-6606961Y-12403817D01*
X-6473863Y-12387993D01*
X-6341188Y-12404600D01*
G37*
X-6341188Y-12404600D02*
X-6216110Y-12452213D01*
X-6105803Y-12529410D01*
X-6017443Y-12634767D01*
X-5978080Y-12710583D01*
X-5948822Y-12823193D01*
X-5943399Y-12950891D01*
X-5961359Y-13075008D01*
X-5988758Y-13152172D01*
X-6069600Y-13273346D01*
X-6177487Y-13366589D01*
X-6305009Y-13428373D01*
X-6444754Y-13455173D01*
X-6589312Y-13443459D01*
X-6596973Y-13441695D01*
X-6730818Y-13390270D01*
X-6840105Y-13309645D01*
X-6923048Y-13206308D01*
X-6977859Y-13086748D01*
X-7002753Y-12957450D01*
X-6995942Y-12824904D01*
X-6955639Y-12695597D01*
X-6880059Y-12576016D01*
X-6845730Y-12538449D01*
X-6733308Y-12453494D01*
X-6606961Y-12403817D01*
X-6473863Y-12387993D01*
X-6341188Y-12404600D01*
G36*
X-8843669Y-12423454D02*
G01*
X-8710640Y-12478437D01*
X-8600567Y-12567162D01*
X-8517271Y-12687243D01*
X-8506271Y-12710113D01*
X-8477536Y-12809741D01*
X-8467516Y-12928514D01*
X-8476212Y-13047831D01*
X-8503623Y-13149092D01*
X-8506270Y-13155083D01*
X-8557469Y-13236423D01*
X-8631641Y-13317371D01*
X-8716131Y-13386433D01*
X-8798282Y-13432115D01*
X-8818992Y-13439108D01*
X-8926485Y-13456472D01*
X-9047799Y-13457211D01*
X-9159691Y-13441627D01*
X-9186333Y-13434327D01*
X-9256135Y-13398046D01*
X-9333812Y-13336043D01*
X-9408132Y-13259841D01*
X-9467859Y-13180961D01*
X-9501762Y-13110926D01*
X-9501815Y-13110740D01*
X-9526583Y-12954753D01*
X-9514346Y-12809479D01*
X-9468398Y-12679519D01*
X-9392038Y-12569474D01*
X-9288562Y-12483944D01*
X-9161266Y-12427532D01*
X-9013448Y-12404837D01*
X-8995833Y-12404596D01*
X-8843669Y-12423454D01*
G37*
X-8843669Y-12423454D02*
X-8710640Y-12478437D01*
X-8600567Y-12567162D01*
X-8517271Y-12687243D01*
X-8506271Y-12710113D01*
X-8477536Y-12809741D01*
X-8467516Y-12928514D01*
X-8476212Y-13047831D01*
X-8503623Y-13149092D01*
X-8506270Y-13155083D01*
X-8557469Y-13236423D01*
X-8631641Y-13317371D01*
X-8716131Y-13386433D01*
X-8798282Y-13432115D01*
X-8818992Y-13439108D01*
X-8926485Y-13456472D01*
X-9047799Y-13457211D01*
X-9159691Y-13441627D01*
X-9186333Y-13434327D01*
X-9256135Y-13398046D01*
X-9333812Y-13336043D01*
X-9408132Y-13259841D01*
X-9467859Y-13180961D01*
X-9501762Y-13110926D01*
X-9501815Y-13110740D01*
X-9526583Y-12954753D01*
X-9514346Y-12809479D01*
X-9468398Y-12679519D01*
X-9392038Y-12569474D01*
X-9288562Y-12483944D01*
X-9161266Y-12427532D01*
X-9013448Y-12404837D01*
X-8995833Y-12404596D01*
X-8843669Y-12423454D01*
G36*
X-5082113Y-13670184D02*
G01*
X-4965739Y-13711383D01*
X-4861467Y-13777875D01*
X-4774235Y-13866633D01*
X-4708981Y-13974633D01*
X-4670644Y-14098849D01*
X-4664162Y-14236257D01*
X-4686949Y-14359667D01*
X-4743770Y-14483929D01*
X-4831627Y-14587544D01*
X-4942759Y-14666283D01*
X-5069405Y-14715919D01*
X-5203803Y-14732224D01*
X-5334137Y-14712223D01*
X-5470721Y-14651295D01*
X-5580212Y-14563660D01*
X-5660967Y-14455539D01*
X-5711347Y-14333151D01*
X-5729710Y-14202716D01*
X-5714414Y-14070456D01*
X-5663819Y-13942589D01*
X-5576284Y-13825335D01*
X-5569857Y-13818809D01*
X-5454460Y-13728589D01*
X-5331412Y-13675762D01*
X-5205650Y-13657302D01*
X-5082113Y-13670184D01*
G37*
X-5082113Y-13670184D02*
X-4965739Y-13711383D01*
X-4861467Y-13777875D01*
X-4774235Y-13866633D01*
X-4708981Y-13974633D01*
X-4670644Y-14098849D01*
X-4664162Y-14236257D01*
X-4686949Y-14359667D01*
X-4743770Y-14483929D01*
X-4831627Y-14587544D01*
X-4942759Y-14666283D01*
X-5069405Y-14715919D01*
X-5203803Y-14732224D01*
X-5334137Y-14712223D01*
X-5470721Y-14651295D01*
X-5580212Y-14563660D01*
X-5660967Y-14455539D01*
X-5711347Y-14333151D01*
X-5729710Y-14202716D01*
X-5714414Y-14070456D01*
X-5663819Y-13942589D01*
X-5576284Y-13825335D01*
X-5569857Y-13818809D01*
X-5454460Y-13728589D01*
X-5331412Y-13675762D01*
X-5205650Y-13657302D01*
X-5082113Y-13670184D01*
G36*
X-7573673Y-13698312D02*
G01*
X-7453267Y-13754326D01*
X-7349328Y-13838042D01*
X-7268524Y-13947239D01*
X-7217527Y-14079691D01*
X-7216092Y-14085929D01*
X-7203125Y-14229728D01*
X-7226926Y-14363132D01*
X-7282414Y-14482131D01*
X-7364508Y-14582713D01*
X-7468126Y-14660868D01*
X-7588189Y-14712585D01*
X-7719614Y-14733854D01*
X-7857321Y-14720664D01*
X-7970750Y-14681607D01*
X-8089425Y-14605061D01*
X-8179146Y-14503839D01*
X-8238992Y-14384986D01*
X-8268043Y-14255546D01*
X-8265376Y-14122564D01*
X-8230072Y-13993087D01*
X-8161209Y-13874158D01*
X-8086557Y-13795756D01*
X-7966988Y-13718723D01*
X-7837204Y-13678287D01*
X-7703875Y-13672224D01*
X-7573673Y-13698312D01*
G37*
X-7573673Y-13698312D02*
X-7453267Y-13754326D01*
X-7349328Y-13838042D01*
X-7268524Y-13947239D01*
X-7217527Y-14079691D01*
X-7216092Y-14085929D01*
X-7203125Y-14229728D01*
X-7226926Y-14363132D01*
X-7282414Y-14482131D01*
X-7364508Y-14582713D01*
X-7468126Y-14660868D01*
X-7588189Y-14712585D01*
X-7719614Y-14733854D01*
X-7857321Y-14720664D01*
X-7970750Y-14681607D01*
X-8089425Y-14605061D01*
X-8179146Y-14503839D01*
X-8238992Y-14384986D01*
X-8268043Y-14255546D01*
X-8265376Y-14122564D01*
X-8230072Y-13993087D01*
X-8161209Y-13874158D01*
X-8086557Y-13795756D01*
X-7966988Y-13718723D01*
X-7837204Y-13678287D01*
X-7703875Y-13672224D01*
X-7573673Y-13698312D01*
%TD*%
D11*
%TO.C,*%
X-8994824Y-12919127D03*
%TD*%
%TO.C,*%
X-6470914Y-12908583D03*
%TD*%
%TO.C,*%
X-5193644Y-14182245D03*
%TD*%
%TO.C,*%
X-7737504Y-14188284D03*
%TD*%
%TO.C,*%
X526186Y-885164D03*
%TD*%
%TO.C,*%
X-5172984Y4843538D03*
%TD*%
%TO.C,*%
X-114514Y15000065D03*
%TD*%
%TO.C,*%
X10054706Y2941377D03*
%TD*%
%TO.C,*%
X12594856Y26414758D03*
%TD*%
%TO.C,*%
X1157936Y30207547D03*
%TD*%
%TO.C,*%
X76778506Y11256563D03*
%TD*%
%TO.C,*%
X78682806Y11248211D03*
%TD*%
%TO.C,*%
X105352576Y7462797D03*
%TD*%
%TO.C,*%
X106941256Y-126257D03*
%TD*%
%TO.C,*%
X111757386Y25230587D03*
%TD*%
%TO.C,*%
X109190346Y25543697D03*
%TD*%
%TO.C,*%
X115173126Y-2014849D03*
%TD*%
M02*
