%TF.GenerationSoftware,KiCad,Pcbnew,(5.1.6)-1*%
%TF.CreationDate,2020-07-08T21:32:23-04:00*%
%TF.ProjectId,v1.2,76312e32-2e6b-4696-9361-645f70636258,rev?*%
%TF.SameCoordinates,Original*%
%TF.FileFunction,Copper,L2,Bot*%
%TF.FilePolarity,Positive*%
%FSLAX46Y46*%
G04 Gerber Fmt 4.6, Leading zero omitted, Abs format (unit mm)*
G04 Created by KiCad (PCBNEW (5.1.6)-1) date 2020-07-08 21:32:23*
%MOMM*%
%LPD*%
G01*
G04 APERTURE LIST*
%TA.AperFunction,EtchedComponent*%
%ADD10C,0.010000*%
%TD*%
%TA.AperFunction,ComponentPad*%
%ADD11C,0.838240*%
%TD*%
G04 APERTURE END LIST*
D10*
%TO.C,G\u002A\u002A\u002A*%
G36*
X1387715Y31436043D02*
G01*
X1597309Y31382267D01*
X1789739Y31290985D01*
X1968479Y31160841D01*
X2014259Y31119414D01*
X2170833Y30944885D01*
X2288640Y30753359D01*
X2367593Y30545032D01*
X2407608Y30320100D01*
X2413000Y30195311D01*
X2392704Y29969972D01*
X2333870Y29756492D01*
X2239574Y29558971D01*
X2112895Y29381511D01*
X1956909Y29228215D01*
X1774694Y29103182D01*
X1569329Y29010516D01*
X1509621Y28991375D01*
X1398617Y28967468D01*
X1265593Y28951733D01*
X1128791Y28945385D01*
X1006450Y28949637D01*
X963083Y28954987D01*
X741078Y29011879D01*
X535393Y29107526D01*
X348092Y29240823D01*
X243368Y29340551D01*
X102304Y29518715D01*
X-1955Y29712796D01*
X-69467Y29917985D01*
X-100290Y30129475D01*
X-94482Y30342457D01*
X-52101Y30552125D01*
X26797Y30753669D01*
X142152Y30942283D01*
X264294Y31084313D01*
X439924Y31234434D01*
X629537Y31344928D01*
X835246Y31416668D01*
X1059165Y31450530D01*
X1157483Y31453667D01*
X1387715Y31436043D01*
G37*
X1387715Y31436043D02*
X1597309Y31382267D01*
X1789739Y31290985D01*
X1968479Y31160841D01*
X2014259Y31119414D01*
X2170833Y30944885D01*
X2288640Y30753359D01*
X2367593Y30545032D01*
X2407608Y30320100D01*
X2413000Y30195311D01*
X2392704Y29969972D01*
X2333870Y29756492D01*
X2239574Y29558971D01*
X2112895Y29381511D01*
X1956909Y29228215D01*
X1774694Y29103182D01*
X1569329Y29010516D01*
X1509621Y28991375D01*
X1398617Y28967468D01*
X1265593Y28951733D01*
X1128791Y28945385D01*
X1006450Y28949637D01*
X963083Y28954987D01*
X741078Y29011879D01*
X535393Y29107526D01*
X348092Y29240823D01*
X243368Y29340551D01*
X102304Y29518715D01*
X-1955Y29712796D01*
X-69467Y29917985D01*
X-100290Y30129475D01*
X-94482Y30342457D01*
X-52101Y30552125D01*
X26797Y30753669D01*
X142152Y30942283D01*
X264294Y31084313D01*
X439924Y31234434D01*
X629537Y31344928D01*
X835246Y31416668D01*
X1059165Y31450530D01*
X1157483Y31453667D01*
X1387715Y31436043D01*
G36*
X12657809Y27406294D02*
G01*
X12762496Y27399552D01*
X12841133Y27388623D01*
X12910003Y27369666D01*
X12985388Y27338840D01*
X13028251Y27318897D01*
X13204005Y27212868D01*
X13351614Y27076755D01*
X13468199Y26914439D01*
X13550882Y26729801D01*
X13592367Y26558143D01*
X13602872Y26359883D01*
X13574511Y26167521D01*
X13510539Y25986027D01*
X13414214Y25820373D01*
X13288792Y25675531D01*
X13137528Y25556471D01*
X12963679Y25468165D01*
X12855695Y25433488D01*
X12715461Y25409551D01*
X12562278Y25403334D01*
X12415555Y25414899D01*
X12333557Y25431786D01*
X12147952Y25503407D01*
X11983245Y25607746D01*
X11842681Y25739800D01*
X11729508Y25894570D01*
X11646972Y26067055D01*
X11598320Y26252255D01*
X11586798Y26445168D01*
X11599132Y26562977D01*
X11653422Y26765928D01*
X11742721Y26947406D01*
X11864275Y27104250D01*
X12015329Y27233299D01*
X12193127Y27331394D01*
X12304429Y27371956D01*
X12388152Y27394226D01*
X12466224Y27406200D01*
X12555059Y27409472D01*
X12657809Y27406294D01*
G37*
X12657809Y27406294D02*
X12762496Y27399552D01*
X12841133Y27388623D01*
X12910003Y27369666D01*
X12985388Y27338840D01*
X13028251Y27318897D01*
X13204005Y27212868D01*
X13351614Y27076755D01*
X13468199Y26914439D01*
X13550882Y26729801D01*
X13592367Y26558143D01*
X13602872Y26359883D01*
X13574511Y26167521D01*
X13510539Y25986027D01*
X13414214Y25820373D01*
X13288792Y25675531D01*
X13137528Y25556471D01*
X12963679Y25468165D01*
X12855695Y25433488D01*
X12715461Y25409551D01*
X12562278Y25403334D01*
X12415555Y25414899D01*
X12333557Y25431786D01*
X12147952Y25503407D01*
X11983245Y25607746D01*
X11842681Y25739800D01*
X11729508Y25894570D01*
X11646972Y26067055D01*
X11598320Y26252255D01*
X11586798Y26445168D01*
X11599132Y26562977D01*
X11653422Y26765928D01*
X11742721Y26947406D01*
X11864275Y27104250D01*
X12015329Y27233299D01*
X12193127Y27331394D01*
X12304429Y27371956D01*
X12388152Y27394226D01*
X12466224Y27406200D01*
X12555059Y27409472D01*
X12657809Y27406294D01*
G36*
X109401382Y26523417D02*
G01*
X109588094Y26467117D01*
X109755809Y26377772D01*
X109901369Y26259056D01*
X110021612Y26114641D01*
X110113380Y25948202D01*
X110173514Y25763411D01*
X110198853Y25563942D01*
X110191141Y25389417D01*
X110150466Y25216678D01*
X110074045Y25047662D01*
X109968115Y24891519D01*
X109838914Y24757401D01*
X109692681Y24654460D01*
X109688689Y24652271D01*
X109531725Y24586607D01*
X109356066Y24546387D01*
X109174986Y24532965D01*
X109001760Y24547695D01*
X108902500Y24572082D01*
X108705944Y24655637D01*
X108537594Y24769113D01*
X108399531Y24910373D01*
X108293832Y25077283D01*
X108222577Y25267706D01*
X108221637Y25271282D01*
X108188676Y25474348D01*
X108194786Y25670974D01*
X108236943Y25857223D01*
X108312119Y26029154D01*
X108417288Y26182830D01*
X108549423Y26314311D01*
X108705499Y26419659D01*
X108882488Y26494935D01*
X109077363Y26536201D01*
X109198833Y26543000D01*
X109401382Y26523417D01*
G37*
X109401382Y26523417D02*
X109588094Y26467117D01*
X109755809Y26377772D01*
X109901369Y26259056D01*
X110021612Y26114641D01*
X110113380Y25948202D01*
X110173514Y25763411D01*
X110198853Y25563942D01*
X110191141Y25389417D01*
X110150466Y25216678D01*
X110074045Y25047662D01*
X109968115Y24891519D01*
X109838914Y24757401D01*
X109692681Y24654460D01*
X109688689Y24652271D01*
X109531725Y24586607D01*
X109356066Y24546387D01*
X109174986Y24532965D01*
X109001760Y24547695D01*
X108902500Y24572082D01*
X108705944Y24655637D01*
X108537594Y24769113D01*
X108399531Y24910373D01*
X108293832Y25077283D01*
X108222577Y25267706D01*
X108221637Y25271282D01*
X108188676Y25474348D01*
X108194786Y25670974D01*
X108236943Y25857223D01*
X108312119Y26029154D01*
X108417288Y26182830D01*
X108549423Y26314311D01*
X108705499Y26419659D01*
X108882488Y26494935D01*
X109077363Y26536201D01*
X109198833Y26543000D01*
X109401382Y26523417D01*
G36*
X111817551Y26222161D02*
G01*
X111920980Y26216447D01*
X111998163Y26206603D01*
X112065190Y26188885D01*
X112138146Y26159547D01*
X112190109Y26135452D01*
X112366902Y26029703D01*
X112513644Y25897203D01*
X112628732Y25742549D01*
X112710566Y25570340D01*
X112757542Y25385172D01*
X112768059Y25191643D01*
X112740516Y24994351D01*
X112673309Y24797893D01*
X112663522Y24776732D01*
X112561568Y24609341D01*
X112429982Y24468103D01*
X112274278Y24355577D01*
X112099972Y24274321D01*
X111912579Y24226893D01*
X111717613Y24215851D01*
X111520590Y24243753D01*
X111516583Y24244747D01*
X111329880Y24312551D01*
X111161594Y24415356D01*
X111016274Y24548165D01*
X110898473Y24705982D01*
X110812741Y24883809D01*
X110764553Y25070512D01*
X110754901Y25261855D01*
X110782311Y25451543D01*
X110843532Y25633061D01*
X110935309Y25799893D01*
X111054390Y25945523D01*
X111197522Y26063437D01*
X111285639Y26114274D01*
X111409453Y26169772D01*
X111521619Y26204297D01*
X111638281Y26221126D01*
X111775579Y26223530D01*
X111817551Y26222161D01*
G37*
X111817551Y26222161D02*
X111920980Y26216447D01*
X111998163Y26206603D01*
X112065190Y26188885D01*
X112138146Y26159547D01*
X112190109Y26135452D01*
X112366902Y26029703D01*
X112513644Y25897203D01*
X112628732Y25742549D01*
X112710566Y25570340D01*
X112757542Y25385172D01*
X112768059Y25191643D01*
X112740516Y24994351D01*
X112673309Y24797893D01*
X112663522Y24776732D01*
X112561568Y24609341D01*
X112429982Y24468103D01*
X112274278Y24355577D01*
X112099972Y24274321D01*
X111912579Y24226893D01*
X111717613Y24215851D01*
X111520590Y24243753D01*
X111516583Y24244747D01*
X111329880Y24312551D01*
X111161594Y24415356D01*
X111016274Y24548165D01*
X110898473Y24705982D01*
X110812741Y24883809D01*
X110764553Y25070512D01*
X110754901Y25261855D01*
X110782311Y25451543D01*
X110843532Y25633061D01*
X110935309Y25799893D01*
X111054390Y25945523D01*
X111197522Y26063437D01*
X111285639Y26114274D01*
X111409453Y26169772D01*
X111521619Y26204297D01*
X111638281Y26221126D01*
X111775579Y26223530D01*
X111817551Y26222161D01*
G36*
X-35645Y16248041D02*
G01*
X191785Y16211511D01*
X403550Y16138187D01*
X595934Y16031128D01*
X765221Y15893392D01*
X907695Y15728038D01*
X1019643Y15538124D01*
X1097347Y15326710D01*
X1101129Y15312275D01*
X1139660Y15084097D01*
X1136609Y14861229D01*
X1091731Y14641285D01*
X1011477Y14435667D01*
X898830Y14248146D01*
X753841Y14082894D01*
X582462Y13944714D01*
X390647Y13838409D01*
X185284Y13769002D01*
X62335Y13749398D01*
X-81777Y13740812D01*
X-229351Y13743280D01*
X-362683Y13756834D01*
X-418741Y13767843D01*
X-623721Y13838607D01*
X-813302Y13945392D01*
X-982702Y14083269D01*
X-1127138Y14247310D01*
X-1241831Y14432588D01*
X-1321997Y14634174D01*
X-1343990Y14721417D01*
X-1373318Y14933631D01*
X-1367450Y15133434D01*
X-1325177Y15330314D01*
X-1245288Y15533759D01*
X-1238597Y15547784D01*
X-1123911Y15738969D01*
X-978997Y15904245D01*
X-808772Y16040749D01*
X-618152Y16145619D01*
X-412054Y16215992D01*
X-195395Y16249008D01*
X-35645Y16248041D01*
G37*
X-35645Y16248041D02*
X191785Y16211511D01*
X403550Y16138187D01*
X595934Y16031128D01*
X765221Y15893392D01*
X907695Y15728038D01*
X1019643Y15538124D01*
X1097347Y15326710D01*
X1101129Y15312275D01*
X1139660Y15084097D01*
X1136609Y14861229D01*
X1091731Y14641285D01*
X1011477Y14435667D01*
X898830Y14248146D01*
X753841Y14082894D01*
X582462Y13944714D01*
X390647Y13838409D01*
X185284Y13769002D01*
X62335Y13749398D01*
X-81777Y13740812D01*
X-229351Y13743280D01*
X-362683Y13756834D01*
X-418741Y13767843D01*
X-623721Y13838607D01*
X-813302Y13945392D01*
X-982702Y14083269D01*
X-1127138Y14247310D01*
X-1241831Y14432588D01*
X-1321997Y14634174D01*
X-1343990Y14721417D01*
X-1373318Y14933631D01*
X-1367450Y15133434D01*
X-1325177Y15330314D01*
X-1245288Y15533759D01*
X-1238597Y15547784D01*
X-1123911Y15738969D01*
X-978997Y15904245D01*
X-808772Y16040749D01*
X-618152Y16145619D01*
X-412054Y16215992D01*
X-195395Y16249008D01*
X-35645Y16248041D01*
G36*
X78788827Y11988338D02*
G01*
X78864207Y11980170D01*
X78928182Y11963310D01*
X78996161Y11934983D01*
X78996540Y11934806D01*
X79147300Y11844587D01*
X79268700Y11726376D01*
X79355969Y11594430D01*
X79388394Y11532293D01*
X79409256Y11481560D01*
X79421098Y11429698D01*
X79426458Y11364175D01*
X79427879Y11272457D01*
X79427917Y11239500D01*
X79427158Y11137940D01*
X79423189Y11066175D01*
X79413470Y11011672D01*
X79395459Y10961898D01*
X79366615Y10904320D01*
X79355969Y10884570D01*
X79252578Y10733500D01*
X79125735Y10617512D01*
X78976504Y10537289D01*
X78805950Y10493514D01*
X78734497Y10486503D01*
X78628517Y10485973D01*
X78530844Y10495296D01*
X78484504Y10505082D01*
X78319154Y10573362D01*
X78175321Y10676442D01*
X78057991Y10810150D01*
X77997890Y10912337D01*
X77958616Y11027496D01*
X77938229Y11165340D01*
X77937253Y11310409D01*
X77956210Y11447246D01*
X77977359Y11518935D01*
X78052664Y11662004D01*
X78162342Y11788676D01*
X78299384Y11891473D01*
X78354643Y11921478D01*
X78428191Y11955652D01*
X78488675Y11976331D01*
X78551902Y11986806D01*
X78633680Y11990368D01*
X78686638Y11990584D01*
X78788827Y11988338D01*
G37*
X78788827Y11988338D02*
X78864207Y11980170D01*
X78928182Y11963310D01*
X78996161Y11934983D01*
X78996540Y11934806D01*
X79147300Y11844587D01*
X79268700Y11726376D01*
X79355969Y11594430D01*
X79388394Y11532293D01*
X79409256Y11481560D01*
X79421098Y11429698D01*
X79426458Y11364175D01*
X79427879Y11272457D01*
X79427917Y11239500D01*
X79427158Y11137940D01*
X79423189Y11066175D01*
X79413470Y11011672D01*
X79395459Y10961898D01*
X79366615Y10904320D01*
X79355969Y10884570D01*
X79252578Y10733500D01*
X79125735Y10617512D01*
X78976504Y10537289D01*
X78805950Y10493514D01*
X78734497Y10486503D01*
X78628517Y10485973D01*
X78530844Y10495296D01*
X78484504Y10505082D01*
X78319154Y10573362D01*
X78175321Y10676442D01*
X78057991Y10810150D01*
X77997890Y10912337D01*
X77958616Y11027496D01*
X77938229Y11165340D01*
X77937253Y11310409D01*
X77956210Y11447246D01*
X77977359Y11518935D01*
X78052664Y11662004D01*
X78162342Y11788676D01*
X78299384Y11891473D01*
X78354643Y11921478D01*
X78428191Y11955652D01*
X78488675Y11976331D01*
X78551902Y11986806D01*
X78633680Y11990368D01*
X78686638Y11990584D01*
X78788827Y11988338D01*
G36*
X76884737Y11989642D02*
G01*
X76958420Y11984234D01*
X77016458Y11972321D01*
X77072179Y11951528D01*
X77114190Y11931772D01*
X77237121Y11852479D01*
X77350046Y11744812D01*
X77441572Y11621210D01*
X77491475Y11519888D01*
X77525328Y11380499D01*
X77532927Y11224980D01*
X77514933Y11069849D01*
X77472005Y10931624D01*
X77467611Y10922000D01*
X77375708Y10773205D01*
X77255692Y10653816D01*
X77111958Y10566119D01*
X76948899Y10512401D01*
X76770909Y10494949D01*
X76661435Y10502489D01*
X76499300Y10544091D01*
X76350596Y10622828D01*
X76221730Y10734087D01*
X76119113Y10873255D01*
X76101596Y10905402D01*
X76056762Y11029016D01*
X76033623Y11173922D01*
X76032914Y11324631D01*
X76055367Y11465655D01*
X76072486Y11519888D01*
X76139133Y11647410D01*
X76236184Y11768849D01*
X76352196Y11871720D01*
X76449976Y11931772D01*
X76511473Y11959730D01*
X76566486Y11977242D01*
X76628343Y11986681D01*
X76710368Y11990419D01*
X76782083Y11990917D01*
X76884737Y11989642D01*
G37*
X76884737Y11989642D02*
X76958420Y11984234D01*
X77016458Y11972321D01*
X77072179Y11951528D01*
X77114190Y11931772D01*
X77237121Y11852479D01*
X77350046Y11744812D01*
X77441572Y11621210D01*
X77491475Y11519888D01*
X77525328Y11380499D01*
X77532927Y11224980D01*
X77514933Y11069849D01*
X77472005Y10931624D01*
X77467611Y10922000D01*
X77375708Y10773205D01*
X77255692Y10653816D01*
X77111958Y10566119D01*
X76948899Y10512401D01*
X76770909Y10494949D01*
X76661435Y10502489D01*
X76499300Y10544091D01*
X76350596Y10622828D01*
X76221730Y10734087D01*
X76119113Y10873255D01*
X76101596Y10905402D01*
X76056762Y11029016D01*
X76033623Y11173922D01*
X76032914Y11324631D01*
X76055367Y11465655D01*
X76072486Y11519888D01*
X76139133Y11647410D01*
X76236184Y11768849D01*
X76352196Y11871720D01*
X76449976Y11931772D01*
X76511473Y11959730D01*
X76566486Y11977242D01*
X76628343Y11986681D01*
X76710368Y11990419D01*
X76782083Y11990917D01*
X76884737Y11989642D01*
G36*
X105514428Y8448515D02*
G01*
X105700420Y8401299D01*
X105873849Y8321014D01*
X106028796Y8209351D01*
X106159340Y8068000D01*
X106195073Y8016650D01*
X106290244Y7832914D01*
X106346433Y7640542D01*
X106364166Y7444756D01*
X106343967Y7250781D01*
X106286362Y7063840D01*
X106191876Y6889156D01*
X106066419Y6737300D01*
X105909879Y6609856D01*
X105732668Y6517795D01*
X105539489Y6462613D01*
X105335045Y6445806D01*
X105187750Y6457677D01*
X105024307Y6500793D01*
X104861772Y6578272D01*
X104710123Y6683129D01*
X104579339Y6808376D01*
X104479399Y6947028D01*
X104473414Y6957793D01*
X104395992Y7141319D01*
X104356734Y7331537D01*
X104353874Y7523083D01*
X104385644Y7710593D01*
X104450276Y7888703D01*
X104546005Y8052049D01*
X104671062Y8195268D01*
X104823680Y8312994D01*
X104940276Y8374851D01*
X105128436Y8436981D01*
X105321793Y8460972D01*
X105514428Y8448515D01*
G37*
X105514428Y8448515D02*
X105700420Y8401299D01*
X105873849Y8321014D01*
X106028796Y8209351D01*
X106159340Y8068000D01*
X106195073Y8016650D01*
X106290244Y7832914D01*
X106346433Y7640542D01*
X106364166Y7444756D01*
X106343967Y7250781D01*
X106286362Y7063840D01*
X106191876Y6889156D01*
X106066419Y6737300D01*
X105909879Y6609856D01*
X105732668Y6517795D01*
X105539489Y6462613D01*
X105335045Y6445806D01*
X105187750Y6457677D01*
X105024307Y6500793D01*
X104861772Y6578272D01*
X104710123Y6683129D01*
X104579339Y6808376D01*
X104479399Y6947028D01*
X104473414Y6957793D01*
X104395992Y7141319D01*
X104356734Y7331537D01*
X104353874Y7523083D01*
X104385644Y7710593D01*
X104450276Y7888703D01*
X104546005Y8052049D01*
X104671062Y8195268D01*
X104823680Y8312994D01*
X104940276Y8374851D01*
X105128436Y8436981D01*
X105321793Y8460972D01*
X105514428Y8448515D01*
G36*
X-5022379Y6083009D02*
G01*
X-4805802Y6038190D01*
X-4603631Y5957573D01*
X-4419894Y5844074D01*
X-4258619Y5700613D01*
X-4123836Y5530107D01*
X-4019572Y5335473D01*
X-3958106Y5153847D01*
X-3921084Y4929555D01*
X-3923313Y4708119D01*
X-3962721Y4494102D01*
X-4037235Y4292070D01*
X-4144780Y4106588D01*
X-4283284Y3942219D01*
X-4450673Y3803530D01*
X-4614333Y3709139D01*
X-4709254Y3667260D01*
X-4805176Y3630558D01*
X-4885614Y3605179D01*
X-4906417Y3600240D01*
X-5008196Y3586663D01*
X-5133162Y3580552D01*
X-5262960Y3581957D01*
X-5379235Y3590929D01*
X-5429250Y3598799D01*
X-5639112Y3661768D01*
X-5833621Y3760959D01*
X-6008235Y3891885D01*
X-6158414Y4050055D01*
X-6279618Y4230982D01*
X-6367305Y4430175D01*
X-6402960Y4561417D01*
X-6430650Y4789550D01*
X-6419216Y5010651D01*
X-6371410Y5221076D01*
X-6289983Y5417182D01*
X-6177686Y5595326D01*
X-6037269Y5751865D01*
X-5871485Y5883155D01*
X-5683084Y5985554D01*
X-5474818Y6055419D01*
X-5249437Y6089105D01*
X-5249333Y6089112D01*
X-5022379Y6083009D01*
G37*
X-5022379Y6083009D02*
X-4805802Y6038190D01*
X-4603631Y5957573D01*
X-4419894Y5844074D01*
X-4258619Y5700613D01*
X-4123836Y5530107D01*
X-4019572Y5335473D01*
X-3958106Y5153847D01*
X-3921084Y4929555D01*
X-3923313Y4708119D01*
X-3962721Y4494102D01*
X-4037235Y4292070D01*
X-4144780Y4106588D01*
X-4283284Y3942219D01*
X-4450673Y3803530D01*
X-4614333Y3709139D01*
X-4709254Y3667260D01*
X-4805176Y3630558D01*
X-4885614Y3605179D01*
X-4906417Y3600240D01*
X-5008196Y3586663D01*
X-5133162Y3580552D01*
X-5262960Y3581957D01*
X-5379235Y3590929D01*
X-5429250Y3598799D01*
X-5639112Y3661768D01*
X-5833621Y3760959D01*
X-6008235Y3891885D01*
X-6158414Y4050055D01*
X-6279618Y4230982D01*
X-6367305Y4430175D01*
X-6402960Y4561417D01*
X-6430650Y4789550D01*
X-6419216Y5010651D01*
X-6371410Y5221076D01*
X-6289983Y5417182D01*
X-6177686Y5595326D01*
X-6037269Y5751865D01*
X-5871485Y5883155D01*
X-5683084Y5985554D01*
X-5474818Y6055419D01*
X-5249437Y6089105D01*
X-5249333Y6089112D01*
X-5022379Y6083009D01*
G36*
X10124200Y3930462D02*
G01*
X10275267Y3912017D01*
X10406934Y3878658D01*
X10420863Y3873601D01*
X10596748Y3785860D01*
X10746843Y3668547D01*
X10869589Y3526799D01*
X10963428Y3365756D01*
X11026804Y3190556D01*
X11058157Y3006337D01*
X11055930Y2818238D01*
X11018566Y2631397D01*
X10944506Y2450954D01*
X10882917Y2349500D01*
X10786869Y2236343D01*
X10663491Y2129165D01*
X10527432Y2039414D01*
X10420863Y1988457D01*
X10303504Y1956056D01*
X10162177Y1936749D01*
X10013416Y1931309D01*
X9873755Y1940511D01*
X9781215Y1958505D01*
X9594117Y2031890D01*
X9428377Y2139593D01*
X9287593Y2277503D01*
X9175365Y2441510D01*
X9095291Y2627501D01*
X9057478Y2785145D01*
X9046532Y2978730D01*
X9074402Y3167778D01*
X9137575Y3347194D01*
X9232537Y3511882D01*
X9355776Y3656744D01*
X9503777Y3776685D01*
X9673028Y3866609D01*
X9837854Y3917094D01*
X9972230Y3932615D01*
X10124200Y3930462D01*
G37*
X10124200Y3930462D02*
X10275267Y3912017D01*
X10406934Y3878658D01*
X10420863Y3873601D01*
X10596748Y3785860D01*
X10746843Y3668547D01*
X10869589Y3526799D01*
X10963428Y3365756D01*
X11026804Y3190556D01*
X11058157Y3006337D01*
X11055930Y2818238D01*
X11018566Y2631397D01*
X10944506Y2450954D01*
X10882917Y2349500D01*
X10786869Y2236343D01*
X10663491Y2129165D01*
X10527432Y2039414D01*
X10420863Y1988457D01*
X10303504Y1956056D01*
X10162177Y1936749D01*
X10013416Y1931309D01*
X9873755Y1940511D01*
X9781215Y1958505D01*
X9594117Y2031890D01*
X9428377Y2139593D01*
X9287593Y2277503D01*
X9175365Y2441510D01*
X9095291Y2627501D01*
X9057478Y2785145D01*
X9046532Y2978730D01*
X9074402Y3167778D01*
X9137575Y3347194D01*
X9232537Y3511882D01*
X9355776Y3656744D01*
X9503777Y3776685D01*
X9673028Y3866609D01*
X9837854Y3917094D01*
X9972230Y3932615D01*
X10124200Y3930462D01*
G36*
X107111805Y855282D02*
G01*
X107220594Y835187D01*
X107394027Y769337D01*
X107554379Y668110D01*
X107695219Y537937D01*
X107810121Y385249D01*
X107892654Y216476D01*
X107917149Y138428D01*
X107951290Y-70709D01*
X107944443Y-273923D01*
X107897513Y-467817D01*
X107811404Y-648993D01*
X107687019Y-814057D01*
X107654689Y-847790D01*
X107499475Y-978763D01*
X107333422Y-1069984D01*
X107151759Y-1123392D01*
X106949713Y-1140929D01*
X106934000Y-1140856D01*
X106839384Y-1136249D01*
X106746442Y-1125796D01*
X106678133Y-1112424D01*
X106494222Y-1040867D01*
X106331371Y-936356D01*
X106192542Y-804033D01*
X106080699Y-649040D01*
X105998804Y-476521D01*
X105949819Y-291617D01*
X105936706Y-99471D01*
X105962430Y94776D01*
X105968591Y119203D01*
X106037570Y301508D01*
X106140360Y467539D01*
X106271400Y611802D01*
X106425129Y728803D01*
X106595989Y813049D01*
X106703532Y845385D01*
X106826367Y862686D01*
X106969085Y865855D01*
X107111805Y855282D01*
G37*
X107111805Y855282D02*
X107220594Y835187D01*
X107394027Y769337D01*
X107554379Y668110D01*
X107695219Y537937D01*
X107810121Y385249D01*
X107892654Y216476D01*
X107917149Y138428D01*
X107951290Y-70709D01*
X107944443Y-273923D01*
X107897513Y-467817D01*
X107811404Y-648993D01*
X107687019Y-814057D01*
X107654689Y-847790D01*
X107499475Y-978763D01*
X107333422Y-1069984D01*
X107151759Y-1123392D01*
X106949713Y-1140929D01*
X106934000Y-1140856D01*
X106839384Y-1136249D01*
X106746442Y-1125796D01*
X106678133Y-1112424D01*
X106494222Y-1040867D01*
X106331371Y-936356D01*
X106192542Y-804033D01*
X106080699Y-649040D01*
X105998804Y-476521D01*
X105949819Y-291617D01*
X105936706Y-99471D01*
X105962430Y94776D01*
X105968591Y119203D01*
X106037570Y301508D01*
X106140360Y467539D01*
X106271400Y611802D01*
X106425129Y728803D01*
X106595989Y813049D01*
X106703532Y845385D01*
X106826367Y862686D01*
X106969085Y865855D01*
X107111805Y855282D01*
G36*
X963939Y12240D02*
G01*
X1141585Y-97716D01*
X1289170Y-235647D01*
X1404209Y-398158D01*
X1484217Y-581853D01*
X1522727Y-751417D01*
X1531414Y-953575D01*
X1502130Y-1145120D01*
X1438614Y-1322664D01*
X1344606Y-1482821D01*
X1223843Y-1622202D01*
X1080063Y-1737422D01*
X917007Y-1825094D01*
X738412Y-1881830D01*
X548018Y-1904243D01*
X349562Y-1888947D01*
X282530Y-1874947D01*
X93275Y-1808492D01*
X-74024Y-1708889D01*
X-216522Y-1580766D01*
X-331375Y-1428748D01*
X-415737Y-1257461D01*
X-466763Y-1071533D01*
X-481610Y-875589D01*
X-457432Y-674256D01*
X-456991Y-672265D01*
X-393248Y-480277D01*
X-293113Y-307815D01*
X-159316Y-158236D01*
X5412Y-34894D01*
X105833Y19412D01*
X173323Y50916D01*
X227196Y72208D01*
X278642Y85288D01*
X338853Y92155D01*
X419019Y94810D01*
X530299Y95250D01*
X796014Y95250D01*
X963939Y12240D01*
G37*
X963939Y12240D02*
X1141585Y-97716D01*
X1289170Y-235647D01*
X1404209Y-398158D01*
X1484217Y-581853D01*
X1522727Y-751417D01*
X1531414Y-953575D01*
X1502130Y-1145120D01*
X1438614Y-1322664D01*
X1344606Y-1482821D01*
X1223843Y-1622202D01*
X1080063Y-1737422D01*
X917007Y-1825094D01*
X738412Y-1881830D01*
X548018Y-1904243D01*
X349562Y-1888947D01*
X282530Y-1874947D01*
X93275Y-1808492D01*
X-74024Y-1708889D01*
X-216522Y-1580766D01*
X-331375Y-1428748D01*
X-415737Y-1257461D01*
X-466763Y-1071533D01*
X-481610Y-875589D01*
X-457432Y-674256D01*
X-456991Y-672265D01*
X-393248Y-480277D01*
X-293113Y-307815D01*
X-159316Y-158236D01*
X5412Y-34894D01*
X105833Y19412D01*
X173323Y50916D01*
X227196Y72208D01*
X278642Y85288D01*
X338853Y92155D01*
X419019Y94810D01*
X530299Y95250D01*
X796014Y95250D01*
X963939Y12240D01*
G36*
X115316998Y-1024953D02*
G01*
X115500092Y-1068919D01*
X115670123Y-1145373D01*
X115822872Y-1251047D01*
X115954117Y-1382668D01*
X116059637Y-1536966D01*
X116135213Y-1710671D01*
X116176622Y-1900510D01*
X116183316Y-2019967D01*
X116179850Y-2112204D01*
X116171347Y-2202438D01*
X116161385Y-2262467D01*
X116099285Y-2441023D01*
X116001246Y-2606618D01*
X115873127Y-2752990D01*
X115720790Y-2873881D01*
X115550093Y-2963030D01*
X115483408Y-2986732D01*
X115348378Y-3015059D01*
X115193760Y-3025815D01*
X115037454Y-3019021D01*
X114897360Y-2994700D01*
X114867218Y-2985964D01*
X114706146Y-2920411D01*
X114568721Y-2831096D01*
X114457077Y-2727243D01*
X114329394Y-2569196D01*
X114241334Y-2404712D01*
X114190192Y-2227064D01*
X114173258Y-2029527D01*
X114173251Y-2022261D01*
X114193624Y-1817562D01*
X114251936Y-1627129D01*
X114345042Y-1455023D01*
X114469798Y-1305300D01*
X114623059Y-1182020D01*
X114801679Y-1089241D01*
X114928508Y-1047573D01*
X115125063Y-1016748D01*
X115316998Y-1024953D01*
G37*
X115316998Y-1024953D02*
X115500092Y-1068919D01*
X115670123Y-1145373D01*
X115822872Y-1251047D01*
X115954117Y-1382668D01*
X116059637Y-1536966D01*
X116135213Y-1710671D01*
X116176622Y-1900510D01*
X116183316Y-2019967D01*
X116179850Y-2112204D01*
X116171347Y-2202438D01*
X116161385Y-2262467D01*
X116099285Y-2441023D01*
X116001246Y-2606618D01*
X115873127Y-2752990D01*
X115720790Y-2873881D01*
X115550093Y-2963030D01*
X115483408Y-2986732D01*
X115348378Y-3015059D01*
X115193760Y-3025815D01*
X115037454Y-3019021D01*
X114897360Y-2994700D01*
X114867218Y-2985964D01*
X114706146Y-2920411D01*
X114568721Y-2831096D01*
X114457077Y-2727243D01*
X114329394Y-2569196D01*
X114241334Y-2404712D01*
X114190192Y-2227064D01*
X114173258Y-2029527D01*
X114173251Y-2022261D01*
X114193624Y-1817562D01*
X114251936Y-1627129D01*
X114345042Y-1455023D01*
X114469798Y-1305300D01*
X114623059Y-1182020D01*
X114801679Y-1089241D01*
X114928508Y-1047573D01*
X115125063Y-1016748D01*
X115316998Y-1024953D01*
G36*
X-6325718Y-12177809D02*
G01*
X-6257593Y-12192079D01*
X-6196613Y-12212653D01*
X-6069090Y-12279300D01*
X-5947651Y-12376351D01*
X-5844780Y-12492362D01*
X-5784728Y-12590143D01*
X-5756770Y-12651640D01*
X-5739258Y-12706653D01*
X-5729820Y-12768509D01*
X-5726081Y-12850534D01*
X-5725583Y-12922250D01*
X-5726748Y-13023852D01*
X-5731881Y-13096397D01*
X-5743437Y-13153132D01*
X-5763875Y-13207306D01*
X-5787512Y-13256208D01*
X-5839373Y-13340483D01*
X-5906734Y-13426861D01*
X-5952247Y-13474664D01*
X-6056817Y-13560272D01*
X-6162103Y-13617537D01*
X-6280810Y-13651437D01*
X-6425644Y-13666948D01*
X-6445250Y-13667805D01*
X-6545826Y-13669819D01*
X-6619449Y-13665318D01*
X-6681263Y-13652213D01*
X-6746416Y-13628421D01*
X-6753850Y-13625309D01*
X-6912700Y-13540772D01*
X-7035379Y-13436036D01*
X-7088705Y-13368387D01*
X-7173606Y-13209000D01*
X-7220287Y-13043288D01*
X-7230007Y-12876747D01*
X-7204027Y-12714870D01*
X-7143610Y-12563150D01*
X-7050015Y-12427083D01*
X-6924504Y-12312161D01*
X-6833151Y-12254973D01*
X-6760549Y-12218784D01*
X-6697805Y-12196261D01*
X-6628902Y-12183459D01*
X-6537824Y-12176434D01*
X-6508750Y-12175076D01*
X-6404159Y-12172777D01*
X-6325718Y-12177809D01*
G37*
X-6325718Y-12177809D02*
X-6257593Y-12192079D01*
X-6196613Y-12212653D01*
X-6069090Y-12279300D01*
X-5947651Y-12376351D01*
X-5844780Y-12492362D01*
X-5784728Y-12590143D01*
X-5756770Y-12651640D01*
X-5739258Y-12706653D01*
X-5729820Y-12768509D01*
X-5726081Y-12850534D01*
X-5725583Y-12922250D01*
X-5726748Y-13023852D01*
X-5731881Y-13096397D01*
X-5743437Y-13153132D01*
X-5763875Y-13207306D01*
X-5787512Y-13256208D01*
X-5839373Y-13340483D01*
X-5906734Y-13426861D01*
X-5952247Y-13474664D01*
X-6056817Y-13560272D01*
X-6162103Y-13617537D01*
X-6280810Y-13651437D01*
X-6425644Y-13666948D01*
X-6445250Y-13667805D01*
X-6545826Y-13669819D01*
X-6619449Y-13665318D01*
X-6681263Y-13652213D01*
X-6746416Y-13628421D01*
X-6753850Y-13625309D01*
X-6912700Y-13540772D01*
X-7035379Y-13436036D01*
X-7088705Y-13368387D01*
X-7173606Y-13209000D01*
X-7220287Y-13043288D01*
X-7230007Y-12876747D01*
X-7204027Y-12714870D01*
X-7143610Y-12563150D01*
X-7050015Y-12427083D01*
X-6924504Y-12312161D01*
X-6833151Y-12254973D01*
X-6760549Y-12218784D01*
X-6697805Y-12196261D01*
X-6628902Y-12183459D01*
X-6537824Y-12176434D01*
X-6508750Y-12175076D01*
X-6404159Y-12172777D01*
X-6325718Y-12177809D01*
G36*
X-8821206Y-12197902D02*
G01*
X-8660820Y-12247242D01*
X-8523202Y-12331328D01*
X-8406295Y-12451185D01*
X-8373057Y-12497062D01*
X-8290598Y-12652598D01*
X-8246378Y-12813270D01*
X-8237993Y-12974097D01*
X-8263038Y-13130098D01*
X-8319110Y-13276293D01*
X-8403805Y-13407703D01*
X-8514720Y-13519346D01*
X-8649449Y-13606243D01*
X-8805590Y-13663413D01*
X-8946221Y-13684517D01*
X-9034367Y-13686086D01*
X-9117938Y-13681395D01*
X-9170545Y-13673182D01*
X-9330398Y-13612060D01*
X-9474351Y-13516452D01*
X-9594472Y-13392937D01*
X-9682637Y-13248515D01*
X-9737422Y-13080808D01*
X-9752554Y-12911436D01*
X-9730087Y-12746005D01*
X-9672072Y-12590120D01*
X-9580561Y-12449388D01*
X-9457607Y-12329415D01*
X-9313333Y-12239671D01*
X-9247422Y-12210898D01*
X-9185745Y-12193638D01*
X-9113157Y-12185059D01*
X-9014512Y-12182331D01*
X-9006417Y-12182287D01*
X-8821206Y-12197902D01*
G37*
X-8821206Y-12197902D02*
X-8660820Y-12247242D01*
X-8523202Y-12331328D01*
X-8406295Y-12451185D01*
X-8373057Y-12497062D01*
X-8290598Y-12652598D01*
X-8246378Y-12813270D01*
X-8237993Y-12974097D01*
X-8263038Y-13130098D01*
X-8319110Y-13276293D01*
X-8403805Y-13407703D01*
X-8514720Y-13519346D01*
X-8649449Y-13606243D01*
X-8805590Y-13663413D01*
X-8946221Y-13684517D01*
X-9034367Y-13686086D01*
X-9117938Y-13681395D01*
X-9170545Y-13673182D01*
X-9330398Y-13612060D01*
X-9474351Y-13516452D01*
X-9594472Y-13392937D01*
X-9682637Y-13248515D01*
X-9737422Y-13080808D01*
X-9752554Y-12911436D01*
X-9730087Y-12746005D01*
X-9672072Y-12590120D01*
X-9580561Y-12449388D01*
X-9457607Y-12329415D01*
X-9313333Y-12239671D01*
X-9247422Y-12210898D01*
X-9185745Y-12193638D01*
X-9113157Y-12185059D01*
X-9014512Y-12182331D01*
X-9006417Y-12182287D01*
X-8821206Y-12197902D01*
G36*
X-5093322Y-13452738D02*
G01*
X-5019318Y-13458236D01*
X-4961202Y-13470213D01*
X-4905774Y-13490973D01*
X-4868191Y-13508662D01*
X-4739415Y-13589746D01*
X-4624033Y-13695910D01*
X-4534832Y-13814849D01*
X-4517722Y-13845923D01*
X-4460221Y-14004120D01*
X-4439619Y-14172713D01*
X-4454808Y-14343453D01*
X-4504682Y-14508094D01*
X-4588132Y-14658385D01*
X-4634715Y-14717289D01*
X-4706550Y-14780967D01*
X-4803506Y-14843462D01*
X-4909110Y-14895730D01*
X-5006888Y-14928723D01*
X-5027083Y-14932724D01*
X-5119744Y-14946902D01*
X-5186004Y-14953583D01*
X-5241048Y-14953207D01*
X-5300059Y-14946216D01*
X-5329211Y-14941491D01*
X-5492814Y-14893122D01*
X-5640986Y-14808068D01*
X-5767689Y-14690924D01*
X-5866882Y-14546284D01*
X-5878379Y-14523797D01*
X-5906221Y-14462494D01*
X-5923657Y-14407501D01*
X-5933050Y-14345510D01*
X-5936763Y-14263213D01*
X-5937250Y-14192250D01*
X-5935393Y-14083367D01*
X-5928578Y-14004098D01*
X-5914938Y-13941834D01*
X-5892606Y-13883968D01*
X-5891122Y-13880735D01*
X-5820331Y-13764789D01*
X-5721628Y-13652827D01*
X-5608337Y-13558422D01*
X-5527136Y-13509882D01*
X-5466117Y-13482212D01*
X-5411151Y-13464888D01*
X-5348955Y-13455563D01*
X-5266246Y-13451888D01*
X-5196417Y-13451417D01*
X-5093322Y-13452738D01*
G37*
X-5093322Y-13452738D02*
X-5019318Y-13458236D01*
X-4961202Y-13470213D01*
X-4905774Y-13490973D01*
X-4868191Y-13508662D01*
X-4739415Y-13589746D01*
X-4624033Y-13695910D01*
X-4534832Y-13814849D01*
X-4517722Y-13845923D01*
X-4460221Y-14004120D01*
X-4439619Y-14172713D01*
X-4454808Y-14343453D01*
X-4504682Y-14508094D01*
X-4588132Y-14658385D01*
X-4634715Y-14717289D01*
X-4706550Y-14780967D01*
X-4803506Y-14843462D01*
X-4909110Y-14895730D01*
X-5006888Y-14928723D01*
X-5027083Y-14932724D01*
X-5119744Y-14946902D01*
X-5186004Y-14953583D01*
X-5241048Y-14953207D01*
X-5300059Y-14946216D01*
X-5329211Y-14941491D01*
X-5492814Y-14893122D01*
X-5640986Y-14808068D01*
X-5767689Y-14690924D01*
X-5866882Y-14546284D01*
X-5878379Y-14523797D01*
X-5906221Y-14462494D01*
X-5923657Y-14407501D01*
X-5933050Y-14345510D01*
X-5936763Y-14263213D01*
X-5937250Y-14192250D01*
X-5935393Y-14083367D01*
X-5928578Y-14004098D01*
X-5914938Y-13941834D01*
X-5892606Y-13883968D01*
X-5891122Y-13880735D01*
X-5820331Y-13764789D01*
X-5721628Y-13652827D01*
X-5608337Y-13558422D01*
X-5527136Y-13509882D01*
X-5466117Y-13482212D01*
X-5411151Y-13464888D01*
X-5348955Y-13455563D01*
X-5266246Y-13451888D01*
X-5196417Y-13451417D01*
X-5093322Y-13452738D01*
G36*
X-7639168Y-13452926D02*
G01*
X-7568402Y-13459660D01*
X-7508309Y-13474922D01*
X-7443084Y-13502018D01*
X-7403711Y-13520986D01*
X-7251797Y-13618807D01*
X-7127355Y-13748218D01*
X-7045371Y-13880754D01*
X-7022120Y-13933783D01*
X-7007382Y-13987278D01*
X-6999324Y-14053143D01*
X-6996113Y-14143279D01*
X-6995750Y-14202833D01*
X-6996659Y-14306315D01*
X-7001031Y-14379770D01*
X-7011057Y-14435485D01*
X-7028926Y-14485748D01*
X-7056130Y-14541500D01*
X-7140646Y-14668974D01*
X-7249686Y-14780948D01*
X-7372135Y-14867163D01*
X-7446656Y-14901974D01*
X-7576362Y-14937740D01*
X-7716360Y-14955213D01*
X-7849876Y-14953193D01*
X-7938996Y-14937235D01*
X-8102630Y-14869396D01*
X-8246078Y-14766247D01*
X-8364401Y-14631969D01*
X-8429513Y-14521933D01*
X-8465528Y-14415005D01*
X-8484661Y-14284217D01*
X-8486490Y-14144712D01*
X-8470596Y-14011630D01*
X-8446141Y-13923399D01*
X-8370836Y-13780330D01*
X-8261158Y-13653657D01*
X-8124116Y-13550861D01*
X-8068857Y-13520855D01*
X-7995268Y-13486679D01*
X-7934622Y-13465965D01*
X-7871121Y-13455412D01*
X-7788967Y-13451720D01*
X-7736417Y-13451417D01*
X-7639168Y-13452926D01*
G37*
X-7639168Y-13452926D02*
X-7568402Y-13459660D01*
X-7508309Y-13474922D01*
X-7443084Y-13502018D01*
X-7403711Y-13520986D01*
X-7251797Y-13618807D01*
X-7127355Y-13748218D01*
X-7045371Y-13880754D01*
X-7022120Y-13933783D01*
X-7007382Y-13987278D01*
X-6999324Y-14053143D01*
X-6996113Y-14143279D01*
X-6995750Y-14202833D01*
X-6996659Y-14306315D01*
X-7001031Y-14379770D01*
X-7011057Y-14435485D01*
X-7028926Y-14485748D01*
X-7056130Y-14541500D01*
X-7140646Y-14668974D01*
X-7249686Y-14780948D01*
X-7372135Y-14867163D01*
X-7446656Y-14901974D01*
X-7576362Y-14937740D01*
X-7716360Y-14955213D01*
X-7849876Y-14953193D01*
X-7938996Y-14937235D01*
X-8102630Y-14869396D01*
X-8246078Y-14766247D01*
X-8364401Y-14631969D01*
X-8429513Y-14521933D01*
X-8465528Y-14415005D01*
X-8484661Y-14284217D01*
X-8486490Y-14144712D01*
X-8470596Y-14011630D01*
X-8446141Y-13923399D01*
X-8370836Y-13780330D01*
X-8261158Y-13653657D01*
X-8124116Y-13550861D01*
X-8068857Y-13520855D01*
X-7995268Y-13486679D01*
X-7934622Y-13465965D01*
X-7871121Y-13455412D01*
X-7788967Y-13451720D01*
X-7736417Y-13451417D01*
X-7639168Y-13452926D01*
%TD*%
D11*
%TO.P,,1*%
%TO.N,N/C*%
X-8994824Y-12919127D03*
%TD*%
%TO.P,,2*%
%TO.N,N/C*%
X-6470914Y-12908583D03*
%TD*%
%TO.P,,3*%
%TO.N,N/C*%
X-5193644Y-14182245D03*
%TD*%
%TO.P,,4*%
%TO.N,N/C*%
X-7737504Y-14188284D03*
%TD*%
%TO.P,,5*%
%TO.N,N/C*%
X526186Y-885164D03*
%TD*%
%TO.P,,6*%
%TO.N,N/C*%
X-5172984Y4843538D03*
%TD*%
%TO.P,,7*%
%TO.N,N/C*%
X-114514Y15000065D03*
%TD*%
%TO.P,,8*%
%TO.N,N/C*%
X10054706Y2941377D03*
%TD*%
%TO.P,,9*%
%TO.N,N/C*%
X12594856Y26414758D03*
%TD*%
%TO.P,,10*%
%TO.N,N/C*%
X1157936Y30207547D03*
%TD*%
%TO.P,,11*%
%TO.N,N/C*%
X76778506Y11256563D03*
%TD*%
%TO.P,,12*%
%TO.N,N/C*%
X78682806Y11248211D03*
%TD*%
%TO.P,,13*%
%TO.N,N/C*%
X105352576Y7462797D03*
%TD*%
%TO.P,,14*%
%TO.N,N/C*%
X106941256Y-126257D03*
%TD*%
%TO.P,,15*%
%TO.N,N/C*%
X111757386Y25230587D03*
%TD*%
%TO.P,,16*%
%TO.N,N/C*%
X109190346Y25543697D03*
%TD*%
%TO.P,,17*%
%TO.N,N/C*%
X115173126Y-2014849D03*
%TD*%
M02*
