%FSLAX45Y45*%
G04 Gerber Fmt 4.5, Leading zero omitted, Abs format (unit mm)*
G04 Created by KiCad (PCBNEW (5.1.6)-1) date 2020-07-08 21:32:32*
%MOMM*%
%LPD*%
G01*
G04 APERTURE LIST*
%TA.AperFunction,Profile*%
%ADD10C,0.100000*%
%TD*%
%ADD11C,0.200000*%
%ADD12C,0.300000*%
G04 APERTURE END LIST*
D10*
X9444641Y-1031102D02*
X9471360Y-1026135D01*
X9471360Y-1026135D02*
X9502468Y-1022875D01*
X9502468Y-1022875D02*
X9574760Y-1020633D01*
X9574760Y-1020633D02*
X9655332Y-1022692D01*
X9655332Y-1022692D02*
X9737997Y-1027368D01*
X9737997Y-1027368D02*
X9884861Y-1037833D01*
X9884861Y-1037833D02*
X9936688Y-1040254D01*
X9936688Y-1040254D02*
X9954494Y-1040024D01*
X9954494Y-1040024D02*
X9965864Y-1038554D01*
X9965864Y-1038554D02*
X10002484Y-1030338D01*
X10002484Y-1030338D02*
X10038684Y-1025586D01*
X10038684Y-1025586D02*
X10074218Y-1023965D01*
X10074218Y-1023965D02*
X10108838Y-1025144D01*
X10108838Y-1025144D02*
X10142298Y-1028790D01*
X10142298Y-1028790D02*
X10174350Y-1034571D01*
X10174350Y-1034571D02*
X10204748Y-1042155D01*
X10204748Y-1042155D02*
X10233244Y-1051209D01*
X10233244Y-1051209D02*
X10259592Y-1061402D01*
X10259592Y-1061402D02*
X10283545Y-1072401D01*
X10283545Y-1072401D02*
X10304856Y-1083875D01*
X10304856Y-1083875D02*
X10323278Y-1095491D01*
X10323278Y-1095491D02*
X10338563Y-1106917D01*
X10338563Y-1106917D02*
X10350465Y-1117821D01*
X10350465Y-1117821D02*
X10358735Y-1127871D01*
X10358735Y-1127871D02*
X10363125Y-1136735D01*
X10363125Y-1136735D02*
X10375383Y-1184052D01*
X10375383Y-1184052D02*
X10383753Y-1230853D01*
X10383753Y-1230853D02*
X10387333Y-1277728D01*
X10387333Y-1277728D02*
X10387033Y-1301377D01*
X10387033Y-1301377D02*
X10385203Y-1325266D01*
X10385203Y-1325266D02*
X10381723Y-1349468D01*
X10381723Y-1349468D02*
X10376483Y-1374057D01*
X10376483Y-1374057D02*
X10369363Y-1399107D01*
X10369363Y-1399107D02*
X10360253Y-1424691D01*
X10360253Y-1424691D02*
X10349043Y-1450883D01*
X10349043Y-1450883D02*
X10335618Y-1477757D01*
X10335618Y-1477757D02*
X10319864Y-1505387D01*
X10319864Y-1505387D02*
X10301669Y-1533846D01*
X10301669Y-1533846D02*
X9996736Y-1580419D01*
X9996736Y-1580419D02*
X9927489Y-1774722D01*
X9927489Y-1774722D02*
X9728153Y-1774452D01*
X9728153Y-1774452D02*
X9569701Y-1772278D01*
X9569701Y-1772278D02*
X9502239Y-1770143D01*
X9502239Y-1770143D02*
X9452699Y-1767105D01*
X9452699Y-1767105D02*
X9381056Y-2136436D01*
X9381056Y-2136436D02*
X8906689Y-2136436D01*
X8906689Y-2136436D02*
X8875678Y-1829314D01*
X8875678Y-1829314D02*
X8874778Y-1795913D01*
X8874778Y-1795913D02*
X8871778Y-1762427D01*
X8871778Y-1762427D02*
X8866888Y-1728866D01*
X8866888Y-1728866D02*
X8860328Y-1695238D01*
X8860328Y-1695238D02*
X8843065Y-1627817D01*
X8843065Y-1627817D02*
X8821732Y-1560233D01*
X8821732Y-1560233D02*
X8773832Y-1424855D01*
X8773832Y-1424855D02*
X8750755Y-1357201D01*
X8750755Y-1357201D02*
X8730584Y-1289663D01*
X8730584Y-1289663D02*
X8715066Y-1222311D01*
X8715066Y-1222311D02*
X8709596Y-1188727D01*
X8709596Y-1188727D02*
X8705946Y-1155215D01*
X8705946Y-1155215D02*
X8704326Y-1121785D01*
X8704326Y-1121785D02*
X8704926Y-1088445D01*
X8704926Y-1088445D02*
X8708036Y-1055204D01*
X8708036Y-1055204D02*
X8713836Y-1022070D01*
X8713836Y-1022070D02*
X8722536Y-989053D01*
X8722536Y-989053D02*
X8734365Y-956161D01*
X8734365Y-956161D02*
X8749538Y-923402D01*
X8749538Y-923402D02*
X8768272Y-890786D01*
X8768272Y-890786D02*
X8790785Y-858321D01*
X8790785Y-858321D02*
X8817296Y-826016D01*
X8817296Y-826016D02*
X8848023Y-793880D01*
X8848023Y-793880D02*
X8883183Y-761921D01*
X8883183Y-761921D02*
X8909018Y-765007D01*
X8909018Y-765007D02*
X8932716Y-764919D01*
X8932716Y-764919D02*
X8976589Y-759514D01*
X8976589Y-759514D02*
X8998210Y-756342D01*
X8998210Y-756342D02*
X9020582Y-754286D01*
X9020582Y-754286D02*
X9044429Y-754416D01*
X9044429Y-754416D02*
X9070473Y-757811D01*
X9070473Y-757811D02*
X9099435Y-765540D01*
X9099435Y-765540D02*
X9132039Y-778676D01*
X9132039Y-778676D02*
X9169006Y-798292D01*
X9169006Y-798292D02*
X9211058Y-825459D01*
X9211058Y-825459D02*
X9258919Y-861250D01*
X9258919Y-861250D02*
X9313311Y-906739D01*
X9313311Y-906739D02*
X9374954Y-962996D01*
X9374954Y-962996D02*
X9444573Y-1031095D01*
X9444573Y-1031095D02*
X9444573Y-1031094D01*
X9444573Y-1031094D02*
X9444641Y-1031102D01*
X9167945Y2269177D02*
X9342296Y2269177D01*
X9342296Y2269177D02*
X9342296Y1942686D01*
X9342296Y1942686D02*
X9167945Y1942686D01*
X9167945Y1942686D02*
X9167945Y2269177D01*
X9167945Y2269177D02*
X9167945Y2269177D01*
X9305004Y-388121D02*
X9302494Y-413483D01*
X9302494Y-413483D02*
X9295154Y-437640D01*
X9295154Y-437640D02*
X9283264Y-459911D01*
X9283264Y-459911D02*
X9267104Y-479619D01*
X9267104Y-479619D02*
X9247396Y-495779D01*
X9247396Y-495779D02*
X9225124Y-507669D01*
X9225124Y-507669D02*
X9200968Y-515010D01*
X9200968Y-515010D02*
X9175606Y-517519D01*
X9175606Y-517519D02*
X9149528Y-514890D01*
X9149528Y-514890D02*
X9125239Y-507350D01*
X9125239Y-507350D02*
X9103259Y-495420D01*
X9103259Y-495420D02*
X9084108Y-479619D01*
X9084108Y-479619D02*
X9068308Y-460469D01*
X9068308Y-460469D02*
X9056378Y-438489D01*
X9056378Y-438489D02*
X9048838Y-414199D01*
X9048838Y-414199D02*
X9046208Y-388121D01*
X9046208Y-388121D02*
X9048838Y-362043D01*
X9048838Y-362043D02*
X9056378Y-337754D01*
X9056378Y-337754D02*
X9068308Y-315774D01*
X9068308Y-315774D02*
X9084108Y-296624D01*
X9084108Y-296624D02*
X9103259Y-280823D01*
X9103259Y-280823D02*
X9125239Y-268893D01*
X9125239Y-268893D02*
X9149528Y-261352D01*
X9149528Y-261352D02*
X9175606Y-258723D01*
X9175606Y-258723D02*
X9200968Y-261232D01*
X9200968Y-261232D02*
X9225124Y-268574D01*
X9225124Y-268574D02*
X9247396Y-280464D01*
X9247396Y-280464D02*
X9267104Y-296623D01*
X9267104Y-296623D02*
X9283264Y-316331D01*
X9283264Y-316331D02*
X9295154Y-338603D01*
X9295154Y-338603D02*
X9302494Y-362759D01*
X9302494Y-362759D02*
X9305004Y-388121D01*
X9305004Y-388121D02*
X9305004Y-388121D01*
X9305004Y-388121D02*
X9305004Y-388121D01*
X-117440Y-1278184D02*
X29276Y-1278184D01*
X29276Y-1278184D02*
X29276Y-1494190D01*
X29276Y-1494190D02*
X-117440Y-1494190D01*
X-117440Y-1494190D02*
X-117440Y-1278184D01*
X-117440Y-1278184D02*
X-117440Y-1278184D01*
X1392682Y-2400661D02*
X1404136Y-2395790D01*
X1404136Y-2395790D02*
X1415652Y-2388065D01*
X1415652Y-2388065D02*
X1421682Y-2381171D01*
X1421682Y-2381171D02*
X1426292Y-2371430D01*
X1426292Y-2371430D02*
X1429672Y-2357998D01*
X1429672Y-2357998D02*
X1432012Y-2340029D01*
X1432012Y-2340029D02*
X1434362Y-2287097D01*
X1434362Y-2287097D02*
X1434862Y-2205873D01*
X1434862Y-2205873D02*
X1433802Y-1263680D01*
X1433802Y-1263680D02*
X1432512Y-1051967D01*
X1432512Y-1051967D02*
X1431812Y-966779D01*
X1431812Y-966779D02*
X1429642Y-921747D01*
X1429642Y-921747D02*
X1427452Y-909461D01*
X1427452Y-909461D02*
X1424232Y-901421D01*
X1424232Y-901421D02*
X1419762Y-895695D01*
X1419762Y-895695D02*
X1413822Y-890352D01*
X1413822Y-890352D02*
X1407652Y-886615D01*
X1407652Y-886615D02*
X1398392Y-883533D01*
X1398392Y-883533D02*
X1368984Y-879197D01*
X1368984Y-879197D02*
X1322348Y-877069D01*
X1322348Y-877069D02*
X1255240Y-876869D01*
X1255240Y-876869D02*
X1148770Y-877369D01*
X1148770Y-877369D02*
X867572Y-877029D01*
X867572Y-877029D02*
X745105Y-878030D01*
X745105Y-878030D02*
X691582Y-879556D01*
X691582Y-879556D02*
X680687Y-885140D01*
X680687Y-885140D02*
X669459Y-893455D01*
X669459Y-893455D02*
X660349Y-902418D01*
X660349Y-902418D02*
X655809Y-909948D01*
X655809Y-909948D02*
X653459Y-951248D01*
X653459Y-951248D02*
X649699Y-1109453D01*
X649699Y-1109453D02*
X648119Y-1259500D01*
X648119Y-1259500D02*
X648719Y-1614199D01*
X648719Y-1614199D02*
X649219Y-1797925D01*
X649219Y-1797925D02*
X648719Y-1846292D01*
X648719Y-1846292D02*
X647189Y-1873506D01*
X647189Y-1873506D02*
X644289Y-1885452D01*
X644289Y-1885452D02*
X642209Y-1887538D01*
X642209Y-1887538D02*
X639649Y-1888018D01*
X639649Y-1888018D02*
X632909Y-1887078D01*
X632909Y-1887078D02*
X623699Y-1888523D01*
X623699Y-1888523D02*
X616549Y-1892486D01*
X616549Y-1892486D02*
X609689Y-1894919D01*
X609689Y-1894919D02*
X546760Y-1898358D01*
X546760Y-1898358D02*
X474035Y-1901666D01*
X474035Y-1901666D02*
X460005Y-1903769D01*
X460005Y-1903769D02*
X452235Y-1906957D01*
X452235Y-1906957D02*
X436006Y-1919402D01*
X436006Y-1919402D02*
X430796Y-1926070D01*
X430796Y-1926070D02*
X427856Y-1932687D01*
X427856Y-1932687D02*
X425866Y-2162067D01*
X425866Y-2162067D02*
X425966Y-2277944D01*
X425966Y-2277944D02*
X428086Y-2344395D01*
X428086Y-2344395D02*
X430636Y-2364141D01*
X430636Y-2364141D02*
X434586Y-2377597D01*
X434586Y-2377597D02*
X440226Y-2386786D01*
X440226Y-2386786D02*
X447856Y-2393729D01*
X447856Y-2393729D02*
X459361Y-2402308D01*
X459361Y-2402308D02*
X519834Y-2403724D01*
X519834Y-2403724D02*
X701206Y-2404766D01*
X701206Y-2404766D02*
X993140Y-2404306D01*
X993140Y-2404306D02*
X1266587Y-2402788D01*
X1266587Y-2402788D02*
X1392497Y-2400669D01*
X1392497Y-2400669D02*
X1392697Y-2400663D01*
X1392697Y-2400663D02*
X1392682Y-2400661D01*
X210276Y-1522773D02*
X377989Y-1522773D01*
X377989Y-1522773D02*
X377989Y-1757366D01*
X377989Y-1757366D02*
X210276Y-1757366D01*
X210276Y-1757366D02*
X210276Y-1522773D01*
X210276Y-1522773D02*
X210276Y-1522773D01*
X-556312Y-1554613D02*
X-381605Y-1554613D01*
X-381605Y-1554613D02*
X-381605Y-1749636D01*
X-381605Y-1749636D02*
X-556312Y-1749636D01*
X-556312Y-1749636D02*
X-556312Y-1554613D01*
X-556312Y-1554613D02*
X-556312Y-1554613D01*
X-1043043Y-1989265D02*
X-794281Y-1989265D01*
X-794281Y-1989265D02*
X-794281Y-2126531D01*
X-794281Y-2126531D02*
X-1043043Y-2126531D01*
X-1043043Y-2126531D02*
X-1043043Y-1989265D01*
X-1043043Y-1989265D02*
X-1043043Y-1989265D01*
X-431677Y2557871D02*
X-88433Y2557871D01*
X-88433Y2557871D02*
X-88433Y2214628D01*
X-88433Y2214628D02*
X-431677Y2214628D01*
X-431677Y2214628D02*
X-431677Y2557871D01*
X-431677Y2557871D02*
X-431677Y2557871D01*
X10263938Y2562781D02*
X10606035Y2562781D01*
X10606035Y2562781D02*
X10606035Y2228427D01*
X10606035Y2228427D02*
X10263938Y2228427D01*
X10263938Y2228427D02*
X10263938Y2562781D01*
X10263938Y2562781D02*
X10263938Y2562781D01*
X-4729810Y1155144D02*
X-4730610Y1139030D01*
X-4730610Y1139030D02*
X-4733000Y1123382D01*
X-4733000Y1123382D02*
X-4736880Y1108278D01*
X-4736880Y1108278D02*
X-4742180Y1093798D01*
X-4742180Y1093798D02*
X-4756711Y1067028D01*
X-4756711Y1067028D02*
X-4775955Y1043703D01*
X-4775955Y1043703D02*
X-4799279Y1024459D01*
X-4799279Y1024459D02*
X-4826050Y1009928D01*
X-4826050Y1009928D02*
X-4840530Y1004628D01*
X-4840530Y1004628D02*
X-4855633Y1000744D01*
X-4855633Y1000744D02*
X-4871281Y998356D01*
X-4871281Y998356D02*
X-4887395Y997546D01*
X-4887395Y997546D02*
X-4903509Y998356D01*
X-4903509Y998356D02*
X-4919157Y1000744D01*
X-4919157Y1000744D02*
X-4934260Y1004628D01*
X-4934260Y1004628D02*
X-4948740Y1009928D01*
X-4948740Y1009928D02*
X-4975511Y1024459D01*
X-4975511Y1024459D02*
X-4998835Y1043703D01*
X-4998835Y1043703D02*
X-5018079Y1067028D01*
X-5018079Y1067028D02*
X-5032610Y1093798D01*
X-5032610Y1093798D02*
X-5037910Y1108278D01*
X-5037910Y1108278D02*
X-5041790Y1123382D01*
X-5041790Y1123382D02*
X-5044180Y1139030D01*
X-5044180Y1139030D02*
X-5044980Y1155144D01*
X-5044980Y1155144D02*
X-5044180Y1171257D01*
X-5044180Y1171257D02*
X-5041790Y1186905D01*
X-5041790Y1186905D02*
X-5037910Y1202009D01*
X-5037910Y1202009D02*
X-5032610Y1216489D01*
X-5032610Y1216489D02*
X-5018079Y1243259D01*
X-5018079Y1243259D02*
X-4998835Y1266584D01*
X-4998835Y1266584D02*
X-4975511Y1285828D01*
X-4975511Y1285828D02*
X-4948740Y1300359D01*
X-4948740Y1300359D02*
X-4934260Y1305659D01*
X-4934260Y1305659D02*
X-4919157Y1309543D01*
X-4919157Y1309543D02*
X-4903509Y1311931D01*
X-4903509Y1311931D02*
X-4887395Y1312741D01*
X-4887395Y1312741D02*
X-4871281Y1311931D01*
X-4871281Y1311931D02*
X-4855633Y1309543D01*
X-4855633Y1309543D02*
X-4840530Y1305659D01*
X-4840530Y1305659D02*
X-4826050Y1300359D01*
X-4826050Y1300359D02*
X-4799279Y1285828D01*
X-4799279Y1285828D02*
X-4775955Y1266584D01*
X-4775955Y1266584D02*
X-4756711Y1243259D01*
X-4756711Y1243259D02*
X-4742180Y1216489D01*
X-4742180Y1216489D02*
X-4736880Y1202009D01*
X-4736880Y1202009D02*
X-4733000Y1186905D01*
X-4733000Y1186905D02*
X-4730610Y1171257D01*
X-4730610Y1171257D02*
X-4729810Y1155144D01*
X-4729810Y1155144D02*
X-4729810Y1155144D01*
X-4729810Y1155144D02*
X-4729810Y1155144D01*
X1259044Y1150588D02*
X1256354Y1123924D01*
X1256354Y1123924D02*
X1248644Y1099089D01*
X1248644Y1099089D02*
X1236446Y1076615D01*
X1236446Y1076615D02*
X1220290Y1057035D01*
X1220290Y1057035D02*
X1200709Y1040879D01*
X1200709Y1040879D02*
X1178236Y1028681D01*
X1178236Y1028681D02*
X1153401Y1020972D01*
X1153401Y1020972D02*
X1126737Y1018284D01*
X1126737Y1018284D02*
X1100073Y1020972D01*
X1100073Y1020972D02*
X1075238Y1028681D01*
X1075238Y1028681D02*
X1052765Y1040879D01*
X1052765Y1040879D02*
X1033184Y1057035D01*
X1033184Y1057035D02*
X1017028Y1076615D01*
X1017028Y1076615D02*
X1004830Y1099089D01*
X1004830Y1099089D02*
X997120Y1123924D01*
X997120Y1123924D02*
X994430Y1150588D01*
X994430Y1150588D02*
X997120Y1177252D01*
X997120Y1177252D02*
X1004830Y1202086D01*
X1004830Y1202086D02*
X1017028Y1224560D01*
X1017028Y1224560D02*
X1033184Y1244141D01*
X1033184Y1244141D02*
X1052765Y1260296D01*
X1052765Y1260296D02*
X1075238Y1272495D01*
X1075238Y1272495D02*
X1100073Y1280204D01*
X1100073Y1280204D02*
X1126737Y1282892D01*
X1126737Y1282892D02*
X1153401Y1280204D01*
X1153401Y1280204D02*
X1178236Y1272495D01*
X1178236Y1272495D02*
X1200709Y1260296D01*
X1200709Y1260296D02*
X1220290Y1244141D01*
X1220290Y1244141D02*
X1236446Y1224560D01*
X1236446Y1224560D02*
X1248644Y1202086D01*
X1248644Y1202086D02*
X1256354Y1177252D01*
X1256354Y1177252D02*
X1259044Y1150588D01*
X1259044Y1150588D02*
X1259044Y1150588D01*
X1259044Y1150588D02*
X1259044Y1150588D01*
X5499577Y-3038796D02*
X5497117Y-3063197D01*
X5497117Y-3063197D02*
X5490067Y-3085924D01*
X5490067Y-3085924D02*
X5478904Y-3106490D01*
X5478904Y-3106490D02*
X5464120Y-3124409D01*
X5464120Y-3124409D02*
X5446202Y-3139193D01*
X5446202Y-3139193D02*
X5425636Y-3150356D01*
X5425636Y-3150356D02*
X5402909Y-3157411D01*
X5402909Y-3157411D02*
X5378508Y-3159871D01*
X5378508Y-3159871D02*
X5354777Y-3157523D01*
X5354777Y-3157523D02*
X5332175Y-3150655D01*
X5332175Y-3150655D02*
X5311336Y-3139529D01*
X5311336Y-3139529D02*
X5292895Y-3124409D01*
X5292895Y-3124409D02*
X5277775Y-3105969D01*
X5277775Y-3105969D02*
X5266649Y-3085130D01*
X5266649Y-3085130D02*
X5259779Y-3062527D01*
X5259779Y-3062527D02*
X5257429Y-3038796D01*
X5257429Y-3038796D02*
X5259779Y-3015065D01*
X5259779Y-3015065D02*
X5266649Y-2992463D01*
X5266649Y-2992463D02*
X5277775Y-2971624D01*
X5277775Y-2971624D02*
X5292895Y-2953183D01*
X5292895Y-2953183D02*
X5311336Y-2938063D01*
X5311336Y-2938063D02*
X5332175Y-2926938D01*
X5332175Y-2926938D02*
X5354777Y-2920070D01*
X5354777Y-2920070D02*
X5378508Y-2917722D01*
X5378508Y-2917722D02*
X5402909Y-2920182D01*
X5402909Y-2920182D02*
X5425636Y-2927237D01*
X5425636Y-2927237D02*
X5446202Y-2938400D01*
X5446202Y-2938400D02*
X5464120Y-2953184D01*
X5464120Y-2953184D02*
X5478905Y-2971103D01*
X5478905Y-2971103D02*
X5490067Y-2991669D01*
X5490067Y-2991669D02*
X5497117Y-3014396D01*
X5497117Y-3014396D02*
X5499577Y-3038797D01*
X5499577Y-3038797D02*
X5499577Y-3038797D01*
X5499577Y-3038797D02*
X5499577Y-3038796D01*
X-568708Y1567897D02*
X-550815Y1580449D01*
X-550815Y1580449D02*
X-530308Y1599299D01*
X-530308Y1599299D02*
X-510928Y1620673D01*
X-510928Y1620673D02*
X-496420Y1640795D01*
X-496420Y1640795D02*
X-486278Y1660923D01*
X-486278Y1660923D02*
X-477138Y1683633D01*
X-477138Y1683633D02*
X-472568Y1698103D01*
X-472568Y1698103D02*
X-470058Y1710879D01*
X-470058Y1710879D02*
X-468868Y1749973D01*
X-468868Y1749973D02*
X-470218Y1787811D01*
X-470218Y1787811D02*
X-472358Y1799615D01*
X-472358Y1799615D02*
X-475998Y1811168D01*
X-475998Y1811168D02*
X-491811Y1847422D01*
X-491811Y1847422D02*
X-510990Y1877798D01*
X-510990Y1877798D02*
X-521793Y1890719D01*
X-521793Y1890719D02*
X-533380Y1902093D01*
X-533380Y1902093D02*
X-545731Y1911896D01*
X-545731Y1911896D02*
X-558826Y1920102D01*
X-558826Y1920102D02*
X-579845Y1929439D01*
X-579845Y1929439D02*
X-604322Y1933741D01*
X-604322Y1933741D02*
X-640952Y1935768D01*
X-640952Y1935768D02*
X-688719Y1936388D01*
X-688719Y1936388D02*
X-732499Y1935618D01*
X-732499Y1935618D02*
X-757167Y1933491D01*
X-757167Y1933491D02*
X-767857Y1928630D01*
X-767857Y1928630D02*
X-783235Y1919252D01*
X-783235Y1919252D02*
X-819077Y1892840D01*
X-819077Y1892840D02*
X-829786Y1882372D01*
X-829786Y1882372D02*
X-840987Y1868402D01*
X-840987Y1868402D02*
X-852060Y1851783D01*
X-852060Y1851783D02*
X-862383Y1833371D01*
X-862383Y1833371D02*
X-868763Y1819417D01*
X-868763Y1819417D02*
X-873603Y1803848D01*
X-873603Y1803848D02*
X-883383Y1748799D01*
X-883383Y1748799D02*
X-883683Y1733665D01*
X-883683Y1733665D02*
X-880863Y1715396D01*
X-880863Y1715396D02*
X-875413Y1696057D01*
X-875413Y1696057D02*
X-867793Y1677710D01*
X-867793Y1677710D02*
X-850604Y1639569D01*
X-850604Y1639569D02*
X-840714Y1622324D01*
X-840714Y1622324D02*
X-824565Y1603168D01*
X-824565Y1603168D02*
X-805267Y1585351D01*
X-805267Y1585351D02*
X-785938Y1572124D01*
X-785938Y1572124D02*
X-768076Y1564688D01*
X-768076Y1564688D02*
X-744137Y1560430D01*
X-744137Y1560430D02*
X-706949Y1558641D01*
X-706949Y1558641D02*
X-649339Y1558612D01*
X-649339Y1558612D02*
X-585160Y1559172D01*
X-585160Y1559172D02*
X-568742Y1567891D01*
X-568742Y1567891D02*
X-568743Y1567895D01*
X-568743Y1567895D02*
X-568708Y1567897D01*
X726145Y244350D02*
X725145Y224559D01*
X725145Y224559D02*
X722215Y205339D01*
X722215Y205339D02*
X717445Y186789D01*
X717445Y186789D02*
X710935Y169005D01*
X710935Y169005D02*
X702785Y152084D01*
X702785Y152084D02*
X693095Y136124D01*
X693095Y136124D02*
X681952Y121223D01*
X681952Y121223D02*
X669458Y107477D01*
X669458Y107477D02*
X655712Y94983D01*
X655712Y94983D02*
X640811Y83840D01*
X640811Y83840D02*
X624851Y74144D01*
X624851Y74144D02*
X607930Y65993D01*
X607930Y65993D02*
X590146Y59484D01*
X590146Y59484D02*
X571596Y54714D01*
X571596Y54714D02*
X552376Y51781D01*
X552376Y51781D02*
X532585Y50781D01*
X532585Y50781D02*
X513453Y51731D01*
X513453Y51731D02*
X494645Y54538D01*
X494645Y54538D02*
X476288Y59151D01*
X476288Y59151D02*
X458509Y65518D01*
X458509Y65518D02*
X441435Y73587D01*
X441435Y73587D02*
X425193Y83305D01*
X425193Y83305D02*
X409909Y94620D01*
X409909Y94620D02*
X395711Y107478D01*
X395711Y107478D02*
X382853Y121676D01*
X382853Y121676D02*
X371538Y136960D01*
X371538Y136960D02*
X361818Y153203D01*
X361818Y153203D02*
X353748Y170277D01*
X353748Y170277D02*
X347378Y188056D01*
X347378Y188056D02*
X342768Y206412D01*
X342768Y206412D02*
X339958Y225220D01*
X339958Y225220D02*
X339058Y244352D01*
X339058Y244352D02*
X339958Y263484D01*
X339958Y263484D02*
X342768Y282292D01*
X342768Y282292D02*
X347378Y300649D01*
X347378Y300649D02*
X353748Y318428D01*
X353748Y318428D02*
X361818Y335502D01*
X361818Y335502D02*
X371538Y351744D01*
X371538Y351744D02*
X382853Y367028D01*
X382853Y367028D02*
X395711Y381226D01*
X395711Y381226D02*
X409909Y394084D01*
X409909Y394084D02*
X425193Y405399D01*
X425193Y405399D02*
X441435Y415117D01*
X441435Y415117D02*
X458509Y423186D01*
X458509Y423186D02*
X476288Y429554D01*
X476288Y429554D02*
X494645Y434167D01*
X494645Y434167D02*
X513453Y436973D01*
X513453Y436973D02*
X532585Y437923D01*
X532585Y437923D02*
X552376Y436923D01*
X552376Y436923D02*
X571596Y433990D01*
X571596Y433990D02*
X590146Y429220D01*
X590146Y429220D02*
X607930Y422711D01*
X607930Y422711D02*
X624851Y414560D01*
X624851Y414560D02*
X640811Y404864D01*
X640811Y404864D02*
X655712Y393721D01*
X655712Y393721D02*
X669458Y381228D01*
X669458Y381228D02*
X681952Y367482D01*
X681952Y367482D02*
X693095Y352580D01*
X693095Y352580D02*
X702785Y336620D01*
X702785Y336620D02*
X710935Y319700D01*
X710935Y319700D02*
X717445Y301916D01*
X717445Y301916D02*
X722215Y283365D01*
X722215Y283365D02*
X725145Y264145D01*
X725145Y264145D02*
X726145Y244354D01*
X726145Y244354D02*
X726145Y244354D01*
X726145Y244354D02*
X726145Y244350D01*
X-854078Y257214D02*
X-855078Y237423D01*
X-855078Y237423D02*
X-858008Y218203D01*
X-858008Y218203D02*
X-862778Y199652D01*
X-862778Y199652D02*
X-869288Y181868D01*
X-869288Y181868D02*
X-877438Y164948D01*
X-877438Y164948D02*
X-887138Y148988D01*
X-887138Y148988D02*
X-898281Y134086D01*
X-898281Y134086D02*
X-910775Y120340D01*
X-910775Y120340D02*
X-924521Y107847D01*
X-924521Y107847D02*
X-939422Y96704D01*
X-939422Y96704D02*
X-955382Y87008D01*
X-955382Y87008D02*
X-972303Y78857D01*
X-972303Y78857D02*
X-990087Y72348D01*
X-990087Y72348D02*
X-1008637Y67578D01*
X-1008637Y67578D02*
X-1027857Y64645D01*
X-1027857Y64645D02*
X-1047648Y63645D01*
X-1047648Y63645D02*
X-1066780Y64595D01*
X-1066780Y64595D02*
X-1085588Y67402D01*
X-1085588Y67402D02*
X-1103945Y72015D01*
X-1103945Y72015D02*
X-1121724Y78383D01*
X-1121724Y78383D02*
X-1138798Y86452D01*
X-1138798Y86452D02*
X-1155040Y96170D01*
X-1155040Y96170D02*
X-1170324Y107485D01*
X-1170324Y107485D02*
X-1184522Y120343D01*
X-1184522Y120343D02*
X-1197380Y134541D01*
X-1197380Y134541D02*
X-1208695Y149825D01*
X-1208695Y149825D02*
X-1218415Y166067D01*
X-1218415Y166067D02*
X-1226485Y183141D01*
X-1226485Y183141D02*
X-1232855Y200920D01*
X-1232855Y200920D02*
X-1237465Y219277D01*
X-1237465Y219277D02*
X-1240275Y238085D01*
X-1240275Y238085D02*
X-1241175Y257217D01*
X-1241175Y257217D02*
X-1240275Y276349D01*
X-1240275Y276349D02*
X-1237465Y295157D01*
X-1237465Y295157D02*
X-1232855Y313514D01*
X-1232855Y313514D02*
X-1226485Y331293D01*
X-1226485Y331293D02*
X-1218415Y348367D01*
X-1218415Y348367D02*
X-1208695Y364609D01*
X-1208695Y364609D02*
X-1197380Y379893D01*
X-1197380Y379893D02*
X-1184522Y394091D01*
X-1184522Y394091D02*
X-1170324Y406949D01*
X-1170324Y406949D02*
X-1155040Y418264D01*
X-1155040Y418264D02*
X-1138798Y427982D01*
X-1138798Y427982D02*
X-1121724Y436051D01*
X-1121724Y436051D02*
X-1103945Y442418D01*
X-1103945Y442418D02*
X-1085588Y447031D01*
X-1085588Y447031D02*
X-1066780Y449837D01*
X-1066780Y449837D02*
X-1047648Y450787D01*
X-1047648Y450787D02*
X-1027857Y449787D01*
X-1027857Y449787D02*
X-1008637Y446854D01*
X-1008637Y446854D02*
X-990087Y442084D01*
X-990087Y442084D02*
X-972303Y435575D01*
X-972303Y435575D02*
X-955382Y427424D01*
X-955382Y427424D02*
X-939422Y417728D01*
X-939422Y417728D02*
X-924521Y406585D01*
X-924521Y406585D02*
X-910775Y394091D01*
X-910775Y394091D02*
X-898282Y380345D01*
X-898282Y380345D02*
X-887138Y365444D01*
X-887138Y365444D02*
X-877438Y349484D01*
X-877438Y349484D02*
X-869288Y332564D01*
X-869288Y332564D02*
X-862778Y314779D01*
X-862778Y314779D02*
X-858008Y296229D01*
X-858008Y296229D02*
X-855078Y277009D01*
X-855078Y277009D02*
X-854078Y257218D01*
X-854078Y257218D02*
X-854078Y257218D01*
X-854078Y257218D02*
X-854078Y257214D01*
X-69408Y1033949D02*
X-70308Y1014817D01*
X-70308Y1014817D02*
X-73118Y996010D01*
X-73118Y996010D02*
X-77728Y977653D01*
X-77728Y977653D02*
X-84098Y959874D01*
X-84098Y959874D02*
X-92168Y942800D01*
X-92168Y942800D02*
X-101888Y926557D01*
X-101888Y926557D02*
X-113203Y911274D01*
X-113203Y911274D02*
X-126061Y897076D01*
X-126061Y897076D02*
X-140259Y884217D01*
X-140259Y884217D02*
X-155543Y872902D01*
X-155543Y872902D02*
X-171785Y863184D01*
X-171785Y863184D02*
X-188859Y855115D01*
X-188859Y855115D02*
X-206638Y848748D01*
X-206638Y848748D02*
X-224995Y844135D01*
X-224995Y844135D02*
X-243803Y841329D01*
X-243803Y841329D02*
X-262935Y840379D01*
X-262935Y840379D02*
X-282726Y841379D01*
X-282726Y841379D02*
X-301946Y844312D01*
X-301946Y844312D02*
X-320496Y849082D01*
X-320496Y849082D02*
X-338280Y855591D01*
X-338280Y855591D02*
X-355201Y863742D01*
X-355201Y863742D02*
X-371161Y873438D01*
X-371161Y873438D02*
X-386062Y884582D01*
X-386062Y884582D02*
X-399808Y897075D01*
X-399808Y897075D02*
X-412301Y910821D01*
X-412301Y910821D02*
X-423445Y925722D01*
X-423445Y925722D02*
X-433135Y941682D01*
X-433135Y941682D02*
X-441285Y958603D01*
X-441285Y958603D02*
X-447795Y976387D01*
X-447795Y976387D02*
X-452565Y994938D01*
X-452565Y994938D02*
X-455495Y1014157D01*
X-455495Y1014157D02*
X-456495Y1033948D01*
X-456495Y1033948D02*
X-455495Y1053740D01*
X-455495Y1053740D02*
X-452565Y1072959D01*
X-452565Y1072959D02*
X-447795Y1091510D01*
X-447795Y1091510D02*
X-441285Y1109294D01*
X-441285Y1109294D02*
X-433135Y1126214D01*
X-433135Y1126214D02*
X-423445Y1142174D01*
X-423445Y1142174D02*
X-412302Y1157076D01*
X-412302Y1157076D02*
X-399808Y1170822D01*
X-399808Y1170822D02*
X-386062Y1183315D01*
X-386062Y1183315D02*
X-371161Y1194458D01*
X-371161Y1194458D02*
X-355201Y1204154D01*
X-355201Y1204154D02*
X-338280Y1212305D01*
X-338280Y1212305D02*
X-320496Y1218814D01*
X-320496Y1218814D02*
X-301946Y1223584D01*
X-301946Y1223584D02*
X-282726Y1226517D01*
X-282726Y1226517D02*
X-262935Y1227517D01*
X-262935Y1227517D02*
X-243803Y1226567D01*
X-243803Y1226567D02*
X-224995Y1223760D01*
X-224995Y1223760D02*
X-206638Y1219147D01*
X-206638Y1219147D02*
X-188859Y1212780D01*
X-188859Y1212780D02*
X-171785Y1204711D01*
X-171785Y1204711D02*
X-155543Y1194993D01*
X-155543Y1194993D02*
X-140259Y1183679D01*
X-140259Y1183679D02*
X-126061Y1170820D01*
X-126061Y1170820D02*
X-113203Y1156622D01*
X-113203Y1156622D02*
X-101888Y1141338D01*
X-101888Y1141338D02*
X-92168Y1125096D01*
X-92168Y1125096D02*
X-84098Y1108022D01*
X-84098Y1108022D02*
X-77728Y1090243D01*
X-77728Y1090243D02*
X-73118Y1071886D01*
X-73118Y1071886D02*
X-70308Y1053078D01*
X-70308Y1053078D02*
X-69408Y1033946D01*
X-69408Y1033946D02*
X-69408Y1033946D01*
X-69408Y1033946D02*
X-69408Y1033949D01*
X-57377Y-535629D02*
X-58387Y-555651D01*
X-58387Y-555651D02*
X-61357Y-575094D01*
X-61357Y-575094D02*
X-66187Y-593861D01*
X-66187Y-593861D02*
X-72777Y-611852D01*
X-72777Y-611852D02*
X-81027Y-628970D01*
X-81027Y-628970D02*
X-90837Y-645116D01*
X-90837Y-645116D02*
X-102110Y-660191D01*
X-102110Y-660191D02*
X-114749Y-674097D01*
X-114749Y-674097D02*
X-128655Y-686736D01*
X-128655Y-686736D02*
X-143730Y-698009D01*
X-143730Y-698009D02*
X-159876Y-707818D01*
X-159876Y-707818D02*
X-176993Y-716064D01*
X-176993Y-716064D02*
X-194985Y-722649D01*
X-194985Y-722649D02*
X-213752Y-727474D01*
X-213752Y-727474D02*
X-233195Y-730442D01*
X-233195Y-730442D02*
X-253217Y-731453D01*
X-253217Y-731453D02*
X-273239Y-730442D01*
X-273239Y-730442D02*
X-292682Y-727474D01*
X-292682Y-727474D02*
X-311449Y-722649D01*
X-311449Y-722649D02*
X-329441Y-716064D01*
X-329441Y-716064D02*
X-346558Y-707818D01*
X-346558Y-707818D02*
X-362704Y-698009D01*
X-362704Y-698009D02*
X-377779Y-686736D01*
X-377779Y-686736D02*
X-391685Y-674097D01*
X-391685Y-674097D02*
X-404324Y-660191D01*
X-404324Y-660191D02*
X-415597Y-645116D01*
X-415597Y-645116D02*
X-425407Y-628970D01*
X-425407Y-628970D02*
X-433657Y-611852D01*
X-433657Y-611852D02*
X-440237Y-593861D01*
X-440237Y-593861D02*
X-445067Y-575094D01*
X-445067Y-575094D02*
X-448037Y-555651D01*
X-448037Y-555651D02*
X-449047Y-535629D01*
X-449047Y-535629D02*
X-448037Y-515607D01*
X-448037Y-515607D02*
X-445067Y-496163D01*
X-445067Y-496163D02*
X-440237Y-477397D01*
X-440237Y-477397D02*
X-433657Y-459405D01*
X-433657Y-459405D02*
X-425407Y-442287D01*
X-425407Y-442287D02*
X-415597Y-426142D01*
X-415597Y-426142D02*
X-404324Y-411066D01*
X-404324Y-411066D02*
X-391685Y-397160D01*
X-391685Y-397160D02*
X-377779Y-384521D01*
X-377779Y-384521D02*
X-362704Y-373248D01*
X-362704Y-373248D02*
X-346558Y-363439D01*
X-346558Y-363439D02*
X-329441Y-355193D01*
X-329441Y-355193D02*
X-311449Y-348608D01*
X-311449Y-348608D02*
X-292682Y-343783D01*
X-292682Y-343783D02*
X-273239Y-340815D01*
X-273239Y-340815D02*
X-253217Y-339804D01*
X-253217Y-339804D02*
X-233195Y-340815D01*
X-233195Y-340815D02*
X-213752Y-343783D01*
X-213752Y-343783D02*
X-194985Y-348608D01*
X-194985Y-348608D02*
X-176993Y-355193D01*
X-176993Y-355193D02*
X-159876Y-363439D01*
X-159876Y-363439D02*
X-143730Y-373248D01*
X-143730Y-373248D02*
X-128655Y-384521D01*
X-128655Y-384521D02*
X-114749Y-397160D01*
X-114749Y-397160D02*
X-102110Y-411066D01*
X-102110Y-411066D02*
X-90837Y-426142D01*
X-90837Y-426142D02*
X-81027Y-442287D01*
X-81027Y-442287D02*
X-72777Y-459405D01*
X-72777Y-459405D02*
X-66187Y-477397D01*
X-66187Y-477397D02*
X-61357Y-496163D01*
X-61357Y-496163D02*
X-58387Y-515607D01*
X-58387Y-515607D02*
X-57377Y-535629D01*
X-57377Y-535629D02*
X-57377Y-535629D01*
X-57377Y-535629D02*
X-57377Y-535629D01*
X-83346Y256387D02*
X-84146Y239681D01*
X-84146Y239681D02*
X-86556Y223258D01*
X-86556Y223258D02*
X-90526Y207229D01*
X-90526Y207229D02*
X-95996Y191705D01*
X-95996Y191705D02*
X-102936Y176795D01*
X-102936Y176795D02*
X-111286Y162613D01*
X-111286Y162613D02*
X-121016Y149267D01*
X-121016Y149267D02*
X-132070Y136869D01*
X-132070Y136869D02*
X-144277Y125641D01*
X-144277Y125641D02*
X-157417Y115761D01*
X-157417Y115761D02*
X-171381Y107275D01*
X-171381Y107275D02*
X-186060Y100229D01*
X-186060Y100229D02*
X-201345Y94669D01*
X-201345Y94669D02*
X-217127Y90641D01*
X-217127Y90641D02*
X-233297Y88190D01*
X-233297Y88190D02*
X-249745Y87360D01*
X-249745Y87360D02*
X-266760Y88230D01*
X-266760Y88230D02*
X-283284Y90791D01*
X-283284Y90791D02*
X-299232Y94956D01*
X-299232Y94956D02*
X-314522Y100640D01*
X-314522Y100640D02*
X-329069Y107758D01*
X-329069Y107758D02*
X-342790Y116224D01*
X-342790Y116224D02*
X-355601Y125954D01*
X-355601Y125954D02*
X-367419Y136864D01*
X-367419Y136864D02*
X-378160Y148867D01*
X-378160Y148867D02*
X-387740Y161879D01*
X-387740Y161879D02*
X-396080Y175814D01*
X-396080Y175814D02*
X-403090Y190589D01*
X-403090Y190589D02*
X-408690Y206119D01*
X-408690Y206119D02*
X-412790Y222317D01*
X-412790Y222317D02*
X-415310Y239099D01*
X-415310Y239099D02*
X-416210Y256381D01*
X-416210Y256381D02*
X-415310Y273662D01*
X-415310Y273662D02*
X-412790Y290445D01*
X-412790Y290445D02*
X-408690Y306643D01*
X-408690Y306643D02*
X-403090Y322172D01*
X-403090Y322172D02*
X-396080Y336947D01*
X-396080Y336947D02*
X-387740Y350883D01*
X-387740Y350883D02*
X-378160Y363895D01*
X-378160Y363895D02*
X-367419Y375898D01*
X-367419Y375898D02*
X-355601Y386807D01*
X-355601Y386807D02*
X-342790Y396537D01*
X-342790Y396537D02*
X-329069Y405003D01*
X-329069Y405003D02*
X-314522Y412121D01*
X-314522Y412121D02*
X-299232Y417805D01*
X-299232Y417805D02*
X-283284Y421970D01*
X-283284Y421970D02*
X-266760Y424531D01*
X-266760Y424531D02*
X-249745Y425401D01*
X-249745Y425401D02*
X-233297Y424571D01*
X-233297Y424571D02*
X-217127Y422120D01*
X-217127Y422120D02*
X-201345Y418092D01*
X-201345Y418092D02*
X-186060Y412532D01*
X-186060Y412532D02*
X-171381Y405486D01*
X-171381Y405486D02*
X-157417Y397000D01*
X-157417Y397000D02*
X-144277Y387120D01*
X-144277Y387120D02*
X-132070Y375892D01*
X-132070Y375892D02*
X-121016Y363494D01*
X-121016Y363494D02*
X-111286Y350149D01*
X-111286Y350149D02*
X-102936Y335966D01*
X-102936Y335966D02*
X-95996Y321057D01*
X-95996Y321057D02*
X-90526Y305533D01*
X-90526Y305533D02*
X-86556Y289503D01*
X-86556Y289503D02*
X-84146Y273080D01*
X-84146Y273080D02*
X-83346Y256374D01*
X-83346Y256374D02*
X-83346Y256374D01*
X-83346Y256374D02*
X-83346Y256387D01*
X10415674Y258701D02*
X10414674Y239036D01*
X10414674Y239036D02*
X10411754Y219939D01*
X10411754Y219939D02*
X10407014Y201507D01*
X10407014Y201507D02*
X10400544Y183836D01*
X10400544Y183836D02*
X10392444Y167023D01*
X10392444Y167023D02*
X10382814Y151165D01*
X10382814Y151165D02*
X10371742Y136359D01*
X10371742Y136359D02*
X10359328Y122701D01*
X10359328Y122701D02*
X10345670Y110287D01*
X10345670Y110287D02*
X10330863Y99215D01*
X10330863Y99215D02*
X10315005Y89581D01*
X10315005Y89581D02*
X10298193Y81482D01*
X10298193Y81482D02*
X10280522Y75014D01*
X10280522Y75014D02*
X10262090Y70275D01*
X10262090Y70275D02*
X10242993Y67360D01*
X10242993Y67360D02*
X10223328Y66370D01*
X10223328Y66370D02*
X10204318Y67310D01*
X10204318Y67310D02*
X10185630Y70098D01*
X10185630Y70098D02*
X10167391Y74682D01*
X10167391Y74682D02*
X10149725Y81009D01*
X10149725Y81009D02*
X10132760Y89026D01*
X10132760Y89026D02*
X10116621Y98682D01*
X10116621Y98682D02*
X10101435Y109924D01*
X10101435Y109924D02*
X10087327Y122701D01*
X10087327Y122701D02*
X10074551Y136808D01*
X10074551Y136808D02*
X10063308Y151995D01*
X10063308Y151995D02*
X10053648Y168133D01*
X10053648Y168133D02*
X10045628Y185098D01*
X10045628Y185098D02*
X10039298Y202764D01*
X10039298Y202764D02*
X10034718Y221004D01*
X10034718Y221004D02*
X10031928Y239691D01*
X10031928Y239691D02*
X10031028Y258701D01*
X10031028Y258701D02*
X10031928Y277711D01*
X10031928Y277711D02*
X10034718Y296399D01*
X10034718Y296399D02*
X10039298Y314639D01*
X10039298Y314639D02*
X10045628Y332304D01*
X10045628Y332304D02*
X10053648Y349269D01*
X10053648Y349269D02*
X10063308Y365408D01*
X10063308Y365408D02*
X10074551Y380594D01*
X10074551Y380594D02*
X10087327Y394702D01*
X10087327Y394702D02*
X10101435Y407478D01*
X10101435Y407478D02*
X10116621Y418720D01*
X10116621Y418720D02*
X10132760Y428376D01*
X10132760Y428376D02*
X10149725Y436393D01*
X10149725Y436393D02*
X10167391Y442720D01*
X10167391Y442720D02*
X10185630Y447304D01*
X10185630Y447304D02*
X10204318Y450092D01*
X10204318Y450092D02*
X10223328Y451032D01*
X10223328Y451032D02*
X10242993Y450042D01*
X10242993Y450042D02*
X10262090Y447127D01*
X10262090Y447127D02*
X10280522Y442388D01*
X10280522Y442388D02*
X10298193Y435920D01*
X10298193Y435920D02*
X10315005Y427821D01*
X10315005Y427821D02*
X10330863Y418187D01*
X10330863Y418187D02*
X10345670Y407115D01*
X10345670Y407115D02*
X10359328Y394702D01*
X10359328Y394702D02*
X10371742Y381044D01*
X10371742Y381044D02*
X10382814Y366237D01*
X10382814Y366237D02*
X10392444Y350379D01*
X10392444Y350379D02*
X10400544Y333567D01*
X10400544Y333567D02*
X10407014Y315896D01*
X10407014Y315896D02*
X10411754Y297464D01*
X10411754Y297464D02*
X10414674Y278367D01*
X10414674Y278367D02*
X10415674Y258702D01*
X10415674Y258702D02*
X10415674Y258702D01*
X10415674Y258702D02*
X10415674Y258701D01*
X11210872Y-535257D02*
X11209972Y-554389D01*
X11209972Y-554389D02*
X11207162Y-573197D01*
X11207162Y-573197D02*
X11202552Y-591554D01*
X11202552Y-591554D02*
X11196182Y-609333D01*
X11196182Y-609333D02*
X11188112Y-626408D01*
X11188112Y-626408D02*
X11178392Y-642650D01*
X11178392Y-642650D02*
X11167077Y-657934D01*
X11167077Y-657934D02*
X11154218Y-672132D01*
X11154218Y-672132D02*
X11140020Y-684991D01*
X11140020Y-684991D02*
X11124736Y-696305D01*
X11124736Y-696305D02*
X11108494Y-706023D01*
X11108494Y-706023D02*
X11091419Y-714092D01*
X11091419Y-714092D02*
X11073640Y-720460D01*
X11073640Y-720460D02*
X11055283Y-725073D01*
X11055283Y-725073D02*
X11036475Y-727879D01*
X11036475Y-727879D02*
X11017343Y-728829D01*
X11017343Y-728829D02*
X10998211Y-727879D01*
X10998211Y-727879D02*
X10979403Y-725073D01*
X10979403Y-725073D02*
X10961046Y-720460D01*
X10961046Y-720460D02*
X10943267Y-714092D01*
X10943267Y-714092D02*
X10926192Y-706023D01*
X10926192Y-706023D02*
X10909950Y-696305D01*
X10909950Y-696305D02*
X10894666Y-684991D01*
X10894666Y-684991D02*
X10880468Y-672132D01*
X10880468Y-672132D02*
X10867609Y-657934D01*
X10867609Y-657934D02*
X10856294Y-642650D01*
X10856294Y-642650D02*
X10846574Y-626408D01*
X10846574Y-626408D02*
X10838504Y-609333D01*
X10838504Y-609333D02*
X10832134Y-591554D01*
X10832134Y-591554D02*
X10827524Y-573197D01*
X10827524Y-573197D02*
X10824714Y-554389D01*
X10824714Y-554389D02*
X10823814Y-535257D01*
X10823814Y-535257D02*
X10824714Y-516125D01*
X10824714Y-516125D02*
X10827524Y-497317D01*
X10827524Y-497317D02*
X10832134Y-478960D01*
X10832134Y-478960D02*
X10838504Y-461180D01*
X10838504Y-461180D02*
X10846574Y-444106D01*
X10846574Y-444106D02*
X10856294Y-427864D01*
X10856294Y-427864D02*
X10867609Y-412580D01*
X10867609Y-412580D02*
X10880468Y-398382D01*
X10880468Y-398382D02*
X10894666Y-385523D01*
X10894666Y-385523D02*
X10909950Y-374208D01*
X10909950Y-374208D02*
X10926192Y-364490D01*
X10926192Y-364490D02*
X10943267Y-356421D01*
X10943267Y-356421D02*
X10961046Y-350053D01*
X10961046Y-350053D02*
X10979403Y-345440D01*
X10979403Y-345440D02*
X10998211Y-342634D01*
X10998211Y-342634D02*
X11017343Y-341684D01*
X11017343Y-341684D02*
X11036475Y-342634D01*
X11036475Y-342634D02*
X11055283Y-345440D01*
X11055283Y-345440D02*
X11073640Y-350053D01*
X11073640Y-350053D02*
X11091419Y-356421D01*
X11091419Y-356421D02*
X11108494Y-364490D01*
X11108494Y-364490D02*
X11124736Y-374208D01*
X11124736Y-374208D02*
X11140020Y-385523D01*
X11140020Y-385523D02*
X11154218Y-398382D01*
X11154218Y-398382D02*
X11167077Y-412580D01*
X11167077Y-412580D02*
X11178392Y-427864D01*
X11178392Y-427864D02*
X11188112Y-444106D01*
X11188112Y-444106D02*
X11196182Y-461180D01*
X11196182Y-461180D02*
X11202552Y-478960D01*
X11202552Y-478960D02*
X11207162Y-497317D01*
X11207162Y-497317D02*
X11209972Y-516125D01*
X11209972Y-516125D02*
X11210872Y-535257D01*
X11210872Y-535257D02*
X11210872Y-535257D01*
X11210872Y-535257D02*
X11210872Y-535257D01*
X-3020316Y-3047979D02*
X-2995354Y-3039907D01*
X-2995354Y-3039907D02*
X-2972664Y-3028849D01*
X-2972664Y-3028849D02*
X-2951366Y-3014290D01*
X-2951366Y-3014290D02*
X-2930579Y-2995718D01*
X-2930579Y-2995718D02*
X-2916535Y-2980736D01*
X-2916535Y-2980736D02*
X-2904518Y-2965723D01*
X-2904518Y-2965723D02*
X-2894439Y-2950485D01*
X-2894439Y-2950485D02*
X-2886209Y-2934828D01*
X-2886209Y-2934828D02*
X-2879739Y-2918557D01*
X-2879739Y-2918557D02*
X-2874939Y-2901478D01*
X-2874939Y-2901478D02*
X-2871719Y-2883398D01*
X-2871719Y-2883398D02*
X-2869989Y-2864121D01*
X-2869989Y-2864121D02*
X-2870589Y-2829050D01*
X-2870589Y-2829050D02*
X-2876169Y-2796123D01*
X-2876169Y-2796123D02*
X-2886625Y-2765568D01*
X-2886625Y-2765568D02*
X-2901904Y-2737610D01*
X-2901904Y-2737610D02*
X-2913534Y-2721966D01*
X-2913534Y-2721966D02*
X-2926865Y-2707331D01*
X-2926865Y-2707331D02*
X-2941638Y-2693883D01*
X-2941638Y-2693883D02*
X-2957593Y-2681802D01*
X-2957593Y-2681802D02*
X-2974470Y-2671266D01*
X-2974470Y-2671266D02*
X-2992011Y-2662453D01*
X-2992011Y-2662453D02*
X-3009956Y-2655542D01*
X-3009956Y-2655542D02*
X-3028046Y-2650712D01*
X-3028046Y-2650712D02*
X-3051177Y-2646714D01*
X-3051177Y-2646714D02*
X-3071177Y-2645248D01*
X-3071177Y-2645248D02*
X-3090644Y-2646289D01*
X-3090644Y-2646289D02*
X-3112176Y-2649812D01*
X-3112176Y-2649812D02*
X-3132608Y-2654674D01*
X-3132608Y-2654674D02*
X-3149610Y-2660730D01*
X-3149610Y-2660730D02*
X-3166089Y-2669248D01*
X-3166089Y-2669248D02*
X-3184958Y-2681496D01*
X-3184958Y-2681496D02*
X-3202330Y-2694955D01*
X-3202330Y-2694955D02*
X-3217838Y-2709927D01*
X-3217838Y-2709927D02*
X-3231457Y-2726235D01*
X-3231457Y-2726235D02*
X-3243164Y-2743706D01*
X-3243164Y-2743706D02*
X-3252934Y-2762163D01*
X-3252934Y-2762163D02*
X-3260744Y-2781432D01*
X-3260744Y-2781432D02*
X-3266574Y-2801338D01*
X-3266574Y-2801338D02*
X-3270394Y-2821706D01*
X-3270394Y-2821706D02*
X-3272174Y-2842361D01*
X-3272174Y-2842361D02*
X-3271874Y-2863128D01*
X-3271874Y-2863128D02*
X-3269524Y-2883832D01*
X-3269524Y-2883832D02*
X-3265074Y-2904297D01*
X-3265074Y-2904297D02*
X-3258494Y-2924349D01*
X-3258494Y-2924349D02*
X-3249764Y-2943813D01*
X-3249764Y-2943813D02*
X-3238855Y-2962514D01*
X-3238855Y-2962514D02*
X-3225747Y-2980277D01*
X-3225747Y-2980277D02*
X-3202550Y-3003576D01*
X-3202550Y-3003576D02*
X-3174705Y-3023714D01*
X-3174705Y-3023714D02*
X-3144338Y-3039383D01*
X-3144338Y-3039383D02*
X-3128875Y-3045132D01*
X-3128875Y-3045132D02*
X-3113580Y-3049272D01*
X-3113580Y-3049272D02*
X-3090849Y-3052637D01*
X-3090849Y-3052637D02*
X-3066432Y-3053527D01*
X-3066432Y-3053527D02*
X-3042261Y-3051966D01*
X-3042261Y-3051966D02*
X-3020268Y-3047984D01*
X-3020268Y-3047984D02*
X-3020268Y-3047982D01*
X-3020268Y-3047982D02*
X-3020316Y-3047979D01*
X10836484Y2301869D02*
X10839204Y2304470D01*
X10839204Y2304470D02*
X10844534Y2306722D01*
X10844534Y2306722D02*
X10862329Y2310287D01*
X10862329Y2310287D02*
X10921514Y2314396D01*
X10921514Y2314396D02*
X11002791Y2315884D01*
X11002791Y2315884D02*
X11094915Y2316444D01*
X11094915Y2316444D02*
X11186642Y2317756D01*
X11186642Y2317756D02*
X11266729Y2321513D01*
X11266729Y2321513D02*
X11298893Y2324836D01*
X11298893Y2324836D02*
X11323931Y2329404D01*
X11323931Y2329404D02*
X11340436Y2335428D01*
X11340436Y2335428D02*
X11345046Y2339052D01*
X11345046Y2339052D02*
X11346996Y2343119D01*
X11346996Y2343119D02*
X11357167Y2418546D01*
X11357167Y2418546D02*
X11368324Y2485840D01*
X11368324Y2485840D02*
X11431576Y2814582D01*
X11431576Y2814582D02*
X11296835Y2895241D01*
X11296835Y2895241D02*
X11213904Y2947783D01*
X11213904Y2947783D02*
X11126934Y3005655D01*
X11126934Y3005655D02*
X11040677Y3066750D01*
X11040677Y3066750D02*
X10959887Y3128960D01*
X10959887Y3128960D02*
X10923026Y3159824D01*
X10923026Y3159824D02*
X10889313Y3190176D01*
X10889313Y3190176D02*
X10859342Y3219753D01*
X10859342Y3219753D02*
X10833708Y3248291D01*
X10833708Y3248291D02*
X9628529Y3257759D01*
X9628529Y3257759D02*
X9611975Y3248775D01*
X9611975Y3248775D02*
X9585518Y3239137D01*
X9585518Y3239137D02*
X9549670Y3228736D01*
X9549670Y3228736D02*
X9504940Y3217458D01*
X9504940Y3217458D02*
X9390879Y3191830D01*
X9390879Y3191830D02*
X9247419Y3161362D01*
X9247419Y3161362D02*
X9078644Y3125164D01*
X9078644Y3125164D02*
X8888637Y3082342D01*
X8888637Y3082342D02*
X8681482Y3032008D01*
X8681482Y3032008D02*
X8572750Y3003744D01*
X8572750Y3003744D02*
X8461263Y2973268D01*
X8461263Y2973268D02*
X8347531Y2940468D01*
X8347531Y2940468D02*
X8232065Y2905233D01*
X8232065Y2905233D02*
X8115374Y2867450D01*
X8115374Y2867450D02*
X7997970Y2827010D01*
X7997970Y2827010D02*
X7880363Y2783799D01*
X7880363Y2783799D02*
X7763063Y2737708D01*
X7763063Y2737708D02*
X7646581Y2688624D01*
X7646581Y2688624D02*
X7531427Y2636437D01*
X7531427Y2636437D02*
X7418112Y2581034D01*
X7418112Y2581034D02*
X7307147Y2522304D01*
X7307147Y2522304D02*
X7199041Y2460137D01*
X7199041Y2460137D02*
X7094305Y2394420D01*
X7094305Y2394420D02*
X6993450Y2325042D01*
X6993450Y2325042D02*
X6896987Y2251891D01*
X6896987Y2251891D02*
X6850561Y2213867D01*
X6850561Y2213867D02*
X6805425Y2174858D01*
X6805425Y2174858D02*
X6761641Y2134849D01*
X6761641Y2134849D02*
X6719275Y2093828D01*
X6719275Y2093828D02*
X6569134Y1947414D01*
X6569134Y1947414D02*
X6373096Y1758053D01*
X6373096Y1758053D02*
X6143142Y1531903D01*
X6143142Y1531903D02*
X6019190Y1406956D01*
X6019190Y1406956D02*
X5891252Y1275122D01*
X5891252Y1275122D02*
X5760825Y1137170D01*
X5760825Y1137170D02*
X5629407Y993870D01*
X5629407Y993870D02*
X5498495Y845992D01*
X5498495Y845992D02*
X5369588Y694305D01*
X5369588Y694305D02*
X5244183Y539579D01*
X5244183Y539579D02*
X5123777Y382585D01*
X5123777Y382585D02*
X5065916Y303477D01*
X5065916Y303477D02*
X5009868Y224091D01*
X5009868Y224091D02*
X4955817Y144523D01*
X4955817Y144523D02*
X4903953Y64868D01*
X4903953Y64868D02*
X4882198Y33156D01*
X4882198Y33156D02*
X4858810Y3673D01*
X4858810Y3673D02*
X4833870Y-23660D01*
X4833870Y-23660D02*
X4807456Y-48926D01*
X4807456Y-48926D02*
X4779648Y-72206D01*
X4779648Y-72206D02*
X4750525Y-93581D01*
X4750525Y-93581D02*
X4720166Y-113132D01*
X4720166Y-113132D02*
X4688651Y-130941D01*
X4688651Y-130941D02*
X4656059Y-147088D01*
X4656059Y-147088D02*
X4622470Y-161655D01*
X4622470Y-161655D02*
X4587962Y-174723D01*
X4587962Y-174723D02*
X4552615Y-186374D01*
X4552615Y-186374D02*
X4479722Y-205747D01*
X4479722Y-205747D02*
X4404426Y-220425D01*
X4404426Y-220425D02*
X4327360Y-231056D01*
X4327360Y-231056D02*
X4249160Y-238291D01*
X4249160Y-238291D02*
X4170460Y-242780D01*
X4170460Y-242780D02*
X4091895Y-245173D01*
X4091895Y-245173D02*
X3937708Y-246269D01*
X3937708Y-246269D02*
X3791675Y-246779D01*
X3791675Y-246779D02*
X3658780Y-245737D01*
X3658780Y-245737D02*
X3527881Y-239380D01*
X3527881Y-239380D02*
X3399497Y-228432D01*
X3399497Y-228432D02*
X3274149Y-213618D01*
X3274149Y-213618D02*
X3152357Y-195662D01*
X3152357Y-195662D02*
X3034640Y-175289D01*
X3034640Y-175289D02*
X2921521Y-153224D01*
X2921521Y-153224D02*
X2813517Y-130190D01*
X2813517Y-130190D02*
X2614941Y-84119D01*
X2614941Y-84119D02*
X2443072Y-42870D01*
X2443072Y-42870D02*
X2368454Y-25866D01*
X2368454Y-25866D02*
X2302074Y-12242D01*
X2302074Y-12242D02*
X2244451Y-2722D01*
X2244451Y-2722D02*
X2196107Y1969D01*
X2196107Y1969D02*
X2185342Y3579D01*
X2185342Y3579D02*
X2173841Y7391D01*
X2173841Y7391D02*
X2148727Y21333D01*
X2148727Y21333D02*
X2120961Y43222D01*
X2120961Y43222D02*
X2090738Y72488D01*
X2090738Y72488D02*
X2058253Y108557D01*
X2058253Y108557D02*
X2023701Y150860D01*
X2023701Y150860D02*
X1987278Y198823D01*
X1987278Y198823D02*
X1949177Y251874D01*
X1949177Y251874D02*
X1868726Y370957D01*
X1868726Y370957D02*
X1783910Y503532D01*
X1783910Y503532D02*
X1696290Y645026D01*
X1696290Y645026D02*
X1607425Y790863D01*
X1607425Y790863D02*
X1432210Y1077270D01*
X1432210Y1077270D02*
X1348980Y1208691D01*
X1348980Y1208691D02*
X1270751Y1326156D01*
X1270751Y1326156D02*
X1233999Y1378226D01*
X1233999Y1378226D02*
X1199082Y1425092D01*
X1199082Y1425092D02*
X1166196Y1466182D01*
X1166196Y1466182D02*
X1135535Y1500924D01*
X1135535Y1500924D02*
X1107295Y1528746D01*
X1107295Y1528746D02*
X1081671Y1549077D01*
X1081671Y1549077D02*
X1069901Y1556254D01*
X1069901Y1556254D02*
X1058858Y1561344D01*
X1058858Y1561344D02*
X1048567Y1564275D01*
X1048567Y1564275D02*
X1039047Y1564975D01*
X1039047Y1564975D02*
X1026735Y1566415D01*
X1026735Y1566415D02*
X1018505Y1571978D01*
X1018505Y1571978D02*
X1014115Y1581448D01*
X1014115Y1581448D02*
X1013315Y1594609D01*
X1013315Y1594609D02*
X1015865Y1611247D01*
X1015865Y1611247D02*
X1021515Y1631146D01*
X1021515Y1631146D02*
X1041114Y1679864D01*
X1041114Y1679864D02*
X1070146Y1739038D01*
X1070146Y1739038D02*
X1106640Y1806945D01*
X1106640Y1806945D02*
X1194121Y1962059D01*
X1194121Y1962059D02*
X1241164Y2045817D01*
X1241164Y2045817D02*
X1287778Y2131411D01*
X1287778Y2131411D02*
X1331991Y2217116D01*
X1331991Y2217116D02*
X1371829Y2301208D01*
X1371829Y2301208D02*
X1405321Y2381963D01*
X1405321Y2381963D02*
X1419071Y2420550D01*
X1419071Y2420550D02*
X1430494Y2457656D01*
X1430494Y2457656D02*
X1439344Y2493065D01*
X1439344Y2493065D02*
X1445374Y2526563D01*
X1445374Y2526563D02*
X1448344Y2557933D01*
X1448344Y2557933D02*
X1448044Y2586960D01*
X1448044Y2586960D02*
X1442984Y2632880D01*
X1442984Y2632880D02*
X1434934Y2677151D01*
X1434934Y2677151D02*
X1424078Y2719787D01*
X1424078Y2719787D02*
X1410583Y2760804D01*
X1410583Y2760804D02*
X1394623Y2800217D01*
X1394623Y2800217D02*
X1376370Y2838042D01*
X1376370Y2838042D02*
X1355996Y2874293D01*
X1355996Y2874293D02*
X1333676Y2908985D01*
X1333676Y2908985D02*
X1309581Y2942134D01*
X1309581Y2942134D02*
X1283884Y2973756D01*
X1283884Y2973756D02*
X1256758Y3003864D01*
X1256758Y3003864D02*
X1228377Y3032475D01*
X1228377Y3032475D02*
X1198912Y3059603D01*
X1198912Y3059603D02*
X1168537Y3085264D01*
X1168537Y3085264D02*
X1137424Y3109472D01*
X1137424Y3109472D02*
X1105747Y3132244D01*
X1105747Y3132244D02*
X1041390Y3173537D01*
X1041390Y3173537D02*
X976848Y3209264D01*
X976848Y3209264D02*
X913503Y3239546D01*
X913503Y3239546D02*
X852739Y3264506D01*
X852739Y3264506D02*
X795938Y3284263D01*
X795938Y3284263D02*
X744482Y3298940D01*
X744482Y3298940D02*
X699755Y3308658D01*
X699755Y3308658D02*
X663138Y3313538D01*
X663138Y3313538D02*
X553865Y3334118D01*
X553865Y3334118D02*
X443842Y3357739D01*
X443842Y3357739D02*
X333812Y3379722D01*
X333812Y3379722D02*
X279025Y3388637D01*
X279025Y3388637D02*
X224515Y3395388D01*
X224515Y3395388D02*
X170373Y3399390D01*
X170373Y3399390D02*
X116693Y3400059D01*
X116693Y3400059D02*
X63567Y3396810D01*
X63567Y3396810D02*
X11087Y3389057D01*
X11087Y3389057D02*
X-40652Y3376216D01*
X-40652Y3376216D02*
X-66216Y3367705D01*
X-66216Y3367705D02*
X-91560Y3357703D01*
X-91560Y3357703D02*
X-116672Y3346136D01*
X-116672Y3346136D02*
X-141542Y3332932D01*
X-141542Y3332932D02*
X-166158Y3318017D01*
X-166158Y3318017D02*
X-190507Y3301318D01*
X-190507Y3301318D02*
X-196067Y3295656D01*
X-196067Y3295656D02*
X-199697Y3288423D01*
X-199697Y3288423D02*
X-201687Y3279827D01*
X-201687Y3279827D02*
X-202287Y3270076D01*
X-202287Y3270076D02*
X-200557Y3247942D01*
X-200557Y3247942D02*
X-196697Y3223684D01*
X-196697Y3223684D02*
X-192937Y3198967D01*
X-192937Y3198967D02*
X-191497Y3175455D01*
X-191497Y3175455D02*
X-192297Y3164671D01*
X-192297Y3164671D02*
X-194557Y3154812D01*
X-194557Y3154812D02*
X-198507Y3146086D01*
X-198507Y3146086D02*
X-204427Y3138702D01*
X-204427Y3138702D02*
X-485060Y2942259D01*
X-485060Y2942259D02*
X-1298895Y2943209D01*
X-1298895Y2943209D02*
X-1298895Y2586792D01*
X-1298895Y2586792D02*
X-1482889Y2583929D01*
X-1482889Y2583929D02*
X-1502036Y2580347D01*
X-1502036Y2580347D02*
X-1511286Y2577331D01*
X-1511286Y2577331D02*
X-1519986Y2572259D01*
X-1519986Y2572259D02*
X-1527886Y2564200D01*
X-1527886Y2564200D02*
X-1534746Y2552225D01*
X-1534746Y2552225D02*
X-1540316Y2535404D01*
X-1540316Y2535404D02*
X-1544346Y2512807D01*
X-1544346Y2512807D02*
X-1549146Y1611607D01*
X-1549146Y1611607D02*
X-3008174Y1562386D01*
X-3008174Y1562386D02*
X-3221473Y1588801D01*
X-3221473Y1588801D02*
X-4465590Y2090708D01*
X-4465590Y2090708D02*
X-5099026Y2084460D01*
X-5099026Y2084460D02*
X-5983136Y3071593D01*
X-5983136Y3071593D02*
X-7843731Y3116608D01*
X-7843731Y3116608D02*
X-8480258Y3473218D01*
X-8480258Y3473218D02*
X-9576780Y3469689D01*
X-9576780Y3469689D02*
X-9672515Y3427489D01*
X-9672515Y3427489D02*
X-9887098Y3334650D01*
X-9887098Y3334650D02*
X-10004915Y3285067D01*
X-10004915Y3285067D02*
X-10111593Y3241817D01*
X-10111593Y3241817D02*
X-10193515Y3211229D01*
X-10193515Y3211229D02*
X-10220937Y3202662D01*
X-10220937Y3202662D02*
X-10237064Y3199635D01*
X-10237064Y3199635D02*
X-11695380Y3200267D01*
X-11695380Y3200267D02*
X-11695380Y286153D01*
X-11695380Y286153D02*
X-7534395Y249772D01*
X-7534395Y249772D02*
X-7446290Y220943D01*
X-7446290Y220943D02*
X-7357958Y189150D01*
X-7357958Y189150D02*
X-7269552Y154662D01*
X-7269552Y154662D02*
X-7181223Y117748D01*
X-7181223Y117748D02*
X-7093125Y78676D01*
X-7093125Y78676D02*
X-7005411Y37715D01*
X-7005411Y37715D02*
X-6918233Y-4865D01*
X-6918233Y-4865D02*
X-6831744Y-48797D01*
X-6831744Y-48797D02*
X-6661444Y-139639D01*
X-6661444Y-139639D02*
X-6495733Y-232662D01*
X-6495733Y-232662D02*
X-6335832Y-325714D01*
X-6335832Y-325714D02*
X-6182964Y-416647D01*
X-6182964Y-416647D02*
X-4246596Y-2741707D01*
X-4246596Y-2741707D02*
X-4125828Y-2741707D01*
X-4125828Y-2741707D02*
X-4099318Y-2764349D01*
X-4099318Y-2764349D02*
X-4025637Y-2823874D01*
X-4025637Y-2823874D02*
X-3973849Y-2863529D01*
X-3973849Y-2863529D02*
X-3913557Y-2907679D01*
X-3913557Y-2907679D02*
X-3845858Y-2954749D01*
X-3845858Y-2954749D02*
X-3771850Y-3003163D01*
X-3771850Y-3003163D02*
X-3692627Y-3051347D01*
X-3692627Y-3051347D02*
X-3609288Y-3097724D01*
X-3609288Y-3097724D02*
X-3522928Y-3140720D01*
X-3522928Y-3140720D02*
X-3434644Y-3178759D01*
X-3434644Y-3178759D02*
X-3390123Y-3195427D01*
X-3390123Y-3195427D02*
X-3345532Y-3210266D01*
X-3345532Y-3210266D02*
X-3301009Y-3223078D01*
X-3301009Y-3223078D02*
X-3256690Y-3233666D01*
X-3256690Y-3233666D02*
X-3212712Y-3241834D01*
X-3212712Y-3241834D02*
X-3169213Y-3247384D01*
X-3169213Y-3247384D02*
X-3126329Y-3250120D01*
X-3126329Y-3250120D02*
X-3084198Y-3249840D01*
X-3084198Y-3249840D02*
X-3046260Y-3246809D01*
X-3046260Y-3246809D02*
X-3008207Y-3241187D01*
X-3008207Y-3241187D02*
X-2970128Y-3233149D01*
X-2970128Y-3233149D02*
X-2932107Y-3222872D01*
X-2932107Y-3222872D02*
X-2894231Y-3210533D01*
X-2894231Y-3210533D02*
X-2856588Y-3196307D01*
X-2856588Y-3196307D02*
X-2819262Y-3180370D01*
X-2819262Y-3180370D02*
X-2782342Y-3162900D01*
X-2782342Y-3162900D02*
X-2710061Y-3124063D01*
X-2710061Y-3124063D02*
X-2640437Y-3081205D01*
X-2640437Y-3081205D02*
X-2574161Y-3035736D01*
X-2574161Y-3035736D02*
X-2511925Y-2989067D01*
X-2511925Y-2989067D02*
X-2454420Y-2942607D01*
X-2454420Y-2942607D02*
X-2402339Y-2897767D01*
X-2402339Y-2897767D02*
X-2356372Y-2855956D01*
X-2356372Y-2855956D02*
X-2317212Y-2818586D01*
X-2317212Y-2818586D02*
X-2262078Y-2762805D01*
X-2262078Y-2762805D02*
X-2242471Y-2741704D01*
X-2242471Y-2741704D02*
X-1610722Y-2741704D01*
X-1610722Y-2741704D02*
X-1599891Y-2742444D01*
X-1599891Y-2742444D02*
X-1589855Y-2744707D01*
X-1589855Y-2744707D02*
X-1580785Y-2748538D01*
X-1580785Y-2748538D02*
X-1572865Y-2753986D01*
X-1572865Y-2753986D02*
X-1566265Y-2761098D01*
X-1566265Y-2761098D02*
X-1561165Y-2769923D01*
X-1561165Y-2769923D02*
X-1557735Y-2780509D01*
X-1557735Y-2780509D02*
X-1556155Y-2792904D01*
X-1556155Y-2792904D02*
X-1534865Y-2876980D01*
X-1534865Y-2876980D02*
X-1513307Y-2965008D01*
X-1513307Y-2965008D02*
X-1501017Y-3012413D01*
X-1501017Y-3012413D02*
X-1486908Y-3061066D01*
X-1486908Y-3061066D02*
X-1470371Y-3110209D01*
X-1470371Y-3110209D02*
X-1450798Y-3159082D01*
X-1450798Y-3159082D02*
X-1427579Y-3206927D01*
X-1427579Y-3206927D02*
X-1400107Y-3252983D01*
X-1400107Y-3252983D02*
X-1384585Y-3275103D01*
X-1384585Y-3275103D02*
X-1367771Y-3296492D01*
X-1367771Y-3296492D02*
X-1349590Y-3317054D01*
X-1349590Y-3317054D02*
X-1329964Y-3336694D01*
X-1329964Y-3336694D02*
X-1308819Y-3355318D01*
X-1308819Y-3355318D02*
X-1286077Y-3372831D01*
X-1286077Y-3372831D02*
X-1261663Y-3389138D01*
X-1261663Y-3389138D02*
X-1235501Y-3404144D01*
X-1235501Y-3404144D02*
X-1207514Y-3417753D01*
X-1207514Y-3417753D02*
X-1177627Y-3429872D01*
X-1177627Y-3429872D02*
X-1145763Y-3440405D01*
X-1145763Y-3440405D02*
X-1111846Y-3449257D01*
X-1111846Y-3449257D02*
X-1075801Y-3456334D01*
X-1075801Y-3456334D02*
X-1037551Y-3461540D01*
X-1037551Y-3461540D02*
X-997019Y-3464781D01*
X-997019Y-3464781D02*
X-954131Y-3465962D01*
X-954131Y-3465962D02*
X1728476Y-3473200D01*
X1728476Y-3473200D02*
X1748887Y-3400787D01*
X1748887Y-3400787D02*
X1763041Y-3344502D01*
X1763041Y-3344502D02*
X1774741Y-3300418D01*
X1774741Y-3300418D02*
X1787789Y-3264604D01*
X1787789Y-3264604D02*
X1796009Y-3248571D01*
X1796009Y-3248571D02*
X1805989Y-3233132D01*
X1805989Y-3233132D02*
X1818208Y-3217795D01*
X1818208Y-3217795D02*
X1833140Y-3202071D01*
X1833140Y-3202071D02*
X1873044Y-3167494D01*
X1873044Y-3167494D02*
X1929506Y-3125471D01*
X1929506Y-3125471D02*
X1964467Y-3103472D01*
X1964467Y-3103472D02*
X2003151Y-3084561D01*
X2003151Y-3084561D02*
X2045266Y-3068786D01*
X2045266Y-3068786D02*
X2090524Y-3056193D01*
X2090524Y-3056193D02*
X2138634Y-3046828D01*
X2138634Y-3046828D02*
X2189307Y-3040738D01*
X2189307Y-3040738D02*
X2242252Y-3037969D01*
X2242252Y-3037969D02*
X2297179Y-3038569D01*
X2297179Y-3038569D02*
X2353800Y-3042583D01*
X2353800Y-3042583D02*
X2411823Y-3050058D01*
X2411823Y-3050058D02*
X2470959Y-3061040D01*
X2470959Y-3061040D02*
X2530917Y-3075576D01*
X2530917Y-3075576D02*
X2591409Y-3093714D01*
X2591409Y-3093714D02*
X2652144Y-3115498D01*
X2652144Y-3115498D02*
X2712832Y-3140977D01*
X2712832Y-3140977D02*
X2773183Y-3170196D01*
X2773183Y-3170196D02*
X3423941Y-3190747D01*
X3423941Y-3190747D02*
X3919565Y-3202794D01*
X3919565Y-3202794D02*
X4657062Y-3216256D01*
X4657062Y-3216256D02*
X5004762Y-3225113D01*
X5004762Y-3225113D02*
X5408981Y-3240348D01*
X5408981Y-3240348D02*
X5922630Y-3265682D01*
X5922630Y-3265682D02*
X6598625Y-3304836D01*
X6598625Y-3304836D02*
X6618161Y-3306715D01*
X6618161Y-3306715D02*
X6651579Y-3304683D01*
X6651579Y-3304683D02*
X6697941Y-3298978D01*
X6697941Y-3298978D02*
X6756308Y-3289840D01*
X6756308Y-3289840D02*
X6905311Y-3262218D01*
X6905311Y-3262218D02*
X7091085Y-3223726D01*
X7091085Y-3223726D02*
X7306130Y-3176276D01*
X7306130Y-3176276D02*
X7542943Y-3121776D01*
X7542943Y-3121776D02*
X7794023Y-3062136D01*
X7794023Y-3062136D02*
X8051868Y-2999267D01*
X8051868Y-2999267D02*
X8557846Y-2871480D01*
X8557846Y-2871480D02*
X8790976Y-2810382D01*
X8790976Y-2810382D02*
X9000865Y-2753694D01*
X9000865Y-2753694D02*
X9180010Y-2703327D01*
X9180010Y-2703327D02*
X9320911Y-2661189D01*
X9320911Y-2661189D02*
X9416065Y-2629191D01*
X9416065Y-2629191D02*
X9444142Y-2617591D01*
X9444142Y-2617591D02*
X9457970Y-2609242D01*
X9457970Y-2609242D02*
X9469491Y-2598669D01*
X9469491Y-2598669D02*
X9481538Y-2590055D01*
X9481538Y-2590055D02*
X9506593Y-2577551D01*
X9506593Y-2577551D02*
X9531888Y-2569427D01*
X9531888Y-2569427D02*
X9556177Y-2563381D01*
X9556177Y-2563381D02*
X9578215Y-2557109D01*
X9578215Y-2557109D02*
X9596756Y-2548308D01*
X9596756Y-2548308D02*
X9604326Y-2542240D01*
X9604326Y-2542240D02*
X9610556Y-2534675D01*
X9610556Y-2534675D02*
X9615286Y-2525327D01*
X9615286Y-2525327D02*
X9618366Y-2513907D01*
X9618366Y-2513907D02*
X9667224Y-2235144D01*
X9667224Y-2235144D02*
X9918905Y-2249949D01*
X9918905Y-2249949D02*
X9907732Y-2043650D01*
X9907732Y-2043650D02*
X10345551Y-2042172D01*
X10345551Y-2042172D02*
X10347391Y-1743140D01*
X10347391Y-1743140D02*
X10521616Y-1743140D01*
X10521616Y-1743140D02*
X10595282Y-1579437D01*
X10595282Y-1579437D02*
X10804964Y-1577498D01*
X10804964Y-1577498D02*
X10817453Y-1470693D01*
X10817453Y-1470693D02*
X10856538Y-1467465D01*
X10856538Y-1467465D02*
X10895532Y-1462682D01*
X10895532Y-1462682D02*
X10972969Y-1448694D01*
X10972969Y-1448694D02*
X11049213Y-1429207D01*
X11049213Y-1429207D02*
X11123713Y-1404702D01*
X11123713Y-1404702D02*
X11195918Y-1375655D01*
X11195918Y-1375655D02*
X11265276Y-1342546D01*
X11265276Y-1342546D02*
X11331237Y-1305854D01*
X11331237Y-1305854D02*
X11393249Y-1266057D01*
X11393249Y-1266057D02*
X11450762Y-1223634D01*
X11450762Y-1223634D02*
X11503224Y-1179063D01*
X11503224Y-1179063D02*
X11550084Y-1132824D01*
X11550084Y-1132824D02*
X11590791Y-1085394D01*
X11590791Y-1085394D02*
X11608665Y-1061383D01*
X11608665Y-1061383D02*
X11624794Y-1037253D01*
X11624794Y-1037253D02*
X11639110Y-1013065D01*
X11639110Y-1013065D02*
X11651543Y-988879D01*
X11651543Y-988879D02*
X11662024Y-964755D01*
X11662024Y-964755D02*
X11670484Y-940752D01*
X11670484Y-940752D02*
X11676854Y-916930D01*
X11676854Y-916930D02*
X11681064Y-893349D01*
X11681064Y-893349D02*
X11685904Y-765594D01*
X11685904Y-765594D02*
X11691874Y-632588D01*
X11691874Y-632588D02*
X11695434Y-500272D01*
X11695434Y-500272D02*
X11695234Y-436229D01*
X11695234Y-436229D02*
X11693074Y-374586D01*
X11693074Y-374586D02*
X11688544Y-316086D01*
X11688544Y-316086D02*
X11681194Y-261471D01*
X11681194Y-261471D02*
X11670589Y-211484D01*
X11670589Y-211484D02*
X11656285Y-166867D01*
X11656285Y-166867D02*
X11647605Y-146805D01*
X11647605Y-146805D02*
X11637835Y-128364D01*
X11637835Y-128364D02*
X11626922Y-111636D01*
X11626922Y-111636D02*
X11614808Y-96716D01*
X11614808Y-96716D02*
X11601437Y-83695D01*
X11601437Y-83695D02*
X11586755Y-72666D01*
X11586755Y-72666D02*
X11570706Y-63723D01*
X11570706Y-63723D02*
X11553235Y-56958D01*
X11553235Y-56958D02*
X11532942Y-52785D01*
X11532942Y-52785D02*
X11505831Y-50316D01*
X11505831Y-50316D02*
X11435103Y-49174D01*
X11435103Y-49174D02*
X11255275Y-52855D01*
X11255275Y-52855D02*
X11161977Y-52415D01*
X11161977Y-52415D02*
X11117938Y-50471D01*
X11117938Y-50471D02*
X11076957Y-46939D01*
X11076957Y-46939D02*
X11040020Y-41490D01*
X11040020Y-41490D02*
X11008116Y-33796D01*
X11008116Y-33796D02*
X10982231Y-23527D01*
X10982231Y-23527D02*
X10971855Y-17324D01*
X10971855Y-17324D02*
X10963355Y-10354D01*
X10963355Y-10354D02*
X10935665Y20426D01*
X10935665Y20426D02*
X10909725Y56369D01*
X10909725Y56369D02*
X10885432Y96919D01*
X10885432Y96919D02*
X10862685Y141516D01*
X10862685Y141516D02*
X10841382Y189602D01*
X10841382Y189602D02*
X10821422Y240619D01*
X10821422Y240619D02*
X10802701Y294009D01*
X10802701Y294009D02*
X10785118Y349213D01*
X10785118Y349213D02*
X10752959Y462830D01*
X10752959Y462830D02*
X10724130Y577005D01*
X10724130Y577005D02*
X10673199Y789161D01*
X10673199Y789161D02*
X10667989Y803130D01*
X10667989Y803130D02*
X10659539Y816841D01*
X10659539Y816841D02*
X10648071Y830308D01*
X10648071Y830308D02*
X10633804Y843543D01*
X10633804Y843543D02*
X10616957Y856559D01*
X10616957Y856559D02*
X10597749Y869369D01*
X10597749Y869369D02*
X10553122Y894420D01*
X10553122Y894420D02*
X10501673Y918798D01*
X10501673Y918798D02*
X10445151Y942603D01*
X10445151Y942603D02*
X10323885Y988904D01*
X10323885Y988904D02*
X10203317Y1034132D01*
X10203317Y1034132D02*
X10147667Y1056598D01*
X10147667Y1056598D02*
X10097440Y1079100D01*
X10097440Y1079100D02*
X10054385Y1101740D01*
X10054385Y1101740D02*
X10020249Y1124619D01*
X10020249Y1124619D02*
X10007074Y1136179D01*
X10007074Y1136179D02*
X9996784Y1147837D01*
X9996784Y1147837D02*
X9989604Y1159606D01*
X9989604Y1159606D02*
X9985744Y1171498D01*
X9985744Y1171498D02*
X9976694Y1227912D01*
X9976694Y1227912D02*
X9968754Y1288705D01*
X9968754Y1288705D02*
X9956428Y1419212D01*
X9956428Y1419212D02*
X9949218Y1554591D01*
X9949218Y1554591D02*
X9947578Y1686413D01*
X9947578Y1686413D02*
X9948988Y1748356D01*
X9948988Y1748356D02*
X9951958Y1806250D01*
X9951958Y1806250D02*
X9956548Y1859040D01*
X9956548Y1859040D02*
X9962818Y1905673D01*
X9962818Y1905673D02*
X9970818Y1945096D01*
X9970818Y1945096D02*
X9980608Y1976255D01*
X9980608Y1976255D02*
X9986188Y1988406D01*
X9986188Y1988406D02*
X9992238Y1998096D01*
X9992238Y1998096D02*
X9998768Y2005193D01*
X9998768Y2005193D02*
X10005778Y2009566D01*
X10005778Y2009566D02*
X10051717Y2026038D01*
X10051717Y2026038D02*
X10101952Y2040215D01*
X10101952Y2040215D02*
X10155734Y2052639D01*
X10155734Y2052639D02*
X10212313Y2063853D01*
X10212313Y2063853D02*
X10330865Y2084828D01*
X10330865Y2084828D02*
X10451612Y2107485D01*
X10451612Y2107485D02*
X10510934Y2120803D01*
X10510934Y2120803D02*
X10568556Y2136171D01*
X10568556Y2136171D02*
X10623729Y2154134D01*
X10623729Y2154134D02*
X10675702Y2175233D01*
X10675702Y2175233D02*
X10723726Y2200013D01*
X10723726Y2200013D02*
X10746023Y2213953D01*
X10746023Y2213953D02*
X10767051Y2229017D01*
X10767051Y2229017D02*
X10786718Y2245273D01*
X10786718Y2245273D02*
X10804929Y2262788D01*
X10804929Y2262788D02*
X10821591Y2281631D01*
X10821591Y2281631D02*
X10836609Y2301869D01*
X10836609Y2301869D02*
X10836609Y2301869D01*
X10836609Y2301869D02*
X10836484Y2301869D01*
X-618337Y-3042648D02*
X-593375Y-3034576D01*
X-593375Y-3034576D02*
X-570685Y-3023517D01*
X-570685Y-3023517D02*
X-549387Y-3008958D01*
X-549387Y-3008958D02*
X-528600Y-2990387D01*
X-528600Y-2990387D02*
X-514556Y-2975405D01*
X-514556Y-2975405D02*
X-502539Y-2960392D01*
X-502539Y-2960392D02*
X-492460Y-2945154D01*
X-492460Y-2945154D02*
X-484230Y-2929496D01*
X-484230Y-2929496D02*
X-477760Y-2913225D01*
X-477760Y-2913225D02*
X-472960Y-2896146D01*
X-472960Y-2896146D02*
X-469740Y-2878066D01*
X-469740Y-2878066D02*
X-468010Y-2858789D01*
X-468010Y-2858789D02*
X-468610Y-2823718D01*
X-468610Y-2823718D02*
X-474190Y-2790792D01*
X-474190Y-2790792D02*
X-484646Y-2760237D01*
X-484646Y-2760237D02*
X-499925Y-2732278D01*
X-499925Y-2732278D02*
X-511555Y-2716634D01*
X-511555Y-2716634D02*
X-524886Y-2701999D01*
X-524886Y-2701999D02*
X-539659Y-2688552D01*
X-539659Y-2688552D02*
X-555614Y-2676470D01*
X-555614Y-2676470D02*
X-572491Y-2665934D01*
X-572491Y-2665934D02*
X-590032Y-2657121D01*
X-590032Y-2657121D02*
X-607977Y-2650210D01*
X-607977Y-2650210D02*
X-626067Y-2645380D01*
X-626067Y-2645380D02*
X-649198Y-2641381D01*
X-649198Y-2641381D02*
X-669198Y-2639915D01*
X-669198Y-2639915D02*
X-688665Y-2640954D01*
X-688665Y-2640954D02*
X-710197Y-2644469D01*
X-710197Y-2644469D02*
X-730629Y-2649329D01*
X-730629Y-2649329D02*
X-747631Y-2655385D01*
X-747631Y-2655385D02*
X-764110Y-2663904D01*
X-764110Y-2663904D02*
X-782979Y-2676153D01*
X-782979Y-2676153D02*
X-800351Y-2689612D01*
X-800351Y-2689612D02*
X-815859Y-2704583D01*
X-815859Y-2704583D02*
X-829478Y-2720892D01*
X-829478Y-2720892D02*
X-841185Y-2738362D01*
X-841185Y-2738362D02*
X-850955Y-2756820D01*
X-850955Y-2756820D02*
X-858765Y-2776089D01*
X-858765Y-2776089D02*
X-864595Y-2795995D01*
X-864595Y-2795995D02*
X-868415Y-2816363D01*
X-868415Y-2816363D02*
X-870195Y-2837018D01*
X-870195Y-2837018D02*
X-869895Y-2857785D01*
X-869895Y-2857785D02*
X-867545Y-2878488D01*
X-867545Y-2878488D02*
X-863095Y-2898954D01*
X-863095Y-2898954D02*
X-856515Y-2919006D01*
X-856515Y-2919006D02*
X-847785Y-2938470D01*
X-847785Y-2938470D02*
X-836876Y-2957170D01*
X-836876Y-2957170D02*
X-823768Y-2974933D01*
X-823768Y-2974933D02*
X-800571Y-2998232D01*
X-800571Y-2998232D02*
X-772726Y-3018371D01*
X-772726Y-3018371D02*
X-742359Y-3034039D01*
X-742359Y-3034039D02*
X-726896Y-3039788D01*
X-726896Y-3039788D02*
X-711601Y-3043928D01*
X-711601Y-3043928D02*
X-688870Y-3047291D01*
X-688870Y-3047291D02*
X-664453Y-3048181D01*
X-664453Y-3048181D02*
X-640282Y-3046622D01*
X-640282Y-3046622D02*
X-618289Y-3042643D01*
X-618289Y-3042643D02*
X-618289Y-3042647D01*
X-618289Y-3042647D02*
X-618337Y-3042648D01*
D11*
X7635939Y1167568D02*
X7719763Y1083744D01*
X7719763Y1167568D02*
X7635939Y1083744D01*
X10652214Y29286D02*
X10736038Y-54538D01*
X10736038Y29286D02*
X10652214Y-54538D01*
X7826369Y1166733D02*
X7910193Y1082909D01*
X7910193Y1166733D02*
X7826369Y1082909D01*
X-941394Y-1250001D02*
X-857570Y-1333825D01*
X-857570Y-1250001D02*
X-941394Y-1333825D01*
X10877123Y2596282D02*
X10960947Y2512458D01*
X10960947Y2596282D02*
X10877123Y2512458D01*
X10493346Y788192D02*
X10577170Y704368D01*
X10577170Y788192D02*
X10493346Y704368D01*
X-559210Y526266D02*
X-475386Y442442D01*
X-475386Y526266D02*
X-559210Y442442D01*
X73882Y3062667D02*
X157706Y2978843D01*
X157706Y3062667D02*
X73882Y2978843D01*
X-53363Y1541918D02*
X30461Y1458094D01*
X30461Y1541918D02*
X-53363Y1458094D01*
X-561276Y-1376313D02*
X-477452Y-1460136D01*
X-477452Y-1376313D02*
X-561276Y-1460136D01*
X11133827Y2564971D02*
X11217651Y2481147D01*
X11217651Y2564971D02*
X11133827Y2481147D01*
X11475401Y-159573D02*
X11559225Y-243397D01*
X11559225Y-159573D02*
X11475401Y-243397D01*
X10707Y-46604D02*
X94531Y-130428D01*
X94531Y-46604D02*
X10707Y-130428D01*
X-689003Y-1248946D02*
X-605179Y-1332770D01*
X-605179Y-1248946D02*
X-689003Y-1332770D01*
X-815662Y-1376916D02*
X-731838Y-1460740D01*
X-731838Y-1376916D02*
X-815662Y-1460740D01*
X1217574Y2683388D02*
X1301398Y2599564D01*
X1301398Y2683388D02*
X1217574Y2599564D01*
X963559Y336050D02*
X1047383Y252226D01*
X1047383Y336050D02*
X963559Y252226D01*
D12*
X-11413952Y-3943914D02*
X-11413952Y-3643914D01*
X-11342523Y-3643914D01*
X-11299666Y-3658200D01*
X-11271095Y-3686771D01*
X-11256809Y-3715343D01*
X-11242523Y-3772486D01*
X-11242523Y-3815343D01*
X-11256809Y-3872486D01*
X-11271095Y-3901057D01*
X-11299666Y-3929629D01*
X-11342523Y-3943914D01*
X-11413952Y-3943914D01*
X-11113952Y-3943914D02*
X-11113952Y-3743914D01*
X-11113952Y-3801057D02*
X-11099666Y-3772486D01*
X-11085381Y-3758200D01*
X-11056809Y-3743914D01*
X-11028238Y-3743914D01*
X-10928238Y-3943914D02*
X-10928238Y-3743914D01*
X-10928238Y-3643914D02*
X-10942523Y-3658200D01*
X-10928238Y-3672486D01*
X-10913952Y-3658200D01*
X-10928238Y-3643914D01*
X-10928238Y-3672486D01*
X-10742523Y-3943914D02*
X-10771095Y-3929629D01*
X-10785381Y-3901057D01*
X-10785381Y-3643914D01*
X-10585381Y-3943914D02*
X-10613952Y-3929629D01*
X-10628238Y-3901057D01*
X-10628238Y-3643914D01*
X-10242523Y-3943914D02*
X-10242523Y-3643914D01*
X-10142523Y-3858200D01*
X-10042523Y-3643914D01*
X-10042523Y-3943914D01*
X-9771095Y-3943914D02*
X-9771095Y-3786771D01*
X-9785381Y-3758200D01*
X-9813952Y-3743914D01*
X-9871095Y-3743914D01*
X-9899666Y-3758200D01*
X-9771095Y-3929629D02*
X-9799666Y-3943914D01*
X-9871095Y-3943914D01*
X-9899666Y-3929629D01*
X-9913952Y-3901057D01*
X-9913952Y-3872486D01*
X-9899666Y-3843914D01*
X-9871095Y-3829629D01*
X-9799666Y-3829629D01*
X-9771095Y-3815343D01*
X-9628238Y-3743914D02*
X-9628238Y-4043914D01*
X-9628238Y-3758200D02*
X-9599666Y-3743914D01*
X-9542523Y-3743914D01*
X-9513952Y-3758200D01*
X-9499666Y-3772486D01*
X-9485381Y-3801057D01*
X-9485381Y-3886771D01*
X-9499666Y-3915343D01*
X-9513952Y-3929629D01*
X-9542523Y-3943914D01*
X-9599666Y-3943914D01*
X-9628238Y-3929629D01*
X-9356809Y-3915343D02*
X-9342523Y-3929629D01*
X-9356809Y-3943914D01*
X-9371095Y-3929629D01*
X-9356809Y-3915343D01*
X-9356809Y-3943914D01*
X-9356809Y-3758200D02*
X-9342523Y-3772486D01*
X-9356809Y-3786771D01*
X-9371095Y-3772486D01*
X-9356809Y-3758200D01*
X-9356809Y-3786771D01*
X-11784205Y-4396288D02*
X-11700381Y-4480112D01*
X-11700381Y-4396288D02*
X-11784205Y-4480112D01*
X-11356809Y-4273914D02*
X-11328238Y-4273914D01*
X-11299666Y-4288200D01*
X-11285381Y-4302486D01*
X-11271095Y-4331057D01*
X-11256809Y-4388200D01*
X-11256809Y-4459629D01*
X-11271095Y-4516772D01*
X-11285381Y-4545343D01*
X-11299666Y-4559629D01*
X-11328238Y-4573914D01*
X-11356809Y-4573914D01*
X-11385381Y-4559629D01*
X-11399666Y-4545343D01*
X-11413952Y-4516772D01*
X-11428238Y-4459629D01*
X-11428238Y-4388200D01*
X-11413952Y-4331057D01*
X-11399666Y-4302486D01*
X-11385381Y-4288200D01*
X-11356809Y-4273914D01*
X-11128238Y-4545343D02*
X-11113952Y-4559629D01*
X-11128238Y-4573914D01*
X-11142523Y-4559629D01*
X-11128238Y-4545343D01*
X-11128238Y-4573914D01*
X-10942523Y-4402486D02*
X-10971095Y-4388200D01*
X-10985381Y-4373914D01*
X-10999666Y-4345343D01*
X-10999666Y-4331057D01*
X-10985381Y-4302486D01*
X-10971095Y-4288200D01*
X-10942523Y-4273914D01*
X-10885381Y-4273914D01*
X-10856809Y-4288200D01*
X-10842523Y-4302486D01*
X-10828238Y-4331057D01*
X-10828238Y-4345343D01*
X-10842523Y-4373914D01*
X-10856809Y-4388200D01*
X-10885381Y-4402486D01*
X-10942523Y-4402486D01*
X-10971095Y-4416772D01*
X-10985381Y-4431057D01*
X-10999666Y-4459629D01*
X-10999666Y-4516772D01*
X-10985381Y-4545343D01*
X-10971095Y-4559629D01*
X-10942523Y-4573914D01*
X-10885381Y-4573914D01*
X-10856809Y-4559629D01*
X-10842523Y-4545343D01*
X-10828238Y-4516772D01*
X-10828238Y-4459629D01*
X-10842523Y-4431057D01*
X-10856809Y-4416772D01*
X-10885381Y-4402486D01*
X-10571095Y-4373914D02*
X-10571095Y-4573914D01*
X-10642523Y-4259629D02*
X-10713952Y-4473914D01*
X-10528238Y-4473914D01*
X-10413952Y-4573914D02*
X-10413952Y-4373914D01*
X-10413952Y-4402486D02*
X-10399666Y-4388200D01*
X-10371095Y-4373914D01*
X-10328238Y-4373914D01*
X-10299666Y-4388200D01*
X-10285381Y-4416772D01*
X-10285381Y-4573914D01*
X-10285381Y-4416772D02*
X-10271095Y-4388200D01*
X-10242523Y-4373914D01*
X-10199666Y-4373914D01*
X-10171095Y-4388200D01*
X-10156809Y-4416772D01*
X-10156809Y-4573914D01*
X-10013952Y-4573914D02*
X-10013952Y-4373914D01*
X-10013952Y-4402486D02*
X-9999666Y-4388200D01*
X-9971095Y-4373914D01*
X-9928238Y-4373914D01*
X-9899666Y-4388200D01*
X-9885381Y-4416772D01*
X-9885381Y-4573914D01*
X-9885381Y-4416772D02*
X-9871095Y-4388200D01*
X-9842523Y-4373914D01*
X-9799666Y-4373914D01*
X-9771095Y-4388200D01*
X-9756809Y-4416772D01*
X-9756809Y-4573914D01*
X-9171095Y-4259629D02*
X-9428238Y-4645343D01*
X-8785381Y-4273914D02*
X-8756809Y-4273914D01*
X-8728238Y-4288200D01*
X-8713952Y-4302486D01*
X-8699666Y-4331057D01*
X-8685381Y-4388200D01*
X-8685381Y-4459629D01*
X-8699666Y-4516772D01*
X-8713952Y-4545343D01*
X-8728238Y-4559629D01*
X-8756809Y-4573914D01*
X-8785381Y-4573914D01*
X-8813952Y-4559629D01*
X-8828238Y-4545343D01*
X-8842523Y-4516772D01*
X-8856809Y-4459629D01*
X-8856809Y-4388200D01*
X-8842523Y-4331057D01*
X-8828238Y-4302486D01*
X-8813952Y-4288200D01*
X-8785381Y-4273914D01*
X-8556809Y-4545343D02*
X-8542523Y-4559629D01*
X-8556809Y-4573914D01*
X-8571095Y-4559629D01*
X-8556809Y-4545343D01*
X-8556809Y-4573914D01*
X-8356809Y-4273914D02*
X-8328238Y-4273914D01*
X-8299666Y-4288200D01*
X-8285381Y-4302486D01*
X-8271095Y-4331057D01*
X-8256809Y-4388200D01*
X-8256809Y-4459629D01*
X-8271095Y-4516772D01*
X-8285381Y-4545343D01*
X-8299666Y-4559629D01*
X-8328238Y-4573914D01*
X-8356809Y-4573914D01*
X-8385381Y-4559629D01*
X-8399666Y-4545343D01*
X-8413952Y-4516772D01*
X-8428238Y-4459629D01*
X-8428238Y-4388200D01*
X-8413952Y-4331057D01*
X-8399666Y-4302486D01*
X-8385381Y-4288200D01*
X-8356809Y-4273914D01*
X-8156809Y-4273914D02*
X-7971095Y-4273914D01*
X-8071095Y-4388200D01*
X-8028238Y-4388200D01*
X-7999666Y-4402486D01*
X-7985381Y-4416772D01*
X-7971095Y-4445343D01*
X-7971095Y-4516772D01*
X-7985381Y-4545343D01*
X-7999666Y-4559629D01*
X-8028238Y-4573914D01*
X-8113952Y-4573914D01*
X-8142523Y-4559629D01*
X-8156809Y-4545343D01*
X-7871095Y-4273914D02*
X-7685381Y-4273914D01*
X-7785381Y-4388200D01*
X-7742523Y-4388200D01*
X-7713952Y-4402486D01*
X-7699666Y-4416772D01*
X-7685381Y-4445343D01*
X-7685381Y-4516772D01*
X-7699666Y-4545343D01*
X-7713952Y-4559629D01*
X-7742523Y-4573914D01*
X-7828238Y-4573914D01*
X-7856809Y-4559629D01*
X-7871095Y-4545343D01*
X-7571095Y-4273914D02*
X-7571095Y-4331057D01*
X-7456809Y-4273914D02*
X-7456809Y-4331057D01*
X-7013952Y-4688200D02*
X-7028238Y-4673914D01*
X-7056809Y-4631057D01*
X-7071095Y-4602486D01*
X-7085381Y-4559629D01*
X-7099666Y-4488200D01*
X-7099666Y-4431057D01*
X-7085381Y-4359629D01*
X-7071095Y-4316772D01*
X-7056809Y-4288200D01*
X-7028238Y-4245343D01*
X-7013952Y-4231057D01*
X-6742523Y-4573914D02*
X-6913952Y-4573914D01*
X-6828238Y-4573914D02*
X-6828238Y-4273914D01*
X-6856809Y-4316772D01*
X-6885381Y-4345343D01*
X-6913952Y-4359629D01*
X-6642523Y-4273914D02*
X-6442523Y-4273914D01*
X-6571095Y-4573914D01*
X-6099666Y-4573914D02*
X-6099666Y-4273914D01*
X-5971095Y-4573914D02*
X-5971095Y-4416772D01*
X-5985381Y-4388200D01*
X-6013952Y-4373914D01*
X-6056809Y-4373914D01*
X-6085381Y-4388200D01*
X-6099666Y-4402486D01*
X-5785381Y-4573914D02*
X-5813952Y-4559629D01*
X-5828238Y-4545343D01*
X-5842523Y-4516772D01*
X-5842523Y-4431057D01*
X-5828238Y-4402486D01*
X-5813952Y-4388200D01*
X-5785381Y-4373914D01*
X-5742523Y-4373914D01*
X-5713952Y-4388200D01*
X-5699666Y-4402486D01*
X-5685381Y-4431057D01*
X-5685381Y-4516772D01*
X-5699666Y-4545343D01*
X-5713952Y-4559629D01*
X-5742523Y-4573914D01*
X-5785381Y-4573914D01*
X-5513952Y-4573914D02*
X-5542523Y-4559629D01*
X-5556809Y-4531057D01*
X-5556809Y-4273914D01*
X-5285381Y-4559629D02*
X-5313952Y-4573914D01*
X-5371095Y-4573914D01*
X-5399666Y-4559629D01*
X-5413952Y-4531057D01*
X-5413952Y-4416772D01*
X-5399666Y-4388200D01*
X-5371095Y-4373914D01*
X-5313952Y-4373914D01*
X-5285381Y-4388200D01*
X-5271095Y-4416772D01*
X-5271095Y-4445343D01*
X-5413952Y-4473914D01*
X-5156809Y-4559629D02*
X-5128238Y-4573914D01*
X-5071095Y-4573914D01*
X-5042523Y-4559629D01*
X-5028238Y-4531057D01*
X-5028238Y-4516772D01*
X-5042523Y-4488200D01*
X-5071095Y-4473914D01*
X-5113952Y-4473914D01*
X-5142523Y-4459629D01*
X-5156809Y-4431057D01*
X-5156809Y-4416772D01*
X-5142523Y-4388200D01*
X-5113952Y-4373914D01*
X-5071095Y-4373914D01*
X-5042523Y-4388200D01*
X-4928238Y-4688200D02*
X-4913952Y-4673914D01*
X-4885381Y-4631057D01*
X-4871095Y-4602486D01*
X-4856809Y-4559629D01*
X-4842523Y-4488200D01*
X-4842523Y-4431057D01*
X-4856809Y-4359629D01*
X-4871095Y-4316772D01*
X-4885381Y-4288200D01*
X-4913952Y-4245343D01*
X-4928238Y-4231057D01*
M02*
