%TF.GenerationSoftware,KiCad,Pcbnew,(5.1.6)-1*%
%TF.CreationDate,2020-06-07T23:27:20-04:00*%
%TF.ProjectId,kiCAD1,6b694341-4431-42e6-9b69-6361645f7063,rev?*%
%TF.SameCoordinates,Original*%
%TF.FileFunction,Profile,NP*%
%FSLAX46Y46*%
G04 Gerber Fmt 4.6, Leading zero omitted, Abs format (unit mm)*
G04 Created by KiCad (PCBNEW (5.1.6)-1) date 2020-06-07 23:27:20*
%MOMM*%
%LPD*%
G01*
G04 APERTURE LIST*
%TA.AperFunction,Profile*%
%ADD10C,0.100000*%
%TD*%
G04 APERTURE END LIST*
D10*
X91301749Y-9007610D02*
X91568939Y-8957940D01*
X91568939Y-8957940D02*
X91880019Y-8925340D01*
X91880019Y-8925340D02*
X92602939Y-8902920D01*
X92602939Y-8902920D02*
X93408659Y-8923510D01*
X93408659Y-8923510D02*
X94235309Y-8970270D01*
X94235309Y-8970270D02*
X95703949Y-9074922D01*
X95703949Y-9074922D02*
X96222219Y-9099132D01*
X96222219Y-9099132D02*
X96400279Y-9096832D01*
X96400279Y-9096832D02*
X96513979Y-9082132D01*
X96513979Y-9082132D02*
X96880179Y-8999972D01*
X96880179Y-8999972D02*
X97242179Y-8952452D01*
X97242179Y-8952452D02*
X97597519Y-8936242D01*
X97597519Y-8936242D02*
X97943719Y-8948032D01*
X97943719Y-8948032D02*
X98278319Y-8984492D01*
X98278319Y-8984492D02*
X98598839Y-9042302D01*
X98598839Y-9042302D02*
X98902819Y-9118142D01*
X98902819Y-9118142D02*
X99187779Y-9208682D01*
X99187779Y-9208682D02*
X99451259Y-9310610D01*
X99451259Y-9310610D02*
X99690789Y-9420603D01*
X99690789Y-9420603D02*
X99903899Y-9535341D01*
X99903899Y-9535341D02*
X100088119Y-9651501D01*
X100088119Y-9651501D02*
X100240969Y-9765763D01*
X100240969Y-9765763D02*
X100359989Y-9874805D01*
X100359989Y-9874805D02*
X100442689Y-9975306D01*
X100442689Y-9975306D02*
X100486589Y-10063946D01*
X100486589Y-10063946D02*
X100609169Y-10537115D01*
X100609169Y-10537115D02*
X100692869Y-11005125D01*
X100692869Y-11005125D02*
X100728669Y-11473873D01*
X100728669Y-11473873D02*
X100725669Y-11710366D01*
X100725669Y-11710366D02*
X100707369Y-11949254D01*
X100707369Y-11949254D02*
X100672569Y-12191275D01*
X100672569Y-12191275D02*
X100620169Y-12437165D01*
X100620169Y-12437165D02*
X100548969Y-12687663D01*
X100548969Y-12687663D02*
X100457869Y-12943504D01*
X100457869Y-12943504D02*
X100345769Y-13205426D01*
X100345769Y-13205426D02*
X100211519Y-13474166D01*
X100211519Y-13474166D02*
X100053979Y-13750461D01*
X100053979Y-13750461D02*
X99872029Y-14035048D01*
X99872029Y-14035048D02*
X96822699Y-14500778D01*
X96822699Y-14500778D02*
X96130229Y-16443817D01*
X96130229Y-16443817D02*
X94136869Y-16441117D01*
X94136869Y-16441117D02*
X92552349Y-16419377D01*
X92552349Y-16419377D02*
X91877729Y-16398027D01*
X91877729Y-16398027D02*
X91382329Y-16367647D01*
X91382329Y-16367647D02*
X90665899Y-20060952D01*
X90665899Y-20060952D02*
X85922229Y-20060952D01*
X85922229Y-20060952D02*
X85612119Y-16989729D01*
X85612119Y-16989729D02*
X85603119Y-16655718D01*
X85603119Y-16655718D02*
X85573119Y-16320864D01*
X85573119Y-16320864D02*
X85524219Y-15985254D01*
X85524219Y-15985254D02*
X85458619Y-15648975D01*
X85458619Y-15648975D02*
X85285989Y-14974760D01*
X85285989Y-14974760D02*
X85072659Y-14298918D01*
X85072659Y-14298918D02*
X84593659Y-12945139D01*
X84593659Y-12945139D02*
X84362889Y-12268598D01*
X84362889Y-12268598D02*
X84161179Y-11593221D01*
X84161179Y-11593221D02*
X84005999Y-10919704D01*
X84005999Y-10919704D02*
X83951299Y-10583861D01*
X83951299Y-10583861D02*
X83914799Y-10248745D01*
X83914799Y-10248745D02*
X83898599Y-9914444D01*
X83898599Y-9914444D02*
X83904599Y-9581043D01*
X83904599Y-9581043D02*
X83935699Y-9248631D01*
X83935699Y-9248631D02*
X83993699Y-8917295D01*
X83993699Y-8917295D02*
X84080699Y-8587122D01*
X84080699Y-8587122D02*
X84198989Y-8258199D01*
X84198989Y-8258199D02*
X84350719Y-7930613D01*
X84350719Y-7930613D02*
X84538059Y-7604452D01*
X84538059Y-7604452D02*
X84763189Y-7279803D01*
X84763189Y-7279803D02*
X85028299Y-6956752D01*
X85028299Y-6956752D02*
X85335569Y-6635388D01*
X85335569Y-6635388D02*
X85687169Y-6315798D01*
X85687169Y-6315798D02*
X85945519Y-6346658D01*
X85945519Y-6346658D02*
X86182499Y-6345781D01*
X86182499Y-6345781D02*
X86621229Y-6291731D01*
X86621229Y-6291731D02*
X86837439Y-6260011D01*
X86837439Y-6260011D02*
X87061159Y-6239451D01*
X87061159Y-6239451D02*
X87299629Y-6240751D01*
X87299629Y-6240751D02*
X87560069Y-6274701D01*
X87560069Y-6274701D02*
X87849689Y-6351991D01*
X87849689Y-6351991D02*
X88175729Y-6483354D01*
X88175729Y-6483354D02*
X88545399Y-6679508D01*
X88545399Y-6679508D02*
X88965919Y-6951181D01*
X88965919Y-6951181D02*
X89444529Y-7309096D01*
X89444529Y-7309096D02*
X89988449Y-7763978D01*
X89988449Y-7763978D02*
X90604879Y-8326553D01*
X90604879Y-8326553D02*
X91301069Y-9007546D01*
X91301069Y-9007546D02*
X91301069Y-9007537D01*
X91301069Y-9007537D02*
X91301749Y-9007610D01*
X88534039Y23995136D02*
X90277549Y23995136D01*
X90277549Y23995136D02*
X90277549Y20730223D01*
X90277549Y20730223D02*
X88534039Y20730223D01*
X88534039Y20730223D02*
X88534039Y23995136D01*
X88534039Y23995136D02*
X88534039Y23995136D01*
X102223339Y20837088D02*
X105364509Y20837088D01*
X105364509Y20837088D02*
X105364509Y17958435D01*
X105364509Y17958435D02*
X102223339Y17958435D01*
X102223339Y17958435D02*
X102223339Y20837088D01*
X102223339Y20837088D02*
X102223339Y20837088D01*
X89904629Y-2577850D02*
X89879529Y-2831472D01*
X89879529Y-2831472D02*
X89806129Y-3073034D01*
X89806129Y-3073034D02*
X89687229Y-3295750D01*
X89687229Y-3295750D02*
X89525629Y-3492831D01*
X89525629Y-3492831D02*
X89328549Y-3654425D01*
X89328549Y-3654425D02*
X89105829Y-3773330D01*
X89105829Y-3773330D02*
X88864269Y-3846740D01*
X88864269Y-3846740D02*
X88610649Y-3871830D01*
X88610649Y-3871830D02*
X88349869Y-3845540D01*
X88349869Y-3845540D02*
X88106979Y-3770140D01*
X88106979Y-3770140D02*
X87887179Y-3650835D01*
X87887179Y-3650835D02*
X87695669Y-3492829D01*
X87695669Y-3492829D02*
X87537669Y-3301324D01*
X87537669Y-3301324D02*
X87418369Y-3081524D01*
X87418369Y-3081524D02*
X87342969Y-2838632D01*
X87342969Y-2838632D02*
X87316669Y-2577851D01*
X87316669Y-2577851D02*
X87342969Y-2317071D01*
X87342969Y-2317071D02*
X87418369Y-2074179D01*
X87418369Y-2074179D02*
X87537669Y-1854379D01*
X87537669Y-1854379D02*
X87695669Y-1662874D01*
X87695669Y-1662874D02*
X87887179Y-1504868D01*
X87887179Y-1504868D02*
X88106979Y-1385563D01*
X88106979Y-1385563D02*
X88349869Y-1310163D01*
X88349869Y-1310163D02*
X88610649Y-1283873D01*
X88610649Y-1283873D02*
X88864269Y-1308963D01*
X88864269Y-1308963D02*
X89105829Y-1382373D01*
X89105829Y-1382373D02*
X89328549Y-1501278D01*
X89328549Y-1501278D02*
X89525629Y-1662871D01*
X89525629Y-1662871D02*
X89687229Y-1859952D01*
X89687229Y-1859952D02*
X89806129Y-2082668D01*
X89806129Y-2082668D02*
X89879529Y-2324230D01*
X89879529Y-2324230D02*
X89904629Y-2577852D01*
X89904629Y-2577852D02*
X89904629Y-2577852D01*
X89904629Y-2577852D02*
X89904629Y-2577850D01*
X-4319811Y-11478481D02*
X-2852651Y-11478481D01*
X-2852651Y-11478481D02*
X-2852651Y-13638535D01*
X-2852651Y-13638535D02*
X-4319811Y-13638535D01*
X-4319811Y-13638535D02*
X-4319811Y-11478481D01*
X-4319811Y-11478481D02*
X-4319811Y-11478481D01*
X10781409Y-22703250D02*
X10895949Y-22654540D01*
X10895949Y-22654540D02*
X11011109Y-22577290D01*
X11011109Y-22577290D02*
X11071409Y-22508350D01*
X11071409Y-22508350D02*
X11117509Y-22410940D01*
X11117509Y-22410940D02*
X11151309Y-22276617D01*
X11151309Y-22276617D02*
X11174709Y-22096923D01*
X11174709Y-22096923D02*
X11198209Y-21567607D01*
X11198209Y-21567607D02*
X11203209Y-20755363D01*
X11203209Y-20755363D02*
X11192609Y-11333434D01*
X11192609Y-11333434D02*
X11179709Y-9216303D01*
X11179709Y-9216303D02*
X11172709Y-8364427D01*
X11172709Y-8364427D02*
X11151009Y-7914106D01*
X11151009Y-7914106D02*
X11129109Y-7791250D01*
X11129109Y-7791250D02*
X11096909Y-7710850D01*
X11096909Y-7710850D02*
X11052209Y-7653590D01*
X11052209Y-7653590D02*
X10992809Y-7600160D01*
X10992809Y-7600160D02*
X10931109Y-7562790D01*
X10931109Y-7562790D02*
X10838509Y-7531970D01*
X10838509Y-7531970D02*
X10544429Y-7488610D01*
X10544429Y-7488610D02*
X10078069Y-7467330D01*
X10078069Y-7467330D02*
X9406989Y-7465330D01*
X9406989Y-7465330D02*
X8342289Y-7470330D01*
X8342289Y-7470330D02*
X5530309Y-7466930D01*
X5530309Y-7466930D02*
X4305639Y-7476940D01*
X4305639Y-7476940D02*
X3770409Y-7492200D01*
X3770409Y-7492200D02*
X3661459Y-7548040D01*
X3661459Y-7548040D02*
X3549179Y-7631190D01*
X3549179Y-7631190D02*
X3458079Y-7720820D01*
X3458079Y-7720820D02*
X3412679Y-7796120D01*
X3412679Y-7796120D02*
X3389179Y-8209121D01*
X3389179Y-8209121D02*
X3351579Y-9791165D01*
X3351579Y-9791165D02*
X3335779Y-11291641D01*
X3335779Y-11291641D02*
X3341779Y-14838627D01*
X3341779Y-14838627D02*
X3346779Y-16675891D01*
X3346779Y-16675891D02*
X3341779Y-17159557D01*
X3341779Y-17159557D02*
X3326479Y-17431699D01*
X3326479Y-17431699D02*
X3297479Y-17551157D01*
X3297479Y-17551157D02*
X3276679Y-17572017D01*
X3276679Y-17572017D02*
X3251079Y-17576817D01*
X3251079Y-17576817D02*
X3183679Y-17567417D01*
X3183679Y-17567417D02*
X3091579Y-17581867D01*
X3091579Y-17581867D02*
X3020079Y-17621497D01*
X3020079Y-17621497D02*
X2951479Y-17645827D01*
X2951479Y-17645827D02*
X2322189Y-17680217D01*
X2322189Y-17680217D02*
X1594939Y-17713297D01*
X1594939Y-17713297D02*
X1454639Y-17734327D01*
X1454639Y-17734327D02*
X1376939Y-17766207D01*
X1376939Y-17766207D02*
X1214649Y-17890662D01*
X1214649Y-17890662D02*
X1162549Y-17957342D01*
X1162549Y-17957342D02*
X1133149Y-18023512D01*
X1133149Y-18023512D02*
X1113249Y-20317309D01*
X1113249Y-20317309D02*
X1114249Y-21476077D01*
X1114249Y-21476077D02*
X1135449Y-22140586D01*
X1135449Y-22140586D02*
X1160949Y-22338048D01*
X1160949Y-22338048D02*
X1200449Y-22472611D01*
X1200449Y-22472611D02*
X1256849Y-22564501D01*
X1256849Y-22564501D02*
X1333149Y-22633931D01*
X1333149Y-22633931D02*
X1448199Y-22719721D01*
X1448199Y-22719721D02*
X2052929Y-22733881D01*
X2052929Y-22733881D02*
X3866649Y-22744301D01*
X3866649Y-22744301D02*
X6785989Y-22739701D01*
X6785989Y-22739701D02*
X9520459Y-22724521D01*
X9520459Y-22724521D02*
X10779559Y-22703331D01*
X10779559Y-22703331D02*
X10781559Y-22703269D01*
X10781559Y-22703269D02*
X10781409Y-22703250D01*
X-1042651Y-13924370D02*
X634479Y-13924370D01*
X634479Y-13924370D02*
X634479Y-16270300D01*
X634479Y-16270300D02*
X-1042651Y-16270300D01*
X-1042651Y-16270300D02*
X-1042651Y-13924370D01*
X-1042651Y-13924370D02*
X-1042651Y-13924370D01*
X-8707291Y-14244003D02*
X-6962691Y-14244003D01*
X-6962691Y-14244003D02*
X-6962691Y-16297002D01*
X-6962691Y-16297002D02*
X-8707291Y-16297002D01*
X-8707291Y-16297002D02*
X-8707291Y-14244003D01*
X-8707291Y-14244003D02*
X-8707291Y-14244003D01*
X-13575841Y-18589291D02*
X-11088221Y-18589291D01*
X-11088221Y-18589291D02*
X-11088221Y-19961951D01*
X-11088221Y-19961951D02*
X-13575841Y-19961951D01*
X-13575841Y-19961951D02*
X-13575841Y-18589291D01*
X-13575841Y-18589291D02*
X-13575841Y-18589291D01*
X-7462181Y26882076D02*
X-4029741Y26882076D01*
X-4029741Y26882076D02*
X-4029741Y23449644D01*
X-4029741Y23449644D02*
X-7462181Y23449644D01*
X-7462181Y23449644D02*
X-7462181Y26882076D01*
X-7462181Y26882076D02*
X-7462181Y26882076D01*
X99493969Y26931175D02*
X102914939Y26931175D01*
X102914939Y26931175D02*
X102914939Y23587632D01*
X102914939Y23587632D02*
X99493969Y23587632D01*
X99493969Y23587632D02*
X99493969Y26931175D01*
X99493969Y26931175D02*
X99493969Y26931175D01*
X-50443511Y12854797D02*
X-50451511Y12693660D01*
X-50451511Y12693660D02*
X-50475411Y12537178D01*
X-50475411Y12537178D02*
X-50514211Y12386142D01*
X-50514211Y12386142D02*
X-50567211Y12241346D01*
X-50567211Y12241346D02*
X-50712521Y11973640D01*
X-50712521Y11973640D02*
X-50904961Y11740396D01*
X-50904961Y11740396D02*
X-51138201Y11547952D01*
X-51138201Y11547952D02*
X-51405911Y11402645D01*
X-51405911Y11402645D02*
X-51550711Y11349645D01*
X-51550711Y11349645D02*
X-51701741Y11310805D01*
X-51701741Y11310805D02*
X-51858221Y11286925D01*
X-51858221Y11286925D02*
X-52019361Y11278825D01*
X-52019361Y11278825D02*
X-52180501Y11286925D01*
X-52180501Y11286925D02*
X-52336981Y11310805D01*
X-52336981Y11310805D02*
X-52488011Y11349645D01*
X-52488011Y11349645D02*
X-52632811Y11402645D01*
X-52632811Y11402645D02*
X-52900521Y11547952D01*
X-52900521Y11547952D02*
X-53133761Y11740396D01*
X-53133761Y11740396D02*
X-53326201Y11973640D01*
X-53326201Y11973640D02*
X-53471511Y12241346D01*
X-53471511Y12241346D02*
X-53524511Y12386142D01*
X-53524511Y12386142D02*
X-53563311Y12537178D01*
X-53563311Y12537178D02*
X-53587211Y12693660D01*
X-53587211Y12693660D02*
X-53595211Y12854797D01*
X-53595211Y12854797D02*
X-53587211Y13015934D01*
X-53587211Y13015934D02*
X-53563311Y13172416D01*
X-53563311Y13172416D02*
X-53524511Y13323452D01*
X-53524511Y13323452D02*
X-53471511Y13468248D01*
X-53471511Y13468248D02*
X-53326201Y13735954D01*
X-53326201Y13735954D02*
X-53133761Y13969198D01*
X-53133761Y13969198D02*
X-52900521Y14161642D01*
X-52900521Y14161642D02*
X-52632811Y14306949D01*
X-52632811Y14306949D02*
X-52488011Y14359949D01*
X-52488011Y14359949D02*
X-52336981Y14398789D01*
X-52336981Y14398789D02*
X-52180501Y14422669D01*
X-52180501Y14422669D02*
X-52019361Y14430769D01*
X-52019361Y14430769D02*
X-51858221Y14422669D01*
X-51858221Y14422669D02*
X-51701741Y14398789D01*
X-51701741Y14398789D02*
X-51550711Y14359949D01*
X-51550711Y14359949D02*
X-51405911Y14306949D01*
X-51405911Y14306949D02*
X-51138201Y14161642D01*
X-51138201Y14161642D02*
X-50904961Y13969198D01*
X-50904961Y13969198D02*
X-50712521Y13735954D01*
X-50712521Y13735954D02*
X-50567211Y13468248D01*
X-50567211Y13468248D02*
X-50514211Y13323452D01*
X-50514211Y13323452D02*
X-50475411Y13172416D01*
X-50475411Y13172416D02*
X-50451511Y13015934D01*
X-50451511Y13015934D02*
X-50443511Y12854797D01*
X-50443511Y12854797D02*
X-50443511Y12854797D01*
X-50443511Y12854797D02*
X-50443511Y12854797D01*
X9445029Y12809238D02*
X9418129Y12542599D01*
X9418129Y12542599D02*
X9341029Y12294251D01*
X9341029Y12294251D02*
X9219049Y12069514D01*
X9219049Y12069514D02*
X9057489Y11873707D01*
X9057489Y11873707D02*
X8861679Y11712152D01*
X8861679Y11712152D02*
X8636949Y11590168D01*
X8636949Y11590168D02*
X8388599Y11513078D01*
X8388599Y11513078D02*
X8121959Y11486198D01*
X8121959Y11486198D02*
X7855319Y11513078D01*
X7855319Y11513078D02*
X7606969Y11590168D01*
X7606969Y11590168D02*
X7382239Y11712152D01*
X7382239Y11712152D02*
X7186429Y11873707D01*
X7186429Y11873707D02*
X7024869Y12069514D01*
X7024869Y12069514D02*
X6902889Y12294251D01*
X6902889Y12294251D02*
X6825789Y12542599D01*
X6825789Y12542599D02*
X6798889Y12809238D01*
X6798889Y12809238D02*
X6825789Y13075877D01*
X6825789Y13075877D02*
X6902889Y13324225D01*
X6902889Y13324225D02*
X7024869Y13548963D01*
X7024869Y13548963D02*
X7186429Y13744769D01*
X7186429Y13744769D02*
X7382239Y13906325D01*
X7382239Y13906325D02*
X7606969Y14028308D01*
X7606969Y14028308D02*
X7855319Y14105398D01*
X7855319Y14105398D02*
X8121959Y14132278D01*
X8121959Y14132278D02*
X8388599Y14105398D01*
X8388599Y14105398D02*
X8636949Y14028308D01*
X8636949Y14028308D02*
X8861679Y13906325D01*
X8861679Y13906325D02*
X9057489Y13744769D01*
X9057489Y13744769D02*
X9219049Y13548963D01*
X9219049Y13548963D02*
X9341029Y13324225D01*
X9341029Y13324225D02*
X9418129Y13075877D01*
X9418129Y13075877D02*
X9445029Y12809238D01*
X9445029Y12809238D02*
X9445029Y12809238D01*
X9445029Y12809238D02*
X9445029Y12809238D01*
X51850359Y-29084599D02*
X51825759Y-29328606D01*
X51825759Y-29328606D02*
X51755259Y-29555875D01*
X51755259Y-29555875D02*
X51643629Y-29761537D01*
X51643629Y-29761537D02*
X51495789Y-29940724D01*
X51495789Y-29940724D02*
X51316609Y-30088567D01*
X51316609Y-30088567D02*
X51110949Y-30200198D01*
X51110949Y-30200198D02*
X50883679Y-30270748D01*
X50883679Y-30270748D02*
X50639669Y-30295348D01*
X50639669Y-30295348D02*
X50402359Y-30271868D01*
X50402359Y-30271868D02*
X50176339Y-30203188D01*
X50176339Y-30203188D02*
X49967949Y-30091931D01*
X49967949Y-30091931D02*
X49783539Y-29940731D01*
X49783539Y-29940731D02*
X49632339Y-29756326D01*
X49632339Y-29756326D02*
X49521079Y-29547936D01*
X49521079Y-29547936D02*
X49452379Y-29321910D01*
X49452379Y-29321910D02*
X49428879Y-29084602D01*
X49428879Y-29084602D02*
X49452379Y-28847293D01*
X49452379Y-28847293D02*
X49521079Y-28621268D01*
X49521079Y-28621268D02*
X49632339Y-28412877D01*
X49632339Y-28412877D02*
X49783539Y-28228473D01*
X49783539Y-28228473D02*
X49967949Y-28077272D01*
X49967949Y-28077272D02*
X50176339Y-27966015D01*
X50176339Y-27966015D02*
X50402359Y-27897335D01*
X50402359Y-27897335D02*
X50639669Y-27873855D01*
X50639669Y-27873855D02*
X50883679Y-27898455D01*
X50883679Y-27898455D02*
X51110949Y-27969005D01*
X51110949Y-27969005D02*
X51316609Y-28080636D01*
X51316609Y-28080636D02*
X51495789Y-28228479D01*
X51495789Y-28228479D02*
X51643639Y-28407666D01*
X51643639Y-28407666D02*
X51755259Y-28613329D01*
X51755259Y-28613329D02*
X51825759Y-28840598D01*
X51825759Y-28840598D02*
X51850359Y-29084605D01*
X51850359Y-29084605D02*
X51850359Y-29084605D01*
X51850359Y-29084605D02*
X51850359Y-29084599D01*
X-8832491Y16982329D02*
X-8653561Y17107853D01*
X-8653561Y17107853D02*
X-8448491Y17296354D01*
X-8448491Y17296354D02*
X-8254691Y17510088D01*
X-8254691Y17510088D02*
X-8109611Y17711312D01*
X-8109611Y17711312D02*
X-8008191Y17912591D01*
X-8008191Y17912591D02*
X-7916791Y18139694D01*
X-7916791Y18139694D02*
X-7871091Y18284397D01*
X-7871091Y18284397D02*
X-7845991Y18412156D01*
X-7845991Y18412156D02*
X-7834091Y18803097D01*
X-7834091Y18803097D02*
X-7847591Y19181477D01*
X-7847591Y19181477D02*
X-7868991Y19299510D01*
X-7868991Y19299510D02*
X-7905391Y19415038D01*
X-7905391Y19415038D02*
X-8063521Y19777579D01*
X-8063521Y19777579D02*
X-8255311Y20081346D01*
X-8255311Y20081346D02*
X-8363341Y20210551D01*
X-8363341Y20210551D02*
X-8479211Y20324297D01*
X-8479211Y20324297D02*
X-8602721Y20422327D01*
X-8602721Y20422327D02*
X-8733671Y20504387D01*
X-8733671Y20504387D02*
X-8943861Y20597757D01*
X-8943861Y20597757D02*
X-9188631Y20640777D01*
X-9188631Y20640777D02*
X-9554931Y20661047D01*
X-9554931Y20661047D02*
X-10032601Y20667247D01*
X-10032601Y20667247D02*
X-10470401Y20659547D01*
X-10470401Y20659547D02*
X-10717081Y20638277D01*
X-10717081Y20638277D02*
X-10823981Y20589667D01*
X-10823981Y20589667D02*
X-10977761Y20495887D01*
X-10977761Y20495887D02*
X-11336181Y20231761D01*
X-11336181Y20231761D02*
X-11443271Y20127079D01*
X-11443271Y20127079D02*
X-11555281Y19987379D01*
X-11555281Y19987379D02*
X-11666011Y19821196D01*
X-11666011Y19821196D02*
X-11769241Y19637069D01*
X-11769241Y19637069D02*
X-11833041Y19497531D01*
X-11833041Y19497531D02*
X-11881441Y19341847D01*
X-11881441Y19341847D02*
X-11979241Y18791350D01*
X-11979241Y18791350D02*
X-11982241Y18640008D01*
X-11982241Y18640008D02*
X-11954041Y18457327D01*
X-11954041Y18457327D02*
X-11899541Y18263937D01*
X-11899541Y18263937D02*
X-11823341Y18080464D01*
X-11823341Y18080464D02*
X-11651451Y17699053D01*
X-11651451Y17699053D02*
X-11552551Y17526607D01*
X-11552551Y17526607D02*
X-11391061Y17335046D01*
X-11391061Y17335046D02*
X-11198081Y17156874D01*
X-11198081Y17156874D02*
X-11004791Y17024598D01*
X-11004791Y17024598D02*
X-10826171Y16950238D01*
X-10826171Y16950238D02*
X-10586781Y16907658D01*
X-10586781Y16907658D02*
X-10214901Y16889768D01*
X-10214901Y16889768D02*
X-9638801Y16889478D01*
X-9638801Y16889478D02*
X-8997011Y16895078D01*
X-8997011Y16895078D02*
X-8832831Y16982268D01*
X-8832831Y16982268D02*
X-8832841Y16982314D01*
X-8832841Y16982314D02*
X-8832491Y16982329D01*
X4116039Y3746864D02*
X4106039Y3548952D01*
X4106039Y3548952D02*
X4076739Y3356757D01*
X4076739Y3356757D02*
X4029039Y3171251D01*
X4029039Y3171251D02*
X3963939Y2993409D01*
X3963939Y2993409D02*
X3882439Y2824203D01*
X3882439Y2824203D02*
X3785539Y2664605D01*
X3785539Y2664605D02*
X3674109Y2515590D01*
X3674109Y2515590D02*
X3549169Y2378129D01*
X3549169Y2378129D02*
X3411709Y2253197D01*
X3411709Y2253197D02*
X3262699Y2141765D01*
X3262699Y2141765D02*
X3103099Y2044805D01*
X3103099Y2044805D02*
X2933889Y1963295D01*
X2933889Y1963295D02*
X2756049Y1898205D01*
X2756049Y1898205D02*
X2570549Y1850505D01*
X2570549Y1850505D02*
X2378349Y1821175D01*
X2378349Y1821175D02*
X2180439Y1811175D01*
X2180439Y1811175D02*
X1989119Y1820675D01*
X1989119Y1820675D02*
X1801039Y1848745D01*
X1801039Y1848745D02*
X1617469Y1894875D01*
X1617469Y1894875D02*
X1439679Y1958545D01*
X1439679Y1958545D02*
X1268939Y2039235D01*
X1268939Y2039235D02*
X1106519Y2136415D01*
X1106519Y2136415D02*
X953679Y2249561D01*
X953679Y2249561D02*
X811699Y2378146D01*
X811699Y2378146D02*
X683119Y2520126D01*
X683119Y2520126D02*
X569969Y2672963D01*
X569969Y2672963D02*
X472769Y2835387D01*
X472769Y2835387D02*
X392069Y3006128D01*
X392069Y3006128D02*
X328369Y3183918D01*
X328369Y3183918D02*
X282269Y3367486D01*
X282269Y3367486D02*
X254169Y3555565D01*
X254169Y3555565D02*
X245169Y3746884D01*
X245169Y3746884D02*
X254169Y3938203D01*
X254169Y3938203D02*
X282269Y4126282D01*
X282269Y4126282D02*
X328369Y4309850D01*
X328369Y4309850D02*
X392069Y4487640D01*
X392069Y4487640D02*
X472769Y4658381D01*
X472769Y4658381D02*
X569969Y4820805D01*
X569969Y4820805D02*
X683119Y4973642D01*
X683119Y4973642D02*
X811699Y5115622D01*
X811699Y5115622D02*
X953679Y5244207D01*
X953679Y5244207D02*
X1106519Y5357353D01*
X1106519Y5357353D02*
X1268939Y5454533D01*
X1268939Y5454533D02*
X1439679Y5535223D01*
X1439679Y5535223D02*
X1617469Y5598903D01*
X1617469Y5598903D02*
X1801039Y5645033D01*
X1801039Y5645033D02*
X1989119Y5673093D01*
X1989119Y5673093D02*
X2180439Y5682593D01*
X2180439Y5682593D02*
X2378349Y5672593D01*
X2378349Y5672593D02*
X2570549Y5643263D01*
X2570549Y5643263D02*
X2756049Y5595563D01*
X2756049Y5595563D02*
X2933889Y5530473D01*
X2933889Y5530473D02*
X3103099Y5448963D01*
X3103099Y5448963D02*
X3262699Y5352003D01*
X3262699Y5352003D02*
X3411709Y5240571D01*
X3411709Y5240571D02*
X3549169Y5115639D01*
X3549169Y5115639D02*
X3674109Y4978178D01*
X3674109Y4978178D02*
X3785539Y4829163D01*
X3785539Y4829163D02*
X3882439Y4669565D01*
X3882439Y4669565D02*
X3963939Y4500359D01*
X3963939Y4500359D02*
X4029039Y4322517D01*
X4029039Y4322517D02*
X4076739Y4137011D01*
X4076739Y4137011D02*
X4106039Y3944816D01*
X4106039Y3944816D02*
X4116039Y3746904D01*
X4116039Y3746904D02*
X4116039Y3746904D01*
X4116039Y3746904D02*
X4116039Y3746864D01*
X-11686191Y3875500D02*
X-11696191Y3677588D01*
X-11696191Y3677588D02*
X-11725491Y3485393D01*
X-11725491Y3485393D02*
X-11773191Y3299887D01*
X-11773191Y3299887D02*
X-11838291Y3122045D01*
X-11838291Y3122045D02*
X-11919791Y2952839D01*
X-11919791Y2952839D02*
X-12016791Y2793241D01*
X-12016791Y2793241D02*
X-12128221Y2644226D01*
X-12128221Y2644226D02*
X-12253161Y2506765D01*
X-12253161Y2506765D02*
X-12390621Y2381833D01*
X-12390621Y2381833D02*
X-12539631Y2270401D01*
X-12539631Y2270401D02*
X-12699231Y2173441D01*
X-12699231Y2173441D02*
X-12868441Y2091931D01*
X-12868441Y2091931D02*
X-13046281Y2026841D01*
X-13046281Y2026841D02*
X-13231781Y1979141D01*
X-13231781Y1979141D02*
X-13423981Y1949811D01*
X-13423981Y1949811D02*
X-13621891Y1939811D01*
X-13621891Y1939811D02*
X-13813211Y1949311D01*
X-13813211Y1949311D02*
X-14001291Y1977381D01*
X-14001291Y1977381D02*
X-14184861Y2023511D01*
X-14184861Y2023511D02*
X-14362651Y2087191D01*
X-14362651Y2087191D02*
X-14533391Y2167881D01*
X-14533391Y2167881D02*
X-14695811Y2265061D01*
X-14695811Y2265061D02*
X-14848651Y2378208D01*
X-14848651Y2378208D02*
X-14990631Y2506793D01*
X-14990631Y2506793D02*
X-15119211Y2648773D01*
X-15119211Y2648773D02*
X-15232361Y2801610D01*
X-15232361Y2801610D02*
X-15329561Y2964034D01*
X-15329561Y2964034D02*
X-15410261Y3134775D01*
X-15410261Y3134775D02*
X-15473961Y3312565D01*
X-15473961Y3312565D02*
X-15520061Y3496133D01*
X-15520061Y3496133D02*
X-15548161Y3684212D01*
X-15548161Y3684212D02*
X-15557161Y3875531D01*
X-15557161Y3875531D02*
X-15548161Y4066850D01*
X-15548161Y4066850D02*
X-15520061Y4254928D01*
X-15520061Y4254928D02*
X-15473961Y4438497D01*
X-15473961Y4438497D02*
X-15410261Y4616287D01*
X-15410261Y4616287D02*
X-15329561Y4787028D01*
X-15329561Y4787028D02*
X-15232361Y4949451D01*
X-15232361Y4949451D02*
X-15119211Y5102288D01*
X-15119211Y5102288D02*
X-14990631Y5244269D01*
X-14990631Y5244269D02*
X-14848651Y5372854D01*
X-14848651Y5372854D02*
X-14695811Y5486000D01*
X-14695811Y5486000D02*
X-14533391Y5583180D01*
X-14533391Y5583180D02*
X-14362651Y5663870D01*
X-14362651Y5663870D02*
X-14184861Y5727540D01*
X-14184861Y5727540D02*
X-14001291Y5773670D01*
X-14001291Y5773670D02*
X-13813211Y5801730D01*
X-13813211Y5801730D02*
X-13621891Y5811230D01*
X-13621891Y5811230D02*
X-13423981Y5801230D01*
X-13423981Y5801230D02*
X-13231781Y5771900D01*
X-13231781Y5771900D02*
X-13046281Y5724200D01*
X-13046281Y5724200D02*
X-12868441Y5659110D01*
X-12868441Y5659110D02*
X-12699231Y5577600D01*
X-12699231Y5577600D02*
X-12539631Y5480640D01*
X-12539631Y5480640D02*
X-12390621Y5369209D01*
X-12390621Y5369209D02*
X-12253161Y5244276D01*
X-12253161Y5244276D02*
X-12128231Y5106816D01*
X-12128231Y5106816D02*
X-12016791Y4957800D01*
X-12016791Y4957800D02*
X-11919791Y4798203D01*
X-11919791Y4798203D02*
X-11838291Y4628997D01*
X-11838291Y4628997D02*
X-11773191Y4451154D01*
X-11773191Y4451154D02*
X-11725491Y4265649D01*
X-11725491Y4265649D02*
X-11696191Y4073454D01*
X-11696191Y4073454D02*
X-11686191Y3875542D01*
X-11686191Y3875542D02*
X-11686191Y3875542D01*
X-11686191Y3875542D02*
X-11686191Y3875500D01*
X-3839491Y11642856D02*
X-3848491Y11451537D01*
X-3848491Y11451537D02*
X-3876591Y11263459D01*
X-3876591Y11263459D02*
X-3922691Y11079890D01*
X-3922691Y11079890D02*
X-3986391Y10902100D01*
X-3986391Y10902100D02*
X-4067091Y10731359D01*
X-4067091Y10731359D02*
X-4164291Y10568936D01*
X-4164291Y10568936D02*
X-4277441Y10416099D01*
X-4277441Y10416099D02*
X-4406021Y10274118D01*
X-4406021Y10274118D02*
X-4548001Y10145533D01*
X-4548001Y10145533D02*
X-4700841Y10032387D01*
X-4700841Y10032387D02*
X-4863261Y9935207D01*
X-4863261Y9935207D02*
X-5034001Y9854517D01*
X-5034001Y9854517D02*
X-5211791Y9790847D01*
X-5211791Y9790847D02*
X-5395361Y9744717D01*
X-5395361Y9744717D02*
X-5583441Y9716657D01*
X-5583441Y9716657D02*
X-5774761Y9707157D01*
X-5774761Y9707157D02*
X-5972671Y9717157D01*
X-5972671Y9717157D02*
X-6164871Y9746487D01*
X-6164871Y9746487D02*
X-6350371Y9794187D01*
X-6350371Y9794187D02*
X-6528211Y9859277D01*
X-6528211Y9859277D02*
X-6697421Y9940787D01*
X-6697421Y9940787D02*
X-6857021Y10037747D01*
X-6857021Y10037747D02*
X-7006031Y10149178D01*
X-7006031Y10149178D02*
X-7143491Y10274111D01*
X-7143491Y10274111D02*
X-7268421Y10411571D01*
X-7268421Y10411571D02*
X-7379861Y10560587D01*
X-7379861Y10560587D02*
X-7476761Y10720184D01*
X-7476761Y10720184D02*
X-7558261Y10889390D01*
X-7558261Y10889390D02*
X-7623361Y11067233D01*
X-7623361Y11067233D02*
X-7671061Y11252738D01*
X-7671061Y11252738D02*
X-7700361Y11444933D01*
X-7700361Y11444933D02*
X-7710361Y11642845D01*
X-7710361Y11642845D02*
X-7700361Y11840757D01*
X-7700361Y11840757D02*
X-7671061Y12032952D01*
X-7671061Y12032952D02*
X-7623361Y12218458D01*
X-7623361Y12218458D02*
X-7558261Y12396300D01*
X-7558261Y12396300D02*
X-7476761Y12565506D01*
X-7476761Y12565506D02*
X-7379861Y12725104D01*
X-7379861Y12725104D02*
X-7268431Y12874119D01*
X-7268431Y12874119D02*
X-7143491Y13011580D01*
X-7143491Y13011580D02*
X-7006031Y13136512D01*
X-7006031Y13136512D02*
X-6857021Y13247944D01*
X-6857021Y13247944D02*
X-6697421Y13344904D01*
X-6697421Y13344904D02*
X-6528211Y13426414D01*
X-6528211Y13426414D02*
X-6350371Y13491504D01*
X-6350371Y13491504D02*
X-6164871Y13539204D01*
X-6164871Y13539204D02*
X-5972671Y13568534D01*
X-5972671Y13568534D02*
X-5774761Y13578534D01*
X-5774761Y13578534D02*
X-5583441Y13569034D01*
X-5583441Y13569034D02*
X-5395361Y13540964D01*
X-5395361Y13540964D02*
X-5211791Y13494834D01*
X-5211791Y13494834D02*
X-5034001Y13431164D01*
X-5034001Y13431164D02*
X-4863261Y13350474D01*
X-4863261Y13350474D02*
X-4700841Y13253294D01*
X-4700841Y13253294D02*
X-4548001Y13140147D01*
X-4548001Y13140147D02*
X-4406021Y13011562D01*
X-4406021Y13011562D02*
X-4277441Y12869582D01*
X-4277441Y12869582D02*
X-4164291Y12716745D01*
X-4164291Y12716745D02*
X-4067091Y12554321D01*
X-4067091Y12554321D02*
X-3986391Y12383580D01*
X-3986391Y12383580D02*
X-3922691Y12205790D01*
X-3922691Y12205790D02*
X-3876591Y12022222D01*
X-3876591Y12022222D02*
X-3848491Y11834143D01*
X-3848491Y11834143D02*
X-3839491Y11642824D01*
X-3839491Y11642824D02*
X-3839491Y11642824D01*
X-3839491Y11642824D02*
X-3839491Y11642856D01*
X-3719181Y-4052925D02*
X-3729281Y-4253144D01*
X-3729281Y-4253144D02*
X-3758981Y-4447579D01*
X-3758981Y-4447579D02*
X-3807281Y-4635246D01*
X-3807281Y-4635246D02*
X-3873181Y-4815160D01*
X-3873181Y-4815160D02*
X-3955681Y-4986338D01*
X-3955681Y-4986338D02*
X-4053781Y-5147796D01*
X-4053781Y-5147796D02*
X-4166511Y-5298547D01*
X-4166511Y-5298547D02*
X-4292901Y-5437610D01*
X-4292901Y-5437610D02*
X-4431961Y-5563998D01*
X-4431961Y-5563998D02*
X-4582711Y-5676728D01*
X-4582711Y-5676728D02*
X-4744171Y-5774818D01*
X-4744171Y-5774818D02*
X-4915341Y-5857278D01*
X-4915341Y-5857278D02*
X-5095261Y-5923128D01*
X-5095261Y-5923128D02*
X-5282931Y-5971378D01*
X-5282931Y-5971378D02*
X-5477361Y-6001058D01*
X-5477361Y-6001058D02*
X-5677581Y-6011168D01*
X-5677581Y-6011168D02*
X-5877801Y-6001058D01*
X-5877801Y-6001058D02*
X-6072231Y-5971378D01*
X-6072231Y-5971378D02*
X-6259901Y-5923128D01*
X-6259901Y-5923128D02*
X-6439821Y-5857278D01*
X-6439821Y-5857278D02*
X-6610991Y-5774818D01*
X-6610991Y-5774818D02*
X-6772451Y-5676728D01*
X-6772451Y-5676728D02*
X-6923201Y-5563998D01*
X-6923201Y-5563998D02*
X-7062261Y-5437610D01*
X-7062261Y-5437610D02*
X-7188651Y-5298547D01*
X-7188651Y-5298547D02*
X-7301381Y-5147796D01*
X-7301381Y-5147796D02*
X-7399481Y-4986338D01*
X-7399481Y-4986338D02*
X-7481981Y-4815160D01*
X-7481981Y-4815160D02*
X-7547781Y-4635246D01*
X-7547781Y-4635246D02*
X-7596081Y-4447579D01*
X-7596081Y-4447579D02*
X-7625781Y-4253144D01*
X-7625781Y-4253144D02*
X-7635881Y-4052925D01*
X-7635881Y-4052925D02*
X-7625781Y-3852706D01*
X-7625781Y-3852706D02*
X-7596081Y-3658271D01*
X-7596081Y-3658271D02*
X-7547781Y-3470604D01*
X-7547781Y-3470604D02*
X-7481981Y-3290690D01*
X-7481981Y-3290690D02*
X-7399481Y-3119512D01*
X-7399481Y-3119512D02*
X-7301381Y-2958054D01*
X-7301381Y-2958054D02*
X-7188651Y-2807303D01*
X-7188651Y-2807303D02*
X-7062261Y-2668240D01*
X-7062261Y-2668240D02*
X-6923201Y-2541852D01*
X-6923201Y-2541852D02*
X-6772451Y-2429122D01*
X-6772451Y-2429122D02*
X-6610991Y-2331032D01*
X-6610991Y-2331032D02*
X-6439821Y-2248572D01*
X-6439821Y-2248572D02*
X-6259901Y-2182722D01*
X-6259901Y-2182722D02*
X-6072231Y-2134472D01*
X-6072231Y-2134472D02*
X-5877801Y-2104792D01*
X-5877801Y-2104792D02*
X-5677581Y-2094682D01*
X-5677581Y-2094682D02*
X-5477361Y-2104792D01*
X-5477361Y-2104792D02*
X-5282931Y-2134472D01*
X-5282931Y-2134472D02*
X-5095261Y-2182722D01*
X-5095261Y-2182722D02*
X-4915341Y-2248572D01*
X-4915341Y-2248572D02*
X-4744171Y-2331032D01*
X-4744171Y-2331032D02*
X-4582711Y-2429122D01*
X-4582711Y-2429122D02*
X-4431961Y-2541852D01*
X-4431961Y-2541852D02*
X-4292901Y-2668240D01*
X-4292901Y-2668240D02*
X-4166511Y-2807303D01*
X-4166511Y-2807303D02*
X-4053781Y-2958054D01*
X-4053781Y-2958054D02*
X-3955681Y-3119512D01*
X-3955681Y-3119512D02*
X-3873181Y-3290690D01*
X-3873181Y-3290690D02*
X-3807281Y-3470604D01*
X-3807281Y-3470604D02*
X-3758981Y-3658271D01*
X-3758981Y-3658271D02*
X-3729281Y-3852706D01*
X-3729281Y-3852706D02*
X-3719181Y-4052925D01*
X-3719181Y-4052925D02*
X-3719181Y-4052925D01*
X-3719181Y-4052925D02*
X-3719181Y-4052925D01*
X-3978871Y3867233D02*
X-3986871Y3700174D01*
X-3986871Y3700174D02*
X-4010971Y3535945D01*
X-4010971Y3535945D02*
X-4050671Y3375653D01*
X-4050671Y3375653D02*
X-4105371Y3220408D01*
X-4105371Y3220408D02*
X-4174771Y3071317D01*
X-4174771Y3071317D02*
X-4258271Y2929490D01*
X-4258271Y2929490D02*
X-4355571Y2796033D01*
X-4355571Y2796033D02*
X-4466111Y2672056D01*
X-4466111Y2672056D02*
X-4588181Y2559776D01*
X-4588181Y2559776D02*
X-4719581Y2460976D01*
X-4719581Y2460976D02*
X-4859221Y2376116D01*
X-4859221Y2376116D02*
X-5006011Y2305656D01*
X-5006011Y2305656D02*
X-5158861Y2250056D01*
X-5158861Y2250056D02*
X-5316681Y2209776D01*
X-5316681Y2209776D02*
X-5478381Y2185266D01*
X-5478381Y2185266D02*
X-5642861Y2176966D01*
X-5642861Y2176966D02*
X-5813011Y2185666D01*
X-5813011Y2185666D02*
X-5978251Y2211276D01*
X-5978251Y2211276D02*
X-6137731Y2252926D01*
X-6137731Y2252926D02*
X-6290631Y2309766D01*
X-6290631Y2309766D02*
X-6436101Y2380946D01*
X-6436101Y2380946D02*
X-6573311Y2465606D01*
X-6573311Y2465606D02*
X-6701421Y2562906D01*
X-6701421Y2562906D02*
X-6819601Y2671997D01*
X-6819601Y2671997D02*
X-6927011Y2792027D01*
X-6927011Y2792027D02*
X-7022811Y2922147D01*
X-7022811Y2922147D02*
X-7106211Y3061506D01*
X-7106211Y3061506D02*
X-7176311Y3209257D01*
X-7176311Y3209257D02*
X-7232311Y3364548D01*
X-7232311Y3364548D02*
X-7273311Y3526530D01*
X-7273311Y3526530D02*
X-7298511Y3694354D01*
X-7298511Y3694354D02*
X-7307511Y3867170D01*
X-7307511Y3867170D02*
X-7298511Y4039986D01*
X-7298511Y4039986D02*
X-7273311Y4207810D01*
X-7273311Y4207810D02*
X-7232311Y4369792D01*
X-7232311Y4369792D02*
X-7176311Y4525083D01*
X-7176311Y4525083D02*
X-7106211Y4672834D01*
X-7106211Y4672834D02*
X-7022811Y4812193D01*
X-7022811Y4812193D02*
X-6927011Y4942313D01*
X-6927011Y4942313D02*
X-6819601Y5062343D01*
X-6819601Y5062343D02*
X-6701421Y5171434D01*
X-6701421Y5171434D02*
X-6573311Y5268734D01*
X-6573311Y5268734D02*
X-6436101Y5353394D01*
X-6436101Y5353394D02*
X-6290631Y5424574D01*
X-6290631Y5424574D02*
X-6137731Y5481414D01*
X-6137731Y5481414D02*
X-5978251Y5523064D01*
X-5978251Y5523064D02*
X-5813011Y5548674D01*
X-5813011Y5548674D02*
X-5642861Y5557374D01*
X-5642861Y5557374D02*
X-5478381Y5549074D01*
X-5478381Y5549074D02*
X-5316681Y5524564D01*
X-5316681Y5524564D02*
X-5158861Y5484284D01*
X-5158861Y5484284D02*
X-5006011Y5428684D01*
X-5006011Y5428684D02*
X-4859221Y5358224D01*
X-4859221Y5358224D02*
X-4719581Y5273364D01*
X-4719581Y5273364D02*
X-4588181Y5174564D01*
X-4588181Y5174564D02*
X-4466111Y5062284D01*
X-4466111Y5062284D02*
X-4355571Y4938307D01*
X-4355571Y4938307D02*
X-4258271Y4804850D01*
X-4258271Y4804850D02*
X-4174771Y4663023D01*
X-4174771Y4663023D02*
X-4105371Y4513932D01*
X-4105371Y4513932D02*
X-4050671Y4358687D01*
X-4050671Y4358687D02*
X-4010971Y4198395D01*
X-4010971Y4198395D02*
X-3986871Y4034166D01*
X-3986871Y4034166D02*
X-3978871Y3867107D01*
X-3978871Y3867107D02*
X-3978871Y3867107D01*
X-3978871Y3867107D02*
X-3978871Y3867233D01*
X108968469Y11724077D02*
X108958469Y11528471D01*
X108958469Y11528471D02*
X108929469Y11338515D01*
X108929469Y11338515D02*
X108882369Y11155171D01*
X108882369Y11155171D02*
X108818069Y10979400D01*
X108818069Y10979400D02*
X108737469Y10812165D01*
X108737469Y10812165D02*
X108641669Y10654428D01*
X108641669Y10654428D02*
X108531529Y10507148D01*
X108531529Y10507148D02*
X108408059Y10371289D01*
X108408059Y10371289D02*
X108272199Y10247812D01*
X108272199Y10247812D02*
X108124919Y10137679D01*
X108124919Y10137679D02*
X107967179Y10041849D01*
X107967179Y10041849D02*
X107799949Y9961289D01*
X107799949Y9961289D02*
X107624179Y9896959D01*
X107624179Y9896959D02*
X107440829Y9849819D01*
X107440829Y9849819D02*
X107250879Y9820829D01*
X107250879Y9820829D02*
X107055269Y9810929D01*
X107055269Y9810929D02*
X106859659Y9820829D01*
X106859659Y9820829D02*
X106669709Y9849819D01*
X106669709Y9849819D02*
X106486359Y9896959D01*
X106486359Y9896959D02*
X106310589Y9961289D01*
X106310589Y9961289D02*
X106143359Y10041849D01*
X106143359Y10041849D02*
X105985619Y10137679D01*
X105985619Y10137679D02*
X105838339Y10247812D01*
X105838339Y10247812D02*
X105702479Y10371289D01*
X105702479Y10371289D02*
X105579009Y10507148D01*
X105579009Y10507148D02*
X105468869Y10654428D01*
X105468869Y10654428D02*
X105373069Y10812165D01*
X105373069Y10812165D02*
X105292469Y10979400D01*
X105292469Y10979400D02*
X105228169Y11155171D01*
X105228169Y11155171D02*
X105181069Y11338515D01*
X105181069Y11338515D02*
X105152069Y11528471D01*
X105152069Y11528471D02*
X105142069Y11724077D01*
X105142069Y11724077D02*
X105152069Y11919683D01*
X105152069Y11919683D02*
X105181069Y12109639D01*
X105181069Y12109639D02*
X105228169Y12292983D01*
X105228169Y12292983D02*
X105292469Y12468754D01*
X105292469Y12468754D02*
X105373069Y12635989D01*
X105373069Y12635989D02*
X105468869Y12793726D01*
X105468869Y12793726D02*
X105579009Y12941006D01*
X105579009Y12941006D02*
X105702479Y13076865D01*
X105702479Y13076865D02*
X105838339Y13200342D01*
X105838339Y13200342D02*
X105985619Y13310475D01*
X105985619Y13310475D02*
X106143359Y13406305D01*
X106143359Y13406305D02*
X106310589Y13486865D01*
X106310589Y13486865D02*
X106486359Y13551195D01*
X106486359Y13551195D02*
X106669709Y13598335D01*
X106669709Y13598335D02*
X106859659Y13627325D01*
X106859659Y13627325D02*
X107055269Y13637225D01*
X107055269Y13637225D02*
X107250879Y13627325D01*
X107250879Y13627325D02*
X107440829Y13598335D01*
X107440829Y13598335D02*
X107624179Y13551195D01*
X107624179Y13551195D02*
X107799949Y13486865D01*
X107799949Y13486865D02*
X107967179Y13406305D01*
X107967179Y13406305D02*
X108124919Y13310475D01*
X108124919Y13310475D02*
X108272199Y13200342D01*
X108272199Y13200342D02*
X108408059Y13076865D01*
X108408059Y13076865D02*
X108531529Y12941006D01*
X108531529Y12941006D02*
X108641669Y12793726D01*
X108641669Y12793726D02*
X108737469Y12635989D01*
X108737469Y12635989D02*
X108818069Y12468754D01*
X108818069Y12468754D02*
X108882369Y12292983D01*
X108882369Y12292983D02*
X108929469Y12109639D01*
X108929469Y12109639D02*
X108958469Y11919683D01*
X108958469Y11919683D02*
X108968469Y11724077D01*
X108968469Y11724077D02*
X108968469Y11724077D01*
X108968469Y11724077D02*
X108968469Y11724077D01*
X101011329Y3890369D02*
X101001329Y3693720D01*
X101001329Y3693720D02*
X100972129Y3502751D01*
X100972129Y3502751D02*
X100924729Y3318429D01*
X100924729Y3318429D02*
X100860029Y3141722D01*
X100860029Y3141722D02*
X100779029Y2973595D01*
X100779029Y2973595D02*
X100682729Y2815016D01*
X100682729Y2815016D02*
X100572009Y2666952D01*
X100572009Y2666952D02*
X100447869Y2530369D01*
X100447869Y2530369D02*
X100311289Y2406233D01*
X100311289Y2406233D02*
X100163219Y2295513D01*
X100163219Y2295513D02*
X100004639Y2199173D01*
X100004639Y2199173D02*
X99836519Y2118183D01*
X99836519Y2118183D02*
X99659809Y2053503D01*
X99659809Y2053503D02*
X99475489Y2006113D01*
X99475489Y2006113D02*
X99284519Y1976963D01*
X99284519Y1976963D02*
X99087869Y1967063D01*
X99087869Y1967063D02*
X98897769Y1976463D01*
X98897769Y1976463D02*
X98710889Y2004343D01*
X98710889Y2004343D02*
X98528499Y2050183D01*
X98528499Y2050183D02*
X98351839Y2113453D01*
X98351839Y2113453D02*
X98182189Y2193623D01*
X98182189Y2193623D02*
X98020799Y2290183D01*
X98020799Y2290183D02*
X97868939Y2402607D01*
X97868939Y2402607D02*
X97727859Y2530371D01*
X97727859Y2530371D02*
X97600099Y2671446D01*
X97600099Y2671446D02*
X97487669Y2823307D01*
X97487669Y2823307D02*
X97391069Y2984694D01*
X97391069Y2984694D02*
X97310869Y3154346D01*
X97310869Y3154346D02*
X97247569Y3331001D01*
X97247569Y3331001D02*
X97201769Y3513398D01*
X97201769Y3513398D02*
X97173869Y3700277D01*
X97173869Y3700277D02*
X97164869Y3890375D01*
X97164869Y3890375D02*
X97173869Y4080473D01*
X97173869Y4080473D02*
X97201769Y4267352D01*
X97201769Y4267352D02*
X97247569Y4449749D01*
X97247569Y4449749D02*
X97310869Y4626404D01*
X97310869Y4626404D02*
X97391069Y4796056D01*
X97391069Y4796056D02*
X97487669Y4957443D01*
X97487669Y4957443D02*
X97600099Y5109304D01*
X97600099Y5109304D02*
X97727859Y5250379D01*
X97727859Y5250379D02*
X97868939Y5378143D01*
X97868939Y5378143D02*
X98020799Y5490567D01*
X98020799Y5490567D02*
X98182189Y5587127D01*
X98182189Y5587127D02*
X98351839Y5667297D01*
X98351839Y5667297D02*
X98528499Y5730567D01*
X98528499Y5730567D02*
X98710889Y5776407D01*
X98710889Y5776407D02*
X98897769Y5804287D01*
X98897769Y5804287D02*
X99087869Y5813687D01*
X99087869Y5813687D02*
X99284519Y5803787D01*
X99284519Y5803787D02*
X99475489Y5774637D01*
X99475489Y5774637D02*
X99659809Y5727247D01*
X99659809Y5727247D02*
X99836519Y5662567D01*
X99836519Y5662567D02*
X100004639Y5581577D01*
X100004639Y5581577D02*
X100163219Y5485237D01*
X100163219Y5485237D02*
X100311289Y5374517D01*
X100311289Y5374517D02*
X100447869Y5250381D01*
X100447869Y5250381D02*
X100572009Y5113798D01*
X100572009Y5113798D02*
X100682729Y4965734D01*
X100682729Y4965734D02*
X100779029Y4807155D01*
X100779029Y4807155D02*
X100860029Y4639028D01*
X100860029Y4639028D02*
X100924729Y4462321D01*
X100924729Y4462321D02*
X100972129Y4277999D01*
X100972129Y4277999D02*
X101001329Y4087030D01*
X101001329Y4087030D02*
X101011329Y3890381D01*
X101011329Y3890381D02*
X101011329Y3890381D01*
X101011329Y3890381D02*
X101011329Y3890369D01*
X108963309Y-4049206D02*
X108954309Y-4240527D01*
X108954309Y-4240527D02*
X108926209Y-4428607D01*
X108926209Y-4428607D02*
X108880109Y-4612178D01*
X108880109Y-4612178D02*
X108816409Y-4789969D01*
X108816409Y-4789969D02*
X108735709Y-4960713D01*
X108735709Y-4960713D02*
X108638509Y-5123138D01*
X108638509Y-5123138D02*
X108525359Y-5275976D01*
X108525359Y-5275976D02*
X108396769Y-5417958D01*
X108396769Y-5417958D02*
X108254789Y-5546545D01*
X108254789Y-5546545D02*
X108101949Y-5659692D01*
X108101949Y-5659692D02*
X107939529Y-5756872D01*
X107939529Y-5756872D02*
X107768779Y-5837562D01*
X107768779Y-5837562D02*
X107590989Y-5901242D01*
X107590989Y-5901242D02*
X107407419Y-5947372D01*
X107407419Y-5947372D02*
X107219339Y-5975432D01*
X107219339Y-5975432D02*
X107028019Y-5984932D01*
X107028019Y-5984932D02*
X106836699Y-5975432D01*
X106836699Y-5975432D02*
X106648619Y-5947372D01*
X106648619Y-5947372D02*
X106465049Y-5901242D01*
X106465049Y-5901242D02*
X106287259Y-5837562D01*
X106287259Y-5837562D02*
X106116509Y-5756872D01*
X106116509Y-5756872D02*
X105954089Y-5659692D01*
X105954089Y-5659692D02*
X105801249Y-5546545D01*
X105801249Y-5546545D02*
X105659269Y-5417958D01*
X105659269Y-5417958D02*
X105530679Y-5275976D01*
X105530679Y-5275976D02*
X105417529Y-5123138D01*
X105417529Y-5123138D02*
X105320329Y-4960713D01*
X105320329Y-4960713D02*
X105239629Y-4789969D01*
X105239629Y-4789969D02*
X105175929Y-4612178D01*
X105175929Y-4612178D02*
X105129829Y-4428607D01*
X105129829Y-4428607D02*
X105101729Y-4240527D01*
X105101729Y-4240527D02*
X105092729Y-4049206D01*
X105092729Y-4049206D02*
X105101729Y-3857885D01*
X105101729Y-3857885D02*
X105129829Y-3669805D01*
X105129829Y-3669805D02*
X105175929Y-3486234D01*
X105175929Y-3486234D02*
X105239629Y-3308443D01*
X105239629Y-3308443D02*
X105320329Y-3137699D01*
X105320329Y-3137699D02*
X105417529Y-2975274D01*
X105417529Y-2975274D02*
X105530679Y-2822436D01*
X105530679Y-2822436D02*
X105659269Y-2680454D01*
X105659269Y-2680454D02*
X105801249Y-2551867D01*
X105801249Y-2551867D02*
X105954089Y-2438720D01*
X105954089Y-2438720D02*
X106116509Y-2341540D01*
X106116509Y-2341540D02*
X106287259Y-2260850D01*
X106287259Y-2260850D02*
X106465049Y-2197170D01*
X106465049Y-2197170D02*
X106648619Y-2151040D01*
X106648619Y-2151040D02*
X106836699Y-2122980D01*
X106836699Y-2122980D02*
X107028019Y-2113480D01*
X107028019Y-2113480D02*
X107219339Y-2122980D01*
X107219339Y-2122980D02*
X107407419Y-2151040D01*
X107407419Y-2151040D02*
X107590989Y-2197170D01*
X107590989Y-2197170D02*
X107768779Y-2260850D01*
X107768779Y-2260850D02*
X107939529Y-2341540D01*
X107939529Y-2341540D02*
X108101949Y-2438720D01*
X108101949Y-2438720D02*
X108254789Y-2551867D01*
X108254789Y-2551867D02*
X108396769Y-2680454D01*
X108396769Y-2680454D02*
X108525359Y-2822436D01*
X108525359Y-2822436D02*
X108638509Y-2975274D01*
X108638509Y-2975274D02*
X108735709Y-3137699D01*
X108735709Y-3137699D02*
X108816409Y-3308443D01*
X108816409Y-3308443D02*
X108880109Y-3486234D01*
X108880109Y-3486234D02*
X108926209Y-3669805D01*
X108926209Y-3669805D02*
X108954309Y-3857885D01*
X108954309Y-3857885D02*
X108963309Y-4049206D01*
X108963309Y-4049206D02*
X108963309Y-4049206D01*
X108963309Y-4049206D02*
X108963309Y-4049206D01*
X-33348571Y-29176432D02*
X-33098951Y-29095712D01*
X-33098951Y-29095712D02*
X-32872051Y-28985125D01*
X-32872051Y-28985125D02*
X-32659071Y-28839540D01*
X-32659071Y-28839540D02*
X-32451201Y-28653823D01*
X-32451201Y-28653823D02*
X-32310761Y-28504003D01*
X-32310761Y-28504003D02*
X-32190591Y-28353873D01*
X-32190591Y-28353873D02*
X-32089801Y-28201490D01*
X-32089801Y-28201490D02*
X-32007501Y-28044914D01*
X-32007501Y-28044914D02*
X-31942801Y-27882204D01*
X-31942801Y-27882204D02*
X-31894801Y-27711418D01*
X-31894801Y-27711418D02*
X-31862601Y-27530614D01*
X-31862601Y-27530614D02*
X-31845301Y-27337853D01*
X-31845301Y-27337853D02*
X-31851301Y-26987136D01*
X-31851301Y-26987136D02*
X-31907101Y-26657870D01*
X-31907101Y-26657870D02*
X-32011661Y-26352316D01*
X-32011661Y-26352316D02*
X-32164451Y-26072733D01*
X-32164451Y-26072733D02*
X-32280751Y-25916295D01*
X-32280751Y-25916295D02*
X-32414061Y-25769946D01*
X-32414061Y-25769946D02*
X-32561791Y-25635471D01*
X-32561791Y-25635471D02*
X-32721341Y-25514658D01*
X-32721341Y-25514658D02*
X-32890111Y-25409293D01*
X-32890111Y-25409293D02*
X-33065521Y-25321163D01*
X-33065521Y-25321163D02*
X-33244971Y-25252053D01*
X-33244971Y-25252053D02*
X-33425871Y-25203753D01*
X-33425871Y-25203753D02*
X-33657181Y-25163773D01*
X-33657181Y-25163773D02*
X-33857181Y-25149113D01*
X-33857181Y-25149113D02*
X-34051851Y-25159523D01*
X-34051851Y-25159523D02*
X-34267171Y-25194753D01*
X-34267171Y-25194753D02*
X-34471491Y-25243373D01*
X-34471491Y-25243373D02*
X-34641511Y-25303933D01*
X-34641511Y-25303933D02*
X-34806301Y-25389113D01*
X-34806301Y-25389113D02*
X-34994991Y-25511594D01*
X-34994991Y-25511594D02*
X-35168711Y-25646189D01*
X-35168711Y-25646189D02*
X-35323791Y-25795904D01*
X-35323791Y-25795904D02*
X-35459981Y-25958989D01*
X-35459981Y-25958989D02*
X-35577051Y-26133694D01*
X-35577051Y-26133694D02*
X-35674751Y-26318267D01*
X-35674751Y-26318267D02*
X-35752851Y-26510960D01*
X-35752851Y-26510960D02*
X-35811151Y-26710022D01*
X-35811151Y-26710022D02*
X-35849351Y-26913703D01*
X-35849351Y-26913703D02*
X-35867151Y-27120252D01*
X-35867151Y-27120252D02*
X-35864151Y-27327920D01*
X-35864151Y-27327920D02*
X-35840651Y-27534956D01*
X-35840651Y-27534956D02*
X-35796151Y-27739610D01*
X-35796151Y-27739610D02*
X-35730351Y-27940132D01*
X-35730351Y-27940132D02*
X-35643051Y-28134772D01*
X-35643051Y-28134772D02*
X-35533961Y-28321779D01*
X-35533961Y-28321779D02*
X-35402881Y-28499404D01*
X-35402881Y-28499404D02*
X-35170911Y-28732397D01*
X-35170911Y-28732397D02*
X-34892461Y-28933783D01*
X-34892461Y-28933783D02*
X-34588791Y-29090466D01*
X-34588791Y-29090466D02*
X-34434161Y-29147956D01*
X-34434161Y-29147956D02*
X-34281211Y-29189356D01*
X-34281211Y-29189356D02*
X-34053901Y-29223006D01*
X-34053901Y-29223006D02*
X-33809731Y-29231906D01*
X-33809731Y-29231906D02*
X-33568021Y-29216296D01*
X-33568021Y-29216296D02*
X-33348091Y-29176476D01*
X-33348091Y-29176476D02*
X-33348091Y-29176456D01*
X-33348091Y-29176456D02*
X-33348571Y-29176432D01*
X-9277031Y-11605221D02*
X-9302831Y-11735061D01*
X-9302831Y-11735061D02*
X-9376331Y-11845133D01*
X-9376331Y-11845133D02*
X-9486401Y-11918683D01*
X-9486401Y-11918683D02*
X-9616241Y-11944503D01*
X-9616241Y-11944503D02*
X-9748301Y-11917843D01*
X-9748301Y-11917843D02*
X-9856151Y-11845133D01*
X-9856151Y-11845133D02*
X-9928851Y-11737288D01*
X-9928851Y-11737288D02*
X-9955551Y-11605224D01*
X-9955551Y-11605224D02*
X-9928851Y-11473160D01*
X-9928851Y-11473160D02*
X-9856151Y-11365315D01*
X-9856151Y-11365315D02*
X-9748301Y-11292605D01*
X-9748301Y-11292605D02*
X-9616241Y-11265945D01*
X-9616241Y-11265945D02*
X-9486401Y-11291775D01*
X-9486401Y-11291775D02*
X-9376331Y-11365325D01*
X-9376331Y-11365325D02*
X-9302831Y-11475397D01*
X-9302831Y-11475397D02*
X-9277031Y-11605237D01*
X-9277031Y-11605237D02*
X-9277031Y-11605237D01*
X-9277031Y-11605237D02*
X-9277031Y-11605221D01*
X-7999771Y-12878883D02*
X-8026471Y-13010947D01*
X-8026471Y-13010947D02*
X-8099171Y-13118792D01*
X-8099171Y-13118792D02*
X-8207021Y-13191502D01*
X-8207021Y-13191502D02*
X-8339081Y-13218162D01*
X-8339081Y-13218162D02*
X-8468921Y-13192342D01*
X-8468921Y-13192342D02*
X-8578991Y-13118792D01*
X-8578991Y-13118792D02*
X-8652591Y-13008720D01*
X-8652591Y-13008720D02*
X-8678391Y-12878880D01*
X-8678391Y-12878880D02*
X-8652591Y-12749040D01*
X-8652591Y-12749040D02*
X-8578991Y-12638968D01*
X-8578991Y-12638968D02*
X-8468921Y-12565418D01*
X-8468921Y-12565418D02*
X-8339081Y-12539598D01*
X-8339081Y-12539598D02*
X-8207021Y-12566258D01*
X-8207021Y-12566258D02*
X-8099171Y-12638968D01*
X-8099171Y-12638968D02*
X-8026471Y-12746813D01*
X-8026471Y-12746813D02*
X-7999771Y-12878877D01*
X-7999771Y-12878877D02*
X-7999771Y-12878877D01*
X-7999771Y-12878877D02*
X-7999771Y-12878883D01*
X-10543621Y-12884922D02*
X-10569421Y-13014762D01*
X-10569421Y-13014762D02*
X-10643021Y-13124834D01*
X-10643021Y-13124834D02*
X-10753091Y-13198384D01*
X-10753091Y-13198384D02*
X-10882931Y-13224214D01*
X-10882931Y-13224214D02*
X-11014991Y-13197554D01*
X-11014991Y-13197554D02*
X-11122841Y-13124844D01*
X-11122841Y-13124844D02*
X-11195541Y-13016999D01*
X-11195541Y-13016999D02*
X-11222241Y-12884935D01*
X-11222241Y-12884935D02*
X-11195541Y-12752871D01*
X-11195541Y-12752871D02*
X-11122841Y-12645026D01*
X-11122841Y-12645026D02*
X-11014991Y-12572316D01*
X-11014991Y-12572316D02*
X-10882931Y-12545656D01*
X-10882931Y-12545656D02*
X-10753091Y-12571476D01*
X-10753091Y-12571476D02*
X-10643021Y-12645026D01*
X-10643021Y-12645026D02*
X-10569421Y-12755098D01*
X-10569421Y-12755098D02*
X-10543621Y-12884938D01*
X-10543621Y-12884938D02*
X-10543621Y-12884938D01*
X-10543621Y-12884938D02*
X-10543621Y-12884922D01*
X-2166841Y418198D02*
X-2175841Y329528D01*
X-2175841Y329528D02*
X-2201541Y245078D01*
X-2201541Y245078D02*
X-2243141Y167218D01*
X-2243141Y167218D02*
X-2299641Y98318D01*
X-2299641Y98318D02*
X-2368541Y41828D01*
X-2368541Y41828D02*
X-2446441Y258D01*
X-2446441Y258D02*
X-2530941Y-25402D01*
X-2530941Y-25402D02*
X-2619641Y-34202D01*
X-2619641Y-34202D02*
X-2708341Y-25402D01*
X-2708341Y-25402D02*
X-2792841Y258D01*
X-2792841Y258D02*
X-2870741Y41828D01*
X-2870741Y41828D02*
X-2939641Y98318D01*
X-2939641Y98318D02*
X-2996141Y167218D01*
X-2996141Y167218D02*
X-3037741Y245078D01*
X-3037741Y245078D02*
X-3063441Y329528D01*
X-3063441Y329528D02*
X-3072441Y418198D01*
X-3072441Y418198D02*
X-3063441Y506868D01*
X-3063441Y506868D02*
X-3037741Y591318D01*
X-3037741Y591318D02*
X-2996141Y669178D01*
X-2996141Y669178D02*
X-2939641Y738078D01*
X-2939641Y738078D02*
X-2870741Y794568D01*
X-2870741Y794568D02*
X-2792841Y836138D01*
X-2792841Y836138D02*
X-2708341Y861798D01*
X-2708341Y861798D02*
X-2619641Y870598D01*
X-2619641Y870598D02*
X-2530941Y861798D01*
X-2530941Y861798D02*
X-2446441Y836138D01*
X-2446441Y836138D02*
X-2368541Y794568D01*
X-2368541Y794568D02*
X-2299641Y738078D01*
X-2299641Y738078D02*
X-2243141Y669178D01*
X-2243141Y669178D02*
X-2201541Y591318D01*
X-2201541Y591318D02*
X-2175841Y506868D01*
X-2175841Y506868D02*
X-2166841Y418198D01*
X-2166841Y418198D02*
X-2166841Y418198D01*
X-2166841Y418198D02*
X-2166841Y418198D01*
X-7866011Y6146900D02*
X-7875011Y6058230D01*
X-7875011Y6058230D02*
X-7900711Y5973780D01*
X-7900711Y5973780D02*
X-7942311Y5895920D01*
X-7942311Y5895920D02*
X-7998811Y5827020D01*
X-7998811Y5827020D02*
X-8067711Y5770530D01*
X-8067711Y5770530D02*
X-8145611Y5728960D01*
X-8145611Y5728960D02*
X-8230111Y5703300D01*
X-8230111Y5703300D02*
X-8318811Y5694500D01*
X-8318811Y5694500D02*
X-8407511Y5703300D01*
X-8407511Y5703300D02*
X-8492011Y5728960D01*
X-8492011Y5728960D02*
X-8569911Y5770530D01*
X-8569911Y5770530D02*
X-8638811Y5827020D01*
X-8638811Y5827020D02*
X-8695311Y5895920D01*
X-8695311Y5895920D02*
X-8736911Y5973780D01*
X-8736911Y5973780D02*
X-8762611Y6058230D01*
X-8762611Y6058230D02*
X-8771611Y6146900D01*
X-8771611Y6146900D02*
X-8762611Y6235570D01*
X-8762611Y6235570D02*
X-8736911Y6320020D01*
X-8736911Y6320020D02*
X-8695311Y6397880D01*
X-8695311Y6397880D02*
X-8638811Y6466780D01*
X-8638811Y6466780D02*
X-8569911Y6523270D01*
X-8569911Y6523270D02*
X-8492011Y6564840D01*
X-8492011Y6564840D02*
X-8407511Y6590500D01*
X-8407511Y6590500D02*
X-8318811Y6599300D01*
X-8318811Y6599300D02*
X-8230111Y6590500D01*
X-8230111Y6590500D02*
X-8145611Y6564840D01*
X-8145611Y6564840D02*
X-8067711Y6523270D01*
X-8067711Y6523270D02*
X-7998811Y6466780D01*
X-7998811Y6466780D02*
X-7942311Y6397880D01*
X-7942311Y6397880D02*
X-7900711Y6320020D01*
X-7900711Y6320020D02*
X-7875011Y6235570D01*
X-7875011Y6235570D02*
X-7866011Y6146900D01*
X-7866011Y6146900D02*
X-7866011Y6146900D01*
X-7866011Y6146900D02*
X-7866011Y6146900D01*
X-2807541Y16303427D02*
X-2816541Y16214757D01*
X-2816541Y16214757D02*
X-2842241Y16130307D01*
X-2842241Y16130307D02*
X-2883841Y16052447D01*
X-2883841Y16052447D02*
X-2940341Y15983547D01*
X-2940341Y15983547D02*
X-3009241Y15927057D01*
X-3009241Y15927057D02*
X-3087141Y15885487D01*
X-3087141Y15885487D02*
X-3171641Y15859827D01*
X-3171641Y15859827D02*
X-3260341Y15851027D01*
X-3260341Y15851027D02*
X-3349041Y15859827D01*
X-3349041Y15859827D02*
X-3433541Y15885487D01*
X-3433541Y15885487D02*
X-3511441Y15927057D01*
X-3511441Y15927057D02*
X-3580341Y15983547D01*
X-3580341Y15983547D02*
X-3636841Y16052447D01*
X-3636841Y16052447D02*
X-3678441Y16130307D01*
X-3678441Y16130307D02*
X-3704141Y16214757D01*
X-3704141Y16214757D02*
X-3713141Y16303427D01*
X-3713141Y16303427D02*
X-3704141Y16392097D01*
X-3704141Y16392097D02*
X-3678441Y16476547D01*
X-3678441Y16476547D02*
X-3636841Y16554407D01*
X-3636841Y16554407D02*
X-3580341Y16623307D01*
X-3580341Y16623307D02*
X-3511441Y16679797D01*
X-3511441Y16679797D02*
X-3433541Y16721367D01*
X-3433541Y16721367D02*
X-3349041Y16747027D01*
X-3349041Y16747027D02*
X-3260341Y16755827D01*
X-3260341Y16755827D02*
X-3171641Y16747027D01*
X-3171641Y16747027D02*
X-3087141Y16721367D01*
X-3087141Y16721367D02*
X-3009241Y16679797D01*
X-3009241Y16679797D02*
X-2940341Y16623307D01*
X-2940341Y16623307D02*
X-2883841Y16554407D01*
X-2883841Y16554407D02*
X-2842241Y16476547D01*
X-2842241Y16476547D02*
X-2816541Y16392097D01*
X-2816541Y16392097D02*
X-2807541Y16303427D01*
X-2807541Y16303427D02*
X-2807541Y16303427D01*
X-2807541Y16303427D02*
X-2807541Y16303427D01*
X7361679Y4244739D02*
X7352679Y4156069D01*
X7352679Y4156069D02*
X7326979Y4071619D01*
X7326979Y4071619D02*
X7285379Y3993759D01*
X7285379Y3993759D02*
X7228879Y3924859D01*
X7228879Y3924859D02*
X7159979Y3868369D01*
X7159979Y3868369D02*
X7082079Y3826799D01*
X7082079Y3826799D02*
X6997579Y3801139D01*
X6997579Y3801139D02*
X6908879Y3792339D01*
X6908879Y3792339D02*
X6820179Y3801139D01*
X6820179Y3801139D02*
X6735679Y3826799D01*
X6735679Y3826799D02*
X6657779Y3868369D01*
X6657779Y3868369D02*
X6588879Y3924859D01*
X6588879Y3924859D02*
X6532379Y3993759D01*
X6532379Y3993759D02*
X6490779Y4071619D01*
X6490779Y4071619D02*
X6465079Y4156069D01*
X6465079Y4156069D02*
X6456079Y4244739D01*
X6456079Y4244739D02*
X6465079Y4333409D01*
X6465079Y4333409D02*
X6490779Y4417859D01*
X6490779Y4417859D02*
X6532379Y4495719D01*
X6532379Y4495719D02*
X6588879Y4564619D01*
X6588879Y4564619D02*
X6657779Y4621109D01*
X6657779Y4621109D02*
X6735679Y4662679D01*
X6735679Y4662679D02*
X6820179Y4688339D01*
X6820179Y4688339D02*
X6908879Y4697139D01*
X6908879Y4697139D02*
X6997579Y4688339D01*
X6997579Y4688339D02*
X7082079Y4662679D01*
X7082079Y4662679D02*
X7159979Y4621109D01*
X7159979Y4621109D02*
X7228879Y4564619D01*
X7228879Y4564619D02*
X7285379Y4495719D01*
X7285379Y4495719D02*
X7326979Y4417859D01*
X7326979Y4417859D02*
X7352679Y4333409D01*
X7352679Y4333409D02*
X7361679Y4244739D01*
X7361679Y4244739D02*
X7361679Y4244739D01*
X7361679Y4244739D02*
X7361679Y4244739D01*
X9901829Y27718120D02*
X9892829Y27629450D01*
X9892829Y27629450D02*
X9867129Y27545000D01*
X9867129Y27545000D02*
X9825529Y27467140D01*
X9825529Y27467140D02*
X9769029Y27398240D01*
X9769029Y27398240D02*
X9700129Y27341750D01*
X9700129Y27341750D02*
X9622229Y27300180D01*
X9622229Y27300180D02*
X9537729Y27274520D01*
X9537729Y27274520D02*
X9449029Y27265720D01*
X9449029Y27265720D02*
X9360329Y27274520D01*
X9360329Y27274520D02*
X9275829Y27300180D01*
X9275829Y27300180D02*
X9197929Y27341750D01*
X9197929Y27341750D02*
X9129029Y27398240D01*
X9129029Y27398240D02*
X9072529Y27467140D01*
X9072529Y27467140D02*
X9030929Y27545000D01*
X9030929Y27545000D02*
X9005229Y27629450D01*
X9005229Y27629450D02*
X8996229Y27718120D01*
X8996229Y27718120D02*
X9005229Y27806790D01*
X9005229Y27806790D02*
X9030929Y27891240D01*
X9030929Y27891240D02*
X9072529Y27969100D01*
X9072529Y27969100D02*
X9129029Y28038000D01*
X9129029Y28038000D02*
X9197929Y28094490D01*
X9197929Y28094490D02*
X9275829Y28136060D01*
X9275829Y28136060D02*
X9360329Y28161720D01*
X9360329Y28161720D02*
X9449029Y28170520D01*
X9449029Y28170520D02*
X9537729Y28161720D01*
X9537729Y28161720D02*
X9622229Y28136060D01*
X9622229Y28136060D02*
X9700129Y28094490D01*
X9700129Y28094490D02*
X9769029Y28038000D01*
X9769029Y28038000D02*
X9825529Y27969100D01*
X9825529Y27969100D02*
X9867129Y27891240D01*
X9867129Y27891240D02*
X9892829Y27806790D01*
X9892829Y27806790D02*
X9901829Y27718120D01*
X9901829Y27718120D02*
X9901829Y27718120D01*
X9901829Y27718120D02*
X9901829Y27718120D01*
X-1535091Y31510909D02*
X-1544091Y31422239D01*
X-1544091Y31422239D02*
X-1569791Y31337789D01*
X-1569791Y31337789D02*
X-1611391Y31259929D01*
X-1611391Y31259929D02*
X-1667891Y31191029D01*
X-1667891Y31191029D02*
X-1736791Y31134539D01*
X-1736791Y31134539D02*
X-1814691Y31092969D01*
X-1814691Y31092969D02*
X-1899191Y31067309D01*
X-1899191Y31067309D02*
X-1987891Y31058509D01*
X-1987891Y31058509D02*
X-2076591Y31067309D01*
X-2076591Y31067309D02*
X-2161091Y31092969D01*
X-2161091Y31092969D02*
X-2238991Y31134539D01*
X-2238991Y31134539D02*
X-2307891Y31191029D01*
X-2307891Y31191029D02*
X-2364391Y31259929D01*
X-2364391Y31259929D02*
X-2405991Y31337789D01*
X-2405991Y31337789D02*
X-2431691Y31422239D01*
X-2431691Y31422239D02*
X-2440691Y31510909D01*
X-2440691Y31510909D02*
X-2431691Y31599579D01*
X-2431691Y31599579D02*
X-2405991Y31684029D01*
X-2405991Y31684029D02*
X-2364391Y31761889D01*
X-2364391Y31761889D02*
X-2307891Y31830789D01*
X-2307891Y31830789D02*
X-2238991Y31887279D01*
X-2238991Y31887279D02*
X-2161091Y31928849D01*
X-2161091Y31928849D02*
X-2076591Y31954509D01*
X-2076591Y31954509D02*
X-1987891Y31963309D01*
X-1987891Y31963309D02*
X-1899191Y31954509D01*
X-1899191Y31954509D02*
X-1814691Y31928849D01*
X-1814691Y31928849D02*
X-1736791Y31887279D01*
X-1736791Y31887279D02*
X-1667891Y31830789D01*
X-1667891Y31830789D02*
X-1611391Y31761889D01*
X-1611391Y31761889D02*
X-1569791Y31684029D01*
X-1569791Y31684029D02*
X-1544091Y31599579D01*
X-1544091Y31599579D02*
X-1535091Y31510909D01*
X-1535091Y31510909D02*
X-1535091Y31510909D01*
X-1535091Y31510909D02*
X-1535091Y31510909D01*
X73972389Y12559925D02*
X73946589Y12430085D01*
X73946589Y12430085D02*
X73872989Y12320013D01*
X73872989Y12320013D02*
X73762919Y12246463D01*
X73762919Y12246463D02*
X73633079Y12220643D01*
X73633079Y12220643D02*
X73501019Y12247303D01*
X73501019Y12247303D02*
X73393169Y12320013D01*
X73393169Y12320013D02*
X73320469Y12427858D01*
X73320469Y12427858D02*
X73293769Y12559922D01*
X73293769Y12559922D02*
X73320469Y12691986D01*
X73320469Y12691986D02*
X73393169Y12799831D01*
X73393169Y12799831D02*
X73501019Y12872541D01*
X73501019Y12872541D02*
X73633079Y12899201D01*
X73633079Y12899201D02*
X73762919Y12873371D01*
X73762919Y12873371D02*
X73872989Y12799821D01*
X73872989Y12799821D02*
X73946589Y12689749D01*
X73946589Y12689749D02*
X73972389Y12559909D01*
X73972389Y12559909D02*
X73972389Y12559909D01*
X73972389Y12559909D02*
X73972389Y12559925D01*
X75876679Y12551573D02*
X75849979Y12419486D01*
X75849979Y12419486D02*
X75777279Y12311623D01*
X75777279Y12311623D02*
X75669429Y12238903D01*
X75669429Y12238903D02*
X75537369Y12212233D01*
X75537369Y12212233D02*
X75405309Y12238903D01*
X75405309Y12238903D02*
X75297459Y12311623D01*
X75297459Y12311623D02*
X75224759Y12419486D01*
X75224759Y12419486D02*
X75198059Y12551573D01*
X75198059Y12551573D02*
X75224759Y12683659D01*
X75224759Y12683659D02*
X75297459Y12791523D01*
X75297459Y12791523D02*
X75405309Y12864243D01*
X75405309Y12864243D02*
X75537369Y12890913D01*
X75537369Y12890913D02*
X75669429Y12864243D01*
X75669429Y12864243D02*
X75777279Y12791523D01*
X75777279Y12791523D02*
X75849979Y12683659D01*
X75849979Y12683659D02*
X75876679Y12551573D01*
X75876679Y12551573D02*
X75876679Y12551573D01*
X75876679Y12551573D02*
X75876679Y12551573D01*
X102659539Y8766159D02*
X102650539Y8674969D01*
X102650539Y8674969D02*
X102624139Y8590039D01*
X102624139Y8590039D02*
X102582439Y8513189D01*
X102582439Y8513189D02*
X102527239Y8446229D01*
X102527239Y8446229D02*
X102460339Y8390979D01*
X102460339Y8390979D02*
X102383539Y8349259D01*
X102383539Y8349259D02*
X102298639Y8322889D01*
X102298639Y8322889D02*
X102207439Y8313689D01*
X102207439Y8313689D02*
X102118739Y8322489D01*
X102118739Y8322489D02*
X102034239Y8348159D01*
X102034239Y8348159D02*
X101956339Y8389739D01*
X101956339Y8389739D02*
X101887439Y8446239D01*
X101887439Y8446239D02*
X101830939Y8515149D01*
X101830939Y8515149D02*
X101789339Y8593029D01*
X101789339Y8593029D02*
X101763639Y8677499D01*
X101763639Y8677499D02*
X101754639Y8766179D01*
X101754639Y8766179D02*
X101763639Y8854859D01*
X101763639Y8854859D02*
X101789339Y8939329D01*
X101789339Y8939329D02*
X101830939Y9017209D01*
X101830939Y9017209D02*
X101887439Y9086119D01*
X101887439Y9086119D02*
X101956339Y9142619D01*
X101956339Y9142619D02*
X102034239Y9184199D01*
X102034239Y9184199D02*
X102118739Y9209869D01*
X102118739Y9209869D02*
X102207439Y9218669D01*
X102207439Y9218669D02*
X102298639Y9209469D01*
X102298639Y9209469D02*
X102383539Y9183109D01*
X102383539Y9183109D02*
X102460339Y9141389D01*
X102460339Y9141389D02*
X102527239Y9086139D01*
X102527239Y9086139D02*
X102582439Y9019179D01*
X102582439Y9019179D02*
X102624139Y8942329D01*
X102624139Y8942329D02*
X102650539Y8857399D01*
X102650539Y8857399D02*
X102659539Y8766209D01*
X102659539Y8766209D02*
X102659539Y8766209D01*
X102659539Y8766209D02*
X102659539Y8766159D01*
X104248229Y1177105D02*
X104239229Y1088425D01*
X104239229Y1088425D02*
X104213529Y1003955D01*
X104213529Y1003955D02*
X104171929Y926075D01*
X104171929Y926075D02*
X104115429Y857165D01*
X104115429Y857165D02*
X104046529Y800665D01*
X104046529Y800665D02*
X103968629Y759085D01*
X103968629Y759085D02*
X103884129Y733415D01*
X103884129Y733415D02*
X103795429Y724615D01*
X103795429Y724615D02*
X103706729Y733415D01*
X103706729Y733415D02*
X103622229Y759085D01*
X103622229Y759085D02*
X103544329Y800665D01*
X103544329Y800665D02*
X103475429Y857165D01*
X103475429Y857165D02*
X103418929Y926075D01*
X103418929Y926075D02*
X103377329Y1003955D01*
X103377329Y1003955D02*
X103351629Y1088425D01*
X103351629Y1088425D02*
X103342629Y1177105D01*
X103342629Y1177105D02*
X103351629Y1265785D01*
X103351629Y1265785D02*
X103377329Y1350255D01*
X103377329Y1350255D02*
X103418929Y1428125D01*
X103418929Y1428125D02*
X103475429Y1497035D01*
X103475429Y1497035D02*
X103544329Y1553535D01*
X103544329Y1553535D02*
X103622229Y1595115D01*
X103622229Y1595115D02*
X103706729Y1620785D01*
X103706729Y1620785D02*
X103795429Y1629585D01*
X103795429Y1629585D02*
X103884129Y1620785D01*
X103884129Y1620785D02*
X103968629Y1595115D01*
X103968629Y1595115D02*
X104046529Y1553535D01*
X104046529Y1553535D02*
X104115429Y1497035D01*
X104115429Y1497035D02*
X104171929Y1428125D01*
X104171929Y1428125D02*
X104213529Y1350255D01*
X104213529Y1350255D02*
X104239229Y1265785D01*
X104239229Y1265785D02*
X104248229Y1177105D01*
X104248229Y1177105D02*
X104248229Y1177105D01*
X104248229Y1177105D02*
X104248229Y1177105D01*
X109064359Y26533949D02*
X109055359Y26445269D01*
X109055359Y26445269D02*
X109029659Y26360799D01*
X109029659Y26360799D02*
X108988059Y26282919D01*
X108988059Y26282919D02*
X108931559Y26214009D01*
X108931559Y26214009D02*
X108862659Y26157509D01*
X108862659Y26157509D02*
X108784759Y26115929D01*
X108784759Y26115929D02*
X108700359Y26090259D01*
X108700359Y26090259D02*
X108611659Y26081459D01*
X108611659Y26081459D02*
X108520459Y26090659D01*
X108520459Y26090659D02*
X108435559Y26117029D01*
X108435559Y26117029D02*
X108358759Y26158749D01*
X108358759Y26158749D02*
X108291859Y26213999D01*
X108291859Y26213999D02*
X108236659Y26280959D01*
X108236659Y26280959D02*
X108194959Y26357819D01*
X108194959Y26357819D02*
X108168559Y26442749D01*
X108168559Y26442749D02*
X108159559Y26533929D01*
X108159559Y26533929D02*
X108168559Y26625109D01*
X108168559Y26625109D02*
X108194959Y26710039D01*
X108194959Y26710039D02*
X108236659Y26786899D01*
X108236659Y26786899D02*
X108291859Y26853859D01*
X108291859Y26853859D02*
X108358759Y26909109D01*
X108358759Y26909109D02*
X108435559Y26950829D01*
X108435559Y26950829D02*
X108520459Y26977199D01*
X108520459Y26977199D02*
X108611659Y26986399D01*
X108611659Y26986399D02*
X108700359Y26977599D01*
X108700359Y26977599D02*
X108784759Y26951929D01*
X108784759Y26951929D02*
X108862659Y26910349D01*
X108862659Y26910349D02*
X108931559Y26853849D01*
X108931559Y26853849D02*
X108988059Y26784939D01*
X108988059Y26784939D02*
X109029659Y26707059D01*
X109029659Y26707059D02*
X109055359Y26622589D01*
X109055359Y26622589D02*
X109064359Y26533909D01*
X109064359Y26533909D02*
X109064359Y26533909D01*
X109064359Y26533909D02*
X109064359Y26533949D01*
X106497309Y26847059D02*
X106488309Y26755879D01*
X106488309Y26755879D02*
X106461909Y26670949D01*
X106461909Y26670949D02*
X106420209Y26594089D01*
X106420209Y26594089D02*
X106365009Y26527129D01*
X106365009Y26527129D02*
X106298009Y26471879D01*
X106298009Y26471879D02*
X106221209Y26430159D01*
X106221209Y26430159D02*
X106136309Y26403789D01*
X106136309Y26403789D02*
X106045109Y26394589D01*
X106045109Y26394589D02*
X105956409Y26403389D01*
X105956409Y26403389D02*
X105871909Y26429059D01*
X105871909Y26429059D02*
X105794009Y26470639D01*
X105794009Y26470639D02*
X105725109Y26527139D01*
X105725109Y26527139D02*
X105668609Y26596049D01*
X105668609Y26596049D02*
X105627009Y26673929D01*
X105627009Y26673929D02*
X105601309Y26758399D01*
X105601309Y26758399D02*
X105592309Y26847079D01*
X105592309Y26847079D02*
X105601309Y26935759D01*
X105601309Y26935759D02*
X105627009Y27020229D01*
X105627009Y27020229D02*
X105668609Y27098109D01*
X105668609Y27098109D02*
X105725109Y27167019D01*
X105725109Y27167019D02*
X105794009Y27223519D01*
X105794009Y27223519D02*
X105871909Y27265099D01*
X105871909Y27265099D02*
X105956409Y27290769D01*
X105956409Y27290769D02*
X106045109Y27299569D01*
X106045109Y27299569D02*
X106136309Y27290369D01*
X106136309Y27290369D02*
X106221209Y27264009D01*
X106221209Y27264009D02*
X106298009Y27222289D01*
X106298009Y27222289D02*
X106365009Y27167039D01*
X106365009Y27167039D02*
X106420209Y27100079D01*
X106420209Y27100079D02*
X106461909Y27023219D01*
X106461909Y27023219D02*
X106488309Y26938289D01*
X106488309Y26938289D02*
X106497309Y26847109D01*
X106497309Y26847109D02*
X106497309Y26847109D01*
X106497309Y26847109D02*
X106497309Y26847059D01*
X112480099Y-711487D02*
X112471099Y-800167D01*
X112471099Y-800167D02*
X112445399Y-884637D01*
X112445399Y-884637D02*
X112403799Y-962517D01*
X112403799Y-962517D02*
X112347299Y-1031427D01*
X112347299Y-1031427D02*
X112278399Y-1087927D01*
X112278399Y-1087927D02*
X112200499Y-1129507D01*
X112200499Y-1129507D02*
X112115999Y-1155177D01*
X112115999Y-1155177D02*
X112027299Y-1163977D01*
X112027299Y-1163977D02*
X111936099Y-1154777D01*
X111936099Y-1154777D02*
X111851199Y-1128407D01*
X111851199Y-1128407D02*
X111774399Y-1086687D01*
X111774399Y-1086687D02*
X111707399Y-1031437D01*
X111707399Y-1031437D02*
X111652199Y-964477D01*
X111652199Y-964477D02*
X111610499Y-887627D01*
X111610499Y-887627D02*
X111584099Y-802697D01*
X111584099Y-802697D02*
X111575099Y-711507D01*
X111575099Y-711507D02*
X111584099Y-620317D01*
X111584099Y-620317D02*
X111610499Y-535387D01*
X111610499Y-535387D02*
X111652199Y-458537D01*
X111652199Y-458537D02*
X111707399Y-391577D01*
X111707399Y-391577D02*
X111774399Y-336327D01*
X111774399Y-336327D02*
X111851199Y-294607D01*
X111851199Y-294607D02*
X111936099Y-268247D01*
X111936099Y-268247D02*
X112027299Y-259047D01*
X112027299Y-259047D02*
X112115999Y-267847D01*
X112115999Y-267847D02*
X112200499Y-293517D01*
X112200499Y-293517D02*
X112278399Y-335097D01*
X112278399Y-335097D02*
X112347299Y-391597D01*
X112347299Y-391597D02*
X112403799Y-460507D01*
X112403799Y-460507D02*
X112445399Y-538387D01*
X112445399Y-538387D02*
X112471099Y-622857D01*
X112471099Y-622857D02*
X112480099Y-711537D01*
X112480099Y-711537D02*
X112480099Y-711537D01*
X112480099Y-711537D02*
X112480099Y-711487D01*
X-11800951Y-11615765D02*
X-11827651Y-11747829D01*
X-11827651Y-11747829D02*
X-11900351Y-11855674D01*
X-11900351Y-11855674D02*
X-12008201Y-11928384D01*
X-12008201Y-11928384D02*
X-12140261Y-11955044D01*
X-12140261Y-11955044D02*
X-12270101Y-11929214D01*
X-12270101Y-11929214D02*
X-12380171Y-11855664D01*
X-12380171Y-11855664D02*
X-12453671Y-11745591D01*
X-12453671Y-11745591D02*
X-12479471Y-11615751D01*
X-12479471Y-11615751D02*
X-12453671Y-11485911D01*
X-12453671Y-11485911D02*
X-12380171Y-11375838D01*
X-12380171Y-11375838D02*
X-12270101Y-11302288D01*
X-12270101Y-11302288D02*
X-12140261Y-11276468D01*
X-12140261Y-11276468D02*
X-12008201Y-11303128D01*
X-12008201Y-11303128D02*
X-11900351Y-11375838D01*
X-11900351Y-11375838D02*
X-11827651Y-11483683D01*
X-11827651Y-11483683D02*
X-11800951Y-11615747D01*
X-11800951Y-11615747D02*
X-11800951Y-11615747D01*
X-11800951Y-11615747D02*
X-11800951Y-11615765D01*
X109913689Y16862110D02*
X109578829Y17298920D01*
X109578829Y17298920D02*
X109312339Y17682830D01*
X109312339Y17682830D02*
X109109269Y18020336D01*
X109109269Y18020336D02*
X108964689Y18317937D01*
X108964689Y18317937D02*
X108873589Y18582129D01*
X108873589Y18582129D02*
X108831089Y18819410D01*
X108831089Y18819410D02*
X108832089Y19036277D01*
X108832089Y19036277D02*
X108871989Y19239228D01*
X108871989Y19239228D02*
X108945589Y19434760D01*
X108945589Y19434760D02*
X109047979Y19629371D01*
X109047979Y19629371D02*
X109319359Y20041818D01*
X109319359Y20041818D02*
X109646559Y20528549D01*
X109646559Y20528549D02*
X109818719Y20816014D01*
X109818719Y20816014D02*
X109989999Y21141542D01*
X109989999Y21141542D02*
X110084199Y21366683D01*
X110084199Y21366683D02*
X110160099Y21616338D01*
X110160099Y21616338D02*
X110221099Y21893656D01*
X110221099Y21893656D02*
X110270499Y22201787D01*
X110270499Y22201787D02*
X110347899Y22923085D01*
X110347899Y22923085D02*
X110418799Y23805427D01*
X110418799Y23805427D02*
X110509899Y24874007D01*
X110509899Y24874007D02*
X110647769Y26154022D01*
X110647769Y26154022D02*
X110859059Y27670665D01*
X110859059Y27670665D02*
X111000539Y28525596D01*
X111000539Y28525596D02*
X111170359Y29449133D01*
X111170359Y29449133D02*
X109822949Y30255721D01*
X109822949Y30255721D02*
X108993639Y30781138D01*
X108993639Y30781138D02*
X108123939Y31359863D01*
X108123939Y31359863D02*
X107261369Y31970814D01*
X107261369Y31970814D02*
X106453469Y32592911D01*
X106453469Y32592911D02*
X106084859Y32901552D01*
X106084859Y32901552D02*
X105747729Y33205073D01*
X105747729Y33205073D02*
X105448019Y33500841D01*
X105448019Y33500841D02*
X105191679Y33786220D01*
X105191679Y33786220D02*
X30962809Y33880905D01*
X30962809Y33880905D02*
X29373839Y33859053D01*
X29373839Y33859053D02*
X27751739Y33795046D01*
X27751739Y33795046D02*
X26099929Y33699537D01*
X26099929Y33699537D02*
X24421849Y33583180D01*
X24421849Y33583180D02*
X21000619Y33330537D01*
X21000619Y33330537D02*
X19264329Y33215558D01*
X19264329Y33215558D02*
X17515499Y33122346D01*
X17515499Y33122346D02*
X15757569Y33061555D01*
X15757569Y33061555D02*
X13993959Y33043838D01*
X13993959Y33043838D02*
X13111109Y33054461D01*
X13111109Y33054461D02*
X12228119Y33079848D01*
X12228119Y33079848D02*
X11345439Y33121330D01*
X11345439Y33121330D02*
X10463479Y33180240D01*
X10463479Y33180240D02*
X9582679Y33257908D01*
X9582679Y33257908D02*
X8703459Y33355667D01*
X8703459Y33355667D02*
X7826259Y33474848D01*
X7826259Y33474848D02*
X6951509Y33616783D01*
X6951509Y33616783D02*
X6079629Y33782804D01*
X6079629Y33782804D02*
X5211049Y33974242D01*
X5211049Y33974242D02*
X4346199Y34192429D01*
X4346199Y34192429D02*
X3485519Y34438697D01*
X3485519Y34438697D02*
X2392789Y34644497D01*
X2392789Y34644497D02*
X1292559Y34880703D01*
X1292559Y34880703D02*
X192259Y35100530D01*
X192259Y35100530D02*
X-355611Y35189681D01*
X-355611Y35189681D02*
X-900711Y35257193D01*
X-900711Y35257193D02*
X-1442131Y35297217D01*
X-1442131Y35297217D02*
X-1978931Y35303907D01*
X-1978931Y35303907D02*
X-2510191Y35271412D01*
X-2510191Y35271412D02*
X-3034991Y35193885D01*
X-3034991Y35193885D02*
X-3552381Y35065477D01*
X-3552381Y35065477D02*
X-3808021Y34980366D01*
X-3808021Y34980366D02*
X-4061461Y34880342D01*
X-4061461Y34880342D02*
X-4312581Y34764673D01*
X-4312581Y34764673D02*
X-4561281Y34632630D01*
X-4561281Y34632630D02*
X-4807441Y34483480D01*
X-4807441Y34483480D02*
X-5050931Y34316493D01*
X-5050931Y34316493D02*
X-5106531Y34259871D01*
X-5106531Y34259871D02*
X-5142831Y34187540D01*
X-5142831Y34187540D02*
X-5162731Y34101580D01*
X-5162731Y34101580D02*
X-5168731Y34004072D01*
X-5168731Y34004072D02*
X-5151431Y33782729D01*
X-5151431Y33782729D02*
X-5112831Y33540153D01*
X-5112831Y33540153D02*
X-5075231Y33292985D01*
X-5075231Y33292985D02*
X-5060831Y33057864D01*
X-5060831Y33057864D02*
X-5068831Y32950023D01*
X-5068831Y32950023D02*
X-5091431Y32851433D01*
X-5091431Y32851433D02*
X-5130931Y32764173D01*
X-5130931Y32764173D02*
X-5190131Y32690333D01*
X-5190131Y32690333D02*
X-7996461Y30725902D01*
X-7996461Y30725902D02*
X-16134811Y30735402D01*
X-16134811Y30735402D02*
X-16134811Y27171232D01*
X-16134811Y27171232D02*
X-17974751Y27142602D01*
X-17974751Y27142602D02*
X-18166221Y27106782D01*
X-18166221Y27106782D02*
X-18258721Y27076622D01*
X-18258721Y27076622D02*
X-18345721Y27025902D01*
X-18345721Y27025902D02*
X-18424721Y26945312D01*
X-18424721Y26945312D02*
X-18493321Y26825564D01*
X-18493321Y26825564D02*
X-18549021Y26657354D01*
X-18549021Y26657354D02*
X-18589321Y26431385D01*
X-18589321Y26431385D02*
X-18637321Y17419386D01*
X-18637321Y17419386D02*
X-33227601Y16927170D01*
X-33227601Y16927170D02*
X-35360591Y17191318D01*
X-35360591Y17191318D02*
X-47801761Y22210392D01*
X-47801761Y22210392D02*
X-54136121Y22147912D01*
X-54136121Y22147912D02*
X-62977221Y32019237D01*
X-62977221Y32019237D02*
X-81583163Y32469393D01*
X-81583163Y32469393D02*
X-87948432Y37298344D01*
X-87948432Y37298344D02*
X-98913652Y37263054D01*
X-98913652Y37263054D02*
X-99871009Y36643728D01*
X-99871009Y36643728D02*
X-102016840Y35281234D01*
X-102016840Y35281234D02*
X-103195010Y34553559D01*
X-103195010Y34553559D02*
X-104261789Y33918802D01*
X-104261789Y33918802D02*
X-105081007Y33469867D01*
X-105081007Y33469867D02*
X-105355229Y33344116D01*
X-105355229Y33344116D02*
X-105516496Y33299659D01*
X-105516496Y33299659D02*
X-109248519Y33305979D01*
X-109248519Y33305979D02*
X-109248519Y4164889D01*
X-109248519Y4164889D02*
X-78489806Y3801087D01*
X-78489806Y3801087D02*
X-77608761Y3512794D01*
X-77608761Y3512794D02*
X-76725442Y3194863D01*
X-76725442Y3194863D02*
X-75841375Y2849982D01*
X-75841375Y2849982D02*
X-74958089Y2480839D01*
X-74958089Y2480839D02*
X-74077111Y2090121D01*
X-74077111Y2090121D02*
X-73199969Y1680515D01*
X-73199969Y1680515D02*
X-72328188Y1254710D01*
X-72328188Y1254710D02*
X-71463298Y815392D01*
X-71463298Y815392D02*
X-69760297Y-93032D01*
X-69760297Y-93032D02*
X-68103185Y-1023256D01*
X-68103185Y-1023256D02*
X-66504180Y-1953780D01*
X-66504180Y-1953780D02*
X-64975501Y-2863105D01*
X-64975501Y-2863105D02*
X-45611821Y-26113710D01*
X-45611821Y-26113710D02*
X-44404141Y-26113710D01*
X-44404141Y-26113710D02*
X-34151541Y-34679595D01*
X-34151541Y-34679595D02*
X-25570571Y-26113710D01*
X-25570571Y-26113710D02*
X-19253081Y-26113710D01*
X-19253081Y-26113710D02*
X-19144771Y-26121110D01*
X-19144771Y-26121110D02*
X-19044411Y-26143740D01*
X-19044411Y-26143740D02*
X-18953711Y-26182050D01*
X-18953711Y-26182050D02*
X-18874511Y-26236530D01*
X-18874511Y-26236530D02*
X-18808511Y-26307650D01*
X-18808511Y-26307650D02*
X-18757511Y-26395900D01*
X-18757511Y-26395900D02*
X-18723211Y-26501757D01*
X-18723211Y-26501757D02*
X-18707411Y-26625706D01*
X-18707411Y-26625706D02*
X-18494511Y-31336007D01*
X-18494511Y-31336007D02*
X-18450111Y-31762864D01*
X-18450111Y-31762864D02*
X-18382311Y-32198111D01*
X-18382311Y-32198111D02*
X-18287011Y-32638272D01*
X-18287011Y-32638272D02*
X-18160081Y-33079872D01*
X-18160081Y-33079872D02*
X-17997481Y-33519432D01*
X-17997481Y-33519432D02*
X-17795121Y-33953478D01*
X-17795121Y-33953478D02*
X-17548931Y-34378533D01*
X-17548931Y-34378533D02*
X-17254831Y-34791120D01*
X-17254831Y-34791120D02*
X-16908731Y-35187763D01*
X-16908731Y-35187763D02*
X-16506551Y-35564986D01*
X-16506551Y-35564986D02*
X-16044211Y-35919313D01*
X-16044211Y-35919313D02*
X-15517621Y-36247266D01*
X-15517621Y-36247266D02*
X-15228971Y-36400267D01*
X-15228971Y-36400267D02*
X-14922721Y-36545370D01*
X-14922721Y-36545370D02*
X-14598371Y-36682142D01*
X-14598371Y-36682142D02*
X-14255411Y-36810149D01*
X-14255411Y-36810149D02*
X-13893331Y-36928954D01*
X-13893331Y-36928954D02*
X-13511611Y-37038125D01*
X-13511611Y-37038125D02*
X-13109761Y-37137225D01*
X-13109761Y-37137225D02*
X-12687251Y-37225825D01*
X-12687251Y-37225825D02*
X14138819Y-37298205D01*
X14138819Y-37298205D02*
X14167219Y-36450703D01*
X14167219Y-36450703D02*
X14238419Y-35639239D01*
X14238419Y-35639239D02*
X14349889Y-34865460D01*
X14349889Y-34865460D02*
X14499039Y-34131011D01*
X14499039Y-34131011D02*
X14683279Y-33437539D01*
X14683279Y-33437539D02*
X14900009Y-32786691D01*
X14900009Y-32786691D02*
X15146659Y-32180113D01*
X15146659Y-32180113D02*
X15420639Y-31619452D01*
X15420639Y-31619452D02*
X15719339Y-31106354D01*
X15719339Y-31106354D02*
X16040189Y-30642466D01*
X16040189Y-30642466D02*
X16380599Y-30229434D01*
X16380599Y-30229434D02*
X16737969Y-29868905D01*
X16737969Y-29868905D02*
X17109719Y-29562524D01*
X17109719Y-29562524D02*
X17493259Y-29311939D01*
X17493259Y-29311939D02*
X17885989Y-29118797D01*
X17885989Y-29118797D02*
X18285339Y-28984742D01*
X18285339Y-28984742D02*
X18486689Y-28940392D01*
X18486689Y-28940392D02*
X18688709Y-28911432D01*
X18688709Y-28911432D02*
X18891099Y-28898062D01*
X18891099Y-28898062D02*
X19093519Y-28900462D01*
X19093519Y-28900462D02*
X19295649Y-28918902D01*
X19295649Y-28918902D02*
X19497169Y-28953552D01*
X19497169Y-28953552D02*
X19697749Y-29004622D01*
X19697749Y-29004622D02*
X19897069Y-29072312D01*
X19897069Y-29072312D02*
X20094809Y-29156832D01*
X20094809Y-29156832D02*
X20290639Y-29258393D01*
X20290639Y-29258393D02*
X20484239Y-29377196D01*
X20484239Y-29377196D02*
X20675279Y-29513446D01*
X20675279Y-29513446D02*
X20863449Y-29667350D01*
X20863449Y-29667350D02*
X21048419Y-29839113D01*
X21048419Y-29839113D02*
X21229859Y-30028942D01*
X21229859Y-30028942D02*
X21407449Y-30237041D01*
X21407449Y-30237041D02*
X21749799Y-30708875D01*
X21749799Y-30708875D02*
X22072859Y-31256263D01*
X22072859Y-31256263D02*
X22374059Y-31880850D01*
X22374059Y-31880850D02*
X22650799Y-32584284D01*
X22650799Y-32584284D02*
X22900499Y-33368211D01*
X22900499Y-33368211D02*
X23120559Y-34234276D01*
X23120559Y-34234276D02*
X23308399Y-35184128D01*
X23308399Y-35184128D02*
X23461429Y-36219412D01*
X23461429Y-36219412D02*
X47808759Y-36693412D01*
X47808759Y-36693412D02*
X47902159Y-34348082D01*
X47902159Y-34348082D02*
X48115239Y-34106880D01*
X48115239Y-34106880D02*
X48366579Y-33881784D01*
X48366579Y-33881784D02*
X48651939Y-33676590D01*
X48651939Y-33676590D02*
X48967069Y-33495093D01*
X48967069Y-33495093D02*
X49307719Y-33341088D01*
X49307719Y-33341088D02*
X49669649Y-33218369D01*
X49669649Y-33218369D02*
X50048609Y-33130729D01*
X50048609Y-33130729D02*
X50440359Y-33081969D01*
X50440359Y-33081969D02*
X50840639Y-33075869D01*
X50840639Y-33075869D02*
X51245209Y-33116249D01*
X51245209Y-33116249D02*
X51649819Y-33206889D01*
X51649819Y-33206889D02*
X52050229Y-33351586D01*
X52050229Y-33351586D02*
X52442179Y-33554134D01*
X52442179Y-33554134D02*
X52633659Y-33678289D01*
X52633659Y-33678289D02*
X52821439Y-33818329D01*
X52821439Y-33818329D02*
X53004979Y-33974730D01*
X53004979Y-33974730D02*
X53183749Y-34147965D01*
X53183749Y-34147965D02*
X53357219Y-34338510D01*
X53357219Y-34338510D02*
X53524869Y-34546838D01*
X53524869Y-34546838D02*
X53544269Y-36355474D01*
X53544269Y-36355474D02*
X54763989Y-36105300D01*
X54763989Y-36105300D02*
X55972459Y-35840387D01*
X55972459Y-35840387D02*
X58356879Y-35274977D01*
X58356879Y-35274977D02*
X60699949Y-34676512D01*
X60699949Y-34676512D02*
X63004109Y-34062258D01*
X63004109Y-34062258D02*
X65271789Y-33449483D01*
X65271789Y-33449483D02*
X67505439Y-32855454D01*
X67505439Y-32855454D02*
X69707469Y-32297437D01*
X69707469Y-32297437D02*
X71880319Y-31792702D01*
X71880319Y-31792702D02*
X72956569Y-31565710D01*
X72956569Y-31565710D02*
X74026429Y-31358513D01*
X74026429Y-31358513D02*
X75090219Y-31173270D01*
X75090219Y-31173270D02*
X76148239Y-31012139D01*
X76148239Y-31012139D02*
X77200789Y-30877279D01*
X77200789Y-30877279D02*
X78248169Y-30770847D01*
X78248169Y-30770847D02*
X79290699Y-30695007D01*
X79290699Y-30695007D02*
X80328669Y-30651907D01*
X80328669Y-30651907D02*
X81362379Y-30643707D01*
X81362379Y-30643707D02*
X82392149Y-30672577D01*
X82392149Y-30672577D02*
X83418279Y-30740667D01*
X83418279Y-30740667D02*
X84441059Y-30850135D01*
X84441059Y-30850135D02*
X85460819Y-31003140D01*
X85460819Y-31003140D02*
X86477839Y-31201841D01*
X86477839Y-31201841D02*
X87492439Y-31448397D01*
X87492439Y-31448397D02*
X88504909Y-31744965D01*
X88504909Y-31744965D02*
X88626649Y-31763755D01*
X88626649Y-31763755D02*
X88746219Y-31743435D01*
X88746219Y-31743435D02*
X88863659Y-31686385D01*
X88863659Y-31686385D02*
X88978969Y-31595005D01*
X88978969Y-31595005D02*
X89092179Y-31471674D01*
X89092179Y-31471674D02*
X89203309Y-31318784D01*
X89203309Y-31318784D02*
X89419419Y-30933871D01*
X89419419Y-30933871D02*
X89627479Y-30459365D01*
X89627479Y-30459365D02*
X89827659Y-29914365D01*
X89827659Y-29914365D02*
X90020119Y-29317971D01*
X90020119Y-29317971D02*
X90205049Y-28689281D01*
X90205049Y-28689281D02*
X90872819Y-26233551D01*
X90872819Y-26233551D02*
X91022639Y-25729873D01*
X91022639Y-25729873D02*
X91165959Y-25308493D01*
X91165959Y-25308493D02*
X91302949Y-24988513D01*
X91302949Y-24988513D02*
X91369149Y-24872516D01*
X91369149Y-24872516D02*
X91433849Y-24789026D01*
X91433849Y-24789026D02*
X91549059Y-24683296D01*
X91549059Y-24683296D02*
X91669529Y-24597156D01*
X91669529Y-24597156D02*
X91920079Y-24472118D01*
X91920079Y-24472118D02*
X92173029Y-24390878D01*
X92173029Y-24390878D02*
X92415919Y-24330418D01*
X92415919Y-24330418D02*
X92636299Y-24267698D01*
X92636299Y-24267698D02*
X92821709Y-24179688D01*
X92821709Y-24179688D02*
X92897409Y-24119008D01*
X92897409Y-24119008D02*
X92959709Y-24043358D01*
X92959709Y-24043358D02*
X93007009Y-23949878D01*
X93007009Y-23949878D02*
X93037809Y-23835679D01*
X93037809Y-23835679D02*
X93526389Y-21048048D01*
X93526389Y-21048048D02*
X96043199Y-21196098D01*
X96043199Y-21196098D02*
X95931469Y-19133113D01*
X95931469Y-19133113D02*
X100309659Y-19118333D01*
X100309659Y-19118333D02*
X100328059Y-16128006D01*
X100328059Y-16128006D02*
X102070309Y-16128006D01*
X102070309Y-16128006D02*
X102806969Y-14490982D01*
X102806969Y-14490982D02*
X104903789Y-14471592D01*
X104903789Y-14471592D02*
X105028679Y-13403534D01*
X105028679Y-13403534D02*
X106637849Y-13302917D01*
X106637849Y-13302917D02*
X108287649Y-13177707D01*
X108287649Y-13177707D02*
X109104819Y-13097497D01*
X109104819Y-13097497D02*
X109904559Y-13001087D01*
X109904559Y-13001087D02*
X110677699Y-12885118D01*
X110677699Y-12885118D02*
X111415029Y-12746240D01*
X111415029Y-12746240D02*
X112107359Y-12581100D01*
X112107359Y-12581100D02*
X112745509Y-12386347D01*
X112745509Y-12386347D02*
X113320269Y-12158628D01*
X113320269Y-12158628D02*
X113581009Y-12031359D01*
X113581009Y-12031359D02*
X113822459Y-11894591D01*
X113822459Y-11894591D02*
X114043469Y-11747906D01*
X114043469Y-11747906D02*
X114006669Y-11381794D01*
X114006669Y-11381794D02*
X113979269Y-10945713D01*
X113979269Y-10945713D02*
X113946269Y-9900006D01*
X113946269Y-9900006D02*
X113921969Y-7368954D01*
X113921969Y-7368954D02*
X113904669Y-6029062D01*
X113904669Y-6029062D02*
X113866769Y-4736562D01*
X113866769Y-4736562D02*
X113795169Y-3564181D01*
X113795169Y-3564181D02*
X113742669Y-3045761D01*
X113742669Y-3045761D02*
X113676969Y-2584644D01*
X113676969Y-2584644D02*
X113560159Y-2064615D01*
X113560159Y-2064615D02*
X113489359Y-1563318D01*
X113489359Y-1563318D02*
X113451559Y-1083633D01*
X113451559Y-1083633D02*
X113433959Y-628436D01*
X113433959Y-628436D02*
X113407659Y196981D01*
X113407659Y196981D02*
X113373159Y561447D01*
X113373159Y561447D02*
X113307159Y889913D01*
X113307159Y889913D02*
X113102099Y1575009D01*
X113102099Y1575009D02*
X112865499Y2298916D01*
X112865499Y2298916D02*
X112352029Y3806910D01*
X112352029Y3806910D02*
X112102349Y4562869D01*
X112102349Y4562869D02*
X111875509Y5301385D01*
X111875509Y5301385D02*
X111685089Y6008394D01*
X111685089Y6008394D02*
X111544689Y6669831D01*
X111544689Y6669831D02*
X111408079Y7569285D01*
X111408079Y7569285D02*
X111312079Y8452420D01*
X111312079Y8452420D02*
X111252079Y9315277D01*
X111252079Y9315277D02*
X111223479Y10153897D01*
X111223479Y10153897D02*
X111221479Y10964322D01*
X111221479Y10964322D02*
X111241779Y11742593D01*
X111241779Y11742593D02*
X111279479Y12484752D01*
X111279479Y12484752D02*
X111330079Y13186839D01*
X111330079Y13186839D02*
X111451229Y14454962D01*
X111451229Y14454962D02*
X111568119Y15515294D01*
X111568119Y15515294D02*
X111643719Y16336163D01*
X111643719Y16336163D02*
X111654419Y16646903D01*
X111654419Y16646903D02*
X111640919Y16885901D01*
X111640919Y16885901D02*
X111088069Y16903141D01*
X111088069Y16903141D02*
X110512709Y16895441D01*
X110512709Y16895441D02*
X109914409Y16862161D01*
X109914409Y16862161D02*
X109914319Y16862156D01*
X109914319Y16862156D02*
X109913689Y16862110D01*
X-9328781Y-29123117D02*
X-9079161Y-29042397D01*
X-9079161Y-29042397D02*
X-8852261Y-28931809D01*
X-8852261Y-28931809D02*
X-8639281Y-28786223D01*
X-8639281Y-28786223D02*
X-8431411Y-28600507D01*
X-8431411Y-28600507D02*
X-8290971Y-28450688D01*
X-8290971Y-28450688D02*
X-8170801Y-28300559D01*
X-8170801Y-28300559D02*
X-8070011Y-28148176D01*
X-8070011Y-28148176D02*
X-7987711Y-27991600D01*
X-7987711Y-27991600D02*
X-7923011Y-27828889D01*
X-7923011Y-27828889D02*
X-7875011Y-27658102D01*
X-7875011Y-27658102D02*
X-7842811Y-27477297D01*
X-7842811Y-27477297D02*
X-7825511Y-27284533D01*
X-7825511Y-27284533D02*
X-7831511Y-26933819D01*
X-7831511Y-26933819D02*
X-7887311Y-26604556D01*
X-7887311Y-26604556D02*
X-7991871Y-26299003D01*
X-7991871Y-26299003D02*
X-8144661Y-26019420D01*
X-8144661Y-26019420D02*
X-8260961Y-25862980D01*
X-8260961Y-25862980D02*
X-8394271Y-25716630D01*
X-8394271Y-25716630D02*
X-8542001Y-25582155D01*
X-8542001Y-25582155D02*
X-8701551Y-25461341D01*
X-8701551Y-25461341D02*
X-8870321Y-25355977D01*
X-8870321Y-25355977D02*
X-9045731Y-25267847D01*
X-9045731Y-25267847D02*
X-9225181Y-25198737D01*
X-9225181Y-25198737D02*
X-9406081Y-25150437D01*
X-9406081Y-25150437D02*
X-9637391Y-25110447D01*
X-9637391Y-25110447D02*
X-9837391Y-25095787D01*
X-9837391Y-25095787D02*
X-10032061Y-25106177D01*
X-10032061Y-25106177D02*
X-10247381Y-25141327D01*
X-10247381Y-25141327D02*
X-10451701Y-25189927D01*
X-10451701Y-25189927D02*
X-10621721Y-25250487D01*
X-10621721Y-25250487D02*
X-10786511Y-25335677D01*
X-10786511Y-25335677D02*
X-10975201Y-25458163D01*
X-10975201Y-25458163D02*
X-11148921Y-25592758D01*
X-11148921Y-25592758D02*
X-11304001Y-25742472D01*
X-11304001Y-25742472D02*
X-11440191Y-25905557D01*
X-11440191Y-25905557D02*
X-11557261Y-26080261D01*
X-11557261Y-26080261D02*
X-11654961Y-26264834D01*
X-11654961Y-26264834D02*
X-11733061Y-26457527D01*
X-11733061Y-26457527D02*
X-11791361Y-26656588D01*
X-11791361Y-26656588D02*
X-11829561Y-26860269D01*
X-11829561Y-26860269D02*
X-11847361Y-27066818D01*
X-11847361Y-27066818D02*
X-11844361Y-27274486D01*
X-11844361Y-27274486D02*
X-11820861Y-27481521D01*
X-11820861Y-27481521D02*
X-11776361Y-27686175D01*
X-11776361Y-27686175D02*
X-11710561Y-27886697D01*
X-11710561Y-27886697D02*
X-11623261Y-28081336D01*
X-11623261Y-28081336D02*
X-11514171Y-28268342D01*
X-11514171Y-28268342D02*
X-11383091Y-28445966D01*
X-11383091Y-28445966D02*
X-11151121Y-28678963D01*
X-11151121Y-28678963D02*
X-10872671Y-28880349D01*
X-10872671Y-28880349D02*
X-10569001Y-29037032D01*
X-10569001Y-29037032D02*
X-10414371Y-29094522D01*
X-10414371Y-29094522D02*
X-10261421Y-29135922D01*
X-10261421Y-29135922D02*
X-10034111Y-29169552D01*
X-10034111Y-29169552D02*
X-9789941Y-29178452D01*
X-9789941Y-29178452D02*
X-9548231Y-29162862D01*
X-9548231Y-29162862D02*
X-9328301Y-29123072D01*
X-9328301Y-29123072D02*
X-9328301Y-29123113D01*
X-9328301Y-29123113D02*
X-9328781Y-29123117D01*
M02*
